<svg xmlns="http://www.w3.org/2000/svg" width="297mm" height="210mm" viewBox="0 0 297 210" font-family="Arial, Helvetica, sans-serif">
<rect width="297" height="210" fill="#ffffff"/>
<rect x="0.3" y="0.3" width="296.4" height="209.4" fill="none" stroke="#000" stroke-width="0.3"/>
<text x="148.5" y="14" fill="#000" font-size="8" text-anchor="middle" letter-spacing="2.5" font-weight="bold">BLINKY</text>
<text x="148.5" y="20.5" fill="#444" font-size="3.2" text-anchor="middle" letter-spacing="1.2">FRONT PANEL DRILL TEMPLATE - PRINT AT ACTUAL SIZE</text>
<line x1="5.5" y1="7" x2="8.5" y2="7" stroke="#000" stroke-width="0.25"/>
<line x1="7" y1="5.5" x2="7" y2="8.5" stroke="#000" stroke-width="0.25"/>
<line x1="288.5" y1="7" x2="291.5" y2="7" stroke="#000" stroke-width="0.25"/>
<line x1="290" y1="5.5" x2="290" y2="8.5" stroke="#000" stroke-width="0.25"/>
<line x1="5.5" y1="203" x2="8.5" y2="203" stroke="#000" stroke-width="0.25"/>
<line x1="7" y1="201.5" x2="7" y2="204.5" stroke="#000" stroke-width="0.25"/>
<line x1="288.5" y1="203" x2="291.5" y2="203" stroke="#000" stroke-width="0.25"/>
<line x1="290" y1="201.5" x2="290" y2="204.5" stroke="#000" stroke-width="0.25"/>
<text x="13" y="30.3" fill="#000" font-size="3.7" font-weight="bold">PC</text>
<line x1="14.5" y1="35" x2="17.5" y2="35" stroke="#000" stroke-width="0.25"/>
<line x1="16" y1="33.5" x2="16" y2="36.5" stroke="#000" stroke-width="0.25"/>
<line x1="22.5" y1="35" x2="25.5" y2="35" stroke="#000" stroke-width="0.25"/>
<line x1="24" y1="33.5" x2="24" y2="36.5" stroke="#000" stroke-width="0.25"/>
<line x1="30.5" y1="35" x2="33.5" y2="35" stroke="#000" stroke-width="0.25"/>
<line x1="32" y1="33.5" x2="32" y2="36.5" stroke="#000" stroke-width="0.25"/>
<line x1="38.5" y1="35" x2="41.5" y2="35" stroke="#000" stroke-width="0.25"/>
<line x1="40" y1="33.5" x2="40" y2="36.5" stroke="#000" stroke-width="0.25"/>
<line x1="46.5" y1="35" x2="49.5" y2="35" stroke="#000" stroke-width="0.25"/>
<line x1="48" y1="33.5" x2="48" y2="36.5" stroke="#000" stroke-width="0.25"/>
<line x1="54.5" y1="35" x2="57.5" y2="35" stroke="#000" stroke-width="0.25"/>
<line x1="56" y1="33.5" x2="56" y2="36.5" stroke="#000" stroke-width="0.25"/>
<line x1="62.5" y1="35" x2="65.5" y2="35" stroke="#000" stroke-width="0.25"/>
<line x1="64" y1="33.5" x2="64" y2="36.5" stroke="#000" stroke-width="0.25"/>
<line x1="70.5" y1="35" x2="73.5" y2="35" stroke="#000" stroke-width="0.25"/>
<line x1="72" y1="33.5" x2="72" y2="36.5" stroke="#000" stroke-width="0.25"/>
<line x1="78.5" y1="35" x2="81.5" y2="35" stroke="#000" stroke-width="0.25"/>
<line x1="80" y1="33.5" x2="80" y2="36.5" stroke="#000" stroke-width="0.25"/>
<line x1="86.5" y1="35" x2="89.5" y2="35" stroke="#000" stroke-width="0.25"/>
<line x1="88" y1="33.5" x2="88" y2="36.5" stroke="#000" stroke-width="0.25"/>
<line x1="94.5" y1="35" x2="97.5" y2="35" stroke="#000" stroke-width="0.25"/>
<line x1="96" y1="33.5" x2="96" y2="36.5" stroke="#000" stroke-width="0.25"/>
<line x1="102.5" y1="35" x2="105.5" y2="35" stroke="#000" stroke-width="0.25"/>
<line x1="104" y1="33.5" x2="104" y2="36.5" stroke="#000" stroke-width="0.25"/>
<line x1="110.5" y1="35" x2="113.5" y2="35" stroke="#000" stroke-width="0.25"/>
<line x1="112" y1="33.5" x2="112" y2="36.5" stroke="#000" stroke-width="0.25"/>
<text x="13" y="50.3" fill="#000" font-size="3.7" font-weight="bold">RTOS</text>
<line x1="14.5" y1="55" x2="17.5" y2="55" stroke="#000" stroke-width="0.25"/>
<line x1="16" y1="53.5" x2="16" y2="56.5" stroke="#000" stroke-width="0.25"/>
<line x1="22.5" y1="55" x2="25.5" y2="55" stroke="#000" stroke-width="0.25"/>
<line x1="24" y1="53.5" x2="24" y2="56.5" stroke="#000" stroke-width="0.25"/>
<line x1="30.5" y1="55" x2="33.5" y2="55" stroke="#000" stroke-width="0.25"/>
<line x1="32" y1="53.5" x2="32" y2="56.5" stroke="#000" stroke-width="0.25"/>
<line x1="38.5" y1="55" x2="41.5" y2="55" stroke="#000" stroke-width="0.25"/>
<line x1="40" y1="53.5" x2="40" y2="56.5" stroke="#000" stroke-width="0.25"/>
<line x1="46.5" y1="55" x2="49.5" y2="55" stroke="#000" stroke-width="0.25"/>
<line x1="48" y1="53.5" x2="48" y2="56.5" stroke="#000" stroke-width="0.25"/>
<line x1="54.5" y1="55" x2="57.5" y2="55" stroke="#000" stroke-width="0.25"/>
<line x1="56" y1="53.5" x2="56" y2="56.5" stroke="#000" stroke-width="0.25"/>
<line x1="62.5" y1="55" x2="65.5" y2="55" stroke="#000" stroke-width="0.25"/>
<line x1="64" y1="53.5" x2="64" y2="56.5" stroke="#000" stroke-width="0.25"/>
<line x1="70.5" y1="55" x2="73.5" y2="55" stroke="#000" stroke-width="0.25"/>
<line x1="72" y1="53.5" x2="72" y2="56.5" stroke="#000" stroke-width="0.25"/>
<line x1="78.5" y1="55" x2="81.5" y2="55" stroke="#000" stroke-width="0.25"/>
<line x1="80" y1="53.5" x2="80" y2="56.5" stroke="#000" stroke-width="0.25"/>
<line x1="86.5" y1="55" x2="89.5" y2="55" stroke="#000" stroke-width="0.25"/>
<line x1="88" y1="53.5" x2="88" y2="56.5" stroke="#000" stroke-width="0.25"/>
<line x1="94.5" y1="55" x2="97.5" y2="55" stroke="#000" stroke-width="0.25"/>
<line x1="96" y1="53.5" x2="96" y2="56.5" stroke="#000" stroke-width="0.25"/>
<line x1="102.5" y1="55" x2="105.5" y2="55" stroke="#000" stroke-width="0.25"/>
<line x1="104" y1="53.5" x2="104" y2="56.5" stroke="#000" stroke-width="0.25"/>
<line x1="110.5" y1="55" x2="113.5" y2="55" stroke="#000" stroke-width="0.25"/>
<line x1="112" y1="53.5" x2="112" y2="56.5" stroke="#000" stroke-width="0.25"/>
<text x="13" y="70.3" fill="#000" font-size="3.7" font-weight="bold">BP</text>
<line x1="14.5" y1="75" x2="17.5" y2="75" stroke="#000" stroke-width="0.25"/>
<line x1="16" y1="73.5" x2="16" y2="76.5" stroke="#000" stroke-width="0.25"/>
<line x1="22.5" y1="75" x2="25.5" y2="75" stroke="#000" stroke-width="0.25"/>
<line x1="24" y1="73.5" x2="24" y2="76.5" stroke="#000" stroke-width="0.25"/>
<line x1="30.5" y1="75" x2="33.5" y2="75" stroke="#000" stroke-width="0.25"/>
<line x1="32" y1="73.5" x2="32" y2="76.5" stroke="#000" stroke-width="0.25"/>
<line x1="38.5" y1="75" x2="41.5" y2="75" stroke="#000" stroke-width="0.25"/>
<line x1="40" y1="73.5" x2="40" y2="76.5" stroke="#000" stroke-width="0.25"/>
<line x1="46.5" y1="75" x2="49.5" y2="75" stroke="#000" stroke-width="0.25"/>
<line x1="48" y1="73.5" x2="48" y2="76.5" stroke="#000" stroke-width="0.25"/>
<line x1="54.5" y1="75" x2="57.5" y2="75" stroke="#000" stroke-width="0.25"/>
<line x1="56" y1="73.5" x2="56" y2="76.5" stroke="#000" stroke-width="0.25"/>
<line x1="62.5" y1="75" x2="65.5" y2="75" stroke="#000" stroke-width="0.25"/>
<line x1="64" y1="73.5" x2="64" y2="76.5" stroke="#000" stroke-width="0.25"/>
<line x1="70.5" y1="75" x2="73.5" y2="75" stroke="#000" stroke-width="0.25"/>
<line x1="72" y1="73.5" x2="72" y2="76.5" stroke="#000" stroke-width="0.25"/>
<line x1="78.5" y1="75" x2="81.5" y2="75" stroke="#000" stroke-width="0.25"/>
<line x1="80" y1="73.5" x2="80" y2="76.5" stroke="#000" stroke-width="0.25"/>
<line x1="86.5" y1="75" x2="89.5" y2="75" stroke="#000" stroke-width="0.25"/>
<line x1="88" y1="73.5" x2="88" y2="76.5" stroke="#000" stroke-width="0.25"/>
<line x1="94.5" y1="75" x2="97.5" y2="75" stroke="#000" stroke-width="0.25"/>
<line x1="96" y1="73.5" x2="96" y2="76.5" stroke="#000" stroke-width="0.25"/>
<line x1="102.5" y1="75" x2="105.5" y2="75" stroke="#000" stroke-width="0.25"/>
<line x1="104" y1="73.5" x2="104" y2="76.5" stroke="#000" stroke-width="0.25"/>
<line x1="110.5" y1="75" x2="113.5" y2="75" stroke="#000" stroke-width="0.25"/>
<line x1="112" y1="73.5" x2="112" y2="76.5" stroke="#000" stroke-width="0.25"/>
<text x="13" y="90.3" fill="#000" font-size="3.7" font-weight="bold">D-ADDR</text>
<line x1="14.5" y1="95" x2="17.5" y2="95" stroke="#000" stroke-width="0.25"/>
<line x1="16" y1="93.5" x2="16" y2="96.5" stroke="#000" stroke-width="0.25"/>
<line x1="22.5" y1="95" x2="25.5" y2="95" stroke="#000" stroke-width="0.25"/>
<line x1="24" y1="93.5" x2="24" y2="96.5" stroke="#000" stroke-width="0.25"/>
<line x1="30.5" y1="95" x2="33.5" y2="95" stroke="#000" stroke-width="0.25"/>
<line x1="32" y1="93.5" x2="32" y2="96.5" stroke="#000" stroke-width="0.25"/>
<line x1="38.5" y1="95" x2="41.5" y2="95" stroke="#000" stroke-width="0.25"/>
<line x1="40" y1="93.5" x2="40" y2="96.5" stroke="#000" stroke-width="0.25"/>
<line x1="46.5" y1="95" x2="49.5" y2="95" stroke="#000" stroke-width="0.25"/>
<line x1="48" y1="93.5" x2="48" y2="96.5" stroke="#000" stroke-width="0.25"/>
<line x1="54.5" y1="95" x2="57.5" y2="95" stroke="#000" stroke-width="0.25"/>
<line x1="56" y1="93.5" x2="56" y2="96.5" stroke="#000" stroke-width="0.25"/>
<line x1="62.5" y1="95" x2="65.5" y2="95" stroke="#000" stroke-width="0.25"/>
<line x1="64" y1="93.5" x2="64" y2="96.5" stroke="#000" stroke-width="0.25"/>
<line x1="70.5" y1="95" x2="73.5" y2="95" stroke="#000" stroke-width="0.25"/>
<line x1="72" y1="93.5" x2="72" y2="96.5" stroke="#000" stroke-width="0.25"/>
<line x1="78.5" y1="95" x2="81.5" y2="95" stroke="#000" stroke-width="0.25"/>
<line x1="80" y1="93.5" x2="80" y2="96.5" stroke="#000" stroke-width="0.25"/>
<line x1="86.5" y1="95" x2="89.5" y2="95" stroke="#000" stroke-width="0.25"/>
<line x1="88" y1="93.5" x2="88" y2="96.5" stroke="#000" stroke-width="0.25"/>
<line x1="94.5" y1="95" x2="97.5" y2="95" stroke="#000" stroke-width="0.25"/>
<line x1="96" y1="93.5" x2="96" y2="96.5" stroke="#000" stroke-width="0.25"/>
<line x1="102.5" y1="95" x2="105.5" y2="95" stroke="#000" stroke-width="0.25"/>
<line x1="104" y1="93.5" x2="104" y2="96.5" stroke="#000" stroke-width="0.25"/>
<line x1="110.5" y1="95" x2="113.5" y2="95" stroke="#000" stroke-width="0.25"/>
<line x1="112" y1="93.5" x2="112" y2="96.5" stroke="#000" stroke-width="0.25"/>
<text x="16" y="101.2" fill="#555" font-size="2.4" text-anchor="middle">12</text>
<text x="24" y="101.2" fill="#555" font-size="2.4" text-anchor="middle">11</text>
<text x="32" y="101.2" fill="#555" font-size="2.4" text-anchor="middle">10</text>
<text x="40" y="101.2" fill="#555" font-size="2.4" text-anchor="middle">9</text>
<text x="48" y="101.2" fill="#555" font-size="2.4" text-anchor="middle">8</text>
<text x="56" y="101.2" fill="#555" font-size="2.4" text-anchor="middle">7</text>
<text x="64" y="101.2" fill="#555" font-size="2.4" text-anchor="middle">6</text>
<text x="72" y="101.2" fill="#555" font-size="2.4" text-anchor="middle">5</text>
<text x="80" y="101.2" fill="#555" font-size="2.4" text-anchor="middle">4</text>
<text x="88" y="101.2" fill="#555" font-size="2.4" text-anchor="middle">3</text>
<text x="96" y="101.2" fill="#555" font-size="2.4" text-anchor="middle">2</text>
<text x="104" y="101.2" fill="#555" font-size="2.4" text-anchor="middle">1</text>
<text x="112" y="101.2" fill="#555" font-size="2.4" text-anchor="middle">0</text>
<text x="143" y="30.3" fill="#000" font-size="3.7" font-weight="bold">IR</text>
<line x1="144.5" y1="35" x2="147.5" y2="35" stroke="#000" stroke-width="0.25"/>
<line x1="146" y1="33.5" x2="146" y2="36.5" stroke="#000" stroke-width="0.25"/>
<line x1="152.5" y1="35" x2="155.5" y2="35" stroke="#000" stroke-width="0.25"/>
<line x1="154" y1="33.5" x2="154" y2="36.5" stroke="#000" stroke-width="0.25"/>
<line x1="160.5" y1="35" x2="163.5" y2="35" stroke="#000" stroke-width="0.25"/>
<line x1="162" y1="33.5" x2="162" y2="36.5" stroke="#000" stroke-width="0.25"/>
<line x1="168.5" y1="35" x2="171.5" y2="35" stroke="#000" stroke-width="0.25"/>
<line x1="170" y1="33.5" x2="170" y2="36.5" stroke="#000" stroke-width="0.25"/>
<line x1="176.5" y1="35" x2="179.5" y2="35" stroke="#000" stroke-width="0.25"/>
<line x1="178" y1="33.5" x2="178" y2="36.5" stroke="#000" stroke-width="0.25"/>
<line x1="184.5" y1="35" x2="187.5" y2="35" stroke="#000" stroke-width="0.25"/>
<line x1="186" y1="33.5" x2="186" y2="36.5" stroke="#000" stroke-width="0.25"/>
<line x1="192.5" y1="35" x2="195.5" y2="35" stroke="#000" stroke-width="0.25"/>
<line x1="194" y1="33.5" x2="194" y2="36.5" stroke="#000" stroke-width="0.25"/>
<line x1="200.5" y1="35" x2="203.5" y2="35" stroke="#000" stroke-width="0.25"/>
<line x1="202" y1="33.5" x2="202" y2="36.5" stroke="#000" stroke-width="0.25"/>
<line x1="208.5" y1="35" x2="211.5" y2="35" stroke="#000" stroke-width="0.25"/>
<line x1="210" y1="33.5" x2="210" y2="36.5" stroke="#000" stroke-width="0.25"/>
<line x1="216.5" y1="35" x2="219.5" y2="35" stroke="#000" stroke-width="0.25"/>
<line x1="218" y1="33.5" x2="218" y2="36.5" stroke="#000" stroke-width="0.25"/>
<line x1="224.5" y1="35" x2="227.5" y2="35" stroke="#000" stroke-width="0.25"/>
<line x1="226" y1="33.5" x2="226" y2="36.5" stroke="#000" stroke-width="0.25"/>
<line x1="232.5" y1="35" x2="235.5" y2="35" stroke="#000" stroke-width="0.25"/>
<line x1="234" y1="33.5" x2="234" y2="36.5" stroke="#000" stroke-width="0.25"/>
<line x1="240.5" y1="35" x2="243.5" y2="35" stroke="#000" stroke-width="0.25"/>
<line x1="242" y1="33.5" x2="242" y2="36.5" stroke="#000" stroke-width="0.25"/>
<line x1="248.5" y1="35" x2="251.5" y2="35" stroke="#000" stroke-width="0.25"/>
<line x1="250" y1="33.5" x2="250" y2="36.5" stroke="#000" stroke-width="0.25"/>
<line x1="256.5" y1="35" x2="259.5" y2="35" stroke="#000" stroke-width="0.25"/>
<line x1="258" y1="33.5" x2="258" y2="36.5" stroke="#000" stroke-width="0.25"/>
<line x1="264.5" y1="35" x2="267.5" y2="35" stroke="#000" stroke-width="0.25"/>
<line x1="266" y1="33.5" x2="266" y2="36.5" stroke="#000" stroke-width="0.25"/>
<line x1="150" y1="31.2" x2="150" y2="38.8" stroke="#999" stroke-width="0.3"/>
<line x1="206" y1="31.2" x2="206" y2="38.8" stroke="#999" stroke-width="0.3"/>
<text x="146" y="41.2" fill="#555" font-size="2.4" text-anchor="middle">15</text>
<text x="154" y="41.2" fill="#555" font-size="2.4" text-anchor="middle">14</text>
<text x="162" y="41.2" fill="#555" font-size="2.4" text-anchor="middle">13</text>
<text x="170" y="41.2" fill="#555" font-size="2.4" text-anchor="middle">12</text>
<text x="178" y="41.2" fill="#555" font-size="2.4" text-anchor="middle">11</text>
<text x="186" y="41.2" fill="#555" font-size="2.4" text-anchor="middle">10</text>
<text x="194" y="41.2" fill="#555" font-size="2.4" text-anchor="middle">9</text>
<text x="202" y="41.2" fill="#555" font-size="2.4" text-anchor="middle">8</text>
<text x="210" y="41.2" fill="#555" font-size="2.4" text-anchor="middle">7</text>
<text x="218" y="41.2" fill="#555" font-size="2.4" text-anchor="middle">6</text>
<text x="226" y="41.2" fill="#555" font-size="2.4" text-anchor="middle">5</text>
<text x="234" y="41.2" fill="#555" font-size="2.4" text-anchor="middle">4</text>
<text x="242" y="41.2" fill="#555" font-size="2.4" text-anchor="middle">3</text>
<text x="250" y="41.2" fill="#555" font-size="2.4" text-anchor="middle">2</text>
<text x="258" y="41.2" fill="#555" font-size="2.4" text-anchor="middle">1</text>
<text x="266" y="41.2" fill="#555" font-size="2.4" text-anchor="middle">0</text>
<text x="143" y="50.3" fill="#000" font-size="3.7" font-weight="bold">TOS</text>
<line x1="144.5" y1="55" x2="147.5" y2="55" stroke="#000" stroke-width="0.25"/>
<line x1="146" y1="53.5" x2="146" y2="56.5" stroke="#000" stroke-width="0.25"/>
<line x1="152.5" y1="55" x2="155.5" y2="55" stroke="#000" stroke-width="0.25"/>
<line x1="154" y1="53.5" x2="154" y2="56.5" stroke="#000" stroke-width="0.25"/>
<line x1="160.5" y1="55" x2="163.5" y2="55" stroke="#000" stroke-width="0.25"/>
<line x1="162" y1="53.5" x2="162" y2="56.5" stroke="#000" stroke-width="0.25"/>
<line x1="168.5" y1="55" x2="171.5" y2="55" stroke="#000" stroke-width="0.25"/>
<line x1="170" y1="53.5" x2="170" y2="56.5" stroke="#000" stroke-width="0.25"/>
<line x1="176.5" y1="55" x2="179.5" y2="55" stroke="#000" stroke-width="0.25"/>
<line x1="178" y1="53.5" x2="178" y2="56.5" stroke="#000" stroke-width="0.25"/>
<line x1="184.5" y1="55" x2="187.5" y2="55" stroke="#000" stroke-width="0.25"/>
<line x1="186" y1="53.5" x2="186" y2="56.5" stroke="#000" stroke-width="0.25"/>
<line x1="192.5" y1="55" x2="195.5" y2="55" stroke="#000" stroke-width="0.25"/>
<line x1="194" y1="53.5" x2="194" y2="56.5" stroke="#000" stroke-width="0.25"/>
<line x1="200.5" y1="55" x2="203.5" y2="55" stroke="#000" stroke-width="0.25"/>
<line x1="202" y1="53.5" x2="202" y2="56.5" stroke="#000" stroke-width="0.25"/>
<text x="219" y="50.3" fill="#000" font-size="3.7" font-weight="bold">DSP</text>
<line x1="220.5" y1="55" x2="223.5" y2="55" stroke="#000" stroke-width="0.25"/>
<line x1="222" y1="53.5" x2="222" y2="56.5" stroke="#000" stroke-width="0.25"/>
<line x1="228.5" y1="55" x2="231.5" y2="55" stroke="#000" stroke-width="0.25"/>
<line x1="230" y1="53.5" x2="230" y2="56.5" stroke="#000" stroke-width="0.25"/>
<line x1="236.5" y1="55" x2="239.5" y2="55" stroke="#000" stroke-width="0.25"/>
<line x1="238" y1="53.5" x2="238" y2="56.5" stroke="#000" stroke-width="0.25"/>
<line x1="244.5" y1="55" x2="247.5" y2="55" stroke="#000" stroke-width="0.25"/>
<line x1="246" y1="53.5" x2="246" y2="56.5" stroke="#000" stroke-width="0.25"/>
<line x1="252.5" y1="55" x2="255.5" y2="55" stroke="#000" stroke-width="0.25"/>
<line x1="254" y1="53.5" x2="254" y2="56.5" stroke="#000" stroke-width="0.25"/>
<line x1="260.5" y1="55" x2="263.5" y2="55" stroke="#000" stroke-width="0.25"/>
<line x1="262" y1="53.5" x2="262" y2="56.5" stroke="#000" stroke-width="0.25"/>
<line x1="268.5" y1="55" x2="271.5" y2="55" stroke="#000" stroke-width="0.25"/>
<line x1="270" y1="53.5" x2="270" y2="56.5" stroke="#000" stroke-width="0.25"/>
<line x1="276.5" y1="55" x2="279.5" y2="55" stroke="#000" stroke-width="0.25"/>
<line x1="278" y1="53.5" x2="278" y2="56.5" stroke="#000" stroke-width="0.25"/>
<text x="143" y="70.3" fill="#000" font-size="3.7" font-weight="bold">NOS</text>
<line x1="144.5" y1="75" x2="147.5" y2="75" stroke="#000" stroke-width="0.25"/>
<line x1="146" y1="73.5" x2="146" y2="76.5" stroke="#000" stroke-width="0.25"/>
<line x1="152.5" y1="75" x2="155.5" y2="75" stroke="#000" stroke-width="0.25"/>
<line x1="154" y1="73.5" x2="154" y2="76.5" stroke="#000" stroke-width="0.25"/>
<line x1="160.5" y1="75" x2="163.5" y2="75" stroke="#000" stroke-width="0.25"/>
<line x1="162" y1="73.5" x2="162" y2="76.5" stroke="#000" stroke-width="0.25"/>
<line x1="168.5" y1="75" x2="171.5" y2="75" stroke="#000" stroke-width="0.25"/>
<line x1="170" y1="73.5" x2="170" y2="76.5" stroke="#000" stroke-width="0.25"/>
<line x1="176.5" y1="75" x2="179.5" y2="75" stroke="#000" stroke-width="0.25"/>
<line x1="178" y1="73.5" x2="178" y2="76.5" stroke="#000" stroke-width="0.25"/>
<line x1="184.5" y1="75" x2="187.5" y2="75" stroke="#000" stroke-width="0.25"/>
<line x1="186" y1="73.5" x2="186" y2="76.5" stroke="#000" stroke-width="0.25"/>
<line x1="192.5" y1="75" x2="195.5" y2="75" stroke="#000" stroke-width="0.25"/>
<line x1="194" y1="73.5" x2="194" y2="76.5" stroke="#000" stroke-width="0.25"/>
<line x1="200.5" y1="75" x2="203.5" y2="75" stroke="#000" stroke-width="0.25"/>
<line x1="202" y1="73.5" x2="202" y2="76.5" stroke="#000" stroke-width="0.25"/>
<text x="219" y="70.3" fill="#000" font-size="3.7" font-weight="bold">RSP</text>
<line x1="220.5" y1="75" x2="223.5" y2="75" stroke="#000" stroke-width="0.25"/>
<line x1="222" y1="73.5" x2="222" y2="76.5" stroke="#000" stroke-width="0.25"/>
<line x1="228.5" y1="75" x2="231.5" y2="75" stroke="#000" stroke-width="0.25"/>
<line x1="230" y1="73.5" x2="230" y2="76.5" stroke="#000" stroke-width="0.25"/>
<line x1="236.5" y1="75" x2="239.5" y2="75" stroke="#000" stroke-width="0.25"/>
<line x1="238" y1="73.5" x2="238" y2="76.5" stroke="#000" stroke-width="0.25"/>
<line x1="244.5" y1="75" x2="247.5" y2="75" stroke="#000" stroke-width="0.25"/>
<line x1="246" y1="73.5" x2="246" y2="76.5" stroke="#000" stroke-width="0.25"/>
<line x1="252.5" y1="75" x2="255.5" y2="75" stroke="#000" stroke-width="0.25"/>
<line x1="254" y1="73.5" x2="254" y2="76.5" stroke="#000" stroke-width="0.25"/>
<line x1="260.5" y1="75" x2="263.5" y2="75" stroke="#000" stroke-width="0.25"/>
<line x1="262" y1="73.5" x2="262" y2="76.5" stroke="#000" stroke-width="0.25"/>
<line x1="268.5" y1="75" x2="271.5" y2="75" stroke="#000" stroke-width="0.25"/>
<line x1="270" y1="73.5" x2="270" y2="76.5" stroke="#000" stroke-width="0.25"/>
<line x1="276.5" y1="75" x2="279.5" y2="75" stroke="#000" stroke-width="0.25"/>
<line x1="278" y1="73.5" x2="278" y2="76.5" stroke="#000" stroke-width="0.25"/>
<text x="143" y="90.3" fill="#000" font-size="3.7" font-weight="bold">OUT</text>
<line x1="144.5" y1="95" x2="147.5" y2="95" stroke="#000" stroke-width="0.25"/>
<line x1="146" y1="93.5" x2="146" y2="96.5" stroke="#000" stroke-width="0.25"/>
<line x1="152.5" y1="95" x2="155.5" y2="95" stroke="#000" stroke-width="0.25"/>
<line x1="154" y1="93.5" x2="154" y2="96.5" stroke="#000" stroke-width="0.25"/>
<line x1="160.5" y1="95" x2="163.5" y2="95" stroke="#000" stroke-width="0.25"/>
<line x1="162" y1="93.5" x2="162" y2="96.5" stroke="#000" stroke-width="0.25"/>
<line x1="168.5" y1="95" x2="171.5" y2="95" stroke="#000" stroke-width="0.25"/>
<line x1="170" y1="93.5" x2="170" y2="96.5" stroke="#000" stroke-width="0.25"/>
<line x1="176.5" y1="95" x2="179.5" y2="95" stroke="#000" stroke-width="0.25"/>
<line x1="178" y1="93.5" x2="178" y2="96.5" stroke="#000" stroke-width="0.25"/>
<line x1="184.5" y1="95" x2="187.5" y2="95" stroke="#000" stroke-width="0.25"/>
<line x1="186" y1="93.5" x2="186" y2="96.5" stroke="#000" stroke-width="0.25"/>
<line x1="192.5" y1="95" x2="195.5" y2="95" stroke="#000" stroke-width="0.25"/>
<line x1="194" y1="93.5" x2="194" y2="96.5" stroke="#000" stroke-width="0.25"/>
<line x1="200.5" y1="95" x2="203.5" y2="95" stroke="#000" stroke-width="0.25"/>
<line x1="202" y1="93.5" x2="202" y2="96.5" stroke="#000" stroke-width="0.25"/>
<text x="146" y="101.2" fill="#555" font-size="2.4" text-anchor="middle">7</text>
<text x="154" y="101.2" fill="#555" font-size="2.4" text-anchor="middle">6</text>
<text x="162" y="101.2" fill="#555" font-size="2.4" text-anchor="middle">5</text>
<text x="170" y="101.2" fill="#555" font-size="2.4" text-anchor="middle">4</text>
<text x="178" y="101.2" fill="#555" font-size="2.4" text-anchor="middle">3</text>
<text x="186" y="101.2" fill="#555" font-size="2.4" text-anchor="middle">2</text>
<text x="194" y="101.2" fill="#555" font-size="2.4" text-anchor="middle">1</text>
<text x="202" y="101.2" fill="#555" font-size="2.4" text-anchor="middle">0</text>
<text x="211" y="90.3" fill="#000" font-size="3.7" font-weight="bold">PCSEL</text>
<line x1="212.5" y1="95" x2="215.5" y2="95" stroke="#000" stroke-width="0.25"/>
<line x1="214" y1="93.5" x2="214" y2="96.5" stroke="#000" stroke-width="0.25"/>
<text x="214" y="101.2" fill="#333" font-size="2.7" text-anchor="middle">SEQ</text>
<line x1="222.5" y1="95" x2="225.5" y2="95" stroke="#000" stroke-width="0.25"/>
<line x1="224" y1="93.5" x2="224" y2="96.5" stroke="#000" stroke-width="0.25"/>
<text x="224" y="101.2" fill="#333" font-size="2.7" text-anchor="middle">JMP</text>
<line x1="232.5" y1="95" x2="235.5" y2="95" stroke="#000" stroke-width="0.25"/>
<line x1="234" y1="93.5" x2="234" y2="96.5" stroke="#000" stroke-width="0.25"/>
<text x="234" y="101.2" fill="#333" font-size="2.7" text-anchor="middle">RET</text>
<line x1="242.5" y1="95" x2="245.5" y2="95" stroke="#000" stroke-width="0.25"/>
<line x1="244" y1="93.5" x2="244" y2="96.5" stroke="#000" stroke-width="0.25"/>
<text x="244" y="101.2" fill="#333" font-size="2.7" text-anchor="middle">VEC</text>
<text x="255" y="90.3" fill="#000" font-size="3.7" font-weight="bold">FLAGS</text>
<line x1="256.5" y1="95" x2="259.5" y2="95" stroke="#000" stroke-width="0.25"/>
<line x1="258" y1="93.5" x2="258" y2="96.5" stroke="#000" stroke-width="0.25"/>
<text x="258" y="101.2" fill="#333" font-size="2.7" text-anchor="middle">N</text>
<line x1="264.5" y1="95" x2="267.5" y2="95" stroke="#000" stroke-width="0.25"/>
<line x1="266" y1="93.5" x2="266" y2="96.5" stroke="#000" stroke-width="0.25"/>
<text x="266" y="101.2" fill="#333" font-size="2.7" text-anchor="middle">Z</text>
<line x1="272.5" y1="95" x2="275.5" y2="95" stroke="#000" stroke-width="0.25"/>
<line x1="274" y1="93.5" x2="274" y2="96.5" stroke="#000" stroke-width="0.25"/>
<text x="274" y="101.2" fill="#333" font-size="2.7" text-anchor="middle">C</text>
<line x1="280.5" y1="95" x2="283.5" y2="95" stroke="#000" stroke-width="0.25"/>
<line x1="282" y1="93.5" x2="282" y2="96.5" stroke="#000" stroke-width="0.25"/>
<text x="282" y="101.2" fill="#333" font-size="2.7" text-anchor="middle">I</text>
<line x1="9" y1="107" x2="288" y2="107" stroke="#999" stroke-width="0.3"/>
<rect x="11" y="113" width="120" height="48" rx="1.4" fill="none" stroke="#aaa" stroke-width="0.3"/>
<text x="13.5" y="118" fill="#000" font-size="3.3" font-weight="bold">CLOCK</text>
<line x1="19.5" y1="125" x2="22.5" y2="125" stroke="#000" stroke-width="0.25"/>
<line x1="21" y1="123.5" x2="21" y2="126.5" stroke="#000" stroke-width="0.25"/>
<text x="21" y="131.5" fill="#333" font-size="2.7" text-anchor="middle">POWER</text>
<line x1="38.5" y1="125" x2="41.5" y2="125" stroke="#000" stroke-width="0.25"/>
<line x1="40" y1="123.5" x2="40" y2="126.5" stroke="#000" stroke-width="0.25"/>
<text x="40" y="131.5" fill="#333" font-size="2.7" text-anchor="middle">OSC</text>
<line x1="57.5" y1="125" x2="60.5" y2="125" stroke="#000" stroke-width="0.25"/>
<line x1="59" y1="123.5" x2="59" y2="126.5" stroke="#000" stroke-width="0.25"/>
<text x="59" y="131.5" fill="#333" font-size="2.7" text-anchor="middle">RUN</text>
<line x1="76.5" y1="125" x2="79.5" y2="125" stroke="#000" stroke-width="0.25"/>
<line x1="78" y1="123.5" x2="78" y2="126.5" stroke="#000" stroke-width="0.25"/>
<text x="78" y="131.5" fill="#333" font-size="2.7" text-anchor="middle">RUN MODE</text>
<line x1="95.5" y1="125" x2="98.5" y2="125" stroke="#000" stroke-width="0.25"/>
<line x1="97" y1="123.5" x2="97" y2="126.5" stroke="#000" stroke-width="0.25"/>
<text x="97" y="131.5" fill="#333" font-size="2.7" text-anchor="middle">STEP MODE</text>
<line x1="114.5" y1="125" x2="117.5" y2="125" stroke="#000" stroke-width="0.25"/>
<line x1="116" y1="123.5" x2="116" y2="126.5" stroke="#000" stroke-width="0.25"/>
<text x="116" y="131.5" fill="#333" font-size="2.7" text-anchor="middle">RESET</text>
<line x1="19.5" y1="147" x2="22.5" y2="147" stroke="#000" stroke-width="0.25"/>
<line x1="21" y1="145.5" x2="21" y2="148.5" stroke="#000" stroke-width="0.25"/>
<text x="21" y="155" fill="#333" font-size="2.7" text-anchor="middle">POWER</text>
<line x1="41.5" y1="147" x2="44.5" y2="147" stroke="#000" stroke-width="0.25"/>
<line x1="43" y1="145.5" x2="43" y2="148.5" stroke="#000" stroke-width="0.25"/>
<text x="43" y="155" fill="#333" font-size="2.7" text-anchor="middle">STEP</text>
<line x1="63.5" y1="147" x2="66.5" y2="147" stroke="#000" stroke-width="0.25"/>
<line x1="65" y1="145.5" x2="65" y2="148.5" stroke="#000" stroke-width="0.25"/>
<text x="65" y="155" fill="#333" font-size="2.7" text-anchor="middle">STEP MODE</text>
<line x1="85.5" y1="147" x2="88.5" y2="147" stroke="#000" stroke-width="0.25"/>
<line x1="87" y1="145.5" x2="87" y2="148.5" stroke="#000" stroke-width="0.25"/>
<text x="87" y="155" fill="#333" font-size="2.7" text-anchor="middle">RUN MODE</text>
<line x1="107.5" y1="147" x2="110.5" y2="147" stroke="#000" stroke-width="0.25"/>
<line x1="109" y1="145.5" x2="109" y2="148.5" stroke="#000" stroke-width="0.25"/>
<text x="109" y="155" fill="#333" font-size="2.7" text-anchor="middle">RESET</text>
<rect x="136" y="113" width="44" height="48" rx="1.4" fill="none" stroke="#aaa" stroke-width="0.3"/>
<text x="138.5" y="118" fill="#000" font-size="3.3" font-weight="bold">INTERRUPTS</text>
<line x1="148.5" y1="125" x2="151.5" y2="125" stroke="#000" stroke-width="0.25"/>
<line x1="150" y1="123.5" x2="150" y2="126.5" stroke="#000" stroke-width="0.25"/>
<text x="150" y="131.5" fill="#333" font-size="2.7" text-anchor="middle">IRQ PEND</text>
<line x1="166.5" y1="125" x2="169.5" y2="125" stroke="#000" stroke-width="0.25"/>
<line x1="168" y1="123.5" x2="168" y2="126.5" stroke="#000" stroke-width="0.25"/>
<text x="168" y="131.5" fill="#333" font-size="2.7" text-anchor="middle">NMI PEND</text>
<line x1="148.5" y1="147" x2="151.5" y2="147" stroke="#000" stroke-width="0.25"/>
<line x1="150" y1="145.5" x2="150" y2="148.5" stroke="#000" stroke-width="0.25"/>
<text x="150" y="155" fill="#333" font-size="2.7" text-anchor="middle">IRQ</text>
<line x1="166.5" y1="147" x2="169.5" y2="147" stroke="#000" stroke-width="0.25"/>
<line x1="168" y1="145.5" x2="168" y2="148.5" stroke="#000" stroke-width="0.25"/>
<text x="168" y="155" fill="#333" font-size="2.7" text-anchor="middle">NMI</text>
<rect x="185" y="113" width="101" height="48" rx="1.4" fill="none" stroke="#aaa" stroke-width="0.3"/>
<text x="187.5" y="118" fill="#000" font-size="3.3" font-weight="bold">INPUT PORT</text>
<text x="194" y="129" fill="#555" font-size="2.4" text-anchor="middle">7</text>
<line x1="192.5" y1="140" x2="195.5" y2="140" stroke="#000" stroke-width="0.25"/>
<line x1="194" y1="138.5" x2="194" y2="141.5" stroke="#000" stroke-width="0.25"/>
<text x="194" y="149" fill="#333" font-size="2.7" text-anchor="middle">IN7</text>
<text x="205.8" y="129" fill="#555" font-size="2.4" text-anchor="middle">6</text>
<line x1="204.3" y1="140" x2="207.3" y2="140" stroke="#000" stroke-width="0.25"/>
<line x1="205.8" y1="138.5" x2="205.8" y2="141.5" stroke="#000" stroke-width="0.25"/>
<text x="205.8" y="149" fill="#333" font-size="2.7" text-anchor="middle">IN6</text>
<text x="217.6" y="129" fill="#555" font-size="2.4" text-anchor="middle">5</text>
<line x1="216.1" y1="140" x2="219.1" y2="140" stroke="#000" stroke-width="0.25"/>
<line x1="217.6" y1="138.5" x2="217.6" y2="141.5" stroke="#000" stroke-width="0.25"/>
<text x="217.6" y="149" fill="#333" font-size="2.7" text-anchor="middle">IN5</text>
<text x="229.4" y="129" fill="#555" font-size="2.4" text-anchor="middle">4</text>
<line x1="227.9" y1="140" x2="230.9" y2="140" stroke="#000" stroke-width="0.25"/>
<line x1="229.4" y1="138.5" x2="229.4" y2="141.5" stroke="#000" stroke-width="0.25"/>
<text x="229.4" y="149" fill="#333" font-size="2.7" text-anchor="middle">IN4</text>
<text x="241.2" y="129" fill="#555" font-size="2.4" text-anchor="middle">3</text>
<line x1="239.7" y1="140" x2="242.7" y2="140" stroke="#000" stroke-width="0.25"/>
<line x1="241.2" y1="138.5" x2="241.2" y2="141.5" stroke="#000" stroke-width="0.25"/>
<text x="241.2" y="149" fill="#333" font-size="2.7" text-anchor="middle">IN3</text>
<text x="253" y="129" fill="#555" font-size="2.4" text-anchor="middle">2</text>
<line x1="251.5" y1="140" x2="254.5" y2="140" stroke="#000" stroke-width="0.25"/>
<line x1="253" y1="138.5" x2="253" y2="141.5" stroke="#000" stroke-width="0.25"/>
<text x="253" y="149" fill="#333" font-size="2.7" text-anchor="middle">IN2</text>
<text x="264.8" y="129" fill="#555" font-size="2.4" text-anchor="middle">1</text>
<line x1="263.3" y1="140" x2="266.3" y2="140" stroke="#000" stroke-width="0.25"/>
<line x1="264.8" y1="138.5" x2="264.8" y2="141.5" stroke="#000" stroke-width="0.25"/>
<text x="264.8" y="149" fill="#333" font-size="2.7" text-anchor="middle">IN1</text>
<text x="276.6" y="129" fill="#555" font-size="2.4" text-anchor="middle">0</text>
<line x1="275.1" y1="140" x2="278.1" y2="140" stroke="#000" stroke-width="0.25"/>
<line x1="276.6" y1="138.5" x2="276.6" y2="141.5" stroke="#000" stroke-width="0.25"/>
<text x="276.6" y="149" fill="#333" font-size="2.7" text-anchor="middle">IN0</text>
<rect x="11" y="167" width="275" height="36" rx="1.4" fill="none" stroke="#aaa" stroke-width="0.3"/>
<text x="13.5" y="172" fill="#000" font-size="3.3" font-weight="bold">BREAKPOINT</text>
<line x1="19.5" y1="186" x2="22.5" y2="186" stroke="#000" stroke-width="0.25"/>
<line x1="21" y1="184.5" x2="21" y2="187.5" stroke="#000" stroke-width="0.25"/>
<text x="21" y="195" fill="#333" font-size="2.7" text-anchor="middle">BP EN</text>
<line x1="30" y1="173" x2="30" y2="199" stroke="#aaa" stroke-width="0.3"/>
<line x1="38.5" y1="186" x2="41.5" y2="186" stroke="#000" stroke-width="0.25"/>
<line x1="40" y1="184.5" x2="40" y2="187.5" stroke="#000" stroke-width="0.25"/>
<text x="40" y="195" fill="#333" font-size="2.7" text-anchor="middle">BPC</text>
<line x1="58.5" y1="186" x2="61.5" y2="186" stroke="#000" stroke-width="0.25"/>
<line x1="60" y1="184.5" x2="60" y2="187.5" stroke="#000" stroke-width="0.25"/>
<text x="60" y="195" fill="#333" font-size="2.7" text-anchor="middle">BPB</text>
<line x1="78.5" y1="186" x2="81.5" y2="186" stroke="#000" stroke-width="0.25"/>
<line x1="80" y1="184.5" x2="80" y2="187.5" stroke="#000" stroke-width="0.25"/>
<text x="80" y="195" fill="#333" font-size="2.7" text-anchor="middle">BPA</text>
<line x1="98.5" y1="186" x2="101.5" y2="186" stroke="#000" stroke-width="0.25"/>
<line x1="100" y1="184.5" x2="100" y2="187.5" stroke="#000" stroke-width="0.25"/>
<text x="100" y="195" fill="#333" font-size="2.7" text-anchor="middle">BP9</text>
<line x1="118.5" y1="186" x2="121.5" y2="186" stroke="#000" stroke-width="0.25"/>
<line x1="120" y1="184.5" x2="120" y2="187.5" stroke="#000" stroke-width="0.25"/>
<text x="120" y="195" fill="#333" font-size="2.7" text-anchor="middle">BP8</text>
<line x1="138.5" y1="186" x2="141.5" y2="186" stroke="#000" stroke-width="0.25"/>
<line x1="140" y1="184.5" x2="140" y2="187.5" stroke="#000" stroke-width="0.25"/>
<text x="140" y="195" fill="#333" font-size="2.7" text-anchor="middle">BP7</text>
<line x1="158.5" y1="186" x2="161.5" y2="186" stroke="#000" stroke-width="0.25"/>
<line x1="160" y1="184.5" x2="160" y2="187.5" stroke="#000" stroke-width="0.25"/>
<text x="160" y="195" fill="#333" font-size="2.7" text-anchor="middle">BP6</text>
<line x1="178.5" y1="186" x2="181.5" y2="186" stroke="#000" stroke-width="0.25"/>
<line x1="180" y1="184.5" x2="180" y2="187.5" stroke="#000" stroke-width="0.25"/>
<text x="180" y="195" fill="#333" font-size="2.7" text-anchor="middle">BP5</text>
<line x1="198.5" y1="186" x2="201.5" y2="186" stroke="#000" stroke-width="0.25"/>
<line x1="200" y1="184.5" x2="200" y2="187.5" stroke="#000" stroke-width="0.25"/>
<text x="200" y="195" fill="#333" font-size="2.7" text-anchor="middle">BP4</text>
<line x1="218.5" y1="186" x2="221.5" y2="186" stroke="#000" stroke-width="0.25"/>
<line x1="220" y1="184.5" x2="220" y2="187.5" stroke="#000" stroke-width="0.25"/>
<text x="220" y="195" fill="#333" font-size="2.7" text-anchor="middle">BP3</text>
<line x1="238.5" y1="186" x2="241.5" y2="186" stroke="#000" stroke-width="0.25"/>
<line x1="240" y1="184.5" x2="240" y2="187.5" stroke="#000" stroke-width="0.25"/>
<text x="240" y="195" fill="#333" font-size="2.7" text-anchor="middle">BP2</text>
<line x1="258.5" y1="186" x2="261.5" y2="186" stroke="#000" stroke-width="0.25"/>
<line x1="260" y1="184.5" x2="260" y2="187.5" stroke="#000" stroke-width="0.25"/>
<text x="260" y="195" fill="#333" font-size="2.7" text-anchor="middle">BP1</text>
<line x1="278.5" y1="186" x2="281.5" y2="186" stroke="#000" stroke-width="0.25"/>
<line x1="280" y1="184.5" x2="280" y2="187.5" stroke="#000" stroke-width="0.25"/>
<text x="280" y="195" fill="#333" font-size="2.7" text-anchor="middle">BP0</text>
<line x1="98.5" y1="206" x2="198.5" y2="206" stroke="#000" stroke-width="0.3"/>
<line x1="98.5" y1="204.5" x2="98.5" y2="207.5" stroke="#000" stroke-width="0.3"/>
<line x1="198.5" y1="204.5" x2="198.5" y2="207.5" stroke="#000" stroke-width="0.3"/>
<text x="148.5" y="204.5" fill="#000" font-size="2.6" text-anchor="middle">100 mm SCALE CHECK</text>
</svg>