<svg xmlns="http://www.w3.org/2000/svg" viewBox="0 0 480 310" font-family="Arial, Helvetica, sans-serif">
<rect x="0" y="0" width="480" height="310" rx="6" fill="#ffffff" stroke="#444" stroke-width="1"/>
<circle cx="10" cy="10" r="2" fill="#fff" stroke="#555" stroke-width="0.5"/>
<circle cx="470" cy="10" r="2" fill="#fff" stroke="#555" stroke-width="0.5"/>
<circle cx="10" cy="300" r="2" fill="#fff" stroke="#555" stroke-width="0.5"/>
<circle cx="470" cy="300" r="2" fill="#fff" stroke="#555" stroke-width="0.5"/>
<text x="240" y="20" fill="#111" font-size="11" text-anchor="middle" letter-spacing="4" font-weight="bold">BLINKY</text>
<text x="240" y="29" fill="#555" font-size="4.5" text-anchor="middle" letter-spacing="2">SINGLE-CYCLE TTL CPU</text>
<text x="36" y="49.5" fill="#111" font-size="4.5" font-weight="bold" text-anchor="end">PC</text>
<circle cx="42" cy="48" r="2.5" fill="#2db83f" stroke="#444" stroke-width="0.6"/>
<circle cx="42" cy="48" r="3.1" fill="none" stroke="#889" stroke-width="0.4"/>
<circle cx="51.5" cy="48" r="2.5" fill="#2db83f" stroke="#444" stroke-width="0.6"/>
<circle cx="51.5" cy="48" r="3.1" fill="none" stroke="#889" stroke-width="0.4"/>
<circle cx="61" cy="48" r="2.5" fill="#2db83f" stroke="#444" stroke-width="0.6"/>
<circle cx="61" cy="48" r="3.1" fill="none" stroke="#889" stroke-width="0.4"/>
<circle cx="70.5" cy="48" r="2.5" fill="#2db83f" stroke="#444" stroke-width="0.6"/>
<circle cx="70.5" cy="48" r="3.1" fill="none" stroke="#889" stroke-width="0.4"/>
<circle cx="80" cy="48" r="2.5" fill="#2db83f" stroke="#444" stroke-width="0.6"/>
<circle cx="80" cy="48" r="3.1" fill="none" stroke="#889" stroke-width="0.4"/>
<circle cx="89.5" cy="48" r="2.5" fill="#2db83f" stroke="#444" stroke-width="0.6"/>
<circle cx="89.5" cy="48" r="3.1" fill="none" stroke="#889" stroke-width="0.4"/>
<circle cx="99" cy="48" r="2.5" fill="#2db83f" stroke="#444" stroke-width="0.6"/>
<circle cx="99" cy="48" r="3.1" fill="none" stroke="#889" stroke-width="0.4"/>
<circle cx="108.5" cy="48" r="2.5" fill="#2db83f" stroke="#444" stroke-width="0.6"/>
<circle cx="108.5" cy="48" r="3.1" fill="none" stroke="#889" stroke-width="0.4"/>
<circle cx="118" cy="48" r="2.5" fill="#2db83f" stroke="#444" stroke-width="0.6"/>
<circle cx="118" cy="48" r="3.1" fill="none" stroke="#889" stroke-width="0.4"/>
<circle cx="127.5" cy="48" r="2.5" fill="#2db83f" stroke="#444" stroke-width="0.6"/>
<circle cx="127.5" cy="48" r="3.1" fill="none" stroke="#889" stroke-width="0.4"/>
<circle cx="137" cy="48" r="2.5" fill="#2db83f" stroke="#444" stroke-width="0.6"/>
<circle cx="137" cy="48" r="3.1" fill="none" stroke="#889" stroke-width="0.4"/>
<circle cx="146.5" cy="48" r="2.5" fill="#2db83f" stroke="#444" stroke-width="0.6"/>
<circle cx="146.5" cy="48" r="3.1" fill="none" stroke="#889" stroke-width="0.4"/>
<circle cx="156" cy="48" r="2.5" fill="#2db83f" stroke="#444" stroke-width="0.6"/>
<circle cx="156" cy="48" r="3.1" fill="none" stroke="#889" stroke-width="0.4"/>
<text x="36" y="71.5" fill="#111" font-size="4.5" font-weight="bold" text-anchor="end">RTOS</text>
<circle cx="42" cy="70" r="2.5" fill="#2db83f" stroke="#444" stroke-width="0.6"/>
<circle cx="42" cy="70" r="3.1" fill="none" stroke="#889" stroke-width="0.4"/>
<circle cx="51.5" cy="70" r="2.5" fill="#2db83f" stroke="#444" stroke-width="0.6"/>
<circle cx="51.5" cy="70" r="3.1" fill="none" stroke="#889" stroke-width="0.4"/>
<circle cx="61" cy="70" r="2.5" fill="#2db83f" stroke="#444" stroke-width="0.6"/>
<circle cx="61" cy="70" r="3.1" fill="none" stroke="#889" stroke-width="0.4"/>
<circle cx="70.5" cy="70" r="2.5" fill="#2db83f" stroke="#444" stroke-width="0.6"/>
<circle cx="70.5" cy="70" r="3.1" fill="none" stroke="#889" stroke-width="0.4"/>
<circle cx="80" cy="70" r="2.5" fill="#2db83f" stroke="#444" stroke-width="0.6"/>
<circle cx="80" cy="70" r="3.1" fill="none" stroke="#889" stroke-width="0.4"/>
<circle cx="89.5" cy="70" r="2.5" fill="#2db83f" stroke="#444" stroke-width="0.6"/>
<circle cx="89.5" cy="70" r="3.1" fill="none" stroke="#889" stroke-width="0.4"/>
<circle cx="99" cy="70" r="2.5" fill="#2db83f" stroke="#444" stroke-width="0.6"/>
<circle cx="99" cy="70" r="3.1" fill="none" stroke="#889" stroke-width="0.4"/>
<circle cx="108.5" cy="70" r="2.5" fill="#2db83f" stroke="#444" stroke-width="0.6"/>
<circle cx="108.5" cy="70" r="3.1" fill="none" stroke="#889" stroke-width="0.4"/>
<circle cx="118" cy="70" r="2.5" fill="#2db83f" stroke="#444" stroke-width="0.6"/>
<circle cx="118" cy="70" r="3.1" fill="none" stroke="#889" stroke-width="0.4"/>
<circle cx="127.5" cy="70" r="2.5" fill="#2db83f" stroke="#444" stroke-width="0.6"/>
<circle cx="127.5" cy="70" r="3.1" fill="none" stroke="#889" stroke-width="0.4"/>
<circle cx="137" cy="70" r="2.5" fill="#2db83f" stroke="#444" stroke-width="0.6"/>
<circle cx="137" cy="70" r="3.1" fill="none" stroke="#889" stroke-width="0.4"/>
<circle cx="146.5" cy="70" r="2.5" fill="#2db83f" stroke="#444" stroke-width="0.6"/>
<circle cx="146.5" cy="70" r="3.1" fill="none" stroke="#889" stroke-width="0.4"/>
<circle cx="156" cy="70" r="2.5" fill="#2db83f" stroke="#444" stroke-width="0.6"/>
<circle cx="156" cy="70" r="3.1" fill="none" stroke="#889" stroke-width="0.4"/>
<text x="36" y="93.5" fill="#111" font-size="4.5" font-weight="bold" text-anchor="end">BP</text>
<circle cx="42" cy="92" r="2.5" fill="#2db83f" stroke="#444" stroke-width="0.6"/>
<circle cx="42" cy="92" r="3.1" fill="none" stroke="#889" stroke-width="0.4"/>
<circle cx="51.5" cy="92" r="2.5" fill="#2db83f" stroke="#444" stroke-width="0.6"/>
<circle cx="51.5" cy="92" r="3.1" fill="none" stroke="#889" stroke-width="0.4"/>
<circle cx="61" cy="92" r="2.5" fill="#2db83f" stroke="#444" stroke-width="0.6"/>
<circle cx="61" cy="92" r="3.1" fill="none" stroke="#889" stroke-width="0.4"/>
<circle cx="70.5" cy="92" r="2.5" fill="#2db83f" stroke="#444" stroke-width="0.6"/>
<circle cx="70.5" cy="92" r="3.1" fill="none" stroke="#889" stroke-width="0.4"/>
<circle cx="80" cy="92" r="2.5" fill="#2db83f" stroke="#444" stroke-width="0.6"/>
<circle cx="80" cy="92" r="3.1" fill="none" stroke="#889" stroke-width="0.4"/>
<circle cx="89.5" cy="92" r="2.5" fill="#2db83f" stroke="#444" stroke-width="0.6"/>
<circle cx="89.5" cy="92" r="3.1" fill="none" stroke="#889" stroke-width="0.4"/>
<circle cx="99" cy="92" r="2.5" fill="#2db83f" stroke="#444" stroke-width="0.6"/>
<circle cx="99" cy="92" r="3.1" fill="none" stroke="#889" stroke-width="0.4"/>
<circle cx="108.5" cy="92" r="2.5" fill="#2db83f" stroke="#444" stroke-width="0.6"/>
<circle cx="108.5" cy="92" r="3.1" fill="none" stroke="#889" stroke-width="0.4"/>
<circle cx="118" cy="92" r="2.5" fill="#2db83f" stroke="#444" stroke-width="0.6"/>
<circle cx="118" cy="92" r="3.1" fill="none" stroke="#889" stroke-width="0.4"/>
<circle cx="127.5" cy="92" r="2.5" fill="#2db83f" stroke="#444" stroke-width="0.6"/>
<circle cx="127.5" cy="92" r="3.1" fill="none" stroke="#889" stroke-width="0.4"/>
<circle cx="137" cy="92" r="2.5" fill="#2db83f" stroke="#444" stroke-width="0.6"/>
<circle cx="137" cy="92" r="3.1" fill="none" stroke="#889" stroke-width="0.4"/>
<circle cx="146.5" cy="92" r="2.5" fill="#2db83f" stroke="#444" stroke-width="0.6"/>
<circle cx="146.5" cy="92" r="3.1" fill="none" stroke="#889" stroke-width="0.4"/>
<circle cx="156" cy="92" r="2.5" fill="#2db83f" stroke="#444" stroke-width="0.6"/>
<circle cx="156" cy="92" r="3.1" fill="none" stroke="#889" stroke-width="0.4"/>
<text x="36" y="115.5" fill="#111" font-size="4.5" font-weight="bold" text-anchor="end">D-ADDR</text>
<circle cx="42" cy="114" r="2.5" fill="#2db83f" stroke="#444" stroke-width="0.6"/>
<circle cx="42" cy="114" r="3.1" fill="none" stroke="#889" stroke-width="0.4"/>
<circle cx="51.5" cy="114" r="2.5" fill="#2db83f" stroke="#444" stroke-width="0.6"/>
<circle cx="51.5" cy="114" r="3.1" fill="none" stroke="#889" stroke-width="0.4"/>
<circle cx="61" cy="114" r="2.5" fill="#2db83f" stroke="#444" stroke-width="0.6"/>
<circle cx="61" cy="114" r="3.1" fill="none" stroke="#889" stroke-width="0.4"/>
<circle cx="70.5" cy="114" r="2.5" fill="#2db83f" stroke="#444" stroke-width="0.6"/>
<circle cx="70.5" cy="114" r="3.1" fill="none" stroke="#889" stroke-width="0.4"/>
<circle cx="80" cy="114" r="2.5" fill="#2db83f" stroke="#444" stroke-width="0.6"/>
<circle cx="80" cy="114" r="3.1" fill="none" stroke="#889" stroke-width="0.4"/>
<circle cx="89.5" cy="114" r="2.5" fill="#2db83f" stroke="#444" stroke-width="0.6"/>
<circle cx="89.5" cy="114" r="3.1" fill="none" stroke="#889" stroke-width="0.4"/>
<circle cx="99" cy="114" r="2.5" fill="#2db83f" stroke="#444" stroke-width="0.6"/>
<circle cx="99" cy="114" r="3.1" fill="none" stroke="#889" stroke-width="0.4"/>
<circle cx="108.5" cy="114" r="2.5" fill="#2db83f" stroke="#444" stroke-width="0.6"/>
<circle cx="108.5" cy="114" r="3.1" fill="none" stroke="#889" stroke-width="0.4"/>
<circle cx="118" cy="114" r="2.5" fill="#2db83f" stroke="#444" stroke-width="0.6"/>
<circle cx="118" cy="114" r="3.1" fill="none" stroke="#889" stroke-width="0.4"/>
<circle cx="127.5" cy="114" r="2.5" fill="#2db83f" stroke="#444" stroke-width="0.6"/>
<circle cx="127.5" cy="114" r="3.1" fill="none" stroke="#889" stroke-width="0.4"/>
<circle cx="137" cy="114" r="2.5" fill="#2db83f" stroke="#444" stroke-width="0.6"/>
<circle cx="137" cy="114" r="3.1" fill="none" stroke="#889" stroke-width="0.4"/>
<circle cx="146.5" cy="114" r="2.5" fill="#2db83f" stroke="#444" stroke-width="0.6"/>
<circle cx="146.5" cy="114" r="3.1" fill="none" stroke="#889" stroke-width="0.4"/>
<circle cx="156" cy="114" r="2.5" fill="#2db83f" stroke="#444" stroke-width="0.6"/>
<circle cx="156" cy="114" r="3.1" fill="none" stroke="#889" stroke-width="0.4"/>
<text x="42" y="43" fill="#445" font-size="3" text-anchor="middle">12</text>
<text x="42" y="121" fill="#445" font-size="3" text-anchor="middle">12</text>
<text x="51.5" y="43" fill="#445" font-size="3" text-anchor="middle">11</text>
<text x="51.5" y="121" fill="#445" font-size="3" text-anchor="middle">11</text>
<text x="61" y="43" fill="#445" font-size="3" text-anchor="middle">10</text>
<text x="61" y="121" fill="#445" font-size="3" text-anchor="middle">10</text>
<text x="70.5" y="43" fill="#445" font-size="3" text-anchor="middle">9</text>
<text x="70.5" y="121" fill="#445" font-size="3" text-anchor="middle">9</text>
<text x="80" y="43" fill="#445" font-size="3" text-anchor="middle">8</text>
<text x="80" y="121" fill="#445" font-size="3" text-anchor="middle">8</text>
<text x="89.5" y="43" fill="#445" font-size="3" text-anchor="middle">7</text>
<text x="89.5" y="121" fill="#445" font-size="3" text-anchor="middle">7</text>
<text x="99" y="43" fill="#445" font-size="3" text-anchor="middle">6</text>
<text x="99" y="121" fill="#445" font-size="3" text-anchor="middle">6</text>
<text x="108.5" y="43" fill="#445" font-size="3" text-anchor="middle">5</text>
<text x="108.5" y="121" fill="#445" font-size="3" text-anchor="middle">5</text>
<text x="118" y="43" fill="#445" font-size="3" text-anchor="middle">4</text>
<text x="118" y="121" fill="#445" font-size="3" text-anchor="middle">4</text>
<text x="127.5" y="43" fill="#445" font-size="3" text-anchor="middle">3</text>
<text x="127.5" y="121" fill="#445" font-size="3" text-anchor="middle">3</text>
<text x="137" y="43" fill="#445" font-size="3" text-anchor="middle">2</text>
<text x="137" y="121" fill="#445" font-size="3" text-anchor="middle">2</text>
<text x="146.5" y="43" fill="#445" font-size="3" text-anchor="middle">1</text>
<text x="146.5" y="121" fill="#445" font-size="3" text-anchor="middle">1</text>
<text x="156" y="43" fill="#445" font-size="3" text-anchor="middle">0</text>
<text x="156" y="121" fill="#445" font-size="3" text-anchor="middle">0</text>
<text x="194" y="49.5" fill="#111" font-size="4.5" font-weight="bold" text-anchor="end">IR</text>
<path d="M 197.5 48 A 2.5 2.5 0 0 1 202.5 48 Z" fill="#2db83f"/>
<path d="M 202.5 48 A 2.5 2.5 0 0 1 197.5 48 Z" fill="#ee3524"/>
<circle cx="200" cy="48" r="2.5" fill="none" stroke="#444" stroke-width="0.6"/>
<circle cx="200" cy="48" r="3.1" fill="none" stroke="#889" stroke-width="0.4"/>
<path d="M 207 48 A 2.5 2.5 0 0 1 212 48 Z" fill="#2db83f"/>
<path d="M 212 48 A 2.5 2.5 0 0 1 207 48 Z" fill="#ee3524"/>
<circle cx="209.5" cy="48" r="2.5" fill="none" stroke="#444" stroke-width="0.6"/>
<circle cx="209.5" cy="48" r="3.1" fill="none" stroke="#889" stroke-width="0.4"/>
<path d="M 216.5 48 A 2.5 2.5 0 0 1 221.5 48 Z" fill="#2db83f"/>
<path d="M 221.5 48 A 2.5 2.5 0 0 1 216.5 48 Z" fill="#ee3524"/>
<circle cx="219" cy="48" r="2.5" fill="none" stroke="#444" stroke-width="0.6"/>
<circle cx="219" cy="48" r="3.1" fill="none" stroke="#889" stroke-width="0.4"/>
<path d="M 226 48 A 2.5 2.5 0 0 1 231 48 Z" fill="#2db83f"/>
<path d="M 231 48 A 2.5 2.5 0 0 1 226 48 Z" fill="#ee3524"/>
<circle cx="228.5" cy="48" r="2.5" fill="none" stroke="#444" stroke-width="0.6"/>
<circle cx="228.5" cy="48" r="3.1" fill="none" stroke="#889" stroke-width="0.4"/>
<path d="M 235.5 48 A 2.5 2.5 0 0 1 240.5 48 Z" fill="#2db83f"/>
<path d="M 240.5 48 A 2.5 2.5 0 0 1 235.5 48 Z" fill="#ee3524"/>
<circle cx="238" cy="48" r="2.5" fill="none" stroke="#444" stroke-width="0.6"/>
<circle cx="238" cy="48" r="3.1" fill="none" stroke="#889" stroke-width="0.4"/>
<path d="M 245 48 A 2.5 2.5 0 0 1 250 48 Z" fill="#2db83f"/>
<path d="M 250 48 A 2.5 2.5 0 0 1 245 48 Z" fill="#ee3524"/>
<circle cx="247.5" cy="48" r="2.5" fill="none" stroke="#444" stroke-width="0.6"/>
<circle cx="247.5" cy="48" r="3.1" fill="none" stroke="#889" stroke-width="0.4"/>
<path d="M 254.5 48 A 2.5 2.5 0 0 1 259.5 48 Z" fill="#2db83f"/>
<path d="M 259.5 48 A 2.5 2.5 0 0 1 254.5 48 Z" fill="#ee3524"/>
<circle cx="257" cy="48" r="2.5" fill="none" stroke="#444" stroke-width="0.6"/>
<circle cx="257" cy="48" r="3.1" fill="none" stroke="#889" stroke-width="0.4"/>
<path d="M 264 48 A 2.5 2.5 0 0 1 269 48 Z" fill="#2db83f"/>
<path d="M 269 48 A 2.5 2.5 0 0 1 264 48 Z" fill="#ee3524"/>
<circle cx="266.5" cy="48" r="2.5" fill="none" stroke="#444" stroke-width="0.6"/>
<circle cx="266.5" cy="48" r="3.1" fill="none" stroke="#889" stroke-width="0.4"/>
<path d="M 273.5 48 A 2.5 2.5 0 0 1 278.5 48 Z" fill="#2db83f"/>
<path d="M 278.5 48 A 2.5 2.5 0 0 1 273.5 48 Z" fill="#ee3524"/>
<circle cx="276" cy="48" r="2.5" fill="none" stroke="#444" stroke-width="0.6"/>
<circle cx="276" cy="48" r="3.1" fill="none" stroke="#889" stroke-width="0.4"/>
<path d="M 283 48 A 2.5 2.5 0 0 1 288 48 Z" fill="#2db83f"/>
<path d="M 288 48 A 2.5 2.5 0 0 1 283 48 Z" fill="#ee3524"/>
<circle cx="285.5" cy="48" r="2.5" fill="none" stroke="#444" stroke-width="0.6"/>
<circle cx="285.5" cy="48" r="3.1" fill="none" stroke="#889" stroke-width="0.4"/>
<path d="M 292.5 48 A 2.5 2.5 0 0 1 297.5 48 Z" fill="#2db83f"/>
<path d="M 297.5 48 A 2.5 2.5 0 0 1 292.5 48 Z" fill="#ee3524"/>
<circle cx="295" cy="48" r="2.5" fill="none" stroke="#444" stroke-width="0.6"/>
<circle cx="295" cy="48" r="3.1" fill="none" stroke="#889" stroke-width="0.4"/>
<path d="M 302 48 A 2.5 2.5 0 0 1 307 48 Z" fill="#2db83f"/>
<path d="M 307 48 A 2.5 2.5 0 0 1 302 48 Z" fill="#ee3524"/>
<circle cx="304.5" cy="48" r="2.5" fill="none" stroke="#444" stroke-width="0.6"/>
<circle cx="304.5" cy="48" r="3.1" fill="none" stroke="#889" stroke-width="0.4"/>
<path d="M 311.5 48 A 2.5 2.5 0 0 1 316.5 48 Z" fill="#2db83f"/>
<path d="M 316.5 48 A 2.5 2.5 0 0 1 311.5 48 Z" fill="#ee3524"/>
<circle cx="314" cy="48" r="2.5" fill="none" stroke="#444" stroke-width="0.6"/>
<circle cx="314" cy="48" r="3.1" fill="none" stroke="#889" stroke-width="0.4"/>
<path d="M 321 48 A 2.5 2.5 0 0 1 326 48 Z" fill="#2db83f"/>
<path d="M 326 48 A 2.5 2.5 0 0 1 321 48 Z" fill="#ee3524"/>
<circle cx="323.5" cy="48" r="2.5" fill="none" stroke="#444" stroke-width="0.6"/>
<circle cx="323.5" cy="48" r="3.1" fill="none" stroke="#889" stroke-width="0.4"/>
<path d="M 330.5 48 A 2.5 2.5 0 0 1 335.5 48 Z" fill="#2db83f"/>
<path d="M 335.5 48 A 2.5 2.5 0 0 1 330.5 48 Z" fill="#ee3524"/>
<circle cx="333" cy="48" r="2.5" fill="none" stroke="#444" stroke-width="0.6"/>
<circle cx="333" cy="48" r="3.1" fill="none" stroke="#889" stroke-width="0.4"/>
<path d="M 340 48 A 2.5 2.5 0 0 1 345 48 Z" fill="#2db83f"/>
<path d="M 345 48 A 2.5 2.5 0 0 1 340 48 Z" fill="#ee3524"/>
<circle cx="342.5" cy="48" r="2.5" fill="none" stroke="#444" stroke-width="0.6"/>
<circle cx="342.5" cy="48" r="3.1" fill="none" stroke="#889" stroke-width="0.4"/>
<text x="200" y="43" fill="#445" font-size="3" text-anchor="middle">15</text>
<text x="209.5" y="43" fill="#445" font-size="3" text-anchor="middle">14</text>
<text x="219" y="43" fill="#445" font-size="3" text-anchor="middle">13</text>
<text x="228.5" y="43" fill="#445" font-size="3" text-anchor="middle">12</text>
<text x="238" y="43" fill="#445" font-size="3" text-anchor="middle">11</text>
<text x="247.5" y="43" fill="#445" font-size="3" text-anchor="middle">10</text>
<text x="257" y="43" fill="#445" font-size="3" text-anchor="middle">9</text>
<text x="266.5" y="43" fill="#445" font-size="3" text-anchor="middle">8</text>
<text x="276" y="43" fill="#445" font-size="3" text-anchor="middle">7</text>
<text x="285.5" y="43" fill="#445" font-size="3" text-anchor="middle">6</text>
<text x="295" y="43" fill="#445" font-size="3" text-anchor="middle">5</text>
<text x="304.5" y="43" fill="#445" font-size="3" text-anchor="middle">4</text>
<text x="314" y="43" fill="#445" font-size="3" text-anchor="middle">3</text>
<text x="323.5" y="43" fill="#445" font-size="3" text-anchor="middle">2</text>
<text x="333" y="43" fill="#445" font-size="3" text-anchor="middle">1</text>
<text x="342.5" y="43" fill="#445" font-size="3" text-anchor="middle">0</text>
<line x1="204.75" y1="43.5" x2="204.75" y2="53" stroke="#666" stroke-width="0.5"/>
<line x1="271.25" y1="43.5" x2="271.25" y2="53" stroke="#666" stroke-width="0.5"/>
<text x="194" y="71.5" fill="#111" font-size="4.5" font-weight="bold" text-anchor="end">TOS</text>
<circle cx="200" cy="70" r="2.5" fill="#ee3524" stroke="#444" stroke-width="0.6"/>
<circle cx="200" cy="70" r="3.1" fill="none" stroke="#889" stroke-width="0.4"/>
<circle cx="209.5" cy="70" r="2.5" fill="#ee3524" stroke="#444" stroke-width="0.6"/>
<circle cx="209.5" cy="70" r="3.1" fill="none" stroke="#889" stroke-width="0.4"/>
<circle cx="219" cy="70" r="2.5" fill="#ee3524" stroke="#444" stroke-width="0.6"/>
<circle cx="219" cy="70" r="3.1" fill="none" stroke="#889" stroke-width="0.4"/>
<circle cx="228.5" cy="70" r="2.5" fill="#ee3524" stroke="#444" stroke-width="0.6"/>
<circle cx="228.5" cy="70" r="3.1" fill="none" stroke="#889" stroke-width="0.4"/>
<circle cx="238" cy="70" r="2.5" fill="#ee3524" stroke="#444" stroke-width="0.6"/>
<circle cx="238" cy="70" r="3.1" fill="none" stroke="#889" stroke-width="0.4"/>
<circle cx="247.5" cy="70" r="2.5" fill="#ee3524" stroke="#444" stroke-width="0.6"/>
<circle cx="247.5" cy="70" r="3.1" fill="none" stroke="#889" stroke-width="0.4"/>
<circle cx="257" cy="70" r="2.5" fill="#ee3524" stroke="#444" stroke-width="0.6"/>
<circle cx="257" cy="70" r="3.1" fill="none" stroke="#889" stroke-width="0.4"/>
<circle cx="266.5" cy="70" r="2.5" fill="#ee3524" stroke="#444" stroke-width="0.6"/>
<circle cx="266.5" cy="70" r="3.1" fill="none" stroke="#889" stroke-width="0.4"/>
<text x="194" y="93.5" fill="#111" font-size="4.5" font-weight="bold" text-anchor="end">NOS</text>
<circle cx="200" cy="92" r="2.5" fill="#ee3524" stroke="#444" stroke-width="0.6"/>
<circle cx="200" cy="92" r="3.1" fill="none" stroke="#889" stroke-width="0.4"/>
<circle cx="209.5" cy="92" r="2.5" fill="#ee3524" stroke="#444" stroke-width="0.6"/>
<circle cx="209.5" cy="92" r="3.1" fill="none" stroke="#889" stroke-width="0.4"/>
<circle cx="219" cy="92" r="2.5" fill="#ee3524" stroke="#444" stroke-width="0.6"/>
<circle cx="219" cy="92" r="3.1" fill="none" stroke="#889" stroke-width="0.4"/>
<circle cx="228.5" cy="92" r="2.5" fill="#ee3524" stroke="#444" stroke-width="0.6"/>
<circle cx="228.5" cy="92" r="3.1" fill="none" stroke="#889" stroke-width="0.4"/>
<circle cx="238" cy="92" r="2.5" fill="#ee3524" stroke="#444" stroke-width="0.6"/>
<circle cx="238" cy="92" r="3.1" fill="none" stroke="#889" stroke-width="0.4"/>
<circle cx="247.5" cy="92" r="2.5" fill="#ee3524" stroke="#444" stroke-width="0.6"/>
<circle cx="247.5" cy="92" r="3.1" fill="none" stroke="#889" stroke-width="0.4"/>
<circle cx="257" cy="92" r="2.5" fill="#ee3524" stroke="#444" stroke-width="0.6"/>
<circle cx="257" cy="92" r="3.1" fill="none" stroke="#889" stroke-width="0.4"/>
<circle cx="266.5" cy="92" r="2.5" fill="#ee3524" stroke="#444" stroke-width="0.6"/>
<circle cx="266.5" cy="92" r="3.1" fill="none" stroke="#889" stroke-width="0.4"/>
<text x="294" y="71.5" fill="#111" font-size="4.5" font-weight="bold" text-anchor="end">DSP</text>
<circle cx="300" cy="70" r="2.5" fill="#f2c400" stroke="#444" stroke-width="0.6"/>
<circle cx="300" cy="70" r="3.1" fill="none" stroke="#889" stroke-width="0.4"/>
<circle cx="309.5" cy="70" r="2.5" fill="#f2c400" stroke="#444" stroke-width="0.6"/>
<circle cx="309.5" cy="70" r="3.1" fill="none" stroke="#889" stroke-width="0.4"/>
<circle cx="319" cy="70" r="2.5" fill="#f2c400" stroke="#444" stroke-width="0.6"/>
<circle cx="319" cy="70" r="3.1" fill="none" stroke="#889" stroke-width="0.4"/>
<circle cx="328.5" cy="70" r="2.5" fill="#f2c400" stroke="#444" stroke-width="0.6"/>
<circle cx="328.5" cy="70" r="3.1" fill="none" stroke="#889" stroke-width="0.4"/>
<circle cx="338" cy="70" r="2.5" fill="#f2c400" stroke="#444" stroke-width="0.6"/>
<circle cx="338" cy="70" r="3.1" fill="none" stroke="#889" stroke-width="0.4"/>
<circle cx="347.5" cy="70" r="2.5" fill="#f2c400" stroke="#444" stroke-width="0.6"/>
<circle cx="347.5" cy="70" r="3.1" fill="none" stroke="#889" stroke-width="0.4"/>
<circle cx="357" cy="70" r="2.5" fill="#f2c400" stroke="#444" stroke-width="0.6"/>
<circle cx="357" cy="70" r="3.1" fill="none" stroke="#889" stroke-width="0.4"/>
<circle cx="366.5" cy="70" r="2.5" fill="#f2c400" stroke="#444" stroke-width="0.6"/>
<circle cx="366.5" cy="70" r="3.1" fill="none" stroke="#889" stroke-width="0.4"/>
<text x="294" y="93.5" fill="#111" font-size="4.5" font-weight="bold" text-anchor="end">RSP</text>
<circle cx="300" cy="92" r="2.5" fill="#f2c400" stroke="#444" stroke-width="0.6"/>
<circle cx="300" cy="92" r="3.1" fill="none" stroke="#889" stroke-width="0.4"/>
<circle cx="309.5" cy="92" r="2.5" fill="#f2c400" stroke="#444" stroke-width="0.6"/>
<circle cx="309.5" cy="92" r="3.1" fill="none" stroke="#889" stroke-width="0.4"/>
<circle cx="319" cy="92" r="2.5" fill="#f2c400" stroke="#444" stroke-width="0.6"/>
<circle cx="319" cy="92" r="3.1" fill="none" stroke="#889" stroke-width="0.4"/>
<circle cx="328.5" cy="92" r="2.5" fill="#f2c400" stroke="#444" stroke-width="0.6"/>
<circle cx="328.5" cy="92" r="3.1" fill="none" stroke="#889" stroke-width="0.4"/>
<circle cx="338" cy="92" r="2.5" fill="#f2c400" stroke="#444" stroke-width="0.6"/>
<circle cx="338" cy="92" r="3.1" fill="none" stroke="#889" stroke-width="0.4"/>
<circle cx="347.5" cy="92" r="2.5" fill="#f2c400" stroke="#444" stroke-width="0.6"/>
<circle cx="347.5" cy="92" r="3.1" fill="none" stroke="#889" stroke-width="0.4"/>
<circle cx="357" cy="92" r="2.5" fill="#f2c400" stroke="#444" stroke-width="0.6"/>
<circle cx="357" cy="92" r="3.1" fill="none" stroke="#889" stroke-width="0.4"/>
<circle cx="366.5" cy="92" r="2.5" fill="#f2c400" stroke="#444" stroke-width="0.6"/>
<circle cx="366.5" cy="92" r="3.1" fill="none" stroke="#889" stroke-width="0.4"/>
<text x="194" y="115.5" fill="#111" font-size="4.5" font-weight="bold" text-anchor="end">OUT</text>
<circle cx="200" cy="114" r="2.5" fill="#ee3524" stroke="#444" stroke-width="0.6"/>
<circle cx="200" cy="114" r="3.1" fill="none" stroke="#889" stroke-width="0.4"/>
<circle cx="209.5" cy="114" r="2.5" fill="#ee3524" stroke="#444" stroke-width="0.6"/>
<circle cx="209.5" cy="114" r="3.1" fill="none" stroke="#889" stroke-width="0.4"/>
<circle cx="219" cy="114" r="2.5" fill="#ee3524" stroke="#444" stroke-width="0.6"/>
<circle cx="219" cy="114" r="3.1" fill="none" stroke="#889" stroke-width="0.4"/>
<circle cx="228.5" cy="114" r="2.5" fill="#ee3524" stroke="#444" stroke-width="0.6"/>
<circle cx="228.5" cy="114" r="3.1" fill="none" stroke="#889" stroke-width="0.4"/>
<circle cx="238" cy="114" r="2.5" fill="#ee3524" stroke="#444" stroke-width="0.6"/>
<circle cx="238" cy="114" r="3.1" fill="none" stroke="#889" stroke-width="0.4"/>
<circle cx="247.5" cy="114" r="2.5" fill="#ee3524" stroke="#444" stroke-width="0.6"/>
<circle cx="247.5" cy="114" r="3.1" fill="none" stroke="#889" stroke-width="0.4"/>
<circle cx="257" cy="114" r="2.5" fill="#ee3524" stroke="#444" stroke-width="0.6"/>
<circle cx="257" cy="114" r="3.1" fill="none" stroke="#889" stroke-width="0.4"/>
<circle cx="266.5" cy="114" r="2.5" fill="#ee3524" stroke="#444" stroke-width="0.6"/>
<circle cx="266.5" cy="114" r="3.1" fill="none" stroke="#889" stroke-width="0.4"/>
<text x="200" y="121" fill="#445" font-size="3" text-anchor="middle">7</text>
<text x="209.5" y="121" fill="#445" font-size="3" text-anchor="middle">6</text>
<text x="219" y="121" fill="#445" font-size="3" text-anchor="middle">5</text>
<text x="228.5" y="121" fill="#445" font-size="3" text-anchor="middle">4</text>
<text x="238" y="121" fill="#445" font-size="3" text-anchor="middle">3</text>
<text x="247.5" y="121" fill="#445" font-size="3" text-anchor="middle">2</text>
<text x="257" y="121" fill="#445" font-size="3" text-anchor="middle">1</text>
<text x="266.5" y="121" fill="#445" font-size="3" text-anchor="middle">0</text>
<text x="294" y="115.5" fill="#111" font-size="4.5" font-weight="bold" text-anchor="end">PCSEL</text>
<circle cx="300" cy="114" r="2.5" fill="#3a97f0" stroke="#444" stroke-width="0.6"/>
<circle cx="300" cy="114" r="3.1" fill="none" stroke="#889" stroke-width="0.4"/>
<text x="300" y="121" fill="#222" font-size="3.2" text-anchor="middle">SEQ</text>
<circle cx="313" cy="114" r="2.5" fill="#3a97f0" stroke="#444" stroke-width="0.6"/>
<circle cx="313" cy="114" r="3.1" fill="none" stroke="#889" stroke-width="0.4"/>
<text x="313" y="121" fill="#222" font-size="3.2" text-anchor="middle">JMP</text>
<circle cx="326" cy="114" r="2.5" fill="#3a97f0" stroke="#444" stroke-width="0.6"/>
<circle cx="326" cy="114" r="3.1" fill="none" stroke="#889" stroke-width="0.4"/>
<text x="326" y="121" fill="#222" font-size="3.2" text-anchor="middle">RET</text>
<circle cx="339" cy="114" r="2.5" fill="#3a97f0" stroke="#444" stroke-width="0.6"/>
<circle cx="339" cy="114" r="3.1" fill="none" stroke="#889" stroke-width="0.4"/>
<text x="339" y="121" fill="#222" font-size="3.2" text-anchor="middle">VEC</text>
<text x="364" y="115.5" fill="#111" font-size="4.5" font-weight="bold" text-anchor="end">FLAGS</text>
<circle cx="370" cy="114" r="2.5" fill="#f27a12" stroke="#444" stroke-width="0.6"/>
<circle cx="370" cy="114" r="3.1" fill="none" stroke="#889" stroke-width="0.4"/>
<text x="370" y="121" fill="#222" font-size="3.2" text-anchor="middle">N</text>
<circle cx="383" cy="114" r="2.5" fill="#f27a12" stroke="#444" stroke-width="0.6"/>
<circle cx="383" cy="114" r="3.1" fill="none" stroke="#889" stroke-width="0.4"/>
<text x="383" y="121" fill="#222" font-size="3.2" text-anchor="middle">Z</text>
<circle cx="396" cy="114" r="2.5" fill="#f27a12" stroke="#444" stroke-width="0.6"/>
<circle cx="396" cy="114" r="3.1" fill="none" stroke="#889" stroke-width="0.4"/>
<text x="396" y="121" fill="#222" font-size="3.2" text-anchor="middle">C</text>
<circle cx="409" cy="114" r="2.5" fill="#f27a12" stroke="#444" stroke-width="0.6"/>
<circle cx="409" cy="114" r="3.1" fill="none" stroke="#889" stroke-width="0.4"/>
<text x="409" y="121" fill="#222" font-size="3.2" text-anchor="middle">I</text>
<circle cx="430" cy="114" r="2.5" fill="#ee3524" stroke="#444" stroke-width="0.6"/>
<circle cx="430" cy="114" r="3.1" fill="none" stroke="#889" stroke-width="0.4"/>
<text x="430" y="121" fill="#222" font-size="3.2" text-anchor="middle">IRQ*</text>
<circle cx="444" cy="114" r="2.5" fill="#ee3524" stroke="#444" stroke-width="0.6"/>
<circle cx="444" cy="114" r="3.1" fill="none" stroke="#889" stroke-width="0.4"/>
<text x="444" y="121" fill="#222" font-size="3.2" text-anchor="middle">NMI*</text>
<circle cx="458" cy="114" r="2.5" fill="#2db83f" stroke="#444" stroke-width="0.6"/>
<circle cx="458" cy="114" r="3.1" fill="none" stroke="#889" stroke-width="0.4"/>
<text x="458" y="121" fill="#222" font-size="3.2" text-anchor="middle">RUN</text>
<text x="464" y="106" fill="#666" font-size="3" text-anchor="end">* = PENDING</text>
<line x1="14" y1="136" x2="466" y2="136" stroke="#889" stroke-width="0.6"/>
<rect x="20" y="146" width="170" height="60" rx="2" fill="none" stroke="#889" stroke-width="0.5"/>
<text x="23" y="152" fill="#334" font-size="4.2" font-weight="bold">CLOCK</text>
<circle cx="38" cy="162" r="2.5" fill="#ee3524" stroke="#444" stroke-width="0.6"/>
<circle cx="38" cy="162" r="3.1" fill="none" stroke="#889" stroke-width="0.4"/>
<text x="38" y="169" fill="#222" font-size="3.2" text-anchor="middle">POWER</text>
<circle cx="69" cy="162" r="2.5" fill="#f27a12" stroke="#444" stroke-width="0.6"/>
<circle cx="69" cy="162" r="3.1" fill="none" stroke="#889" stroke-width="0.4"/>
<text x="69" y="169" fill="#222" font-size="3.2" text-anchor="middle">OSC</text>
<circle cx="100" cy="162" r="2.5" fill="#2db83f" stroke="#444" stroke-width="0.6"/>
<circle cx="100" cy="162" r="3.1" fill="none" stroke="#889" stroke-width="0.4"/>
<text x="100" y="169" fill="#222" font-size="3.2" text-anchor="middle">RUN MODE</text>
<circle cx="131" cy="162" r="2.5" fill="#2db83f" stroke="#444" stroke-width="0.6"/>
<circle cx="131" cy="162" r="3.1" fill="none" stroke="#889" stroke-width="0.4"/>
<text x="131" y="169" fill="#222" font-size="3.2" text-anchor="middle">STEP MODE</text>
<circle cx="162" cy="162" r="2.5" fill="#ee3524" stroke="#444" stroke-width="0.6"/>
<circle cx="162" cy="162" r="3.1" fill="none" stroke="#889" stroke-width="0.4"/>
<text x="162" y="169" fill="#222" font-size="3.2" text-anchor="middle">RESET</text>
<circle cx="38" cy="187" r="2.5" fill="#e8eaec" stroke="#444" stroke-width="0.6"/>
<line x1="38" y1="187" x2="38" y2="182" stroke="#333" stroke-width="1.6" stroke-linecap="round"/>
<text x="38" y="198" fill="#222" font-size="3.2" text-anchor="middle">POWER</text>
<circle cx="69" cy="187" r="3.2" fill="none" stroke="#444" stroke-width="0.6"/>
<circle cx="69" cy="187" r="2.5" fill="#c0392b" stroke="#444" stroke-width="0.5"/>
<text x="69" y="198" fill="#222" font-size="3.2" text-anchor="middle">STEP</text>
<circle cx="100" cy="187" r="3.2" fill="none" stroke="#444" stroke-width="0.6"/>
<circle cx="100" cy="187" r="2.5" fill="#c0392b" stroke="#444" stroke-width="0.5"/>
<text x="100" y="198" fill="#222" font-size="3.2" text-anchor="middle">STEP MODE</text>
<circle cx="131" cy="187" r="3.2" fill="none" stroke="#444" stroke-width="0.6"/>
<circle cx="131" cy="187" r="2.5" fill="#c0392b" stroke="#444" stroke-width="0.5"/>
<text x="131" y="198" fill="#222" font-size="3.2" text-anchor="middle">RUN MODE</text>
<circle cx="162" cy="187" r="3.2" fill="none" stroke="#444" stroke-width="0.6"/>
<circle cx="162" cy="187" r="2.5" fill="#c0392b" stroke="#444" stroke-width="0.5"/>
<text x="162" y="198" fill="#222" font-size="3.2" text-anchor="middle">RESET</text>
<text x="38" y="203" fill="#666" font-size="2.6" text-anchor="middle">UP = ON</text>
<rect x="200" y="146" width="68" height="60" rx="2" fill="none" stroke="#889" stroke-width="0.5"/>
<text x="203" y="152" fill="#334" font-size="4.2" font-weight="bold">INTERRUPTS</text>
<circle cx="220" cy="187" r="3.2" fill="none" stroke="#444" stroke-width="0.6"/>
<circle cx="220" cy="187" r="2.5" fill="#c0392b" stroke="#444" stroke-width="0.5"/>
<text x="220" y="198" fill="#222" font-size="3.2" text-anchor="middle">IRQ</text>
<circle cx="248" cy="187" r="3.2" fill="none" stroke="#444" stroke-width="0.6"/>
<circle cx="248" cy="187" r="2.5" fill="#c0392b" stroke="#444" stroke-width="0.5"/>
<text x="248" y="198" fill="#222" font-size="3.2" text-anchor="middle">NMI</text>
<text x="234" y="166" fill="#666" font-size="3" text-anchor="middle">PENDING LEDS IN</text>
<text x="234" y="171" fill="#666" font-size="3" text-anchor="middle">STATUS GROUP</text>
<rect x="278" y="146" width="184" height="60" rx="2" fill="none" stroke="#889" stroke-width="0.5"/>
<text x="281" y="152" fill="#334" font-size="4.2" font-weight="bold">INPUT PORT</text>
<circle cx="296" cy="182" r="2.5" fill="#e8eaec" stroke="#444" stroke-width="0.6"/>
<line x1="296" y1="182" x2="296" y2="177" stroke="#333" stroke-width="1.6" stroke-linecap="round"/>
<text x="296" y="193" fill="#222" font-size="3.2" text-anchor="middle">IN7</text>
<text x="296" y="175" fill="#445" font-size="3" text-anchor="middle">7</text>
<circle cx="317" cy="182" r="2.5" fill="#e8eaec" stroke="#444" stroke-width="0.6"/>
<line x1="317" y1="182" x2="317" y2="177" stroke="#333" stroke-width="1.6" stroke-linecap="round"/>
<text x="317" y="193" fill="#222" font-size="3.2" text-anchor="middle">IN6</text>
<text x="317" y="175" fill="#445" font-size="3" text-anchor="middle">6</text>
<circle cx="338" cy="182" r="2.5" fill="#e8eaec" stroke="#444" stroke-width="0.6"/>
<line x1="338" y1="182" x2="338" y2="177" stroke="#333" stroke-width="1.6" stroke-linecap="round"/>
<text x="338" y="193" fill="#222" font-size="3.2" text-anchor="middle">IN5</text>
<text x="338" y="175" fill="#445" font-size="3" text-anchor="middle">5</text>
<circle cx="359" cy="182" r="2.5" fill="#e8eaec" stroke="#444" stroke-width="0.6"/>
<line x1="359" y1="182" x2="359" y2="177" stroke="#333" stroke-width="1.6" stroke-linecap="round"/>
<text x="359" y="193" fill="#222" font-size="3.2" text-anchor="middle">IN4</text>
<text x="359" y="175" fill="#445" font-size="3" text-anchor="middle">4</text>
<circle cx="380" cy="182" r="2.5" fill="#e8eaec" stroke="#444" stroke-width="0.6"/>
<line x1="380" y1="182" x2="380" y2="177" stroke="#333" stroke-width="1.6" stroke-linecap="round"/>
<text x="380" y="193" fill="#222" font-size="3.2" text-anchor="middle">IN3</text>
<text x="380" y="175" fill="#445" font-size="3" text-anchor="middle">3</text>
<circle cx="401" cy="182" r="2.5" fill="#e8eaec" stroke="#444" stroke-width="0.6"/>
<line x1="401" y1="182" x2="401" y2="177" stroke="#333" stroke-width="1.6" stroke-linecap="round"/>
<text x="401" y="193" fill="#222" font-size="3.2" text-anchor="middle">IN2</text>
<text x="401" y="175" fill="#445" font-size="3" text-anchor="middle">2</text>
<circle cx="422" cy="182" r="2.5" fill="#e8eaec" stroke="#444" stroke-width="0.6"/>
<line x1="422" y1="182" x2="422" y2="177" stroke="#333" stroke-width="1.6" stroke-linecap="round"/>
<text x="422" y="193" fill="#222" font-size="3.2" text-anchor="middle">IN1</text>
<text x="422" y="175" fill="#445" font-size="3" text-anchor="middle">1</text>
<circle cx="443" cy="182" r="2.5" fill="#e8eaec" stroke="#444" stroke-width="0.6"/>
<line x1="443" y1="182" x2="443" y2="177" stroke="#333" stroke-width="1.6" stroke-linecap="round"/>
<text x="443" y="193" fill="#222" font-size="3.2" text-anchor="middle">IN0</text>
<text x="443" y="175" fill="#445" font-size="3" text-anchor="middle">0</text>
<text x="453" y="201" fill="#666" font-size="2.6" text-anchor="end">UP = 1</text>
<rect x="20" y="216" width="442" height="56" rx="2" fill="none" stroke="#889" stroke-width="0.5"/>
<text x="23" y="222" fill="#334" font-size="4.2" font-weight="bold">BREAKPOINT</text>
<circle cx="40" cy="244" r="2.5" fill="#e8eaec" stroke="#444" stroke-width="0.6"/>
<line x1="40" y1="244" x2="40" y2="239" stroke="#333" stroke-width="1.6" stroke-linecap="round"/>
<text x="40" y="255" fill="#222" font-size="3.2" text-anchor="middle">BP EN</text>
<line x1="52" y1="228" x2="52" y2="264" stroke="#889" stroke-width="0.4"/>
<circle cx="68" cy="244" r="2.5" fill="#e8eaec" stroke="#444" stroke-width="0.6"/>
<line x1="68" y1="244" x2="68" y2="239" stroke="#333" stroke-width="1.6" stroke-linecap="round"/>
<text x="68" y="255" fill="#222" font-size="3.2" text-anchor="middle">BPF</text>
<text x="68" y="260.5" fill="#666" font-size="2.6" text-anchor="middle">(SPARE)</text>
<circle cx="92" cy="244" r="2.5" fill="#e8eaec" stroke="#444" stroke-width="0.6"/>
<line x1="92" y1="244" x2="92" y2="239" stroke="#333" stroke-width="1.6" stroke-linecap="round"/>
<text x="92" y="255" fill="#222" font-size="3.2" text-anchor="middle">BPE</text>
<text x="92" y="260.5" fill="#666" font-size="2.6" text-anchor="middle">(SPARE)</text>
<circle cx="116" cy="244" r="2.5" fill="#e8eaec" stroke="#444" stroke-width="0.6"/>
<line x1="116" y1="244" x2="116" y2="239" stroke="#333" stroke-width="1.6" stroke-linecap="round"/>
<text x="116" y="255" fill="#222" font-size="3.2" text-anchor="middle">BPD</text>
<text x="116" y="260.5" fill="#666" font-size="2.6" text-anchor="middle">(SPARE)</text>
<circle cx="140" cy="244" r="2.5" fill="#e8eaec" stroke="#444" stroke-width="0.6"/>
<line x1="140" y1="244" x2="140" y2="239" stroke="#333" stroke-width="1.6" stroke-linecap="round"/>
<text x="140" y="255" fill="#222" font-size="3.2" text-anchor="middle">BPC</text>
<circle cx="164" cy="244" r="2.5" fill="#e8eaec" stroke="#444" stroke-width="0.6"/>
<line x1="164" y1="244" x2="164" y2="239" stroke="#333" stroke-width="1.6" stroke-linecap="round"/>
<text x="164" y="255" fill="#222" font-size="3.2" text-anchor="middle">BPB</text>
<circle cx="188" cy="244" r="2.5" fill="#e8eaec" stroke="#444" stroke-width="0.6"/>
<line x1="188" y1="244" x2="188" y2="239" stroke="#333" stroke-width="1.6" stroke-linecap="round"/>
<text x="188" y="255" fill="#222" font-size="3.2" text-anchor="middle">BPA</text>
<circle cx="212" cy="244" r="2.5" fill="#e8eaec" stroke="#444" stroke-width="0.6"/>
<line x1="212" y1="244" x2="212" y2="239" stroke="#333" stroke-width="1.6" stroke-linecap="round"/>
<text x="212" y="255" fill="#222" font-size="3.2" text-anchor="middle">BP9</text>
<circle cx="236" cy="244" r="2.5" fill="#e8eaec" stroke="#444" stroke-width="0.6"/>
<line x1="236" y1="244" x2="236" y2="239" stroke="#333" stroke-width="1.6" stroke-linecap="round"/>
<text x="236" y="255" fill="#222" font-size="3.2" text-anchor="middle">BP8</text>
<circle cx="260" cy="244" r="2.5" fill="#e8eaec" stroke="#444" stroke-width="0.6"/>
<line x1="260" y1="244" x2="260" y2="239" stroke="#333" stroke-width="1.6" stroke-linecap="round"/>
<text x="260" y="255" fill="#222" font-size="3.2" text-anchor="middle">BP7</text>
<circle cx="284" cy="244" r="2.5" fill="#e8eaec" stroke="#444" stroke-width="0.6"/>
<line x1="284" y1="244" x2="284" y2="239" stroke="#333" stroke-width="1.6" stroke-linecap="round"/>
<text x="284" y="255" fill="#222" font-size="3.2" text-anchor="middle">BP6</text>
<circle cx="308" cy="244" r="2.5" fill="#e8eaec" stroke="#444" stroke-width="0.6"/>
<line x1="308" y1="244" x2="308" y2="239" stroke="#333" stroke-width="1.6" stroke-linecap="round"/>
<text x="308" y="255" fill="#222" font-size="3.2" text-anchor="middle">BP5</text>
<circle cx="332" cy="244" r="2.5" fill="#e8eaec" stroke="#444" stroke-width="0.6"/>
<line x1="332" y1="244" x2="332" y2="239" stroke="#333" stroke-width="1.6" stroke-linecap="round"/>
<text x="332" y="255" fill="#222" font-size="3.2" text-anchor="middle">BP4</text>
<circle cx="356" cy="244" r="2.5" fill="#e8eaec" stroke="#444" stroke-width="0.6"/>
<line x1="356" y1="244" x2="356" y2="239" stroke="#333" stroke-width="1.6" stroke-linecap="round"/>
<text x="356" y="255" fill="#222" font-size="3.2" text-anchor="middle">BP3</text>
<circle cx="380" cy="244" r="2.5" fill="#e8eaec" stroke="#444" stroke-width="0.6"/>
<line x1="380" y1="244" x2="380" y2="239" stroke="#333" stroke-width="1.6" stroke-linecap="round"/>
<text x="380" y="255" fill="#222" font-size="3.2" text-anchor="middle">BP2</text>
<circle cx="404" cy="244" r="2.5" fill="#e8eaec" stroke="#444" stroke-width="0.6"/>
<line x1="404" y1="244" x2="404" y2="239" stroke="#333" stroke-width="1.6" stroke-linecap="round"/>
<text x="404" y="255" fill="#222" font-size="3.2" text-anchor="middle">BP1</text>
<circle cx="428" cy="244" r="2.5" fill="#e8eaec" stroke="#444" stroke-width="0.6"/>
<line x1="428" y1="244" x2="428" y2="239" stroke="#333" stroke-width="1.6" stroke-linecap="round"/>
<text x="428" y="255" fill="#222" font-size="3.2" text-anchor="middle">BP0</text>
<text x="456" y="268" fill="#666" font-size="3" text-anchor="end">UP = 1 - PC IS 13 BITS - BPD..BPF SPARE</text>
<text x="20" y="288" fill="#334" font-size="4" font-weight="bold">LEGEND</text>
<circle cx="48" cy="286.5" r="2.5" fill="#2db83f" stroke="#444" stroke-width="0.6"/>
<circle cx="48" cy="286.5" r="3.1" fill="none" stroke="#889" stroke-width="0.4"/>
<text x="53" y="288" fill="#222" font-size="3.4">ADDRESS</text>
<circle cx="81" cy="286.5" r="2.5" fill="#ee3524" stroke="#444" stroke-width="0.6"/>
<circle cx="81" cy="286.5" r="3.1" fill="none" stroke="#889" stroke-width="0.4"/>
<text x="86" y="288" fill="#222" font-size="3.4">DATA</text>
<circle cx="107" cy="286.5" r="2.5" fill="#f2c400" stroke="#444" stroke-width="0.6"/>
<circle cx="107" cy="286.5" r="3.1" fill="none" stroke="#889" stroke-width="0.4"/>
<text x="112" y="288" fill="#222" font-size="3.4">OPCODE / POINTER</text>
<circle cx="161" cy="286.5" r="2.5" fill="#f27a12" stroke="#444" stroke-width="0.6"/>
<circle cx="161" cy="286.5" r="3.1" fill="none" stroke="#889" stroke-width="0.4"/>
<text x="166" y="288" fill="#222" font-size="3.4">FLAGS</text>
<circle cx="189" cy="286.5" r="2.5" fill="#3a97f0" stroke="#444" stroke-width="0.6"/>
<circle cx="189" cy="286.5" r="3.1" fill="none" stroke="#889" stroke-width="0.4"/>
<text x="194" y="288" fill="#222" font-size="3.4">NEXTPC SRC</text>
<path d="M 228.5 286.5 A 2.5 2.5 0 0 1 233.5 286.5 Z" fill="#2db83f"/>
<path d="M 233.5 286.5 A 2.5 2.5 0 0 1 228.5 286.5 Z" fill="#ee3524"/>
<circle cx="231" cy="286.5" r="2.5" fill="none" stroke="#444" stroke-width="0.6"/>
<circle cx="231" cy="286.5" r="3.1" fill="none" stroke="#889" stroke-width="0.4"/>
<text x="236" y="288" fill="#222" font-size="3.4">IR: BICOLOUR R/G (YELLOW = BOTH)</text>
<circle cx="325" cy="287" r="2.5" fill="#e8eaec" stroke="#444" stroke-width="0.6"/>
<line x1="325" y1="287" x2="325" y2="282" stroke="#333" stroke-width="1.6" stroke-linecap="round"/>
<text x="330" y="288" fill="#222" font-size="3.4">TOGGLE (UP=ON)</text>
<circle cx="377" cy="286.5" r="3.2" fill="none" stroke="#444" stroke-width="0.6"/>
<circle cx="377" cy="286.5" r="2.5" fill="#c0392b" stroke="#444" stroke-width="0.5"/>
<text x="383" y="288" fill="#222" font-size="3.4">MOMENTARY</text>
<text x="464" y="296" fill="#222" font-size="3.4" text-anchor="end">ALL HOLES 5 mm - PANEL 480 x 310 mm</text>
</svg>