<svg xmlns="http://www.w3.org/2000/svg" viewBox="0 0 2130 1140" font-family="Segoe UI, Arial, sans-serif">
  <defs>
    <g id="res-v" stroke="#000" fill="none" stroke-width="1.6"><path d="M0,0 L0,10 L8,14 L-8,22 L8,30 L-8,38 L8,46 L0,50 L0,60"/></g>
    <g id="trim-v"><use href="#res-v"/><line x1="-16" y1="50" x2="14" y2="8" stroke="#000" stroke-width="1.4"/><polygon points="14,8 5,9 11,16" fill="#000"/></g>
    <g id="cap-v" stroke="#000" fill="none" stroke-width="1.6"><line x1="0" y1="0" x2="0" y2="24"/><line x1="-13" y1="24" x2="13" y2="24" stroke-width="2"/><line x1="-13" y1="32" x2="13" y2="32" stroke-width="2"/><line x1="0" y1="32" x2="0" y2="56"/></g>
    <g id="gnd" stroke="#000" stroke-width="1.8"><line x1="-14" y1="0" x2="14" y2="0"/><line x1="-9" y1="6" x2="9" y2="6"/><line x1="-4" y1="12" x2="4" y2="12"/></g>
    <g id="vcc" stroke="#c62828" stroke-width="1.8"><line x1="0" y1="0" x2="0" y2="-12"/><line x1="-9" y1="-12" x2="9" y2="-12"/></g>
    <g id="btn-v" stroke="#000" fill="#fff" stroke-width="1.6"><line x1="0" y1="0" x2="0" y2="10"/><circle cx="0" cy="15" r="3.5"/><circle cx="0" cy="41" r="3.5"/><line x1="0" y1="46" x2="0" y2="56"/><line x1="10" y1="12" x2="10" y2="44"/><line x1="10" y1="28" x2="22" y2="28"/><line x1="22" y1="20" x2="22" y2="36"/></g>
    <g id="led-g"><line x1="0" y1="0" x2="0" y2="6" stroke="#000" stroke-width="1.6"/><polygon points="-9,6 9,6 0,22" fill="#2e7d32" stroke="#000" stroke-width="1.4"/><line x1="-9" y1="22" x2="9" y2="22" stroke="#000" stroke-width="2"/><line x1="0" y1="22" x2="0" y2="30" stroke="#000" stroke-width="1.6"/><line x1="9" y1="6" x2="17" y2="-2" stroke="#000" stroke-width="1.2"/><line x1="14" y1="11" x2="22" y2="3" stroke="#000" stroke-width="1.2"/></g>
    <g id="led-y"><line x1="0" y1="0" x2="0" y2="6" stroke="#000" stroke-width="1.6"/><polygon points="-9,6 9,6 0,22" fill="#f9a825" stroke="#000" stroke-width="1.4"/><line x1="-9" y1="22" x2="9" y2="22" stroke="#000" stroke-width="2"/><line x1="0" y1="22" x2="0" y2="30" stroke="#000" stroke-width="1.6"/><line x1="9" y1="6" x2="17" y2="-2" stroke="#000" stroke-width="1.2"/><line x1="14" y1="11" x2="22" y2="3" stroke="#000" stroke-width="1.2"/></g>
    <g id="led-r"><line x1="0" y1="0" x2="0" y2="6" stroke="#000" stroke-width="1.6"/><polygon points="-9,6 9,6 0,22" fill="#c62828" stroke="#000" stroke-width="1.4"/><line x1="-9" y1="22" x2="9" y2="22" stroke="#000" stroke-width="2"/><line x1="0" y1="22" x2="0" y2="30" stroke="#000" stroke-width="1.6"/><line x1="9" y1="6" x2="17" y2="-2" stroke="#000" stroke-width="1.2"/><line x1="14" y1="11" x2="22" y2="3" stroke="#000" stroke-width="1.2"/></g>
    <g id="nand"><line x1="-15" y1="16" x2="0" y2="16" stroke="#000" stroke-width="1.6"/><line x1="-15" y1="40" x2="0" y2="40" stroke="#000" stroke-width="1.6"/><path d="M0,0 L25,0 A28,28 0 0 1 25,56 L0,56 Z" fill="#fff" stroke="#000" stroke-width="1.8"/><circle cx="58" cy="28" r="5" fill="#fff" stroke="#000" stroke-width="1.8"/><line x1="63" y1="28" x2="80" y2="28" stroke="#000" stroke-width="1.6"/></g>
    <g id="inv"><line x1="-15" y1="28" x2="0" y2="28" stroke="#000" stroke-width="1.6"/><path d="M0,8 L0,48 L40,28 Z" fill="#fff" stroke="#000" stroke-width="1.8"/><circle cx="45" cy="28" r="5" fill="#fff" stroke="#000" stroke-width="1.8"/><line x1="50" y1="28" x2="68" y2="28" stroke="#000" stroke-width="1.6"/></g>
    <g id="diode" stroke="#000" fill="none" stroke-width="1.6"><line x1="0" y1="0" x2="12" y2="0"/><polygon points="12,-8 12,8 26,0" fill="#000"/><line x1="26" y1="-8" x2="26" y2="8" stroke-width="2"/><line x1="26" y1="0" x2="38" y2="0"/></g>
  </defs>
<text x="50" y="40" font-size="19" fill="#222" text-anchor="start" font-weight="bold">Blinky Clock Module</text>
<text x="50" y="62" font-size="12" fill="#777" text-anchor="start">pushbutton mode select · single /OSC domain · supervised reset — gate-level redraw from netlist</text>
<text x="50" y="82" font-size="11" fill="#999" text-anchor="start">U1 NE556 · U2 74HC14 (A–F) · U3/U6 74HC00 (A–D) · U4 74HC273 · U5 DS1813 · D5/D6/D7 1N5819</text>
<text x="50" y="150" font-size="13" fill="#8a8a8a" text-anchor="start" font-weight="bold" letter-spacing="1">SINGLE-STEP DEBOUNCE</text>
<text x="560" y="150" font-size="13" fill="#8a8a8a" text-anchor="start" font-weight="bold" letter-spacing="1">OSCILLATOR (556 timer 2)</text>
<rect x="380" y="190" width="170" height="230" rx="3" fill="#fdfdfd" stroke="#000" stroke-width="1.8"/>
<text x="388" y="208" font-size="11" fill="#333" text-anchor="start" font-weight="bold">U1</text>
<text x="465" y="208" font-size="14" fill="#333" text-anchor="middle" font-weight="bold">NE556</text>
<text x="387" y="244" font-size="10" fill="#333" text-anchor="start">2 THR1</text>
<text x="387" y="274" font-size="10" fill="#333" text-anchor="start">6 TRG1</text>
<text x="387" y="324" font-size="10" fill="#333" text-anchor="start">5 OUT1</text>
<text x="387" y="372" font-size="10" fill="#333" text-anchor="start">4 /RST1</text>
<text x="543" y="222" font-size="10" fill="#333" text-anchor="end">14 VCC</text>
<text x="543" y="256" font-size="10" fill="#333" text-anchor="end">9 OUT2</text>
<text x="543" y="308" font-size="10" fill="#333" text-anchor="end">12 THR2</text>
<text x="543" y="340" font-size="10" fill="#333" text-anchor="end">8 TRG2</text>
<text x="543" y="392" font-size="10" fill="#333" text-anchor="end">10 /RST2</text>
<text x="465" y="412" font-size="10" fill="#333" text-anchor="middle">7 GND</text>
<text x="465" y="454" font-size="9" fill="#888" text-anchor="middle" font-style="italic">timer 1 = Schmitt debounce · timer 2 = astable</text>
<path d="M465,420 L465,436" fill="none" stroke="#000" stroke-width="1.8"/>
<use href="#gnd" x="465" y="436"/>
<path d="M550,218 L584,218" fill="none" stroke="#c62828" stroke-width="1.8"/>
<use href="#vcc" x="584" y="218"/>
<path d="M550,388 L600,388 L600,218 L584,218" fill="none" stroke="#c62828" stroke-width="1.8"/>
<use href="#vcc" x="150" y="175"/>
<use href="#res-v" x="150" y="182"/>
<rect x="163.0" y="208.0" width="49.1" height="16" fill="#fff" opacity="0.85"/>
<text x="166" y="218" font-size="11" fill="#333" text-anchor="start">R1 100k</text>
<path d="M150,242 L150,255" fill="none" stroke="#1565c0" stroke-width="1.8"/>
<circle cx="150" cy="255" r="3.2" fill="#1565c0"/>
<use href="#btn-v" x="150" y="262"/>
<text x="134" y="294" font-size="11" fill="#333" text-anchor="end">SW1</text>
<text x="134" y="308" font-size="9" fill="#888" text-anchor="end">step</text>
<path d="M150,318 L150,330" fill="none" stroke="#000" stroke-width="1.8"/>
<use href="#gnd" x="150" y="330"/>
<path d="M150,255 L240,255 L240,262" fill="none" stroke="#1565c0" stroke-width="1.8"/>
<use href="#cap-v" x="240" y="262"/>
<rect x="179.9" y="290.0" width="49.1" height="16" fill="#fff" opacity="0.85"/>
<text x="226" y="300" font-size="11" fill="#333" text-anchor="end">C1 470n</text>
<path d="M240,318 L240,330" fill="none" stroke="#000" stroke-width="1.8"/>
<use href="#gnd" x="240" y="330"/>
<path d="M150,255 L330,255" fill="none" stroke="#1565c0" stroke-width="1.8"/>
<circle cx="330" cy="255" r="3.2" fill="#1565c0"/>
<path d="M330,255 L330,240 L380,240" fill="none" stroke="#1565c0" stroke-width="1.8"/>
<circle cx="330" cy="240" r="3.2" fill="#1565c0"/>
<path d="M330,240 L330,270 L380,270" fill="none" stroke="#1565c0" stroke-width="1.8"/>
<path d="M380,320 L300,320" fill="none" stroke="#1565c0" stroke-width="1.8"/>
<circle cx="300" cy="320" r="3.2" fill="#1565c0"/>
<use href="#vcc" x="300" y="246"/>
<use href="#res-v" x="300" y="252"/>
<rect x="313.0" y="276.0" width="43.0" height="16" fill="#fff" opacity="0.85"/>
<text x="316" y="286" font-size="11" fill="#333" text-anchor="start">R9 4k7</text>
<path d="M300,320 L300,396" fill="none" stroke="#1565c0" stroke-width="1.8"/>
<path d="M288,396 L300,396" fill="none" stroke="#1565c0" stroke-width="1.8"/>
<rect x="214.6" y="387" width="73.4" height="18" rx="4" fill="#eef3fb" stroke="#1565c0" stroke-width="1.1"/>
<text x="251.3" y="400" font-size="10" fill="#1565c0" text-anchor="middle">STEP_DB ▸</text>
<circle cx="300" cy="396" r="3.2" fill="#1565c0"/>
<path d="M380,368 L270,368 L270,246 L300,246" fill="none" stroke="#c62828" stroke-width="1.8"/>
<circle cx="300" cy="246" r="3.2" fill="#1565c0"/>
<path d="M550,252 L600,252" fill="none" stroke="#1565c0" stroke-width="1.8"/>
<circle cx="600" cy="252" r="3.2" fill="#1565c0"/>
<path d="M600,252 L600,212 L640,212" fill="none" stroke="#1565c0" stroke-width="1.8"/>
<use href="#trim-v" x="640" y="212"/>
<rect x="657.0" y="236.0" width="55.3" height="16" fill="#fff" opacity="0.85"/>
<text x="660" y="246" font-size="11" fill="#333" text-anchor="start">RV1 100k</text>
<text x="660" y="260" font-size="9" fill="#888" text-anchor="start">frequency</text>
<path d="M640,272 L640,287" fill="none" stroke="#1565c0" stroke-width="1.8"/>
<circle cx="640" cy="287" r="3.2" fill="#1565c0"/>
<use href="#cap-v" x="640" y="290"/>
<rect x="657.0" y="316.0" width="49.1" height="16" fill="#fff" opacity="0.85"/>
<text x="660" y="326" font-size="11" fill="#333" text-anchor="start">C2 2.2µ</text>
<path d="M640,346 L640,358" fill="none" stroke="#000" stroke-width="1.8"/>
<use href="#gnd" x="640" y="358"/>
<path d="M640,287 L575,287 L575,304 L550,304" fill="none" stroke="#1565c0" stroke-width="1.8"/>
<circle cx="575" cy="304" r="3.2" fill="#1565c0"/>
<path d="M575,304 L575,336 L550,336" fill="none" stroke="#1565c0" stroke-width="1.8"/>
<path d="M600,252 L762,252" fill="none" stroke="#1565c0" stroke-width="1.8"/>
<text x="770" y="150" font-size="13" fill="#8a8a8a" text-anchor="start" font-weight="bold" letter-spacing="1">CLOCK SOURCE / CAN</text>
<rect x="920" y="180" width="150" height="66" rx="3" fill="#fdfdfd" stroke="#000" stroke-width="1.8"/>
<text x="927" y="198" font-size="11" fill="#333" text-anchor="start" font-weight="bold">X1</text>
<text x="995" y="216" font-size="12" fill="#333" text-anchor="middle" font-weight="bold">CAN OSC</text>
<text x="995" y="234" font-size="9" fill="#888" text-anchor="middle">socketed can</text>
<path d="M945,180 L945,168" fill="none" stroke="#c62828" stroke-width="1.8"/>
<use href="#vcc" x="945" y="168"/>
<path d="M1045,246 L1045,258" fill="none" stroke="#000" stroke-width="1.8"/>
<use href="#gnd" x="1045" y="258"/>
<path d="M1070,213 L1125,213" fill="none" stroke="#1565c0" stroke-width="1.8"/>
<use href="#inv" x="1140" y="185"/>
<text x="1138" y="176" font-size="11" fill="#333" text-anchor="start" font-weight="bold">U2F</text>
<path d="M1208,213 L1230,213" fill="none" stroke="#1565c0" stroke-width="1.8"/>
<rect x="1109.0" y="196.0" width="30.6" height="16" fill="#fff" opacity="0.85"/>
<text x="1112" y="206" font-size="11" fill="#1565c0" text-anchor="start" font-weight="bold" font-style="italic">can²</text>
<rect x="802" y="236" width="36" height="112" rx="4" fill="#f3f3f3" stroke="#777" stroke-width="1.2"/>
<text x="820" y="228" font-size="9" fill="#666" text-anchor="middle" font-weight="bold">J2 src</text>
<rect x="816" y="248" width="8" height="8" fill="#1565c0"/>
<text x="844" y="256" font-size="9" fill="#666" text-anchor="start">556</text>
<rect x="816" y="288" width="8" height="8" fill="#1565c0"/>
<text x="844" y="296" font-size="9" fill="#666" text-anchor="start">com</text>
<rect x="816" y="328" width="8" height="8" fill="#1565c0"/>
<text x="844" y="336" font-size="9" fill="#666" text-anchor="start">CAN</text>
<path d="M762,252 L816,252" fill="none" stroke="#1565c0" stroke-width="1.8"/>
<path d="M1230,213 L1230,332 L824,332" fill="none" stroke="#1565c0" stroke-width="1.8"/>
<path d="M824,292 L1065,292" fill="none" stroke="#1565c0" stroke-width="1.8"/>
<circle cx="900" cy="292" r="3.2" fill="#1565c0"/>
<circle cx="975" cy="292" r="3.2" fill="#1565c0"/>
<use href="#vcc" x="900" y="222"/>
<use href="#res-v" x="900" y="228"/>
<rect x="913.0" y="252.0" width="49.1" height="16" fill="#fff" opacity="0.85"/>
<text x="916" y="262" font-size="11" fill="#333" text-anchor="start">R10 4k7</text>
<path d="M975,292 L975,364" fill="none" stroke="#1565c0" stroke-width="1.8"/>
<path d="M975,364 L987,364" fill="none" stroke="#1565c0" stroke-width="1.8"/>
<rect x="987" y="355" width="48.6" height="18" rx="4" fill="#eef3fb" stroke="#1565c0" stroke-width="1.1"/>
<text x="1011.3" y="368" font-size="10" fill="#1565c0" text-anchor="middle">OSC ▸</text>
<circle cx="975" cy="364" r="3.2" fill="#1565c0"/>
<use href="#inv" x="1080" y="264"/>
<text x="1078" y="255" font-size="11" fill="#333" text-anchor="start" font-weight="bold">U2A</text>
<path d="M975,292 L1065,292" fill="none" stroke="#1565c0" stroke-width="1.8"/>
<path d="M1148,292 L1160,292" fill="none" stroke="#1565c0" stroke-width="1.8"/>
<rect x="1160" y="283" width="54.8" height="18" rx="4" fill="#eef3fb" stroke="#1565c0" stroke-width="1.1"/>
<text x="1187.4" y="296" font-size="10" fill="#1565c0" text-anchor="middle">/OSC ▸</text>
<circle cx="1148" cy="292" r="3.2" fill="#1565c0"/>
<text x="50" y="470" font-size="13" fill="#8a8a8a" text-anchor="start" font-weight="bold" letter-spacing="1">MODE SELECT — SR LATCH</text>
<use href="#vcc" x="110" y="515"/>
<use href="#res-v" x="110" y="522"/>
<rect x="123.0" y="546.0" width="43.0" height="16" fill="#fff" opacity="0.85"/>
<text x="126" y="556" font-size="11" fill="#333" text-anchor="start">R3 10k</text>
<path d="M110,582 L110,598" fill="none" stroke="#1565c0" stroke-width="1.8"/>
<circle cx="110" cy="598" r="3.2" fill="#1565c0"/>
<use href="#btn-v" x="110" y="602"/>
<text x="94" y="634" font-size="11" fill="#333" text-anchor="end">SW2</text>
<text x="94" y="648" font-size="9" fill="#888" text-anchor="end">step mode</text>
<path d="M110,658 L110,670" fill="none" stroke="#000" stroke-width="1.8"/>
<use href="#gnd" x="110" y="670"/>
<use href="#vcc" x="250" y="560"/>
<use href="#res-v" x="250" y="567"/>
<rect x="263.0" y="591.0" width="43.0" height="16" fill="#fff" opacity="0.85"/>
<text x="266" y="601" font-size="11" fill="#333" text-anchor="start">R4 10k</text>
<path d="M250,627 L250,643" fill="none" stroke="#1565c0" stroke-width="1.8"/>
<circle cx="250" cy="643" r="3.2" fill="#1565c0"/>
<use href="#btn-v" x="250" y="647"/>
<text x="234" y="679" font-size="11" fill="#333" text-anchor="end">SW3</text>
<text x="234" y="693" font-size="9" fill="#888" text-anchor="end">run mode</text>
<path d="M250,703 L250,715" fill="none" stroke="#000" stroke-width="1.8"/>
<use href="#gnd" x="250" y="715"/>
<use href="#nand" x="420" y="545"/>
<text x="424" y="536" font-size="11" fill="#333" text-anchor="start" font-weight="bold">U3A</text>
<use href="#nand" x="420" y="700"/>
<text x="424" y="691" font-size="11" fill="#333" text-anchor="start" font-weight="bold">U3B</text>
<path d="M110,598 L190,598 L190,530 L360,530 L360,561 L405,561" fill="none" stroke="#1565c0" stroke-width="1.8"/>
<circle cx="300" cy="530" r="3.2" fill="#1565c0"/>
<path d="M250,643 L380,643 L380,716 L405,716" fill="none" stroke="#1565c0" stroke-width="1.8"/>
<path d="M300,530 L300,500 L316,500" fill="none" stroke="#1565c0" stroke-width="1.8"/>
<use href="#diode" x="316" y="500"/>
<text x="318" y="491" font-size="10" fill="#333" text-anchor="start">D5</text>
<path d="M354,500 L374,500" fill="none" stroke="#e65100" stroke-width="1.8"/>
<path d="M374,500 L386,500" fill="none" stroke="#e65100" stroke-width="1.8"/>
<rect x="386" y="491" width="54.8" height="18" rx="4" fill="#fbeee6" stroke="#e65100" stroke-width="1.1"/>
<text x="413.4" y="504" font-size="10" fill="#e65100" text-anchor="middle">/RST ▸</text>
<circle cx="374" cy="500" r="3.2" fill="#e65100"/>
<path d="M500,573 L530,573 L530,790 L385,790 L385,740 L405,740" fill="none" stroke="#1565c0" stroke-width="1.8"/>
<circle cx="500" cy="573" r="3.2" fill="#1565c0"/>
<path d="M500,728 L548,728 L548,605 L390,605 L390,585 L405,585" fill="none" stroke="#1565c0" stroke-width="1.8"/>
<circle cx="500" cy="728" r="3.2" fill="#1565c0"/>
<path d="M500,573 L620,573 L620,600" fill="none" stroke="#1565c0" stroke-width="1.8"/>
<use href="#led-g" x="620" y="600"/>
<text x="604" y="618" font-size="10" fill="#2e7d32" text-anchor="end">D1 step</text>
<path d="M620,630 L620,636" fill="none" stroke="#1565c0" stroke-width="1.8"/>
<use href="#res-v" x="620" y="636"/>
<rect x="633.0" y="660.0" width="43.0" height="16" fill="#fff" opacity="0.85"/>
<text x="636" y="670" font-size="11" fill="#333" text-anchor="start">R5 330</text>
<path d="M620,696 L620,708" fill="none" stroke="#000" stroke-width="1.8"/>
<use href="#gnd" x="620" y="708"/>
<path d="M540,573 L540,520" fill="none" stroke="#1565c0" stroke-width="1.8"/>
<circle cx="540" cy="573" r="3.2" fill="#1565c0"/>
<path d="M540,520 L552,520" fill="none" stroke="#1565c0" stroke-width="1.8"/>
<rect x="552" y="511" width="85.80000000000001" height="18" rx="4" fill="#eef3fb" stroke="#1565c0" stroke-width="1.1"/>
<text x="594.9" y="524" font-size="10" fill="#1565c0" text-anchor="middle">MODE_STEP ▸</text>
<circle cx="540" cy="520" r="3.2" fill="#1565c0"/>
<path d="M500,728 L620,728 L620,740" fill="none" stroke="#1565c0" stroke-width="1.8"/>
<use href="#led-g" x="620" y="740"/>
<text x="604" y="758" font-size="10" fill="#2e7d32" text-anchor="end">D2 run</text>
<path d="M620,770 L620,776" fill="none" stroke="#1565c0" stroke-width="1.8"/>
<use href="#res-v" x="620" y="776"/>
<rect x="633.0" y="800.0" width="43.0" height="16" fill="#fff" opacity="0.85"/>
<text x="636" y="810" font-size="11" fill="#333" text-anchor="start">R6 330</text>
<path d="M620,836 L620,848" fill="none" stroke="#000" stroke-width="1.8"/>
<use href="#gnd" x="620" y="848"/>
<path d="M555,728 L555,880" fill="none" stroke="#1565c0" stroke-width="1.8"/>
<circle cx="555" cy="728" r="3.2" fill="#1565c0"/>
<path d="M555,880 L567,880" fill="none" stroke="#1565c0" stroke-width="1.8"/>
<rect x="567" y="871" width="79.6" height="18" rx="4" fill="#eef3fb" stroke="#1565c0" stroke-width="1.1"/>
<text x="606.8" y="884" font-size="10" fill="#1565c0" text-anchor="middle">MODE_RUN ▸</text>
<circle cx="555" cy="880" r="3.2" fill="#1565c0"/>
<text x="690" y="470" font-size="13" fill="#8a8a8a" text-anchor="start" font-weight="bold" letter-spacing="1">SUPERVISED RESET</text>
<rect x="820" y="540" width="120" height="72" rx="3" fill="#fdfdfd" stroke="#000" stroke-width="1.8"/>
<text x="828" y="558" font-size="11" fill="#333" text-anchor="start" font-weight="bold">U5</text>
<text x="880" y="558" font-size="12" fill="#333" text-anchor="middle" font-weight="bold">DS1813</text>
<text x="827" y="588" font-size="10" fill="#333" text-anchor="start">1 /RST</text>
<text x="933" y="576" font-size="10" fill="#333" text-anchor="end">3 VCC</text>
<text x="880" y="605" font-size="10" fill="#333" text-anchor="middle">2 GND</text>
<path d="M940,570 L962,570" fill="none" stroke="#c62828" stroke-width="1.8"/>
<use href="#vcc" x="962" y="570"/>
<path d="M880,612 L880,626" fill="none" stroke="#000" stroke-width="1.8"/>
<use href="#gnd" x="880" y="626"/>
<path d="M820,584 L760,584" fill="none" stroke="#1565c0" stroke-width="1.8"/>
<circle cx="760" cy="584" r="3.2" fill="#1565c0"/>
<path d="M760,584 L760,616" fill="none" stroke="#1565c0" stroke-width="1.8"/>
<use href="#btn-v" x="760" y="622"/>
<text x="744" y="654" font-size="11" fill="#333" text-anchor="end">SW4</text>
<text x="744" y="668" font-size="9" fill="#888" text-anchor="end">reset</text>
<path d="M760,678 L760,690" fill="none" stroke="#000" stroke-width="1.8"/>
<use href="#gnd" x="760" y="690"/>
<path d="M748,584 L760,584" fill="none" stroke="#e65100" stroke-width="1.8"/>
<rect x="693.2" y="575" width="54.8" height="18" rx="4" fill="#fbeee6" stroke="#e65100" stroke-width="1.1"/>
<text x="720.6" y="588" font-size="10" fill="#e65100" text-anchor="middle">/RST ▸</text>
<circle cx="760" cy="584" r="3.2" fill="#e65100"/>
<text x="700" y="730" font-size="13" fill="#8a8a8a" text-anchor="start" font-weight="bold" letter-spacing="1">STEP REQUEST LATCH  (holds a press until /OSC samples it)</text>
<rect x="634.6" y="791" width="73.4" height="18" rx="4" fill="#eef3fb" stroke="#1565c0" stroke-width="1.1"/>
<text x="671.3" y="804" font-size="10" fill="#1565c0" text-anchor="middle">▸ STEP_DB</text>
<path d="M708,800 L720,800" fill="none" stroke="#1565c0" stroke-width="1.8"/>
<use href="#inv" x="740" y="772"/>
<text x="738" y="763" font-size="11" fill="#333" text-anchor="start" font-weight="bold">U2B</text>
<rect x="813.0" y="782.0" width="43.0" height="16" fill="#fff" opacity="0.85"/>
<text x="816" y="792" font-size="11" fill="#1565c0" text-anchor="start" font-weight="bold" font-style="italic">/press</text>
<use href="#nand" x="880" y="772"/>
<text x="884" y="763" font-size="11" fill="#333" text-anchor="start" font-weight="bold">U3C</text>
<use href="#nand" x="880" y="890"/>
<text x="884" y="881" font-size="11" fill="#333" text-anchor="start" font-weight="bold">U3D</text>
<path d="M808,800 L845,800 L845,788 L865,788" fill="none" stroke="#1565c0" stroke-width="1.8"/>
<path d="M960,800 L1000,800" fill="none" stroke="#1565c0" stroke-width="1.8"/>
<circle cx="1000" cy="800" r="3.2" fill="#1565c0"/>
<path d="M1000,800 L1000,850 L845,850 L845,930 L865,930" fill="none" stroke="#1565c0" stroke-width="1.8"/>
<rect x="963.0" y="782.0" width="30.6" height="16" fill="#fff" opacity="0.85"/>
<text x="966" y="792" font-size="11" fill="#1565c0" text-anchor="start" font-weight="bold" font-style="italic">Qreq</text>
<path d="M1000,800 L1040,800" fill="none" stroke="#1565c0" stroke-width="1.8"/>
<path d="M1040,800 L1052,800" fill="none" stroke="#1565c0" stroke-width="1.8"/>
<rect x="1052" y="791" width="54.8" height="18" rx="4" fill="#eef3fb" stroke="#1565c0" stroke-width="1.1"/>
<text x="1079.4" y="804" font-size="10" fill="#1565c0" text-anchor="middle">Qreq ▸</text>
<circle cx="1040" cy="800" r="3.2" fill="#1565c0"/>
<path d="M960,918 L1020,918 L1020,752 L850,752 L850,812 L865,812" fill="none" stroke="#1565c0" stroke-width="1.8"/>
<circle cx="960" cy="918" r="3.2" fill="#1565c0"/>
<rect x="963.0" y="900.0" width="30.6" height="16" fill="#fff" opacity="0.85"/>
<text x="966" y="910" font-size="11" fill="#1565c0" text-anchor="start" font-weight="bold" font-style="italic">Qbar</text>
<path d="M840,906 L865,906 L865,906" fill="none" stroke="#1565c0" stroke-width="1.8"/>
<path d="M840,906 L865,906" fill="none" stroke="#1565c0" stroke-width="1.8"/>
<circle cx="840" cy="906" r="3.2" fill="#1565c0"/>
<rect x="769.0" y="890.0" width="43.0" height="16" fill="#fff" opacity="0.85"/>
<text x="772" y="900" font-size="11" fill="#1565c0" text-anchor="start" font-weight="bold" font-style="italic">resetN</text>
<use href="#vcc" x="840" y="840"/>
<use href="#res-v" x="840" y="846"/>
<rect x="853.0" y="870.0" width="49.1" height="16" fill="#fff" opacity="0.85"/>
<text x="856" y="880" font-size="11" fill="#333" text-anchor="start">R12 10k</text>
<path d="M840,906 L840,906" fill="none" stroke="#1565c0" stroke-width="1.8"/>
<path d="M840,906 L840,956 L780,956" fill="none" stroke="#1565c0" stroke-width="1.8"/>
<g transform="translate(742,956) scale(-1,1)"><use href="#diode"/></g>
<text x="746" y="946" font-size="10" fill="#333" text-anchor="start">D6</text>
<path d="M742,956 L722,956" fill="none" stroke="#1565c0" stroke-width="1.8"/>
<rect x="661.4" y="947" width="48.6" height="18" rx="4" fill="#eef3fb" stroke="#1565c0" stroke-width="1.1"/>
<text x="685.7" y="960" font-size="10" fill="#1565c0" text-anchor="middle">▸ /Q3</text>
<path d="M710,956 L722,956" fill="none" stroke="#1565c0" stroke-width="1.8"/>
<path d="M840,906 L900,906 L900,956 L960,956" fill="none" stroke="#1565c0" stroke-width="1.8"/>
<use href="#diode" x="960" y="956"/>
<text x="962" y="946" font-size="10" fill="#333" text-anchor="start">D7</text>
<path d="M998,956 L1018,956" fill="none" stroke="#e65100" stroke-width="1.8"/>
<path d="M1018,956 L1030,956" fill="none" stroke="#e65100" stroke-width="1.8"/>
<rect x="1030" y="947" width="54.8" height="18" rx="4" fill="#fbeee6" stroke="#e65100" stroke-width="1.1"/>
<text x="1057.4" y="960" font-size="10" fill="#e65100" text-anchor="middle">/RST ▸</text>
<circle cx="1018" cy="956" r="3.2" fill="#e65100"/>
<text x="880" y="994" font-size="9" fill="#888" text-anchor="middle" font-style="italic">resetN = /Q3 · /RST  (R12 + D6/D7) — latch clears each step pulse and on power-up</text>
<text x="1235" y="458" font-size="13" fill="#8a8a8a" text-anchor="start" font-weight="bold" letter-spacing="1">SYNCHRONIZER — 74HC273  (all FF clock on /OSC)</text>
<rect x="1250" y="480" width="190" height="400" rx="3" fill="#fdfdfd" stroke="#000" stroke-width="1.8"/>
<text x="1258" y="498" font-size="11" fill="#333" text-anchor="start" font-weight="bold">U4</text>
<text x="1345" y="498" font-size="13" fill="#333" text-anchor="middle" font-weight="bold">74HC273</text>
<text x="1258" y="529" font-size="10" fill="#333" text-anchor="start">1 /MR</text>
<rect x="1183.2" y="516" width="54.8" height="18" rx="4" fill="#fbeee6" stroke="#e65100" stroke-width="1.1"/>
<text x="1210.6" y="529" font-size="10" fill="#e65100" text-anchor="middle">▸ /RST</text>
<path d="M1238,525 L1250,525" fill="none" stroke="#e65100" stroke-width="1.8"/>
<text x="1258" y="565" font-size="10" fill="#333" text-anchor="start">11 CLK</text>
<rect x="1183.2" y="552" width="54.8" height="18" rx="4" fill="#eef3fb" stroke="#1565c0" stroke-width="1.1"/>
<text x="1210.6" y="565" font-size="10" fill="#1565c0" text-anchor="middle">▸ /OSC</text>
<path d="M1238,561 L1250,561" fill="none" stroke="#1565c0" stroke-width="1.8"/>
<text x="1258" y="604" font-size="10" fill="#333" text-anchor="start">3 D0</text>
<path d="M1250,600 L1224,600" fill="none" stroke="#c62828" stroke-width="1.8"/>
<use href="#vcc" x="1224" y="600"/>
<text x="1258" y="639" font-size="10" fill="#333" text-anchor="start">4 D1</text>
<rect x="1195.6" y="626" width="42.4" height="18" rx="4" fill="#eef3fb" stroke="#1565c0" stroke-width="1.1"/>
<text x="1216.8" y="639" font-size="10" fill="#1565c0" text-anchor="middle">▸ Q0</text>
<path d="M1238,635 L1250,635" fill="none" stroke="#1565c0" stroke-width="1.8"/>
<text x="1258" y="674" font-size="10" fill="#333" text-anchor="start">7 D2</text>
<rect x="1183.2" y="661" width="54.8" height="18" rx="4" fill="#eef3fb" stroke="#1565c0" stroke-width="1.1"/>
<text x="1210.6" y="674" font-size="10" fill="#1565c0" text-anchor="middle">▸ Qreq</text>
<path d="M1238,670 L1250,670" fill="none" stroke="#1565c0" stroke-width="1.8"/>
<text x="1258" y="709" font-size="10" fill="#333" text-anchor="start">8 D3</text>
<rect x="1195.6" y="696" width="42.4" height="18" rx="4" fill="#eef3fb" stroke="#1565c0" stroke-width="1.1"/>
<text x="1216.8" y="709" font-size="10" fill="#1565c0" text-anchor="middle">▸ Q2</text>
<path d="M1238,705 L1250,705" fill="none" stroke="#1565c0" stroke-width="1.8"/>
<text x="1258" y="744" font-size="10" fill="#333" text-anchor="start">13 D4</text>
<rect x="1152.2" y="731" width="85.80000000000001" height="18" rx="4" fill="#eef3fb" stroke="#1565c0" stroke-width="1.1"/>
<text x="1195.1" y="744" font-size="10" fill="#1565c0" text-anchor="middle">▸ MODE_STEP</text>
<path d="M1238,740 L1250,740" fill="none" stroke="#1565c0" stroke-width="1.8"/>
<text x="1258" y="779" font-size="10" fill="#333" text-anchor="start">14 D5</text>
<rect x="1158.4" y="766" width="79.6" height="18" rx="4" fill="#eef3fb" stroke="#1565c0" stroke-width="1.1"/>
<text x="1198.2" y="779" font-size="10" fill="#1565c0" text-anchor="middle">▸ MODE_RUN</text>
<path d="M1238,775 L1250,775" fill="none" stroke="#1565c0" stroke-width="1.8"/>
<text x="1258" y="819" font-size="10" fill="#333" text-anchor="start">17 D6</text>
<path d="M1250,815 L1228,815" fill="none" stroke="#000" stroke-width="1.8"/>
<use href="#gnd" x="1228" y="815"/>
<text x="1258" y="851" font-size="10" fill="#333" text-anchor="start">18 D7</text>
<path d="M1250,847 L1228,847" fill="none" stroke="#000" stroke-width="1.8"/>
<use href="#gnd" x="1228" y="847"/>
<text x="1432" y="604" font-size="10" fill="#333" text-anchor="end">2 Q0</text>
<path d="M1440,600 L1454,600" fill="none" stroke="#1565c0" stroke-width="1.8"/>
<text x="1458" y="604" font-size="10" fill="#1565c0" text-anchor="start" font-weight="bold" font-style="italic">Q0 ▸</text>
<circle cx="1440" cy="600" r="3.2" fill="#1565c0"/>
<text x="1432" y="639" font-size="10" fill="#333" text-anchor="end">5 Q1</text>
<path d="M1440,635 L1454,635" fill="none" stroke="#1565c0" stroke-width="1.8"/>
<text x="1458" y="639" font-size="10" fill="#1565c0" text-anchor="start" font-weight="bold" font-style="italic">/RSTs ▸</text>
<circle cx="1440" cy="635" r="3.2" fill="#1565c0"/>
<text x="1432" y="674" font-size="10" fill="#333" text-anchor="end">6 Q2</text>
<path d="M1440,670 L1454,670" fill="none" stroke="#1565c0" stroke-width="1.8"/>
<text x="1458" y="674" font-size="10" fill="#1565c0" text-anchor="start" font-weight="bold" font-style="italic">Q2 ▸</text>
<circle cx="1440" cy="670" r="3.2" fill="#1565c0"/>
<text x="1432" y="709" font-size="10" fill="#333" text-anchor="end">9 Q3</text>
<path d="M1440,705 L1454,705" fill="none" stroke="#1565c0" stroke-width="1.8"/>
<text x="1458" y="709" font-size="10" fill="#1565c0" text-anchor="start" font-weight="bold" font-style="italic">Q3 ▸</text>
<circle cx="1440" cy="705" r="3.2" fill="#1565c0"/>
<text x="1432" y="744" font-size="10" fill="#333" text-anchor="end">12 Q4</text>
<path d="M1440,740 L1454,740" fill="none" stroke="#1565c0" stroke-width="1.8"/>
<text x="1458" y="744" font-size="10" fill="#1565c0" text-anchor="start" font-weight="bold" font-style="italic">SEL_STEP ▸</text>
<circle cx="1440" cy="740" r="3.2" fill="#1565c0"/>
<text x="1432" y="779" font-size="10" fill="#333" text-anchor="end">15 Q5</text>
<path d="M1440,775 L1454,775" fill="none" stroke="#1565c0" stroke-width="1.8"/>
<text x="1458" y="779" font-size="10" fill="#1565c0" text-anchor="start" font-weight="bold" font-style="italic">SEL_RUN ▸</text>
<circle cx="1440" cy="775" r="3.2" fill="#1565c0"/>
<text x="1432" y="819" font-size="10" fill="#333" text-anchor="end">16 Q6</text>
<text x="1456" y="819" font-size="9" fill="#aaa" text-anchor="start">n/c</text>
<text x="1432" y="851" font-size="10" fill="#333" text-anchor="end">19 Q7</text>
<text x="1456" y="851" font-size="9" fill="#aaa" text-anchor="start">n/c</text>
<path d="M1345,480 L1345,466" fill="none" stroke="#c62828" stroke-width="1.8"/>
<use href="#vcc" x="1345" y="466"/>
<text x="1432" y="498" font-size="9" fill="#aaa" text-anchor="end">20</text>
<path d="M1345,880 L1345,894" fill="none" stroke="#000" stroke-width="1.8"/>
<use href="#gnd" x="1345" y="894"/>
<text x="1345" y="873" font-size="9" fill="#333" text-anchor="middle">10 GND</text>
<text x="1250" y="914" font-size="9" fill="#888" text-anchor="start" font-style="italic">FF0/1 reset-sync · FF2/3 step-sync · FF4/5 mode-resync · FF6/7 spare</text>
<text x="1540" y="168" font-size="13" fill="#8a8a8a" text-anchor="start" font-weight="bold" letter-spacing="1">CLOCK GATE / MUX</text>
<use href="#nand" x="1560" y="210"/>
<text x="1564" y="201" font-size="11" fill="#333" text-anchor="start" font-weight="bold">U6A</text>
<use href="#nand" x="1560" y="330"/>
<text x="1564" y="321" font-size="11" fill="#333" text-anchor="start" font-weight="bold">U6B</text>
<use href="#nand" x="1720" y="275"/>
<text x="1724" y="266" font-size="11" fill="#333" text-anchor="start" font-weight="bold">U6D</text>
<rect x="1484.4" y="217" width="48.6" height="18" rx="4" fill="#eef3fb" stroke="#1565c0" stroke-width="1.1"/>
<text x="1508.7" y="230" font-size="10" fill="#1565c0" text-anchor="middle">▸ OSC</text>
<path d="M1533,226 L1545,226" fill="none" stroke="#1565c0" stroke-width="1.8"/>
<rect x="1459.6" y="241" width="73.4" height="18" rx="4" fill="#eef3fb" stroke="#1565c0" stroke-width="1.1"/>
<text x="1496.3" y="254" font-size="10" fill="#1565c0" text-anchor="middle">▸ SEL_RUN</text>
<path d="M1533,250 L1545,250" fill="none" stroke="#1565c0" stroke-width="1.8"/>
<rect x="1490.6" y="337" width="42.4" height="18" rx="4" fill="#eef3fb" stroke="#1565c0" stroke-width="1.1"/>
<text x="1511.8" y="350" font-size="10" fill="#1565c0" text-anchor="middle">▸ SP</text>
<path d="M1533,346 L1545,346" fill="none" stroke="#1565c0" stroke-width="1.8"/>
<rect x="1453.4" y="361" width="79.6" height="18" rx="4" fill="#eef3fb" stroke="#1565c0" stroke-width="1.1"/>
<text x="1493.2" y="374" font-size="10" fill="#1565c0" text-anchor="middle">▸ SEL_STEP</text>
<path d="M1533,370 L1545,370" fill="none" stroke="#1565c0" stroke-width="1.8"/>
<path d="M1640,238 L1680,238 L1680,291 L1705,291" fill="none" stroke="#1565c0" stroke-width="1.8"/>
<path d="M1640,358 L1680,358 L1680,315 L1705,315" fill="none" stroke="#1565c0" stroke-width="1.8"/>
<path d="M1800,303 L1850,303" fill="none" stroke="#1565c0" stroke-width="1.8"/>
<circle cx="1850" cy="303" r="3.2" fill="#1565c0"/>
<text x="1858" y="308" font-size="14" fill="#1565c0" text-anchor="start" font-weight="bold">CLK</text>
<path d="M1850,303 L1850,345" fill="none" stroke="#1565c0" stroke-width="1.8"/>
<use href="#led-y" x="1850" y="345"/>
<text x="1834" y="363" font-size="10" fill="#b8860b" text-anchor="end">D3 CLK</text>
<path d="M1850,375 L1850,381" fill="none" stroke="#1565c0" stroke-width="1.8"/>
<use href="#res-v" x="1850" y="381"/>
<rect x="1863.0" y="405.0" width="43.0" height="16" fill="#fff" opacity="0.85"/>
<text x="1866" y="415" font-size="11" fill="#333" text-anchor="start">R7 330</text>
<path d="M1850,441 L1850,453" fill="none" stroke="#000" stroke-width="1.8"/>
<use href="#gnd" x="1850" y="453"/>
<path d="M1850,303 L1915,303 L1915,400" fill="none" stroke="#1565c0" stroke-width="1.8"/>
<text x="1540" y="488" font-size="13" fill="#8a8a8a" text-anchor="start" font-weight="bold" letter-spacing="1">STEP EDGE → ONE-CYCLE PULSE</text>
<use href="#inv" x="1560" y="520"/>
<text x="1558" y="511" font-size="11" fill="#333" text-anchor="start" font-weight="bold">U2C</text>
<rect x="1490.6" y="539" width="42.4" height="18" rx="4" fill="#eef3fb" stroke="#1565c0" stroke-width="1.1"/>
<text x="1511.8" y="552" font-size="10" fill="#1565c0" text-anchor="middle">▸ Q3</text>
<path d="M1533,548 L1545,548" fill="none" stroke="#1565c0" stroke-width="1.8"/>
<use href="#nand" x="1720" y="540"/>
<text x="1724" y="531" font-size="11" fill="#333" text-anchor="start" font-weight="bold">U6C</text>
<rect x="1650.6" y="547" width="42.4" height="18" rx="4" fill="#eef3fb" stroke="#1565c0" stroke-width="1.1"/>
<text x="1671.8" y="560" font-size="10" fill="#1565c0" text-anchor="middle">▸ Q2</text>
<path d="M1693,556 L1705,556" fill="none" stroke="#1565c0" stroke-width="1.8"/>
<path d="M1628,548 L1628,580 L1705,580" fill="none" stroke="#1565c0" stroke-width="1.8"/>
<circle cx="1628" cy="548" r="3.2" fill="#1565c0"/>
<path d="M1628,548 L1628,508" fill="none" stroke="#1565c0" stroke-width="1.8"/>
<path d="M1628,508 L1640,508" fill="none" stroke="#1565c0" stroke-width="1.8"/>
<rect x="1640" y="499" width="48.6" height="18" rx="4" fill="#eef3fb" stroke="#1565c0" stroke-width="1.1"/>
<text x="1664.3" y="512" font-size="10" fill="#1565c0" text-anchor="middle">/Q3 ▸</text>
<circle cx="1628" cy="508" r="3.2" fill="#1565c0"/>
<use href="#inv" x="1840" y="540"/>
<text x="1838" y="531" font-size="11" fill="#333" text-anchor="start" font-weight="bold">U2D</text>
<path d="M1800,568 L1825,568" fill="none" stroke="#1565c0" stroke-width="1.8"/>
<path d="M1908,568 L1920,568" fill="none" stroke="#1565c0" stroke-width="1.8"/>
<rect x="1920" y="559" width="42.4" height="18" rx="4" fill="#eef3fb" stroke="#1565c0" stroke-width="1.1"/>
<text x="1941.2" y="572" font-size="10" fill="#1565c0" text-anchor="middle">SP ▸</text>
<circle cx="1908" cy="568" r="3.2" fill="#1565c0"/>
<text x="1540" y="792" font-size="13" fill="#8a8a8a" text-anchor="start" font-weight="bold" letter-spacing="1">RESET OUTPUT</text>
<use href="#inv" x="1560" y="812"/>
<text x="1558" y="803" font-size="11" fill="#333" text-anchor="start" font-weight="bold">U2E</text>
<rect x="1472" y="831" width="61" height="18" rx="4" fill="#eef3fb" stroke="#1565c0" stroke-width="1.1"/>
<text x="1502.5" y="844" font-size="10" fill="#1565c0" text-anchor="middle">▸ /RSTs</text>
<path d="M1533,840 L1545,840" fill="none" stroke="#1565c0" stroke-width="1.8"/>
<path d="M1628,840 L1670,840" fill="none" stroke="#1565c0" stroke-width="1.8"/>
<circle cx="1670" cy="840" r="3.2" fill="#1565c0"/>
<text x="1678" y="845" font-size="14" fill="#1565c0" text-anchor="start" font-weight="bold">RST</text>
<path d="M1670,840 L1670,860" fill="none" stroke="#1565c0" stroke-width="1.8"/>
<use href="#led-r" x="1670" y="860"/>
<text x="1654" y="878" font-size="10" fill="#c62828" text-anchor="end">D4 rst</text>
<path d="M1670,890 L1670,896" fill="none" stroke="#1565c0" stroke-width="1.8"/>
<use href="#res-v" x="1670" y="896"/>
<rect x="1683.0" y="920.0" width="43.0" height="16" fill="#fff" opacity="0.85"/>
<text x="1686" y="930" font-size="11" fill="#333" text-anchor="start">R8 330</text>
<path d="M1670,956 L1670,968" fill="none" stroke="#000" stroke-width="1.8"/>
<use href="#gnd" x="1670" y="968"/>
<path d="M1670,840 L1925,840 L1925,450" fill="none" stroke="#1565c0" stroke-width="1.8"/>
<rect x="1976" y="366" width="46" height="150" rx="4" fill="#f3f3f3" stroke="#777" stroke-width="1.2"/>
<text x="1999" y="358" font-size="9" fill="#666" text-anchor="middle" font-weight="bold">J1 out</text>
<rect x="1986" y="396" width="8" height="8" fill="#1565c0"/>
<text x="2004" y="404" font-size="10" fill="#666" text-anchor="start">2 CLK</text>
<rect x="1986" y="446" width="8" height="8" fill="#1565c0"/>
<text x="2004" y="454" font-size="10" fill="#666" text-anchor="start">3 RST</text>
<rect x="1986" y="496" width="8" height="8" fill="#1565c0"/>
<text x="2004" y="504" font-size="10" fill="#666" text-anchor="start">1 GND</text>
<path d="M1915,400 L1986,400" fill="none" stroke="#1565c0" stroke-width="1.8"/>
<path d="M1925,450 L1986,450" fill="none" stroke="#1565c0" stroke-width="1.8"/>
<path d="M1986,500 L1960,500 L1960,512" fill="none" stroke="#000" stroke-width="1.8"/>
<use href="#gnd" x="1960" y="512"/>
<text x="50" y="1080" font-size="11" fill="#666" text-anchor="start">Net labels (same name = same net): STEP_DB · OSC · /OSC · MODE_STEP · MODE_RUN · Qreq · /RST · /RSTs · Q0 · Q2 · Q3 · /Q3 · SP · SEL_STEP · SEL_RUN.</text>
<text x="50" y="1100" font-size="11" fill="#666" text-anchor="start">CLK = OSC·SEL_RUN + SP·SEL_STEP. Every '273 flip-flop clocks on /OSC, so the mode selects, the step pulse SP and /RST only take effect while OSC is low. 556 CV pins (10n to GND) and per-IC 100n decoupling not shown.</text>
<text x="50" y="1120" font-size="11" fill="#666" text-anchor="start">Gate ICs broken into individual gates: U2A–F = 74HC14 inverters; U3A–D and U6A–D = 74HC00 NANDs. D5 forces STEP mode whenever /RST is low.</text>
</svg>
