<svg xmlns="http://www.w3.org/2000/svg" viewBox="0 0 1700 1030" font-family="Segoe UI, Arial, sans-serif">
  <defs>
    <g id="res-v" stroke="#000" fill="none" stroke-width="1.6">
      <path d="M0,0 L0,10 L8,14 L-8,22 L8,30 L-8,38 L8,46 L0,50 L0,60"/>
    </g>
    <g id="trim-v">
      <use href="#res-v"/>
      <line x1="-14" y1="50" x2="14" y2="8" stroke="#000" stroke-width="1.4"/>
      <polygon points="14,8 6,10 11,16" fill="#000"/>
    </g>
    <g id="cap-v" stroke="#000" fill="none" stroke-width="1.6">
      <line x1="0" y1="0" x2="0" y2="24"/>
      <line x1="-13" y1="24" x2="13" y2="24" stroke-width="2"/>
      <line x1="-13" y1="32" x2="13" y2="32" stroke-width="2"/>
      <line x1="0" y1="32" x2="0" y2="56"/>
    </g>
    <g id="gnd" stroke="#000" stroke-width="1.8">
      <line x1="-14" y1="0" x2="14" y2="0"/>
      <line x1="-9" y1="6" x2="9" y2="6"/>
      <line x1="-4" y1="12" x2="4" y2="12"/>
    </g>
    <g id="vcc" stroke="#c62828" stroke-width="1.8">
      <line x1="0" y1="0" x2="0" y2="-12"/>
      <line x1="-9" y1="-12" x2="9" y2="-12"/>
    </g>
    <g id="btn-v" stroke="#000" fill="#fff" stroke-width="1.6">
      <line x1="0" y1="0" x2="0" y2="10"/>
      <circle cx="0" cy="15" r="3.5"/>
      <circle cx="0" cy="41" r="3.5"/>
      <line x1="0" y1="46" x2="0" y2="56"/>
      <line x1="10" y1="12" x2="10" y2="44"/>
      <line x1="10" y1="28" x2="22" y2="28"/>
      <line x1="22" y1="20" x2="22" y2="36"/>
    </g>
    <g id="led-g">
      <line x1="0" y1="0" x2="0" y2="6" stroke="#000" stroke-width="1.6"/>
      <polygon points="-9,6 9,6 0,22" fill="#2e7d32" stroke="#000" stroke-width="1.4"/>
      <line x1="-9" y1="22" x2="9" y2="22" stroke="#000" stroke-width="2"/>
      <line x1="0" y1="22" x2="0" y2="30" stroke="#000" stroke-width="1.6"/>
      <line x1="9" y1="6" x2="17" y2="-2" stroke="#000" stroke-width="1.2"/>
      <line x1="14" y1="11" x2="22" y2="3" stroke="#000" stroke-width="1.2"/>
    </g>
    <g id="led-y">
      <line x1="0" y1="0" x2="0" y2="6" stroke="#000" stroke-width="1.6"/>
      <polygon points="-9,6 9,6 0,22" fill="#f9a825" stroke="#000" stroke-width="1.4"/>
      <line x1="-9" y1="22" x2="9" y2="22" stroke="#000" stroke-width="2"/>
      <line x1="0" y1="22" x2="0" y2="30" stroke="#000" stroke-width="1.6"/>
      <line x1="9" y1="6" x2="17" y2="-2" stroke="#000" stroke-width="1.2"/>
      <line x1="14" y1="11" x2="22" y2="3" stroke="#000" stroke-width="1.2"/>
    </g>
    <g id="nand">
      <line x1="-15" y1="16" x2="0" y2="16" stroke="#000" stroke-width="1.6"/>
      <line x1="-15" y1="40" x2="0" y2="40" stroke="#000" stroke-width="1.6"/>
      <path d="M0,0 L25,0 A28,28 0 0 1 25,56 L0,56 Z" fill="#fff" stroke="#000" stroke-width="1.8"/>
      <circle cx="58" cy="28" r="5" fill="#fff" stroke="#000" stroke-width="1.8"/>
      <line x1="63" y1="28" x2="80" y2="28" stroke="#000" stroke-width="1.6"/>
    </g>
    <g id="inv">
      <line x1="-15" y1="28" x2="0" y2="28" stroke="#000" stroke-width="1.6"/>
      <path d="M0,8 L0,48 L40,28 Z" fill="#fff" stroke="#000" stroke-width="1.8"/>
      <circle cx="45" cy="28" r="5" fill="#fff" stroke="#000" stroke-width="1.8"/>
      <line x1="50" y1="28" x2="68" y2="28" stroke="#000" stroke-width="1.6"/>
    </g>
  </defs>

  <!-- ===================== Titles ===================== -->
  <text x="1080" y="32" font-size="17" font-weight="bold" fill="#222">Blinky Clock — Educational Core</text>
  <text x="1080" y="52" font-size="12" fill="#777">single-step · oscillator · mode latch · synchronizer (no reset, no external clock)</text>
  <text x="60" y="34" font-size="14" font-weight="bold" fill="#888" letter-spacing="1">SINGLE-STEP DEBOUNCER</text>
  <text x="470" y="34" font-size="14" font-weight="bold" fill="#888" letter-spacing="1">OSCILLATOR</text>
  <text x="60" y="430" font-size="14" font-weight="bold" fill="#888" letter-spacing="1">MODE SELECT — SR LATCH</text>
  <text x="1010" y="432" font-size="13" font-weight="bold" fill="#888" letter-spacing="1">SYNCHRONIZER — 74HC273</text>
  <text x="1380" y="232" font-size="13" font-weight="bold" fill="#888" letter-spacing="1">CLOCK GATE / MUX</text>

  <!-- ===================== U1 NE556 ===================== -->
  <text x="320" y="92" font-size="11" font-style="italic" fill="#777">timer 1: Schmitt debouncer</text>
  <text x="540" y="92" font-size="11" font-style="italic" fill="#777">timer 2: astable ~3 Hz</text>

  <!-- Debounce network -->
  <use href="#vcc" x="110" y="96"/>
  <text x="110" y="74" font-size="10" fill="#c62828" text-anchor="middle">VCC</text>
  <use href="#res-v" x="110" y="96"/>
  <text x="126" y="130" font-size="12" fill="#333">R1 100k</text>
  <line x1="110" y1="156" x2="110" y2="206" stroke="#1565c0" stroke-width="1.8"/>
  <use href="#btn-v" x="110" y="206"/>
  <text x="96" y="238" font-size="12" fill="#333" text-anchor="end">S1</text>
  <text x="96" y="252" font-size="10" fill="#777" text-anchor="end">STEP</text>
  <line x1="110" y1="262" x2="110" y2="272" stroke="#000" stroke-width="1.8"/>
  <use href="#gnd" x="110" y="272"/>
  <line x1="110" y1="196" x2="196" y2="196" stroke="#1565c0" stroke-width="1.8"/>
  <line x1="196" y1="196" x2="196" y2="206" stroke="#1565c0" stroke-width="1.8"/>
  <use href="#cap-v" x="196" y="206"/>
  <text x="214" y="238" font-size="12" fill="#333">C1 470n</text>
  <line x1="196" y1="262" x2="196" y2="272" stroke="#000" stroke-width="1.8"/>
  <use href="#gnd" x="196" y="272"/>
  <line x1="196" y1="196" x2="240" y2="196" stroke="#1565c0" stroke-width="1.8"/>
  <line x1="240" y1="156" x2="240" y2="268" stroke="#1565c0" stroke-width="1.8"/>
  <line x1="240" y1="156" x2="262" y2="156" stroke="#1565c0" stroke-width="1.8"/>
  <line x1="240" y1="268" x2="262" y2="268" stroke="#1565c0" stroke-width="1.8"/>

  <!-- 556 body -->
  <rect x="262" y="100" width="138" height="230" rx="3" fill="#fdfdfd" stroke="#000" stroke-width="1.8"/>
  <text x="270" y="114" font-size="11" font-weight="bold" fill="#333">U1</text>
  <text x="331" y="118" font-size="14" font-weight="bold" fill="#000" text-anchor="middle">NE556</text>
  <text x="266" y="132" font-size="10" fill="#999">1 DIS1 n/c</text>
  <text x="266" y="160" font-size="11" fill="#333">2 THR1</text>
  <text x="266" y="188" font-size="10" fill="#999">3 CV1</text>
  <text x="266" y="216" font-size="11" fill="#333">4 /RST1</text>
  <text x="266" y="244" font-size="11" fill="#333">5 OUT1</text>
  <text x="266" y="272" font-size="11" fill="#333">6 TRG1</text>
  <text x="266" y="300" font-size="11" fill="#333">7 GND</text>
  <text x="396" y="132" font-size="11" fill="#333" text-anchor="end">VCC 14</text>
  <text x="396" y="160" font-size="10" fill="#999" text-anchor="end">DIS2 13 n/c</text>
  <text x="396" y="188" font-size="11" fill="#333" text-anchor="end">THR2 12</text>
  <text x="396" y="216" font-size="10" fill="#999" text-anchor="end">CV2 11</text>
  <text x="396" y="244" font-size="11" fill="#333" text-anchor="end">/RST2 10</text>
  <text x="396" y="272" font-size="11" fill="#333" text-anchor="end">OUT2 9</text>
  <text x="396" y="300" font-size="11" fill="#333" text-anchor="end">TRG2 8</text>
  <text x="331" y="346" font-size="10" font-style="italic" fill="#777" text-anchor="middle">CV pins: 10n to GND</text>

  <!-- 556 power / resets -->
  <line x1="262" y1="212" x2="216" y2="212" stroke="#c62828" stroke-width="1.8"/>
  <use href="#vcc" x="216" y="212"/>
  <text x="216" y="186" font-size="10" fill="#c62828" text-anchor="middle">VCC</text>
  <line x1="262" y1="296" x2="248" y2="296" stroke="#000" stroke-width="1.8"/>
  <line x1="248" y1="296" x2="248" y2="310" stroke="#000" stroke-width="1.8"/>
  <use href="#gnd" x="248" y="310"/>
  <line x1="400" y1="240" x2="412" y2="240" stroke="#c62828" stroke-width="1.8"/>
  <use href="#vcc" x="412" y="240"/>
  <line x1="400" y1="128" x2="420" y2="128" stroke="#c62828" stroke-width="1.8"/>
  <use href="#vcc" x="420" y="128"/>
  <text x="420" y="104" font-size="10" fill="#c62828" text-anchor="middle">VCC</text>

  <!-- STEP_DB: OUT1 -> '273 D2 -->
  <line x1="262" y1="240" x2="222" y2="240" stroke="#1565c0" stroke-width="1.8"/>
  <line x1="222" y1="240" x2="222" y2="360" stroke="#1565c0" stroke-width="1.8"/>
  <line x1="222" y1="360" x2="982" y2="360" stroke="#1565c0" stroke-width="1.8"/>
  <line x1="982" y1="360" x2="982" y2="682" stroke="#1565c0" stroke-width="1.8"/>
  <line x1="982" y1="682" x2="1060" y2="682" stroke="#1565c0" stroke-width="1.8"/>
  <text x="300" y="353" font-size="12" font-weight="bold" font-style="italic" fill="#1565c0">STEP_DB</text>

  <!-- R9: bipolar-556 OUT1 pull-up (restores VOH to the rail) -->
  <use href="#vcc" x="445" y="298"/>
  <text x="460" y="292" font-size="10" fill="#c62828">VCC</text>
  <use href="#res-v" x="445" y="298"/>
  <text x="461" y="330" font-size="12" fill="#333">R9 4k7</text>
  <line x1="445" y1="358" x2="445" y2="360" stroke="#1565c0" stroke-width="1.8"/>
  <circle cx="445" cy="360" r="3.3" fill="#1565c0"/>

  <!-- Astable network: OUT2 feedback -> RV1 -> R2 -> N2 -> THR2+TRG2 -->
  <line x1="400" y1="184" x2="425" y2="184" stroke="#1565c0" stroke-width="1.8"/>
  <line x1="400" y1="296" x2="425" y2="296" stroke="#1565c0" stroke-width="1.8"/>
  <line x1="425" y1="184" x2="425" y2="296" stroke="#1565c0" stroke-width="1.8"/>
  <line x1="425" y1="215" x2="520" y2="215" stroke="#1565c0" stroke-width="1.8"/>
  <line x1="470" y1="268" x2="470" y2="60" stroke="#1565c0" stroke-width="1.8"/>
  <line x1="470" y1="60" x2="520" y2="60" stroke="#1565c0" stroke-width="1.8"/>
  <line x1="520" y1="60" x2="520" y2="72" stroke="#1565c0" stroke-width="1.8"/>
  <use href="#trim-v" x="520" y="72"/>
  <text x="538" y="100" font-size="12" fill="#333">RV1 100k</text>
  <text x="538" y="114" font-size="10" fill="#777">freq adjust</text>
  <line x1="520" y1="132" x2="520" y2="140" stroke="#1565c0" stroke-width="1.8"/>
  <use href="#res-v" x="520" y="140"/>
  <text x="538" y="172" font-size="12" fill="#333">R2 1k</text>
  <line x1="520" y1="200" x2="520" y2="222" stroke="#1565c0" stroke-width="1.8"/>
  <use href="#cap-v" x="520" y="222"/>
  <text x="538" y="252" font-size="12" fill="#333">C2 2.2µ</text>
  <line x1="520" y1="278" x2="520" y2="290" stroke="#000" stroke-width="1.8"/>
  <use href="#gnd" x="520" y="290"/>

  <!-- OSC: OUT2 -> mux -->
  <line x1="400" y1="268" x2="1325" y2="268" stroke="#1565c0" stroke-width="1.8"/>
  <text x="760" y="261" font-size="12" font-weight="bold" font-style="italic" fill="#1565c0">OSC</text>

  <!-- R10: bipolar-556 OUT2 pull-up (restores VOH to the rail) -->
  <use href="#vcc" x="1300" y="196"/>
  <text x="1300" y="172" font-size="10" fill="#c62828" text-anchor="middle">VCC</text>
  <use href="#res-v" x="1300" y="196"/>
  <text x="1316" y="230" font-size="12" fill="#333">R10 4k7</text>
  <line x1="1300" y1="256" x2="1300" y2="268" stroke="#1565c0" stroke-width="1.8"/>
  <circle cx="1300" cy="268" r="3.3" fill="#1565c0"/>

  <!-- U4A: /OSC inverter -->
  <line x1="610" y1="268" x2="610" y2="188" stroke="#1565c0" stroke-width="1.8"/>
  <line x1="610" y1="188" x2="625" y2="188" stroke="#1565c0" stroke-width="1.8"/>
  <use href="#inv" x="640" y="160"/>
  <text x="646" y="154" font-size="11" font-weight="bold" fill="#333">U4A</text>
  <line x1="708" y1="188" x2="1238" y2="188" stroke="#1565c0" stroke-width="1.8"/>
  <line x1="1238" y1="188" x2="1238" y2="778" stroke="#1565c0" stroke-width="1.8"/>
  <line x1="1238" y1="778" x2="1210" y2="778" stroke="#1565c0" stroke-width="1.8"/>
  <text x="760" y="181" font-size="12" font-weight="bold" font-style="italic" fill="#1565c0">/OSC</text>

  <!-- ===================== Mode latch ===================== -->
  <use href="#vcc" x="110" y="452"/>
  <text x="110" y="430" font-size="10" fill="#c62828" text-anchor="middle">VCC</text>
  <use href="#res-v" x="110" y="452"/>
  <text x="126" y="486" font-size="12" fill="#333">R3 10k</text>
  <line x1="110" y1="512" x2="110" y2="536" stroke="#1565c0" stroke-width="1.8"/>
  <line x1="110" y1="526" x2="415" y2="526" stroke="#1565c0" stroke-width="1.8"/>
  <use href="#btn-v" x="110" y="536"/>
  <text x="96" y="568" font-size="12" fill="#333" text-anchor="end">S2</text>
  <line x1="110" y1="592" x2="110" y2="602" stroke="#000" stroke-width="1.8"/>
  <use href="#gnd" x="110" y="602"/>
  <text x="110" y="634" font-size="10" fill="#777" text-anchor="middle">select STEP mode</text>

  <use href="#vcc" x="280" y="592"/>
  <text x="280" y="570" font-size="10" fill="#c62828" text-anchor="middle">VCC</text>
  <use href="#res-v" x="280" y="592"/>
  <text x="296" y="626" font-size="12" fill="#333">R4 10k</text>
  <line x1="280" y1="652" x2="280" y2="690" stroke="#1565c0" stroke-width="1.8"/>
  <line x1="280" y1="680" x2="415" y2="680" stroke="#1565c0" stroke-width="1.8"/>
  <use href="#btn-v" x="280" y="690"/>
  <text x="266" y="722" font-size="12" fill="#333" text-anchor="end">S3</text>
  <line x1="280" y1="746" x2="280" y2="756" stroke="#000" stroke-width="1.8"/>
  <use href="#gnd" x="280" y="756"/>
  <text x="280" y="788" font-size="10" fill="#777" text-anchor="middle">select RUN mode</text>

  <use href="#nand" x="430" y="510"/>
  <text x="440" y="504" font-size="11" font-weight="bold" fill="#333">U2A</text>
  <use href="#nand" x="430" y="640"/>
  <text x="440" y="712" font-size="11" font-weight="bold" fill="#333">U2B</text>

  <line x1="510" y1="538" x2="545" y2="538" stroke="#1565c0" stroke-width="1.8"/>
  <line x1="545" y1="538" x2="545" y2="616" stroke="#1565c0" stroke-width="1.8"/>
  <line x1="545" y1="616" x2="398" y2="616" stroke="#1565c0" stroke-width="1.8"/>
  <line x1="398" y1="616" x2="398" y2="656" stroke="#1565c0" stroke-width="1.8"/>
  <line x1="398" y1="656" x2="415" y2="656" stroke="#1565c0" stroke-width="1.8"/>
  <line x1="510" y1="668" x2="580" y2="668" stroke="#1565c0" stroke-width="1.8"/>
  <line x1="565" y1="668" x2="565" y2="592" stroke="#1565c0" stroke-width="1.8"/>
  <line x1="565" y1="592" x2="382" y2="592" stroke="#1565c0" stroke-width="1.8"/>
  <line x1="382" y1="592" x2="382" y2="550" stroke="#1565c0" stroke-width="1.8"/>
  <line x1="382" y1="550" x2="415" y2="550" stroke="#1565c0" stroke-width="1.8"/>

  <!-- MODE_STEP -> D4 (pin 13), with LED D1 -->
  <line x1="545" y1="538" x2="760" y2="538" stroke="#1565c0" stroke-width="1.8"/>
  <line x1="760" y1="538" x2="760" y2="860" stroke="#1565c0" stroke-width="1.8"/>
  <line x1="760" y1="860" x2="1310" y2="860" stroke="#1565c0" stroke-width="1.8"/>
  <line x1="1310" y1="860" x2="1310" y2="714" stroke="#1565c0" stroke-width="1.8"/>
  <line x1="1310" y1="714" x2="1210" y2="714" stroke="#1565c0" stroke-width="1.8"/>
  <text x="664" y="531" font-size="12" font-weight="bold" font-style="italic" fill="#1565c0">MODE_STEP</text>
  <line x1="640" y1="538" x2="640" y2="546" stroke="#1565c0" stroke-width="1.8"/>
  <use href="#led-g" x="640" y="546"/>
  <text x="666" y="566" font-size="12" fill="#333">D1</text>
  <line x1="640" y1="576" x2="640" y2="580" stroke="#1565c0" stroke-width="1.8"/>
  <use href="#res-v" x="640" y="580"/>
  <text x="656" y="614" font-size="12" fill="#333">R5 330</text>
  <line x1="640" y1="640" x2="640" y2="650" stroke="#000" stroke-width="1.8"/>
  <use href="#gnd" x="640" y="650"/>
  <text x="640" y="690" font-size="10" fill="#2e7d32" text-anchor="middle">STEP mode</text>

  <!-- MODE_RUN -> D5 (pin 14), with LED D2 -->
  <line x1="580" y1="668" x2="580" y2="720" stroke="#1565c0" stroke-width="1.8"/>
  <line x1="580" y1="720" x2="740" y2="720" stroke="#1565c0" stroke-width="1.8"/>
  <line x1="740" y1="720" x2="740" y2="880" stroke="#1565c0" stroke-width="1.8"/>
  <line x1="740" y1="880" x2="1334" y2="880" stroke="#1565c0" stroke-width="1.8"/>
  <line x1="1334" y1="880" x2="1334" y2="682" stroke="#1565c0" stroke-width="1.8"/>
  <line x1="1334" y1="682" x2="1210" y2="682" stroke="#1565c0" stroke-width="1.8"/>
  <text x="600" y="713" font-size="12" font-weight="bold" font-style="italic" fill="#1565c0">MODE_RUN</text>
  <line x1="700" y1="720" x2="700" y2="728" stroke="#1565c0" stroke-width="1.8"/>
  <use href="#led-g" x="700" y="728"/>
  <text x="726" y="748" font-size="12" fill="#333">D2</text>
  <line x1="700" y1="758" x2="700" y2="762" stroke="#1565c0" stroke-width="1.8"/>
  <use href="#res-v" x="700" y="762"/>
  <text x="716" y="796" font-size="12" fill="#333">R6 330</text>
  <line x1="700" y1="822" x2="700" y2="832" stroke="#000" stroke-width="1.8"/>
  <use href="#gnd" x="700" y="832"/>
  <text x="700" y="872" font-size="10" fill="#2e7d32" text-anchor="middle">RUN mode</text>

  <!-- ===================== U5 74HC273 ===================== -->
  <rect x="1060" y="460" width="150" height="330" rx="3" fill="#fdfdfd" stroke="#000" stroke-width="1.8"/>
  <text x="1066" y="476" font-size="11" font-weight="bold" fill="#333">U5</text>
  <text x="1135" y="482" font-size="13" font-weight="bold" fill="#000" text-anchor="middle">74HC273</text>
  <text x="1066" y="494" font-size="11" fill="#333">1 /CLR</text>
  <text x="1066" y="526" font-size="10" fill="#999">2 Q0 n/c</text>
  <text x="1066" y="558" font-size="11" fill="#333">3 D0</text>
  <text x="1066" y="590" font-size="11" fill="#333">4 D1</text>
  <text x="1066" y="622" font-size="10" fill="#999">5 Q1 n/c</text>
  <text x="1066" y="654" font-size="11" fill="#333">6 Q2</text>
  <text x="1066" y="686" font-size="11" fill="#333">7 D2</text>
  <text x="1066" y="718" font-size="11" fill="#333">8 D3</text>
  <text x="1066" y="750" font-size="11" fill="#333">9 Q3</text>
  <text x="1184" y="472" font-size="10" fill="#333" text-anchor="end">20 VCC</text>
  <text x="1204" y="526" font-size="10" fill="#999" text-anchor="end">Q7 19 n/c</text>
  <text x="1204" y="558" font-size="11" fill="#333" text-anchor="end">D7 18</text>
  <text x="1204" y="590" font-size="11" fill="#333" text-anchor="end">D6 17</text>
  <text x="1204" y="622" font-size="10" fill="#999" text-anchor="end">Q6 16 n/c</text>
  <text x="1204" y="654" font-size="11" fill="#333" text-anchor="end">Q5 15</text>
  <text x="1204" y="686" font-size="11" fill="#333" text-anchor="end">D5 14</text>
  <text x="1204" y="718" font-size="11" fill="#333" text-anchor="end">D4 13</text>
  <text x="1204" y="750" font-size="11" fill="#333" text-anchor="end">Q4 12</text>
  <text x="1204" y="782" font-size="11" fill="#333" text-anchor="end">CLK 11</text>
  <text x="1100" y="784" font-size="11" fill="#333" text-anchor="middle">GND 10</text>

  <!-- U5 power -->
  <line x1="1180" y1="460" x2="1180" y2="446" stroke="#c62828" stroke-width="1.8"/>
  <use href="#vcc" x="1180" y="446"/>
  <line x1="1100" y1="790" x2="1100" y2="806" stroke="#000" stroke-width="1.8"/>
  <use href="#gnd" x="1100" y="806"/>

  <!-- /CLR tied to VCC (no reset in this core); D0/D1 grounded -->
  <line x1="1060" y1="490" x2="1036" y2="490" stroke="#c62828" stroke-width="1.8"/>
  <use href="#vcc" x="1036" y="490"/>
  <text x="1036" y="466" font-size="10" fill="#c62828" text-anchor="middle">VCC</text>
  <line x1="1060" y1="554" x2="1030" y2="554" stroke="#000" stroke-width="1.8"/>
  <line x1="1060" y1="586" x2="1030" y2="586" stroke="#000" stroke-width="1.8"/>
  <line x1="1030" y1="554" x2="1030" y2="600" stroke="#000" stroke-width="1.8"/>
  <use href="#gnd" x="1030" y="600"/>

  <!-- Step chain: D2=STEP_DB, Q2->D3, Q3 -->
  <line x1="1060" y1="650" x2="1022" y2="650" stroke="#1565c0" stroke-width="1.8"/>
  <line x1="1022" y1="650" x2="1022" y2="714" stroke="#1565c0" stroke-width="1.8"/>
  <line x1="1022" y1="714" x2="1060" y2="714" stroke="#1565c0" stroke-width="1.8"/>

  <!-- Edge detect: Q2 & /Q3 -->
  <line x1="1022" y1="700" x2="788" y2="700" stroke="#1565c0" stroke-width="1.8"/>
  <line x1="788" y1="700" x2="788" y2="810" stroke="#1565c0" stroke-width="1.8"/>
  <line x1="788" y1="810" x2="825" y2="810" stroke="#1565c0" stroke-width="1.8"/>
  <line x1="1060" y1="746" x2="1015" y2="746" stroke="#1565c0" stroke-width="1.8"/>
  <g transform="translate(1000,718) scale(-1,1)"><use href="#inv"/></g>
  <text x="948" y="712" font-size="11" font-weight="bold" fill="#333">U4B</text>
  <line x1="932" y1="746" x2="808" y2="746" stroke="#1565c0" stroke-width="1.8"/>
  <line x1="808" y1="746" x2="808" y2="834" stroke="#1565c0" stroke-width="1.8"/>
  <line x1="808" y1="834" x2="825" y2="834" stroke="#1565c0" stroke-width="1.8"/>
  <use href="#nand" x="840" y="794"/>
  <text x="848" y="790" font-size="11" font-weight="bold" fill="#333">U3A</text>
  <line x1="920" y1="822" x2="965" y2="822" stroke="#1565c0" stroke-width="1.8"/>
  <use href="#inv" x="980" y="794"/>
  <text x="986" y="788" font-size="11" font-weight="bold" fill="#333">U4C</text>
  <text x="1056" y="814" font-size="9" font-style="italic" fill="#1565c0">SP — one OSC period</text>

  <!-- SP -> mux U2D -->
  <line x1="1048" y1="822" x2="1048" y2="910" stroke="#1565c0" stroke-width="1.8"/>
  <line x1="1048" y1="910" x2="1500" y2="910" stroke="#1565c0" stroke-width="1.8"/>
  <line x1="1500" y1="910" x2="1500" y2="440" stroke="#1565c0" stroke-width="1.8"/>
  <line x1="1500" y1="440" x2="1308" y2="440" stroke="#1565c0" stroke-width="1.8"/>
  <line x1="1308" y1="440" x2="1308" y2="412" stroke="#1565c0" stroke-width="1.8"/>
  <line x1="1308" y1="412" x2="1325" y2="412" stroke="#1565c0" stroke-width="1.8"/>

  <!-- Select resync: Q4=SEL_STEP_S, Q5=SEL_RUN_S -->
  <line x1="1210" y1="746" x2="1286" y2="746" stroke="#1565c0" stroke-width="1.8"/>
  <line x1="1286" y1="746" x2="1286" y2="388" stroke="#1565c0" stroke-width="1.8"/>
  <line x1="1286" y1="388" x2="1325" y2="388" stroke="#1565c0" stroke-width="1.8"/>
  <line x1="1210" y1="650" x2="1262" y2="650" stroke="#1565c0" stroke-width="1.8"/>
  <line x1="1262" y1="650" x2="1262" y2="292" stroke="#1565c0" stroke-width="1.8"/>
  <line x1="1262" y1="292" x2="1325" y2="292" stroke="#1565c0" stroke-width="1.8"/>
  <text x="1320" y="300" font-size="9" fill="#1565c0" text-anchor="end">SEL_RUN_S</text>
  <text x="1320" y="384" font-size="9" fill="#1565c0" text-anchor="end">SEL_STEP_S</text>

  <!-- Unused D6/D7 grounded -->
  <line x1="1210" y1="554" x2="1224" y2="554" stroke="#000" stroke-width="1.8"/>
  <line x1="1210" y1="586" x2="1224" y2="586" stroke="#000" stroke-width="1.8"/>
  <line x1="1224" y1="554" x2="1224" y2="610" stroke="#000" stroke-width="1.8"/>
  <use href="#gnd" x="1224" y="610"/>

  <!-- ===================== Mux ===================== -->
  <use href="#nand" x="1340" y="252"/>
  <text x="1350" y="248" font-size="11" font-weight="bold" fill="#333">U2C</text>
  <use href="#nand" x="1340" y="372"/>
  <text x="1350" y="368" font-size="11" font-weight="bold" fill="#333">U2D</text>
  <use href="#nand" x="1490" y="302"/>
  <text x="1500" y="298" font-size="11" font-weight="bold" fill="#333">U3B</text>
  <line x1="1420" y1="280" x2="1450" y2="280" stroke="#1565c0" stroke-width="1.8"/>
  <line x1="1450" y1="280" x2="1450" y2="318" stroke="#1565c0" stroke-width="1.8"/>
  <line x1="1450" y1="318" x2="1475" y2="318" stroke="#1565c0" stroke-width="1.8"/>
  <line x1="1420" y1="400" x2="1450" y2="400" stroke="#1565c0" stroke-width="1.8"/>
  <line x1="1450" y1="400" x2="1450" y2="342" stroke="#1565c0" stroke-width="1.8"/>
  <line x1="1450" y1="342" x2="1475" y2="342" stroke="#1565c0" stroke-width="1.8"/>
  <line x1="1570" y1="330" x2="1630" y2="330" stroke="#1565c0" stroke-width="2.2"/>
  <polygon points="1630,330 1618,324 1618,336" fill="#1565c0"/>
  <text x="1638" y="336" font-size="18" font-weight="bold" fill="#1565c0">CLK</text>

  <!-- CLK LED D3 -->
  <line x1="1600" y1="330" x2="1600" y2="338" stroke="#1565c0" stroke-width="1.8"/>
  <use href="#led-y" x="1600" y="338"/>
  <text x="1630" y="356" font-size="12" fill="#333">D3</text>
  <line x1="1600" y1="368" x2="1600" y2="372" stroke="#1565c0" stroke-width="1.8"/>
  <use href="#res-v" x="1600" y="372"/>
  <text x="1616" y="406" font-size="12" fill="#333">R7 330</text>
  <line x1="1600" y1="432" x2="1600" y2="442" stroke="#000" stroke-width="1.8"/>
  <use href="#gnd" x="1600" y="442"/>

  <!-- ===================== Notes ===================== -->
  <text x="60" y="950" font-size="11" fill="#555">U1 = NE556 (bipolar — R9/R10 4k7 pull-ups lift OUT1/OUT2 to the rail for HC inputs) · U2, U3 = 74HC00 · U4 = 74HC14 · U5 = 74HC273 (FF2/3 step sync, FF4/5 select resync; FF0/1/6/7 unused)</text>
  <text x="60" y="972" font-size="11" font-style="italic" fill="#555">CLK = OSC·SEL_RUN_S + SP·SEL_STEP_S · every flip-flop clocks on /OSC (the falling edge of OSC), so selects and SP only change while OSC is low — no runt pulses, no interlocks needed</text>
  <text x="60" y="994" font-size="11" fill="#555">Educational core of blinky_clock_module.svg — the full module adds the DS1813 supervised reset (driving /CLR) and a jumpered can-oscillator input. With no reset, the '273 powers up in a random state and self-corrects on the first /OSC falling edge. 100 n decoupling per IC not shown.</text>

  <!-- ===================== Junction dots ===================== -->
  <circle cx="110" cy="196" r="3.3" fill="#1565c0"/>
  <circle cx="196" cy="196" r="3.3" fill="#1565c0"/>
  <circle cx="240" cy="196" r="3.3" fill="#1565c0"/>
  <circle cx="425" cy="215" r="3.3" fill="#1565c0"/>
  <circle cx="520" cy="215" r="3.3" fill="#1565c0"/>
  <circle cx="470" cy="268" r="3.3" fill="#1565c0"/>
  <circle cx="610" cy="268" r="3.3" fill="#1565c0"/>
  <circle cx="110" cy="526" r="3.3" fill="#1565c0"/>
  <circle cx="280" cy="680" r="3.3" fill="#1565c0"/>
  <circle cx="545" cy="538" r="3.3" fill="#1565c0"/>
  <circle cx="640" cy="538" r="3.3" fill="#1565c0"/>
  <circle cx="565" cy="668" r="3.3" fill="#1565c0"/>
  <circle cx="700" cy="720" r="3.3" fill="#1565c0"/>
  <circle cx="1022" cy="700" r="3.3" fill="#1565c0"/>
  <circle cx="1030" cy="586" r="3.3" fill="#000"/>
  <circle cx="1224" cy="586" r="3.3" fill="#000"/>
</svg>
