<svg xmlns="http://www.w3.org/2000/svg" width="297mm" height="210mm" viewBox="0 0 297 210" font-family="Arial, Helvetica, sans-serif">
<rect width="297" height="210" fill="#2b2f33" stroke="#111"/>
<circle cx="7" cy="7" r="1.6" fill="#111" stroke="#666" stroke-width="0.4"/>
<circle cx="290" cy="7" r="1.6" fill="#111" stroke="#666" stroke-width="0.4"/>
<circle cx="7" cy="203" r="1.6" fill="#111" stroke="#666" stroke-width="0.4"/>
<circle cx="290" cy="203" r="1.6" fill="#111" stroke="#666" stroke-width="0.4"/>
<text x="148.5" y="14" fill="#eee" font-size="8" text-anchor="middle" letter-spacing="2.5" font-weight="bold">BLINKY</text>
<text x="148.5" y="20.5" fill="#999" font-size="3.2" text-anchor="middle" letter-spacing="1.2">SINGLE-CYCLE TTL CPU</text>
<text x="13" y="30.3" fill="#eee" font-size="3.7" font-weight="bold">PC</text>
<circle cx="16" cy="35" r="2.5" fill="#37d24a" stroke="#111" stroke-width="0.5"/>
<circle cx="16" cy="35" r="3" fill="none" stroke="#555" stroke-width="0.35"/>
<circle cx="24" cy="35" r="2.5" fill="#37d24a" stroke="#111" stroke-width="0.5"/>
<circle cx="24" cy="35" r="3" fill="none" stroke="#555" stroke-width="0.35"/>
<circle cx="32" cy="35" r="2.5" fill="#37d24a" stroke="#111" stroke-width="0.5"/>
<circle cx="32" cy="35" r="3" fill="none" stroke="#555" stroke-width="0.35"/>
<circle cx="40" cy="35" r="2.5" fill="#37d24a" stroke="#111" stroke-width="0.5"/>
<circle cx="40" cy="35" r="3" fill="none" stroke="#555" stroke-width="0.35"/>
<circle cx="48" cy="35" r="2.5" fill="#37d24a" stroke="#111" stroke-width="0.5"/>
<circle cx="48" cy="35" r="3" fill="none" stroke="#555" stroke-width="0.35"/>
<circle cx="56" cy="35" r="2.5" fill="#37d24a" stroke="#111" stroke-width="0.5"/>
<circle cx="56" cy="35" r="3" fill="none" stroke="#555" stroke-width="0.35"/>
<circle cx="64" cy="35" r="2.5" fill="#37d24a" stroke="#111" stroke-width="0.5"/>
<circle cx="64" cy="35" r="3" fill="none" stroke="#555" stroke-width="0.35"/>
<circle cx="72" cy="35" r="2.5" fill="#37d24a" stroke="#111" stroke-width="0.5"/>
<circle cx="72" cy="35" r="3" fill="none" stroke="#555" stroke-width="0.35"/>
<circle cx="80" cy="35" r="2.5" fill="#37d24a" stroke="#111" stroke-width="0.5"/>
<circle cx="80" cy="35" r="3" fill="none" stroke="#555" stroke-width="0.35"/>
<circle cx="88" cy="35" r="2.5" fill="#37d24a" stroke="#111" stroke-width="0.5"/>
<circle cx="88" cy="35" r="3" fill="none" stroke="#555" stroke-width="0.35"/>
<circle cx="96" cy="35" r="2.5" fill="#37d24a" stroke="#111" stroke-width="0.5"/>
<circle cx="96" cy="35" r="3" fill="none" stroke="#555" stroke-width="0.35"/>
<circle cx="104" cy="35" r="2.5" fill="#37d24a" stroke="#111" stroke-width="0.5"/>
<circle cx="104" cy="35" r="3" fill="none" stroke="#555" stroke-width="0.35"/>
<circle cx="112" cy="35" r="2.5" fill="#37d24a" stroke="#111" stroke-width="0.5"/>
<circle cx="112" cy="35" r="3" fill="none" stroke="#555" stroke-width="0.35"/>
<text x="13" y="50.3" fill="#eee" font-size="3.7" font-weight="bold">RTOS</text>
<circle cx="16" cy="55" r="2.5" fill="#37d24a" stroke="#111" stroke-width="0.5"/>
<circle cx="16" cy="55" r="3" fill="none" stroke="#555" stroke-width="0.35"/>
<circle cx="24" cy="55" r="2.5" fill="#37d24a" stroke="#111" stroke-width="0.5"/>
<circle cx="24" cy="55" r="3" fill="none" stroke="#555" stroke-width="0.35"/>
<circle cx="32" cy="55" r="2.5" fill="#37d24a" stroke="#111" stroke-width="0.5"/>
<circle cx="32" cy="55" r="3" fill="none" stroke="#555" stroke-width="0.35"/>
<circle cx="40" cy="55" r="2.5" fill="#37d24a" stroke="#111" stroke-width="0.5"/>
<circle cx="40" cy="55" r="3" fill="none" stroke="#555" stroke-width="0.35"/>
<circle cx="48" cy="55" r="2.5" fill="#37d24a" stroke="#111" stroke-width="0.5"/>
<circle cx="48" cy="55" r="3" fill="none" stroke="#555" stroke-width="0.35"/>
<circle cx="56" cy="55" r="2.5" fill="#37d24a" stroke="#111" stroke-width="0.5"/>
<circle cx="56" cy="55" r="3" fill="none" stroke="#555" stroke-width="0.35"/>
<circle cx="64" cy="55" r="2.5" fill="#37d24a" stroke="#111" stroke-width="0.5"/>
<circle cx="64" cy="55" r="3" fill="none" stroke="#555" stroke-width="0.35"/>
<circle cx="72" cy="55" r="2.5" fill="#37d24a" stroke="#111" stroke-width="0.5"/>
<circle cx="72" cy="55" r="3" fill="none" stroke="#555" stroke-width="0.35"/>
<circle cx="80" cy="55" r="2.5" fill="#37d24a" stroke="#111" stroke-width="0.5"/>
<circle cx="80" cy="55" r="3" fill="none" stroke="#555" stroke-width="0.35"/>
<circle cx="88" cy="55" r="2.5" fill="#37d24a" stroke="#111" stroke-width="0.5"/>
<circle cx="88" cy="55" r="3" fill="none" stroke="#555" stroke-width="0.35"/>
<circle cx="96" cy="55" r="2.5" fill="#37d24a" stroke="#111" stroke-width="0.5"/>
<circle cx="96" cy="55" r="3" fill="none" stroke="#555" stroke-width="0.35"/>
<circle cx="104" cy="55" r="2.5" fill="#37d24a" stroke="#111" stroke-width="0.5"/>
<circle cx="104" cy="55" r="3" fill="none" stroke="#555" stroke-width="0.35"/>
<circle cx="112" cy="55" r="2.5" fill="#37d24a" stroke="#111" stroke-width="0.5"/>
<circle cx="112" cy="55" r="3" fill="none" stroke="#555" stroke-width="0.35"/>
<text x="13" y="70.3" fill="#eee" font-size="3.7" font-weight="bold">BP</text>
<circle cx="16" cy="75" r="2.5" fill="#37d24a" stroke="#111" stroke-width="0.5"/>
<circle cx="16" cy="75" r="3" fill="none" stroke="#555" stroke-width="0.35"/>
<circle cx="24" cy="75" r="2.5" fill="#37d24a" stroke="#111" stroke-width="0.5"/>
<circle cx="24" cy="75" r="3" fill="none" stroke="#555" stroke-width="0.35"/>
<circle cx="32" cy="75" r="2.5" fill="#37d24a" stroke="#111" stroke-width="0.5"/>
<circle cx="32" cy="75" r="3" fill="none" stroke="#555" stroke-width="0.35"/>
<circle cx="40" cy="75" r="2.5" fill="#37d24a" stroke="#111" stroke-width="0.5"/>
<circle cx="40" cy="75" r="3" fill="none" stroke="#555" stroke-width="0.35"/>
<circle cx="48" cy="75" r="2.5" fill="#37d24a" stroke="#111" stroke-width="0.5"/>
<circle cx="48" cy="75" r="3" fill="none" stroke="#555" stroke-width="0.35"/>
<circle cx="56" cy="75" r="2.5" fill="#37d24a" stroke="#111" stroke-width="0.5"/>
<circle cx="56" cy="75" r="3" fill="none" stroke="#555" stroke-width="0.35"/>
<circle cx="64" cy="75" r="2.5" fill="#37d24a" stroke="#111" stroke-width="0.5"/>
<circle cx="64" cy="75" r="3" fill="none" stroke="#555" stroke-width="0.35"/>
<circle cx="72" cy="75" r="2.5" fill="#37d24a" stroke="#111" stroke-width="0.5"/>
<circle cx="72" cy="75" r="3" fill="none" stroke="#555" stroke-width="0.35"/>
<circle cx="80" cy="75" r="2.5" fill="#37d24a" stroke="#111" stroke-width="0.5"/>
<circle cx="80" cy="75" r="3" fill="none" stroke="#555" stroke-width="0.35"/>
<circle cx="88" cy="75" r="2.5" fill="#37d24a" stroke="#111" stroke-width="0.5"/>
<circle cx="88" cy="75" r="3" fill="none" stroke="#555" stroke-width="0.35"/>
<circle cx="96" cy="75" r="2.5" fill="#37d24a" stroke="#111" stroke-width="0.5"/>
<circle cx="96" cy="75" r="3" fill="none" stroke="#555" stroke-width="0.35"/>
<circle cx="104" cy="75" r="2.5" fill="#37d24a" stroke="#111" stroke-width="0.5"/>
<circle cx="104" cy="75" r="3" fill="none" stroke="#555" stroke-width="0.35"/>
<circle cx="112" cy="75" r="2.5" fill="#37d24a" stroke="#111" stroke-width="0.5"/>
<circle cx="112" cy="75" r="3" fill="none" stroke="#555" stroke-width="0.35"/>
<text x="13" y="90.3" fill="#eee" font-size="3.7" font-weight="bold">D-ADDR</text>
<circle cx="16" cy="95" r="2.5" fill="#37d24a" stroke="#111" stroke-width="0.5"/>
<circle cx="16" cy="95" r="3" fill="none" stroke="#555" stroke-width="0.35"/>
<circle cx="24" cy="95" r="2.5" fill="#37d24a" stroke="#111" stroke-width="0.5"/>
<circle cx="24" cy="95" r="3" fill="none" stroke="#555" stroke-width="0.35"/>
<circle cx="32" cy="95" r="2.5" fill="#37d24a" stroke="#111" stroke-width="0.5"/>
<circle cx="32" cy="95" r="3" fill="none" stroke="#555" stroke-width="0.35"/>
<circle cx="40" cy="95" r="2.5" fill="#37d24a" stroke="#111" stroke-width="0.5"/>
<circle cx="40" cy="95" r="3" fill="none" stroke="#555" stroke-width="0.35"/>
<circle cx="48" cy="95" r="2.5" fill="#37d24a" stroke="#111" stroke-width="0.5"/>
<circle cx="48" cy="95" r="3" fill="none" stroke="#555" stroke-width="0.35"/>
<circle cx="56" cy="95" r="2.5" fill="#37d24a" stroke="#111" stroke-width="0.5"/>
<circle cx="56" cy="95" r="3" fill="none" stroke="#555" stroke-width="0.35"/>
<circle cx="64" cy="95" r="2.5" fill="#37d24a" stroke="#111" stroke-width="0.5"/>
<circle cx="64" cy="95" r="3" fill="none" stroke="#555" stroke-width="0.35"/>
<circle cx="72" cy="95" r="2.5" fill="#37d24a" stroke="#111" stroke-width="0.5"/>
<circle cx="72" cy="95" r="3" fill="none" stroke="#555" stroke-width="0.35"/>
<circle cx="80" cy="95" r="2.5" fill="#37d24a" stroke="#111" stroke-width="0.5"/>
<circle cx="80" cy="95" r="3" fill="none" stroke="#555" stroke-width="0.35"/>
<circle cx="88" cy="95" r="2.5" fill="#37d24a" stroke="#111" stroke-width="0.5"/>
<circle cx="88" cy="95" r="3" fill="none" stroke="#555" stroke-width="0.35"/>
<circle cx="96" cy="95" r="2.5" fill="#37d24a" stroke="#111" stroke-width="0.5"/>
<circle cx="96" cy="95" r="3" fill="none" stroke="#555" stroke-width="0.35"/>
<circle cx="104" cy="95" r="2.5" fill="#37d24a" stroke="#111" stroke-width="0.5"/>
<circle cx="104" cy="95" r="3" fill="none" stroke="#555" stroke-width="0.35"/>
<circle cx="112" cy="95" r="2.5" fill="#37d24a" stroke="#111" stroke-width="0.5"/>
<circle cx="112" cy="95" r="3" fill="none" stroke="#555" stroke-width="0.35"/>
<text x="16" y="101.2" fill="#9aa" font-size="2.4" text-anchor="middle">12</text>
<text x="24" y="101.2" fill="#9aa" font-size="2.4" text-anchor="middle">11</text>
<text x="32" y="101.2" fill="#9aa" font-size="2.4" text-anchor="middle">10</text>
<text x="40" y="101.2" fill="#9aa" font-size="2.4" text-anchor="middle">9</text>
<text x="48" y="101.2" fill="#9aa" font-size="2.4" text-anchor="middle">8</text>
<text x="56" y="101.2" fill="#9aa" font-size="2.4" text-anchor="middle">7</text>
<text x="64" y="101.2" fill="#9aa" font-size="2.4" text-anchor="middle">6</text>
<text x="72" y="101.2" fill="#9aa" font-size="2.4" text-anchor="middle">5</text>
<text x="80" y="101.2" fill="#9aa" font-size="2.4" text-anchor="middle">4</text>
<text x="88" y="101.2" fill="#9aa" font-size="2.4" text-anchor="middle">3</text>
<text x="96" y="101.2" fill="#9aa" font-size="2.4" text-anchor="middle">2</text>
<text x="104" y="101.2" fill="#9aa" font-size="2.4" text-anchor="middle">1</text>
<text x="112" y="101.2" fill="#9aa" font-size="2.4" text-anchor="middle">0</text>
<text x="143" y="30.3" fill="#eee" font-size="3.7" font-weight="bold">IR</text>
<path d="M 143.5 35 A 2.5 2.5 0 0 1 148.5 35 Z" fill="#37d24a"/>
<path d="M 148.5 35 A 2.5 2.5 0 0 1 143.5 35 Z" fill="#ff4136"/>
<circle cx="146" cy="35" r="2.5" fill="none" stroke="#111" stroke-width="0.5"/>
<circle cx="146" cy="35" r="3" fill="none" stroke="#555" stroke-width="0.35"/>
<path d="M 151.5 35 A 2.5 2.5 0 0 1 156.5 35 Z" fill="#37d24a"/>
<path d="M 156.5 35 A 2.5 2.5 0 0 1 151.5 35 Z" fill="#ff4136"/>
<circle cx="154" cy="35" r="2.5" fill="none" stroke="#111" stroke-width="0.5"/>
<circle cx="154" cy="35" r="3" fill="none" stroke="#555" stroke-width="0.35"/>
<path d="M 159.5 35 A 2.5 2.5 0 0 1 164.5 35 Z" fill="#37d24a"/>
<path d="M 164.5 35 A 2.5 2.5 0 0 1 159.5 35 Z" fill="#ff4136"/>
<circle cx="162" cy="35" r="2.5" fill="none" stroke="#111" stroke-width="0.5"/>
<circle cx="162" cy="35" r="3" fill="none" stroke="#555" stroke-width="0.35"/>
<path d="M 167.5 35 A 2.5 2.5 0 0 1 172.5 35 Z" fill="#37d24a"/>
<path d="M 172.5 35 A 2.5 2.5 0 0 1 167.5 35 Z" fill="#ff4136"/>
<circle cx="170" cy="35" r="2.5" fill="none" stroke="#111" stroke-width="0.5"/>
<circle cx="170" cy="35" r="3" fill="none" stroke="#555" stroke-width="0.35"/>
<path d="M 175.5 35 A 2.5 2.5 0 0 1 180.5 35 Z" fill="#37d24a"/>
<path d="M 180.5 35 A 2.5 2.5 0 0 1 175.5 35 Z" fill="#ff4136"/>
<circle cx="178" cy="35" r="2.5" fill="none" stroke="#111" stroke-width="0.5"/>
<circle cx="178" cy="35" r="3" fill="none" stroke="#555" stroke-width="0.35"/>
<path d="M 183.5 35 A 2.5 2.5 0 0 1 188.5 35 Z" fill="#37d24a"/>
<path d="M 188.5 35 A 2.5 2.5 0 0 1 183.5 35 Z" fill="#ff4136"/>
<circle cx="186" cy="35" r="2.5" fill="none" stroke="#111" stroke-width="0.5"/>
<circle cx="186" cy="35" r="3" fill="none" stroke="#555" stroke-width="0.35"/>
<path d="M 191.5 35 A 2.5 2.5 0 0 1 196.5 35 Z" fill="#37d24a"/>
<path d="M 196.5 35 A 2.5 2.5 0 0 1 191.5 35 Z" fill="#ff4136"/>
<circle cx="194" cy="35" r="2.5" fill="none" stroke="#111" stroke-width="0.5"/>
<circle cx="194" cy="35" r="3" fill="none" stroke="#555" stroke-width="0.35"/>
<path d="M 199.5 35 A 2.5 2.5 0 0 1 204.5 35 Z" fill="#37d24a"/>
<path d="M 204.5 35 A 2.5 2.5 0 0 1 199.5 35 Z" fill="#ff4136"/>
<circle cx="202" cy="35" r="2.5" fill="none" stroke="#111" stroke-width="0.5"/>
<circle cx="202" cy="35" r="3" fill="none" stroke="#555" stroke-width="0.35"/>
<path d="M 207.5 35 A 2.5 2.5 0 0 1 212.5 35 Z" fill="#37d24a"/>
<path d="M 212.5 35 A 2.5 2.5 0 0 1 207.5 35 Z" fill="#ff4136"/>
<circle cx="210" cy="35" r="2.5" fill="none" stroke="#111" stroke-width="0.5"/>
<circle cx="210" cy="35" r="3" fill="none" stroke="#555" stroke-width="0.35"/>
<path d="M 215.5 35 A 2.5 2.5 0 0 1 220.5 35 Z" fill="#37d24a"/>
<path d="M 220.5 35 A 2.5 2.5 0 0 1 215.5 35 Z" fill="#ff4136"/>
<circle cx="218" cy="35" r="2.5" fill="none" stroke="#111" stroke-width="0.5"/>
<circle cx="218" cy="35" r="3" fill="none" stroke="#555" stroke-width="0.35"/>
<path d="M 223.5 35 A 2.5 2.5 0 0 1 228.5 35 Z" fill="#37d24a"/>
<path d="M 228.5 35 A 2.5 2.5 0 0 1 223.5 35 Z" fill="#ff4136"/>
<circle cx="226" cy="35" r="2.5" fill="none" stroke="#111" stroke-width="0.5"/>
<circle cx="226" cy="35" r="3" fill="none" stroke="#555" stroke-width="0.35"/>
<path d="M 231.5 35 A 2.5 2.5 0 0 1 236.5 35 Z" fill="#37d24a"/>
<path d="M 236.5 35 A 2.5 2.5 0 0 1 231.5 35 Z" fill="#ff4136"/>
<circle cx="234" cy="35" r="2.5" fill="none" stroke="#111" stroke-width="0.5"/>
<circle cx="234" cy="35" r="3" fill="none" stroke="#555" stroke-width="0.35"/>
<path d="M 239.5 35 A 2.5 2.5 0 0 1 244.5 35 Z" fill="#37d24a"/>
<path d="M 244.5 35 A 2.5 2.5 0 0 1 239.5 35 Z" fill="#ff4136"/>
<circle cx="242" cy="35" r="2.5" fill="none" stroke="#111" stroke-width="0.5"/>
<circle cx="242" cy="35" r="3" fill="none" stroke="#555" stroke-width="0.35"/>
<path d="M 247.5 35 A 2.5 2.5 0 0 1 252.5 35 Z" fill="#37d24a"/>
<path d="M 252.5 35 A 2.5 2.5 0 0 1 247.5 35 Z" fill="#ff4136"/>
<circle cx="250" cy="35" r="2.5" fill="none" stroke="#111" stroke-width="0.5"/>
<circle cx="250" cy="35" r="3" fill="none" stroke="#555" stroke-width="0.35"/>
<path d="M 255.5 35 A 2.5 2.5 0 0 1 260.5 35 Z" fill="#37d24a"/>
<path d="M 260.5 35 A 2.5 2.5 0 0 1 255.5 35 Z" fill="#ff4136"/>
<circle cx="258" cy="35" r="2.5" fill="none" stroke="#111" stroke-width="0.5"/>
<circle cx="258" cy="35" r="3" fill="none" stroke="#555" stroke-width="0.35"/>
<path d="M 263.5 35 A 2.5 2.5 0 0 1 268.5 35 Z" fill="#37d24a"/>
<path d="M 268.5 35 A 2.5 2.5 0 0 1 263.5 35 Z" fill="#ff4136"/>
<circle cx="266" cy="35" r="2.5" fill="none" stroke="#111" stroke-width="0.5"/>
<circle cx="266" cy="35" r="3" fill="none" stroke="#555" stroke-width="0.35"/>
<line x1="150" y1="31.2" x2="150" y2="38.8" stroke="#777" stroke-width="0.4"/>
<line x1="206" y1="31.2" x2="206" y2="38.8" stroke="#777" stroke-width="0.4"/>
<text x="146" y="41.2" fill="#9aa" font-size="2.4" text-anchor="middle">15</text>
<text x="154" y="41.2" fill="#9aa" font-size="2.4" text-anchor="middle">14</text>
<text x="162" y="41.2" fill="#9aa" font-size="2.4" text-anchor="middle">13</text>
<text x="170" y="41.2" fill="#9aa" font-size="2.4" text-anchor="middle">12</text>
<text x="178" y="41.2" fill="#9aa" font-size="2.4" text-anchor="middle">11</text>
<text x="186" y="41.2" fill="#9aa" font-size="2.4" text-anchor="middle">10</text>
<text x="194" y="41.2" fill="#9aa" font-size="2.4" text-anchor="middle">9</text>
<text x="202" y="41.2" fill="#9aa" font-size="2.4" text-anchor="middle">8</text>
<text x="210" y="41.2" fill="#9aa" font-size="2.4" text-anchor="middle">7</text>
<text x="218" y="41.2" fill="#9aa" font-size="2.4" text-anchor="middle">6</text>
<text x="226" y="41.2" fill="#9aa" font-size="2.4" text-anchor="middle">5</text>
<text x="234" y="41.2" fill="#9aa" font-size="2.4" text-anchor="middle">4</text>
<text x="242" y="41.2" fill="#9aa" font-size="2.4" text-anchor="middle">3</text>
<text x="250" y="41.2" fill="#9aa" font-size="2.4" text-anchor="middle">2</text>
<text x="258" y="41.2" fill="#9aa" font-size="2.4" text-anchor="middle">1</text>
<text x="266" y="41.2" fill="#9aa" font-size="2.4" text-anchor="middle">0</text>
<text x="143" y="50.3" fill="#eee" font-size="3.7" font-weight="bold">TOS</text>
<circle cx="146" cy="55" r="2.5" fill="#ff4136" stroke="#111" stroke-width="0.5"/>
<circle cx="146" cy="55" r="3" fill="none" stroke="#555" stroke-width="0.35"/>
<circle cx="154" cy="55" r="2.5" fill="#ff4136" stroke="#111" stroke-width="0.5"/>
<circle cx="154" cy="55" r="3" fill="none" stroke="#555" stroke-width="0.35"/>
<circle cx="162" cy="55" r="2.5" fill="#ff4136" stroke="#111" stroke-width="0.5"/>
<circle cx="162" cy="55" r="3" fill="none" stroke="#555" stroke-width="0.35"/>
<circle cx="170" cy="55" r="2.5" fill="#ff4136" stroke="#111" stroke-width="0.5"/>
<circle cx="170" cy="55" r="3" fill="none" stroke="#555" stroke-width="0.35"/>
<circle cx="178" cy="55" r="2.5" fill="#ff4136" stroke="#111" stroke-width="0.5"/>
<circle cx="178" cy="55" r="3" fill="none" stroke="#555" stroke-width="0.35"/>
<circle cx="186" cy="55" r="2.5" fill="#ff4136" stroke="#111" stroke-width="0.5"/>
<circle cx="186" cy="55" r="3" fill="none" stroke="#555" stroke-width="0.35"/>
<circle cx="194" cy="55" r="2.5" fill="#ff4136" stroke="#111" stroke-width="0.5"/>
<circle cx="194" cy="55" r="3" fill="none" stroke="#555" stroke-width="0.35"/>
<circle cx="202" cy="55" r="2.5" fill="#ff4136" stroke="#111" stroke-width="0.5"/>
<circle cx="202" cy="55" r="3" fill="none" stroke="#555" stroke-width="0.35"/>
<text x="219" y="50.3" fill="#eee" font-size="3.7" font-weight="bold">DSP</text>
<circle cx="222" cy="55" r="2.5" fill="#ffdc00" stroke="#111" stroke-width="0.5"/>
<circle cx="222" cy="55" r="3" fill="none" stroke="#555" stroke-width="0.35"/>
<circle cx="230" cy="55" r="2.5" fill="#ffdc00" stroke="#111" stroke-width="0.5"/>
<circle cx="230" cy="55" r="3" fill="none" stroke="#555" stroke-width="0.35"/>
<circle cx="238" cy="55" r="2.5" fill="#ffdc00" stroke="#111" stroke-width="0.5"/>
<circle cx="238" cy="55" r="3" fill="none" stroke="#555" stroke-width="0.35"/>
<circle cx="246" cy="55" r="2.5" fill="#ffdc00" stroke="#111" stroke-width="0.5"/>
<circle cx="246" cy="55" r="3" fill="none" stroke="#555" stroke-width="0.35"/>
<circle cx="254" cy="55" r="2.5" fill="#ffdc00" stroke="#111" stroke-width="0.5"/>
<circle cx="254" cy="55" r="3" fill="none" stroke="#555" stroke-width="0.35"/>
<circle cx="262" cy="55" r="2.5" fill="#ffdc00" stroke="#111" stroke-width="0.5"/>
<circle cx="262" cy="55" r="3" fill="none" stroke="#555" stroke-width="0.35"/>
<circle cx="270" cy="55" r="2.5" fill="#ffdc00" stroke="#111" stroke-width="0.5"/>
<circle cx="270" cy="55" r="3" fill="none" stroke="#555" stroke-width="0.35"/>
<circle cx="278" cy="55" r="2.5" fill="#ffdc00" stroke="#111" stroke-width="0.5"/>
<circle cx="278" cy="55" r="3" fill="none" stroke="#555" stroke-width="0.35"/>
<text x="143" y="70.3" fill="#eee" font-size="3.7" font-weight="bold">NOS</text>
<circle cx="146" cy="75" r="2.5" fill="#ff4136" stroke="#111" stroke-width="0.5"/>
<circle cx="146" cy="75" r="3" fill="none" stroke="#555" stroke-width="0.35"/>
<circle cx="154" cy="75" r="2.5" fill="#ff4136" stroke="#111" stroke-width="0.5"/>
<circle cx="154" cy="75" r="3" fill="none" stroke="#555" stroke-width="0.35"/>
<circle cx="162" cy="75" r="2.5" fill="#ff4136" stroke="#111" stroke-width="0.5"/>
<circle cx="162" cy="75" r="3" fill="none" stroke="#555" stroke-width="0.35"/>
<circle cx="170" cy="75" r="2.5" fill="#ff4136" stroke="#111" stroke-width="0.5"/>
<circle cx="170" cy="75" r="3" fill="none" stroke="#555" stroke-width="0.35"/>
<circle cx="178" cy="75" r="2.5" fill="#ff4136" stroke="#111" stroke-width="0.5"/>
<circle cx="178" cy="75" r="3" fill="none" stroke="#555" stroke-width="0.35"/>
<circle cx="186" cy="75" r="2.5" fill="#ff4136" stroke="#111" stroke-width="0.5"/>
<circle cx="186" cy="75" r="3" fill="none" stroke="#555" stroke-width="0.35"/>
<circle cx="194" cy="75" r="2.5" fill="#ff4136" stroke="#111" stroke-width="0.5"/>
<circle cx="194" cy="75" r="3" fill="none" stroke="#555" stroke-width="0.35"/>
<circle cx="202" cy="75" r="2.5" fill="#ff4136" stroke="#111" stroke-width="0.5"/>
<circle cx="202" cy="75" r="3" fill="none" stroke="#555" stroke-width="0.35"/>
<text x="219" y="70.3" fill="#eee" font-size="3.7" font-weight="bold">RSP</text>
<circle cx="222" cy="75" r="2.5" fill="#ffdc00" stroke="#111" stroke-width="0.5"/>
<circle cx="222" cy="75" r="3" fill="none" stroke="#555" stroke-width="0.35"/>
<circle cx="230" cy="75" r="2.5" fill="#ffdc00" stroke="#111" stroke-width="0.5"/>
<circle cx="230" cy="75" r="3" fill="none" stroke="#555" stroke-width="0.35"/>
<circle cx="238" cy="75" r="2.5" fill="#ffdc00" stroke="#111" stroke-width="0.5"/>
<circle cx="238" cy="75" r="3" fill="none" stroke="#555" stroke-width="0.35"/>
<circle cx="246" cy="75" r="2.5" fill="#ffdc00" stroke="#111" stroke-width="0.5"/>
<circle cx="246" cy="75" r="3" fill="none" stroke="#555" stroke-width="0.35"/>
<circle cx="254" cy="75" r="2.5" fill="#ffdc00" stroke="#111" stroke-width="0.5"/>
<circle cx="254" cy="75" r="3" fill="none" stroke="#555" stroke-width="0.35"/>
<circle cx="262" cy="75" r="2.5" fill="#ffdc00" stroke="#111" stroke-width="0.5"/>
<circle cx="262" cy="75" r="3" fill="none" stroke="#555" stroke-width="0.35"/>
<circle cx="270" cy="75" r="2.5" fill="#ffdc00" stroke="#111" stroke-width="0.5"/>
<circle cx="270" cy="75" r="3" fill="none" stroke="#555" stroke-width="0.35"/>
<circle cx="278" cy="75" r="2.5" fill="#ffdc00" stroke="#111" stroke-width="0.5"/>
<circle cx="278" cy="75" r="3" fill="none" stroke="#555" stroke-width="0.35"/>
<text x="143" y="90.3" fill="#eee" font-size="3.7" font-weight="bold">OUT</text>
<circle cx="146" cy="95" r="2.5" fill="#ff4136" stroke="#111" stroke-width="0.5"/>
<circle cx="146" cy="95" r="3" fill="none" stroke="#555" stroke-width="0.35"/>
<circle cx="154" cy="95" r="2.5" fill="#ff4136" stroke="#111" stroke-width="0.5"/>
<circle cx="154" cy="95" r="3" fill="none" stroke="#555" stroke-width="0.35"/>
<circle cx="162" cy="95" r="2.5" fill="#ff4136" stroke="#111" stroke-width="0.5"/>
<circle cx="162" cy="95" r="3" fill="none" stroke="#555" stroke-width="0.35"/>
<circle cx="170" cy="95" r="2.5" fill="#ff4136" stroke="#111" stroke-width="0.5"/>
<circle cx="170" cy="95" r="3" fill="none" stroke="#555" stroke-width="0.35"/>
<circle cx="178" cy="95" r="2.5" fill="#ff4136" stroke="#111" stroke-width="0.5"/>
<circle cx="178" cy="95" r="3" fill="none" stroke="#555" stroke-width="0.35"/>
<circle cx="186" cy="95" r="2.5" fill="#ff4136" stroke="#111" stroke-width="0.5"/>
<circle cx="186" cy="95" r="3" fill="none" stroke="#555" stroke-width="0.35"/>
<circle cx="194" cy="95" r="2.5" fill="#ff4136" stroke="#111" stroke-width="0.5"/>
<circle cx="194" cy="95" r="3" fill="none" stroke="#555" stroke-width="0.35"/>
<circle cx="202" cy="95" r="2.5" fill="#ff4136" stroke="#111" stroke-width="0.5"/>
<circle cx="202" cy="95" r="3" fill="none" stroke="#555" stroke-width="0.35"/>
<text x="146" y="101.2" fill="#9aa" font-size="2.4" text-anchor="middle">7</text>
<text x="154" y="101.2" fill="#9aa" font-size="2.4" text-anchor="middle">6</text>
<text x="162" y="101.2" fill="#9aa" font-size="2.4" text-anchor="middle">5</text>
<text x="170" y="101.2" fill="#9aa" font-size="2.4" text-anchor="middle">4</text>
<text x="178" y="101.2" fill="#9aa" font-size="2.4" text-anchor="middle">3</text>
<text x="186" y="101.2" fill="#9aa" font-size="2.4" text-anchor="middle">2</text>
<text x="194" y="101.2" fill="#9aa" font-size="2.4" text-anchor="middle">1</text>
<text x="202" y="101.2" fill="#9aa" font-size="2.4" text-anchor="middle">0</text>
<text x="211" y="90.3" fill="#eee" font-size="3.7" font-weight="bold">PCSEL</text>
<circle cx="214" cy="95" r="2.5" fill="#4aa8ff" stroke="#111" stroke-width="0.5"/>
<circle cx="214" cy="95" r="3" fill="none" stroke="#555" stroke-width="0.35"/>
<text x="214" y="101.2" fill="#ccc" font-size="2.7" text-anchor="middle">SEQ</text>
<circle cx="224" cy="95" r="2.5" fill="#4aa8ff" stroke="#111" stroke-width="0.5"/>
<circle cx="224" cy="95" r="3" fill="none" stroke="#555" stroke-width="0.35"/>
<text x="224" y="101.2" fill="#ccc" font-size="2.7" text-anchor="middle">JMP</text>
<circle cx="234" cy="95" r="2.5" fill="#4aa8ff" stroke="#111" stroke-width="0.5"/>
<circle cx="234" cy="95" r="3" fill="none" stroke="#555" stroke-width="0.35"/>
<text x="234" y="101.2" fill="#ccc" font-size="2.7" text-anchor="middle">RET</text>
<circle cx="244" cy="95" r="2.5" fill="#4aa8ff" stroke="#111" stroke-width="0.5"/>
<circle cx="244" cy="95" r="3" fill="none" stroke="#555" stroke-width="0.35"/>
<text x="244" y="101.2" fill="#ccc" font-size="2.7" text-anchor="middle">VEC</text>
<text x="255" y="90.3" fill="#eee" font-size="3.7" font-weight="bold">FLAGS</text>
<circle cx="258" cy="95" r="2.5" fill="#ff851b" stroke="#111" stroke-width="0.5"/>
<circle cx="258" cy="95" r="3" fill="none" stroke="#555" stroke-width="0.35"/>
<text x="258" y="101.2" fill="#ccc" font-size="2.7" text-anchor="middle">N</text>
<circle cx="266" cy="95" r="2.5" fill="#ff851b" stroke="#111" stroke-width="0.5"/>
<circle cx="266" cy="95" r="3" fill="none" stroke="#555" stroke-width="0.35"/>
<text x="266" y="101.2" fill="#ccc" font-size="2.7" text-anchor="middle">Z</text>
<circle cx="274" cy="95" r="2.5" fill="#ff851b" stroke="#111" stroke-width="0.5"/>
<circle cx="274" cy="95" r="3" fill="none" stroke="#555" stroke-width="0.35"/>
<text x="274" y="101.2" fill="#ccc" font-size="2.7" text-anchor="middle">C</text>
<circle cx="282" cy="95" r="2.5" fill="#ff851b" stroke="#111" stroke-width="0.5"/>
<circle cx="282" cy="95" r="3" fill="none" stroke="#555" stroke-width="0.35"/>
<text x="282" y="101.2" fill="#ccc" font-size="2.7" text-anchor="middle">I</text>
<line x1="9" y1="107" x2="288" y2="107" stroke="#555" stroke-width="0.45"/>
<rect x="11" y="113" width="120" height="48" rx="1.4" fill="none" stroke="#556" stroke-width="0.4"/>
<text x="13.5" y="118" fill="#9ab" font-size="3.3" font-weight="bold">CLOCK</text>
<circle cx="21" cy="125" r="2.5" fill="#ff4136" stroke="#111" stroke-width="0.5"/>
<circle cx="21" cy="125" r="3" fill="none" stroke="#555" stroke-width="0.35"/>
<text x="21" y="131.5" fill="#ccc" font-size="2.7" text-anchor="middle">POWER</text>
<circle cx="40" cy="125" r="2.5" fill="#ff851b" stroke="#111" stroke-width="0.5"/>
<circle cx="40" cy="125" r="3" fill="none" stroke="#555" stroke-width="0.35"/>
<text x="40" y="131.5" fill="#ccc" font-size="2.7" text-anchor="middle">OSC</text>
<circle cx="59" cy="125" r="2.5" fill="#37d24a" stroke="#111" stroke-width="0.5"/>
<circle cx="59" cy="125" r="3" fill="none" stroke="#555" stroke-width="0.35"/>
<text x="59" y="131.5" fill="#ccc" font-size="2.7" text-anchor="middle">RUN</text>
<circle cx="78" cy="125" r="2.5" fill="#37d24a" stroke="#111" stroke-width="0.5"/>
<circle cx="78" cy="125" r="3" fill="none" stroke="#555" stroke-width="0.35"/>
<text x="78" y="131.5" fill="#ccc" font-size="2.7" text-anchor="middle">RUN MODE</text>
<circle cx="97" cy="125" r="2.5" fill="#37d24a" stroke="#111" stroke-width="0.5"/>
<circle cx="97" cy="125" r="3" fill="none" stroke="#555" stroke-width="0.35"/>
<text x="97" y="131.5" fill="#ccc" font-size="2.7" text-anchor="middle">STEP MODE</text>
<circle cx="116" cy="125" r="2.5" fill="#ff4136" stroke="#111" stroke-width="0.5"/>
<circle cx="116" cy="125" r="3" fill="none" stroke="#555" stroke-width="0.35"/>
<text x="116" y="131.5" fill="#ccc" font-size="2.7" text-anchor="middle">RESET</text>
<circle cx="21" cy="147" r="2.5" fill="#14171a" stroke="#888" stroke-width="0.5"/>
<line x1="21" y1="147" x2="21" y2="142.5" stroke="#c0c6cc" stroke-width="1.3" stroke-linecap="round"/>
<text x="21" y="155" fill="#ccc" font-size="2.7" text-anchor="middle">POWER</text>
<circle cx="43" cy="147" r="3" fill="none" stroke="#888" stroke-width="0.5"/>
<circle cx="43" cy="147" r="2.4" fill="#c0392b" stroke="#111" stroke-width="0.4"/>
<text x="43" y="155" fill="#ccc" font-size="2.7" text-anchor="middle">STEP</text>
<circle cx="65" cy="147" r="3" fill="none" stroke="#888" stroke-width="0.5"/>
<circle cx="65" cy="147" r="2.4" fill="#c0392b" stroke="#111" stroke-width="0.4"/>
<text x="65" y="155" fill="#ccc" font-size="2.7" text-anchor="middle">STEP MODE</text>
<circle cx="87" cy="147" r="3" fill="none" stroke="#888" stroke-width="0.5"/>
<circle cx="87" cy="147" r="2.4" fill="#c0392b" stroke="#111" stroke-width="0.4"/>
<text x="87" y="155" fill="#ccc" font-size="2.7" text-anchor="middle">RUN MODE</text>
<circle cx="109" cy="147" r="3" fill="none" stroke="#888" stroke-width="0.5"/>
<circle cx="109" cy="147" r="2.4" fill="#c0392b" stroke="#111" stroke-width="0.4"/>
<text x="109" y="155" fill="#ccc" font-size="2.7" text-anchor="middle">RESET</text>
<rect x="136" y="113" width="44" height="48" rx="1.4" fill="none" stroke="#556" stroke-width="0.4"/>
<text x="138.5" y="118" fill="#9ab" font-size="3.3" font-weight="bold">INTERRUPTS</text>
<circle cx="150" cy="125" r="2.5" fill="#ff4136" stroke="#111" stroke-width="0.5"/>
<circle cx="150" cy="125" r="3" fill="none" stroke="#555" stroke-width="0.35"/>
<text x="150" y="131.5" fill="#ccc" font-size="2.7" text-anchor="middle">IRQ PEND</text>
<circle cx="168" cy="125" r="2.5" fill="#ff4136" stroke="#111" stroke-width="0.5"/>
<circle cx="168" cy="125" r="3" fill="none" stroke="#555" stroke-width="0.35"/>
<text x="168" y="131.5" fill="#ccc" font-size="2.7" text-anchor="middle">NMI PEND</text>
<circle cx="150" cy="147" r="3" fill="none" stroke="#888" stroke-width="0.5"/>
<circle cx="150" cy="147" r="2.4" fill="#c0392b" stroke="#111" stroke-width="0.4"/>
<text x="150" y="155" fill="#ccc" font-size="2.7" text-anchor="middle">IRQ</text>
<circle cx="168" cy="147" r="3" fill="none" stroke="#888" stroke-width="0.5"/>
<circle cx="168" cy="147" r="2.4" fill="#c0392b" stroke="#111" stroke-width="0.4"/>
<text x="168" y="155" fill="#ccc" font-size="2.7" text-anchor="middle">NMI</text>
<rect x="185" y="113" width="101" height="48" rx="1.4" fill="none" stroke="#556" stroke-width="0.4"/>
<text x="187.5" y="118" fill="#9ab" font-size="3.3" font-weight="bold">INPUT PORT</text>
<text x="194" y="129" fill="#9aa" font-size="2.4" text-anchor="middle">7</text>
<circle cx="194" cy="140" r="2.5" fill="#14171a" stroke="#888" stroke-width="0.5"/>
<line x1="194" y1="140" x2="194" y2="135.5" stroke="#c0c6cc" stroke-width="1.3" stroke-linecap="round"/>
<text x="194" y="149" fill="#ccc" font-size="2.7" text-anchor="middle">IN7</text>
<text x="205.8" y="129" fill="#9aa" font-size="2.4" text-anchor="middle">6</text>
<circle cx="205.8" cy="140" r="2.5" fill="#14171a" stroke="#888" stroke-width="0.5"/>
<line x1="205.8" y1="140" x2="205.8" y2="135.5" stroke="#c0c6cc" stroke-width="1.3" stroke-linecap="round"/>
<text x="205.8" y="149" fill="#ccc" font-size="2.7" text-anchor="middle">IN6</text>
<text x="217.6" y="129" fill="#9aa" font-size="2.4" text-anchor="middle">5</text>
<circle cx="217.6" cy="140" r="2.5" fill="#14171a" stroke="#888" stroke-width="0.5"/>
<line x1="217.6" y1="140" x2="217.6" y2="135.5" stroke="#c0c6cc" stroke-width="1.3" stroke-linecap="round"/>
<text x="217.6" y="149" fill="#ccc" font-size="2.7" text-anchor="middle">IN5</text>
<text x="229.4" y="129" fill="#9aa" font-size="2.4" text-anchor="middle">4</text>
<circle cx="229.4" cy="140" r="2.5" fill="#14171a" stroke="#888" stroke-width="0.5"/>
<line x1="229.4" y1="140" x2="229.4" y2="135.5" stroke="#c0c6cc" stroke-width="1.3" stroke-linecap="round"/>
<text x="229.4" y="149" fill="#ccc" font-size="2.7" text-anchor="middle">IN4</text>
<text x="241.2" y="129" fill="#9aa" font-size="2.4" text-anchor="middle">3</text>
<circle cx="241.2" cy="140" r="2.5" fill="#14171a" stroke="#888" stroke-width="0.5"/>
<line x1="241.2" y1="140" x2="241.2" y2="135.5" stroke="#c0c6cc" stroke-width="1.3" stroke-linecap="round"/>
<text x="241.2" y="149" fill="#ccc" font-size="2.7" text-anchor="middle">IN3</text>
<text x="253" y="129" fill="#9aa" font-size="2.4" text-anchor="middle">2</text>
<circle cx="253" cy="140" r="2.5" fill="#14171a" stroke="#888" stroke-width="0.5"/>
<line x1="253" y1="140" x2="253" y2="135.5" stroke="#c0c6cc" stroke-width="1.3" stroke-linecap="round"/>
<text x="253" y="149" fill="#ccc" font-size="2.7" text-anchor="middle">IN2</text>
<text x="264.8" y="129" fill="#9aa" font-size="2.4" text-anchor="middle">1</text>
<circle cx="264.8" cy="140" r="2.5" fill="#14171a" stroke="#888" stroke-width="0.5"/>
<line x1="264.8" y1="140" x2="264.8" y2="135.5" stroke="#c0c6cc" stroke-width="1.3" stroke-linecap="round"/>
<text x="264.8" y="149" fill="#ccc" font-size="2.7" text-anchor="middle">IN1</text>
<text x="276.6" y="129" fill="#9aa" font-size="2.4" text-anchor="middle">0</text>
<circle cx="276.6" cy="140" r="2.5" fill="#14171a" stroke="#888" stroke-width="0.5"/>
<line x1="276.6" y1="140" x2="276.6" y2="135.5" stroke="#c0c6cc" stroke-width="1.3" stroke-linecap="round"/>
<text x="276.6" y="149" fill="#ccc" font-size="2.7" text-anchor="middle">IN0</text>
<rect x="11" y="167" width="275" height="36" rx="1.4" fill="none" stroke="#556" stroke-width="0.4"/>
<text x="13.5" y="172" fill="#9ab" font-size="3.3" font-weight="bold">BREAKPOINT</text>
<circle cx="21" cy="186" r="2.5" fill="#14171a" stroke="#888" stroke-width="0.5"/>
<line x1="21" y1="186" x2="21" y2="181.5" stroke="#c0c6cc" stroke-width="1.3" stroke-linecap="round"/>
<text x="21" y="195" fill="#ccc" font-size="2.7" text-anchor="middle">BP EN</text>
<line x1="30" y1="173" x2="30" y2="199" stroke="#556" stroke-width="0.35"/>
<circle cx="40" cy="186" r="2.5" fill="#14171a" stroke="#888" stroke-width="0.5"/>
<line x1="40" y1="186" x2="40" y2="181.5" stroke="#c0c6cc" stroke-width="1.3" stroke-linecap="round"/>
<text x="40" y="195" fill="#ccc" font-size="2.7" text-anchor="middle">BPC</text>
<circle cx="60" cy="186" r="2.5" fill="#14171a" stroke="#888" stroke-width="0.5"/>
<line x1="60" y1="186" x2="60" y2="181.5" stroke="#c0c6cc" stroke-width="1.3" stroke-linecap="round"/>
<text x="60" y="195" fill="#ccc" font-size="2.7" text-anchor="middle">BPB</text>
<circle cx="80" cy="186" r="2.5" fill="#14171a" stroke="#888" stroke-width="0.5"/>
<line x1="80" y1="186" x2="80" y2="181.5" stroke="#c0c6cc" stroke-width="1.3" stroke-linecap="round"/>
<text x="80" y="195" fill="#ccc" font-size="2.7" text-anchor="middle">BPA</text>
<circle cx="100" cy="186" r="2.5" fill="#14171a" stroke="#888" stroke-width="0.5"/>
<line x1="100" y1="186" x2="100" y2="181.5" stroke="#c0c6cc" stroke-width="1.3" stroke-linecap="round"/>
<text x="100" y="195" fill="#ccc" font-size="2.7" text-anchor="middle">BP9</text>
<circle cx="120" cy="186" r="2.5" fill="#14171a" stroke="#888" stroke-width="0.5"/>
<line x1="120" y1="186" x2="120" y2="181.5" stroke="#c0c6cc" stroke-width="1.3" stroke-linecap="round"/>
<text x="120" y="195" fill="#ccc" font-size="2.7" text-anchor="middle">BP8</text>
<circle cx="140" cy="186" r="2.5" fill="#14171a" stroke="#888" stroke-width="0.5"/>
<line x1="140" y1="186" x2="140" y2="181.5" stroke="#c0c6cc" stroke-width="1.3" stroke-linecap="round"/>
<text x="140" y="195" fill="#ccc" font-size="2.7" text-anchor="middle">BP7</text>
<circle cx="160" cy="186" r="2.5" fill="#14171a" stroke="#888" stroke-width="0.5"/>
<line x1="160" y1="186" x2="160" y2="181.5" stroke="#c0c6cc" stroke-width="1.3" stroke-linecap="round"/>
<text x="160" y="195" fill="#ccc" font-size="2.7" text-anchor="middle">BP6</text>
<circle cx="180" cy="186" r="2.5" fill="#14171a" stroke="#888" stroke-width="0.5"/>
<line x1="180" y1="186" x2="180" y2="181.5" stroke="#c0c6cc" stroke-width="1.3" stroke-linecap="round"/>
<text x="180" y="195" fill="#ccc" font-size="2.7" text-anchor="middle">BP5</text>
<circle cx="200" cy="186" r="2.5" fill="#14171a" stroke="#888" stroke-width="0.5"/>
<line x1="200" y1="186" x2="200" y2="181.5" stroke="#c0c6cc" stroke-width="1.3" stroke-linecap="round"/>
<text x="200" y="195" fill="#ccc" font-size="2.7" text-anchor="middle">BP4</text>
<circle cx="220" cy="186" r="2.5" fill="#14171a" stroke="#888" stroke-width="0.5"/>
<line x1="220" y1="186" x2="220" y2="181.5" stroke="#c0c6cc" stroke-width="1.3" stroke-linecap="round"/>
<text x="220" y="195" fill="#ccc" font-size="2.7" text-anchor="middle">BP3</text>
<circle cx="240" cy="186" r="2.5" fill="#14171a" stroke="#888" stroke-width="0.5"/>
<line x1="240" y1="186" x2="240" y2="181.5" stroke="#c0c6cc" stroke-width="1.3" stroke-linecap="round"/>
<text x="240" y="195" fill="#ccc" font-size="2.7" text-anchor="middle">BP2</text>
<circle cx="260" cy="186" r="2.5" fill="#14171a" stroke="#888" stroke-width="0.5"/>
<line x1="260" y1="186" x2="260" y2="181.5" stroke="#c0c6cc" stroke-width="1.3" stroke-linecap="round"/>
<text x="260" y="195" fill="#ccc" font-size="2.7" text-anchor="middle">BP1</text>
<circle cx="280" cy="186" r="2.5" fill="#14171a" stroke="#888" stroke-width="0.5"/>
<line x1="280" y1="186" x2="280" y2="181.5" stroke="#c0c6cc" stroke-width="1.3" stroke-linecap="round"/>
<text x="280" y="195" fill="#ccc" font-size="2.7" text-anchor="middle">BP0</text>
</svg>