<svg viewBox="0 0 1400 950" xmlns="http://www.w3.org/2000/svg" font-family="'Anthropic Sans', -apple-system, BlinkMacSystemFont, 'Segoe UI', sans-serif">
  <defs>
    <marker id="arr" viewBox="0 0 10 10" refX="8" refY="5" markerWidth="6" markerHeight="6" orient="auto-start-reverse">
      <path d="M2 1L8 5L2 9" fill="none" stroke="context-stroke" stroke-width="1.5" stroke-linecap="round" stroke-linejoin="round"/>
    </marker>
    <style>
      .title { font-size:21px; font-weight:700; fill:#1e293b; }
      .subtitle { font-size:12px; fill:#64748b; }
      .chip { fill:#eef2f7; stroke:#334155; stroke-width:1.5; }
      .chip-hi { fill:#e1f5ee; stroke:#0f6e56; stroke-width:2; }
      .chip-mux { fill:#eae8fb; stroke:#3c3489; stroke-width:1.8; }
      .chip-mem { fill:#fdf3e7; stroke:#a8631b; stroke-width:2; }
      .blk { fill:#f8fafc; stroke:#94a3b8; stroke-width:1.3; stroke-dasharray:5 3; }
      .gate { fill:#eef2f7; stroke:#334155; stroke-width:1.5; }
      .cname { font-size:14px; font-weight:700; fill:#0f172a; text-anchor:middle; }
      .csub { font-size:10px; fill:#64748b; text-anchor:middle; }
      .gname { font-size:10px; font-weight:700; fill:#0f172a; text-anchor:middle; }
      .pinlbl { font-size:10px; fill:#334155; }
      .pinR { font-size:10px; fill:#334155; text-anchor:end; }
      .net { stroke:#475569; stroke-width:1.5; fill:none; }
      .netbus { stroke:#475569; stroke-width:3.4; fill:none; }
      .clk { stroke:#ea8a23; stroke-width:1.8; fill:none; }
      .rst { stroke:#92500f; stroke-width:1.8; fill:none; }
      .ctl { stroke:#b45309; stroke-width:1.6; fill:none; }
      .vcc { stroke:#dc2626; stroke-width:1.6; fill:none; }
      .gnd { stroke:#2563eb; stroke-width:1.6; fill:none; }
      .netlbl { font-size:10px; fill:#334155; }
      .buslbl { font-size:10px; font-weight:700; fill:#334155; }
      .clklbl { font-size:10px; fill:#c2740f; font-weight:700; }
      .rstlbl { font-size:10px; fill:#92500f; font-weight:700; }
      .ctllbl { font-size:10px; fill:#b45309; font-weight:700; }
      .vcclbl { font-size:9.5px; fill:#dc2626; font-weight:700; }
      .gndlbl { font-size:9.5px; fill:#2563eb; font-weight:700; }
      .note { font-size:11px; fill:#475569; }
      .noteh { font-size:12px; fill:#1e293b; font-weight:700; }
      .tbl { font-size:10.5px; fill:#334155; }
      .tblh { font-size:10.5px; fill:#0f172a; font-weight:700; }
      .mono { font-family:'SF Mono',ui-monospace,Menlo,Consolas,monospace; }
    </style>
  </defs>

  <text x="34" y="40" class="title">Blinky W = 4 — EEPROM &#8594; fast-SRAM boot loader</text>
  <text x="34" y="62" class="subtitle">8-bit counter copies all 256 bytes &#183; 1 MHz oscillator &#183; self-debouncing SR latch &#183; WRPH-gated /WE &#183; wrap-to-finish &#183; single 8-bit EEPROM + single 8-bit SRAM &#183; CPU left paused (no /RESET drive)</text>

  <!-- legend -->
  <g transform="translate(34,80)">
    <line x1="0" y1="0" x2="22" y2="0" class="clk"/><text x="27" y="4" class="netlbl">clock (OSC)</text>
    <line x1="108" y1="0" x2="130" y2="0" class="rst"/><text x="135" y="4" class="netlbl">/OE (/loading)</text>
    <line x1="210" y1="0" x2="232" y2="0" class="ctl"/><text x="237" y="4" class="netlbl">mode &amp; control</text>
    <line x1="345" y1="0" x2="367" y2="0" class="netbus"/><text x="372" y="4" class="netlbl">addr / data bus</text>
    <line x1="478" y1="0" x2="500" y2="0" class="vcc"/><text x="505" y="4" class="netlbl">VCC</text>
    <line x1="548" y1="0" x2="570" y2="0" class="gnd"/><text x="575" y="4" class="netlbl">GND</text>
    <text x="640" y="4" class="netlbl" font-style="italic">distributed signals shown as net-name labels</text>
  </g>

  <!-- ============ LOAD BUTTON ============ -->
  <text x="44" y="150" class="vcclbl">+5</text>
  <line x1="70" y1="154" x2="70" y2="170" class="vcc"/>
  <rect x="58" y="170" width="24" height="10" rx="2" fill="#fef2f2" stroke="#dc2626" stroke-width="1.2"/>
  <text x="90" y="179" class="pinlbl">10k</text>
  <line x1="70" y1="180" x2="70" y2="200" class="vcc"/>
  <rect x="48" y="200" width="44" height="30" rx="4" class="gate"/>
  <text x="70" y="213" class="gname">Load</text>
  <text x="70" y="224" class="csub">SW1</text>
  <line x1="70" y1="230" x2="70" y2="252" class="gnd"/>
  <text x="56" y="248" class="gndlbl" text-anchor="end">GND</text>
  <circle cx="70" cy="195" r="2.6" fill="#b45309"/>
  <line x1="70" y1="195" x2="118" y2="195" class="ctl"/>
  <text x="122" y="199" class="ctllbl">&#8594; /SET</text>

  <!-- ============ U1 '00 ENCLOSURE ============ -->
  <rect x="40" y="300" width="300" height="430" rx="8" class="blk"/>
  <text x="56" y="322" class="noteh">U1 &#8212; 74'00 quad NAND</text>

  <!-- U1.1 -->
  <path d="M150 350 L172 350 A19 19 0 0 1 172 388 L150 388 Z" class="gate"/>
  <circle cx="195" cy="369" r="4" class="gate"/>
  <line x1="130" y1="358" x2="150" y2="358" class="ctl"/>
  <line x1="130" y1="380" x2="150" y2="380" class="net"/>
  <text x="126" y="362" class="ctllbl" text-anchor="end">/SET</text>
  <text x="161" y="406" class="csub">U1.1</text>
  <!-- U1.2 -->
  <path d="M150 430 L172 430 A19 19 0 0 1 172 468 L150 468 Z" class="gate"/>
  <circle cx="195" cy="449" r="4" class="gate"/>
  <line x1="130" y1="440" x2="150" y2="440" class="ctl"/>
  <line x1="130" y1="460" x2="150" y2="460" class="net"/>
  <text x="126" y="444" class="ctllbl" text-anchor="end">/RST</text>
  <text x="161" y="486" class="csub">U1.2</text>
  <text x="86" y="430" class="netlbl" text-anchor="middle" font-style="italic">SR latch</text>
  <!-- cross couple -->
  <line x1="199" y1="369" x2="216" y2="369" class="ctl"/>
  <line x1="216" y1="369" x2="216" y2="498" class="net"/>
  <line x1="216" y1="498" x2="120" y2="498" class="net"/>
  <line x1="120" y1="498" x2="120" y2="460" class="net"/>
  <line x1="120" y1="460" x2="130" y2="460" class="net"/>
  <line x1="199" y1="449" x2="232" y2="449" class="net"/>
  <line x1="232" y1="449" x2="232" y2="336" class="net"/>
  <line x1="232" y1="336" x2="114" y2="336" class="net"/>
  <line x1="114" y1="336" x2="114" y2="380" class="net"/>
  <line x1="114" y1="380" x2="130" y2="380" class="net"/>
  <!-- load_req out -->
  <line x1="199" y1="369" x2="262" y2="369" class="ctl"/>
  <text x="206" y="363" class="ctllbl">load_req</text>

  <!-- U1.3 /OSC inverter -->
  <path d="M150 560 L172 560 A19 19 0 0 1 172 598 L150 598 Z" class="gate"/>
  <circle cx="195" cy="579" r="4" class="gate"/>
  <line x1="118" y1="579" x2="150" y2="579" class="clk"/>
  <line x1="199" y1="579" x2="250" y2="579" class="clk"/>
  <text x="114" y="573" class="clklbl" text-anchor="end">OSC</text>
  <text x="206" y="573" class="clklbl">/OSC</text>
  <text x="161" y="616" class="csub">U1.3  (inv)</text>

  <!-- U1.4 /WE gate -->
  <path d="M150 650 L172 650 A19 19 0 0 1 172 688 L150 688 Z" class="gate"/>
  <circle cx="195" cy="669" r="4" class="gate"/>
  <line x1="118" y1="660" x2="150" y2="660" class="ctl"/>
  <line x1="118" y1="680" x2="150" y2="680" class="clk"/>
  <line x1="199" y1="669" x2="262" y2="669" class="ctl"/>
  <text x="114" y="664" class="ctllbl" text-anchor="end">loading</text>
  <text x="114" y="684" class="clklbl" text-anchor="end">/OSC</text>
  <text x="206" y="663" class="ctllbl">/WE</text>
  <text x="161" y="706" class="csub">U1.4</text>

  <text x="320" y="338" class="vcclbl" text-anchor="end">VCC 14</text>
  <text x="320" y="722" class="gndlbl" text-anchor="end">GND 7</text>

  <!-- ============ OSC ============ -->
  <rect x="40" y="780" width="150" height="74" rx="6" class="chip"/>
  <text x="115" y="810" class="cname">OSC</text>
  <text x="115" y="826" class="csub">1 MHz can osc</text>
  <line x1="190" y1="817" x2="238" y2="817" class="clk"/>
  <text x="242" y="821" class="clklbl">OSC &#8594;</text>
  <text x="115" y="872" class="csub">VCC 14 &#183; GND 7</text>

  <!-- ============ U2a sync FF ============ -->
  <rect x="400" y="330" width="116" height="92" rx="6" class="chip"/>
  <text x="458" y="358" class="cname">U2a</text>
  <text x="458" y="373" class="csub">74'74 &#189;</text>
  <text x="458" y="402" class="csub">sync FF</text>
  <line x1="384" y1="350" x2="400" y2="350" class="ctl"/><text x="382" y="354" class="pinR">D</text>
  <line x1="384" y1="404" x2="400" y2="404" class="clk"/><text x="382" y="408" class="pinR">CLK</text>
  <path d="M400 398 l10 6 l-10 6 z" fill="#334155"/>
  <line x1="516" y1="350" x2="560" y2="350" class="ctl"/><text x="520" y="346" class="pinlbl">Q</text>
  <text x="540" y="346" class="ctllbl">loading</text>
  <line x1="516" y1="404" x2="556" y2="404" class="rst"/><text x="520" y="400" class="pinlbl">/Q</text>
  <text x="536" y="418" class="rstlbl">/loading</text>
  <!-- load_req route into U2a D -->
  <line x1="262" y1="369" x2="300" y2="369" class="ctl"/>
  <line x1="300" y1="369" x2="300" y2="350" class="ctl"/>
  <line x1="300" y1="350" x2="384" y2="350" class="ctl"/>
  <text x="384" y="404" class="clklbl" text-anchor="end" dx="-4"> </text>
  <text x="346" y="398" class="clklbl">OSC</text>
  <text x="510" y="324" class="vcclbl" text-anchor="end">VCC14</text>
  <text x="510" y="420" class="gndlbl" text-anchor="end"> </text>

  <!-- ============ U2b wrap FF ============ -->
  <rect x="400" y="610" width="116" height="92" rx="6" class="chip"/>
  <text x="458" y="638" class="cname">U2b</text>
  <text x="458" y="653" class="csub">74'74 &#189;</text>
  <text x="458" y="682" class="csub">wrap FF</text>
  <line x1="384" y1="630" x2="400" y2="630" class="net"/><text x="382" y="634" class="pinR">D</text>
  <text x="380" y="624" class="netlbl" text-anchor="end">RCO255</text>
  <line x1="384" y1="684" x2="400" y2="684" class="clk"/><text x="382" y="688" class="pinR">CLK</text>
  <path d="M400 678 l10 6 l-10 6 z" fill="#334155"/>
  <text x="346" y="678" class="clklbl">OSC</text>
  <line x1="516" y1="684" x2="560" y2="684" class="ctl"/><text x="520" y="680" class="pinlbl">/Q</text>
  <text x="520" y="700" class="ctllbl">&#8594; /RST</text>
  <text x="510" y="604" class="vcclbl" text-anchor="end">VCC14 &#183; GND7</text>

  <!-- ============ COUNTER U3/U4 ============ -->
  <text x="695" y="194" class="csub">8-bit counter &#183; VCC16 &#183; GND8 &#183; /LOAD,ENP&#8594;VCC</text>
  <rect x="620" y="200" width="150" height="150" rx="6" class="chip"/>
  <text x="695" y="230" class="cname">U3</text>
  <text x="695" y="245" class="csub">74'163  A0&#8211;A3</text>
  <line x1="604" y1="262" x2="620" y2="262" class="clk"/><text x="624" y="266" class="pinlbl">CLK</text>
  <path d="M620 256 l10 6 l-10 6 z" fill="#334155"/>
  <text x="600" y="266" class="clklbl" text-anchor="end">OSC</text>
  <line x1="604" y1="290" x2="620" y2="290" class="ctl"/><text x="624" y="294" class="pinlbl">/SR</text>
  <text x="600" y="294" class="ctllbl" text-anchor="end">loading</text>
  <text x="766" y="266" class="pinR">Q[3:0]</text>
  <line x1="770" y1="262" x2="900" y2="262" class="netbus"/>
  <text x="766" y="330" class="pinR">RCO</text>
  <text x="700" y="330" class="netlbl">&#8594; ENT(U4)</text>

  <rect x="620" y="400" width="150" height="150" rx="6" class="chip"/>
  <text x="695" y="430" class="cname">U4</text>
  <text x="695" y="445" class="csub">74'163  A4&#8211;A7</text>
  <line x1="604" y1="462" x2="620" y2="462" class="clk"/><text x="624" y="466" class="pinlbl">CLK</text>
  <path d="M620 456 l10 6 l-10 6 z" fill="#334155"/>
  <text x="600" y="466" class="clklbl" text-anchor="end">OSC</text>
  <line x1="604" y1="490" x2="620" y2="490" class="ctl"/><text x="624" y="494" class="pinlbl">/SR</text>
  <text x="600" y="494" class="ctllbl" text-anchor="end">loading</text>
  <line x1="604" y1="518" x2="620" y2="518" class="net"/><text x="624" y="522" class="pinlbl">ENT</text>
  <text x="600" y="522" class="netlbl" text-anchor="end">RCO(U3)</text>
  <text x="766" y="466" class="pinR">Q[3:0]</text>
  <line x1="770" y1="462" x2="900" y2="462" class="netbus"/>
  <text x="766" y="530" class="pinR">RCO</text>
  <line x1="770" y1="526" x2="800" y2="526" class="net"/>
  <text x="700" y="546" class="netlbl">RCO255 (count=255)</text>

  <!-- counter -> EEPROM addr : net label -->
  <text x="828" y="290" class="buslbl">cnt[7:0]</text>
  <text x="800" y="304" class="netlbl">&#8594; EEPROM A (load addr)</text>

  <!-- ============ MUX U5/U6 ============ -->
  <text x="975" y="194" class="csub">addr mux &#183; VCC16 &#183; GND8</text>
  <rect x="900" y="200" width="150" height="150" rx="6" class="chip-mux"/>
  <text x="975" y="230" class="cname">U5</text>
  <text x="975" y="245" class="csub">74'157  A0&#8211;A3</text>
  <text x="896" y="266" class="pinR">B</text>
  <line x1="855" y1="296" x2="900" y2="296" class="netbus"/>
  <text x="896" y="300" class="pinR">A</text>
  <text x="851" y="300" class="pinR buslbl">PC</text>
  <line x1="884" y1="332" x2="900" y2="332" class="ctl"/><text x="880" y="336" class="pinR">S</text>
  <text x="855" y="336" class="ctllbl" text-anchor="end">loading</text>
  <text x="1054" y="266" class="pinlbl">Y</text>
  <line x1="1050" y1="262" x2="1095" y2="262" class="netbus"/>

  <rect x="900" y="400" width="150" height="150" rx="6" class="chip-mux"/>
  <text x="975" y="430" class="cname">U6</text>
  <text x="975" y="445" class="csub">74'157  A4&#8211;A7</text>
  <text x="896" y="466" class="pinR">B</text>
  <line x1="855" y1="496" x2="900" y2="496" class="netbus"/>
  <text x="896" y="500" class="pinR">A</text>
  <text x="851" y="500" class="pinR buslbl">PC</text>
  <line x1="884" y1="532" x2="900" y2="532" class="ctl"/><text x="880" y="536" class="pinR">S</text>
  <text x="855" y="536" class="ctllbl" text-anchor="end">loading</text>
  <text x="1054" y="466" class="pinlbl">Y</text>
  <line x1="1050" y1="462" x2="1095" y2="462" class="netbus"/>

  <!-- PC stub -->
  <line x1="855" y1="296" x2="855" y2="640" class="netbus"/>
  <circle cx="855" cy="496" r="3" fill="#475569"/>
  <text x="846" y="656" class="buslbl" text-anchor="middle">PC[7:0]</text>
  <text x="846" y="670" class="netlbl" text-anchor="middle">from CPU (RUN)</text>
  <text x="828" y="346" class="netlbl">S=1 load&#8594;cnt, S=0 run&#8594;PC</text>

  <!-- mux Y -> SRAM addr channel -->
  <line x1="1095" y1="262" x2="1095" y2="575" class="netbus"/>
  <line x1="1095" y1="462" x2="1095" y2="462" class="netbus"/>
  <circle cx="1095" cy="462" r="3" fill="#475569"/>
  <line x1="1095" y1="575" x2="1130" y2="575" class="netbus"/>
  <text x="1100" y="556" class="netlbl">Y&#8594;A</text>

  <!-- ============ EEPROM ============ -->
  <rect x="1130" y="150" width="200" height="210" rx="8" class="chip-mem"/>
  <text x="1230" y="184" class="cname">EEPROM</text>
  <text x="1230" y="200" class="csub">28C16 &#183; 8-bit &#183; read-only</text>
  <line x1="1108" y1="262" x2="1130" y2="262" class="netbus"/>
  <text x="1134" y="248" class="pinlbl">A[7:0]</text>
  <text x="1104" y="256" class="buslbl" text-anchor="end">cnt[7:0]</text>
  <line x1="1230" y1="360" x2="1230" y2="470" class="netbus"/>
  <text x="1238" y="392" class="pinlbl">D[7:0]</text>
  <line x1="1330" y1="232" x2="1372" y2="232" class="rst"/>
  <text x="1334" y="226" class="pinlbl">/OE = /loading</text>
  <line x1="1330" y1="270" x2="1366" y2="270" class="gnd"/>
  <text x="1334" y="284" class="gndlbl">/CE &#8594; GND</text>
  <line x1="1330" y1="308" x2="1366" y2="308" class="vcc"/>
  <text x="1334" y="322" class="vcclbl">/WE &#8594; VCC</text>
  <text x="1134" y="344" class="note">A8&#8211;A10 &#8594; GND</text>
  <text x="1230" y="146" class="vcclbl" text-anchor="middle">VCC24 &#183; GND12</text>

  <!-- ============ SRAM ============ -->
  <rect x="1130" y="470" width="200" height="210" rx="8" class="chip-hi"/>
  <text x="1230" y="504" class="cname">SRAM</text>
  <text x="1230" y="520" class="csub">CY7C199-35 &#183; fast I-mem</text>
  <line x1="1130" y1="575" x2="1130" y2="575" class="netbus"/>
  <text x="1134" y="561" class="pinlbl">A[7:0]</text>
  <circle cx="1230" cy="470" r="3" fill="#475569"/>
  <text x="1238" y="490" class="pinlbl">D[7:0]</text>
  <line x1="1300" y1="600" x2="1360" y2="600" class="netbus"/>
  <text x="1304" y="618" class="netlbl">&#8594; IR / D-bus</text>
  <line x1="1330" y1="544" x2="1372" y2="544" class="ctl"/>
  <text x="1334" y="538" class="pinlbl">/WE (pulsed)</text>
  <line x1="1330" y1="614" x2="1372" y2="614" class="ctl"/>
  <text x="1334" y="608" class="pinlbl">/OE = loading</text>
  <line x1="1330" y1="652" x2="1366" y2="652" class="gnd"/>
  <text x="1334" y="666" class="gndlbl">/CE &#8594; GND</text>
  <text x="1230" y="466" class="vcclbl" text-anchor="middle">VCC &#183; GND (see CY7C199)</text>

  <!-- ============ PANEL A: control nets ============ -->
  <g transform="translate(360,745)">
    <rect x="0" y="0" width="320" height="188" rx="8" fill="#f8fafc" stroke="#cbd5e1" stroke-width="1.2"/>
    <text x="16" y="24" class="noteh">Control nets</text>
    <text x="16" y="48" class="note mono">loading   = U2a.Q   (load_req re-clocked)</text>
    <text x="16" y="66" class="note mono">/loading  = U2a./Q</text>
    <text x="16" y="86" class="note mono">/WE       = loading &#183; /OSC   (U1.4)</text>
    <text x="30" y="102" class="note">&#8594; write pulse confined to OSC low half</text>
    <text x="16" y="122" class="note mono">EEPROM /OE = /loading   SRAM /OE = loading</text>
    <text x="16" y="142" class="note mono">cnt /SR   = loading   (parks at 0 idle)</text>
    <text x="16" y="160" class="note mono">mux S     = loading</text>
    <text x="16" y="180" class="note">CPU not reset by loader &#8212; leave it paused in single-step.</text>
  </g>

  <!-- ============ PANEL B: sequence ============ -->
  <g transform="translate(700,745)">
    <rect x="0" y="0" width="360" height="188" rx="8" fill="#f8fafc" stroke="#cbd5e1" stroke-width="1.2"/>
    <text x="16" y="24" class="noteh">Sequence of operation</text>
    <text x="16" y="48" class="note">1.  Press Load &#8594; SR latch sets; contact bounce ignored.</text>
    <text x="16" y="68" class="note">2.  U2a re-clocks it on OSC &#8594; loading aligned to phase.</text>
    <text x="16" y="88" class="note">3.  loading=1: /SR frees counter from 0; EEPROM drives bus,</text>
    <text x="30" y="104" class="note">SRAM /OE off, /WE pulses each cycle's settled half.</text>
    <text x="16" y="124" class="note">4.  Each OSC tick: EEPROM[N] &#8594; SRAM[N], then N++.</text>
    <text x="16" y="144" class="note">5.  N=255 &#8594; U4 RCO &#8594; U2b. Next tick wraps N&#8594;0 and U2b</text>
    <text x="30" y="160" class="note">clears the latch after byte 255's write closes.</text>
    <text x="16" y="180" class="note">6.  loading=0: mux&#8594;PC, EEPROM Hi-Z, /WE off; CPU resumes.</text>
  </g>

  <!-- ============ PANEL C: truth table ============ -->
  <g transform="translate(1080,745)">
    <rect x="0" y="0" width="290" height="188" rx="8" fill="#f8fafc" stroke="#cbd5e1" stroke-width="1.2"/>
    <text x="16" y="24" class="noteh">Mode truth table</text>
    <line x1="16" y1="34" x2="274" y2="34" stroke="#cbd5e1"/>
    <text x="16" y="54" class="tblh">signal</text>
    <text x="158" y="54" class="tblh">LOAD</text>
    <text x="228" y="54" class="tblh">RUN</text>
    <text x="16" y="78" class="tbl mono">mux S</text><text x="158" y="78" class="tbl">cnt (1)</text><text x="228" y="78" class="tbl">PC (0)</text>
    <text x="16" y="100" class="tbl mono">EEPROM /OE</text><text x="158" y="100" class="tbl">0 on</text><text x="228" y="100" class="tbl">1 Hi-Z</text>
    <text x="16" y="122" class="tbl mono">SRAM /OE</text><text x="158" y="122" class="tbl">1 Hi-Z</text><text x="228" y="122" class="tbl">0 on</text>
    <text x="16" y="144" class="tbl mono">SRAM /WE</text><text x="158" y="144" class="tbl">pulse</text><text x="228" y="144" class="tbl">1 off</text>
    <text x="16" y="168" class="tbl" font-style="italic" fill="#64748b">CPU paused (single-step): loader needs</text>
    <text x="16" y="182" class="tbl" font-style="italic" fill="#64748b">no /RESET &#8212; /OE split keeps bus safe.</text>
  </g>

</svg>
