<svg xmlns="http://www.w3.org/2000/svg" viewBox="0 0 936 560" font-family="Consolas, monospace">
<rect width="936" height="560" fill="white"/>
<text x="468.0" y="40" text-anchor="middle" font-size="24" font-weight="bold">Arduino Mega end connector (18 x 2) - Code &amp; IR test rig ribbons</text>
<text x="468.0" y="68" text-anchor="middle" font-size="15" fill="#555">Connector at the bottom edge. Top row = even digital pins (52..22), bottom (outer) row = odd (53..23). GND left, 5V right.</text>
<rect x="90" y="124" width="774" height="94" rx="8" fill="#222"/>
<rect x="112" y="136" width="28" height="28" rx="4" fill="#1a237e"/>
<text x="126" y="155" text-anchor="middle" font-size="12" fill="white" font-weight="bold">GND</text>
<rect x="112" y="178" width="28" height="28" rx="4" fill="#1a237e"/>
<text x="126" y="197" text-anchor="middle" font-size="12" fill="white" font-weight="bold">GND</text>
<rect x="154" y="136" width="28" height="28" rx="4" fill="#1565c0"/>
<text x="168" y="155" text-anchor="middle" font-size="12" fill="white" font-weight="bold">52</text>
<rect x="154" y="178" width="28" height="28" rx="4" fill="#42a5f5"/>
<text x="168" y="197" text-anchor="middle" font-size="12" fill="white" font-weight="bold">53</text>
<text x="168" y="110" text-anchor="middle" font-size="12" fill="#1565c0" font-weight="bold">IR7</text>
<text x="168" y="244" text-anchor="middle" font-size="12" fill="#42a5f5" font-weight="bold">IR15</text>
<rect x="196" y="136" width="28" height="28" rx="4" fill="#1565c0"/>
<text x="210" y="155" text-anchor="middle" font-size="12" fill="white" font-weight="bold">50</text>
<rect x="196" y="178" width="28" height="28" rx="4" fill="#42a5f5"/>
<text x="210" y="197" text-anchor="middle" font-size="12" fill="white" font-weight="bold">51</text>
<text x="210" y="110" text-anchor="middle" font-size="12" fill="#1565c0" font-weight="bold">IR6</text>
<text x="210" y="244" text-anchor="middle" font-size="12" fill="#42a5f5" font-weight="bold">IR14</text>
<rect x="238" y="136" width="28" height="28" rx="4" fill="#1565c0"/>
<text x="252" y="155" text-anchor="middle" font-size="12" fill="white" font-weight="bold">48</text>
<rect x="238" y="178" width="28" height="28" rx="4" fill="#42a5f5"/>
<text x="252" y="197" text-anchor="middle" font-size="12" fill="white" font-weight="bold">49</text>
<text x="252" y="110" text-anchor="middle" font-size="12" fill="#1565c0" font-weight="bold">IR5</text>
<text x="252" y="244" text-anchor="middle" font-size="12" fill="#42a5f5" font-weight="bold">IR13</text>
<rect x="280" y="136" width="28" height="28" rx="4" fill="#1565c0"/>
<text x="294" y="155" text-anchor="middle" font-size="12" fill="white" font-weight="bold">46</text>
<rect x="280" y="178" width="28" height="28" rx="4" fill="#42a5f5"/>
<text x="294" y="197" text-anchor="middle" font-size="12" fill="white" font-weight="bold">47</text>
<text x="294" y="110" text-anchor="middle" font-size="12" fill="#1565c0" font-weight="bold">IR4</text>
<text x="294" y="244" text-anchor="middle" font-size="12" fill="#42a5f5" font-weight="bold">IR12</text>
<rect x="322" y="136" width="28" height="28" rx="4" fill="#1565c0"/>
<text x="336" y="155" text-anchor="middle" font-size="12" fill="white" font-weight="bold">44</text>
<rect x="322" y="178" width="28" height="28" rx="4" fill="#42a5f5"/>
<text x="336" y="197" text-anchor="middle" font-size="12" fill="white" font-weight="bold">45</text>
<text x="336" y="110" text-anchor="middle" font-size="12" fill="#1565c0" font-weight="bold">IR3</text>
<text x="336" y="244" text-anchor="middle" font-size="12" fill="#42a5f5" font-weight="bold">IR11</text>
<rect x="364" y="136" width="28" height="28" rx="4" fill="#1565c0"/>
<text x="378" y="155" text-anchor="middle" font-size="12" fill="white" font-weight="bold">42</text>
<rect x="364" y="178" width="28" height="28" rx="4" fill="#42a5f5"/>
<text x="378" y="197" text-anchor="middle" font-size="12" fill="white" font-weight="bold">43</text>
<text x="378" y="110" text-anchor="middle" font-size="12" fill="#1565c0" font-weight="bold">IR2</text>
<text x="378" y="244" text-anchor="middle" font-size="12" fill="#42a5f5" font-weight="bold">IR10</text>
<rect x="406" y="136" width="28" height="28" rx="4" fill="#1565c0"/>
<text x="420" y="155" text-anchor="middle" font-size="12" fill="white" font-weight="bold">40</text>
<rect x="406" y="178" width="28" height="28" rx="4" fill="#42a5f5"/>
<text x="420" y="197" text-anchor="middle" font-size="12" fill="white" font-weight="bold">41</text>
<text x="420" y="110" text-anchor="middle" font-size="12" fill="#1565c0" font-weight="bold">IR1</text>
<text x="420" y="244" text-anchor="middle" font-size="12" fill="#42a5f5" font-weight="bold">IR9</text>
<rect x="448" y="136" width="28" height="28" rx="4" fill="#1565c0"/>
<text x="462" y="155" text-anchor="middle" font-size="12" fill="white" font-weight="bold">38</text>
<rect x="448" y="178" width="28" height="28" rx="4" fill="#42a5f5"/>
<text x="462" y="197" text-anchor="middle" font-size="12" fill="white" font-weight="bold">39</text>
<text x="462" y="110" text-anchor="middle" font-size="12" fill="#1565c0" font-weight="bold">IR0</text>
<text x="462" y="244" text-anchor="middle" font-size="12" fill="#42a5f5" font-weight="bold">IR8</text>
<rect x="490" y="136" width="28" height="28" rx="4" fill="#2e7d32"/>
<text x="504" y="155" text-anchor="middle" font-size="12" fill="white" font-weight="bold">36</text>
<rect x="490" y="178" width="28" height="28" rx="4" fill="#66bb6a"/>
<text x="504" y="197" text-anchor="middle" font-size="12" fill="white" font-weight="bold">37</text>
<text x="504" y="110" text-anchor="middle" font-size="12" fill="#2e7d32" font-weight="bold">A7</text>
<text x="504" y="244" text-anchor="middle" font-size="12" fill="#66bb6a" font-weight="bold">A15</text>
<rect x="532" y="136" width="28" height="28" rx="4" fill="#2e7d32"/>
<text x="546" y="155" text-anchor="middle" font-size="12" fill="white" font-weight="bold">34</text>
<rect x="532" y="178" width="28" height="28" rx="4" fill="#66bb6a"/>
<text x="546" y="197" text-anchor="middle" font-size="12" fill="white" font-weight="bold">35</text>
<text x="546" y="110" text-anchor="middle" font-size="12" fill="#2e7d32" font-weight="bold">A6</text>
<text x="546" y="244" text-anchor="middle" font-size="12" fill="#66bb6a" font-weight="bold">A14</text>
<rect x="574" y="136" width="28" height="28" rx="4" fill="#2e7d32"/>
<text x="588" y="155" text-anchor="middle" font-size="12" fill="white" font-weight="bold">32</text>
<rect x="574" y="178" width="28" height="28" rx="4" fill="#66bb6a"/>
<text x="588" y="197" text-anchor="middle" font-size="12" fill="white" font-weight="bold">33</text>
<text x="588" y="110" text-anchor="middle" font-size="12" fill="#2e7d32" font-weight="bold">A5</text>
<text x="588" y="244" text-anchor="middle" font-size="12" fill="#66bb6a" font-weight="bold">A13</text>
<rect x="616" y="136" width="28" height="28" rx="4" fill="#2e7d32"/>
<text x="630" y="155" text-anchor="middle" font-size="12" fill="white" font-weight="bold">30</text>
<rect x="616" y="178" width="28" height="28" rx="4" fill="#66bb6a"/>
<text x="630" y="197" text-anchor="middle" font-size="12" fill="white" font-weight="bold">31</text>
<text x="630" y="110" text-anchor="middle" font-size="12" fill="#2e7d32" font-weight="bold">A4</text>
<text x="630" y="244" text-anchor="middle" font-size="12" fill="#66bb6a" font-weight="bold">A12</text>
<rect x="658" y="136" width="28" height="28" rx="4" fill="#2e7d32"/>
<text x="672" y="155" text-anchor="middle" font-size="12" fill="white" font-weight="bold">28</text>
<rect x="658" y="178" width="28" height="28" rx="4" fill="#66bb6a"/>
<text x="672" y="197" text-anchor="middle" font-size="12" fill="white" font-weight="bold">29</text>
<text x="672" y="110" text-anchor="middle" font-size="12" fill="#2e7d32" font-weight="bold">A3</text>
<text x="672" y="244" text-anchor="middle" font-size="12" fill="#66bb6a" font-weight="bold">A11</text>
<rect x="700" y="136" width="28" height="28" rx="4" fill="#2e7d32"/>
<text x="714" y="155" text-anchor="middle" font-size="12" fill="white" font-weight="bold">26</text>
<rect x="700" y="178" width="28" height="28" rx="4" fill="#66bb6a"/>
<text x="714" y="197" text-anchor="middle" font-size="12" fill="white" font-weight="bold">27</text>
<text x="714" y="110" text-anchor="middle" font-size="12" fill="#2e7d32" font-weight="bold">A2</text>
<text x="714" y="244" text-anchor="middle" font-size="12" fill="#66bb6a" font-weight="bold">A10</text>
<rect x="742" y="136" width="28" height="28" rx="4" fill="#2e7d32"/>
<text x="756" y="155" text-anchor="middle" font-size="12" fill="white" font-weight="bold">24</text>
<rect x="742" y="178" width="28" height="28" rx="4" fill="#66bb6a"/>
<text x="756" y="197" text-anchor="middle" font-size="12" fill="white" font-weight="bold">25</text>
<text x="756" y="110" text-anchor="middle" font-size="12" fill="#2e7d32" font-weight="bold">A1</text>
<text x="756" y="244" text-anchor="middle" font-size="12" fill="#66bb6a" font-weight="bold">A9</text>
<rect x="784" y="136" width="28" height="28" rx="4" fill="#2e7d32"/>
<text x="798" y="155" text-anchor="middle" font-size="12" fill="white" font-weight="bold">22</text>
<rect x="784" y="178" width="28" height="28" rx="4" fill="#66bb6a"/>
<text x="798" y="197" text-anchor="middle" font-size="12" fill="white" font-weight="bold">23</text>
<text x="798" y="110" text-anchor="middle" font-size="12" fill="#2e7d32" font-weight="bold">A0</text>
<text x="798" y="244" text-anchor="middle" font-size="12" fill="#66bb6a" font-weight="bold">A8</text>
<rect x="826" y="136" width="28" height="28" rx="4" fill="#b71c1c"/>
<text x="840" y="155" text-anchor="middle" font-size="12" fill="white" font-weight="bold">5V</text>
<rect x="826" y="178" width="28" height="28" rx="4" fill="#b71c1c"/>
<text x="840" y="197" text-anchor="middle" font-size="12" fill="white" font-weight="bold">5V</text>
<line x1="152" y1="88" x2="478" y2="88" stroke="#1565c0" stroke-width="4"/>
<line x1="152" y1="88" x2="152" y2="96" stroke="#1565c0" stroke-width="4"/>
<line x1="478" y1="88" x2="478" y2="96" stroke="#1565c0" stroke-width="4"/>
<text x="315.0" y="78" text-anchor="middle" font-size="15" font-weight="bold" fill="#1565c0">Ribbon: IR0-IR7  &#8594;  H3.1-8  (IR0-IR7)</text>
<line x1="488" y1="88" x2="814" y2="88" stroke="#2e7d32" stroke-width="4"/>
<line x1="488" y1="88" x2="488" y2="96" stroke="#2e7d32" stroke-width="4"/>
<line x1="814" y1="88" x2="814" y2="96" stroke="#2e7d32" stroke-width="4"/>
<text x="651.0" y="78" text-anchor="middle" font-size="15" font-weight="bold" fill="#2e7d32">Ribbon: A0-A7  &#8594;  H1.1-8  (A0-A7)</text>
<line x1="152" y1="258" x2="478" y2="258" stroke="#42a5f5" stroke-width="4"/>
<line x1="152" y1="258" x2="152" y2="250" stroke="#42a5f5" stroke-width="4"/>
<line x1="478" y1="258" x2="478" y2="250" stroke="#42a5f5" stroke-width="4"/>
<text x="315.0" y="282" text-anchor="middle" font-size="15" font-weight="bold" fill="#42a5f5">Ribbon: IR8-IR15  &#8594;  H4.1-8  (IR8-IR15)</text>
<line x1="488" y1="258" x2="814" y2="258" stroke="#66bb6a" stroke-width="4"/>
<line x1="488" y1="258" x2="488" y2="250" stroke="#66bb6a" stroke-width="4"/>
<line x1="814" y1="258" x2="814" y2="250" stroke="#66bb6a" stroke-width="4"/>
<text x="651.0" y="282" text-anchor="middle" font-size="15" font-weight="bold" fill="#66bb6a">Ribbon: A8-A15  &#8594;  H2.1-8  (A8-A15)  ** remove H6 shunt **</text>
<rect x="90" y="346" width="18" height="18" rx="3" fill="#b71c1c"/>
<text x="120" y="360" font-size="15" fill="#222">5V pins (right end, both rows) -> H5.4 VCC</text>
<rect x="90" y="376" width="18" height="18" rx="3" fill="#1a237e"/>
<text x="120" y="390" font-size="15" fill="#222">GND pins (left end, both rows) -> H5.1 GND</text>
<rect x="90" y="406" width="18" height="18" rx="3" fill="#777"/>
<text x="120" y="420" font-size="15" fill="#222">Controls elsewhere on the board: D2 -> H5.2 (CP), D3 -> H5.3 (/EN)</text>
<rect x="90" y="436" width="18" height="18" rx="3" fill="#000"/>
<text x="120" y="450" font-size="15" fill="#222">Each ribbon lands on one 8-pin module header; conductor order per the sketch pin arrays.</text>
<rect x="90" y="466" width="18" height="18" rx="3" fill="#000"/>
<text x="120" y="480" font-size="15" fill="#222">A8-A15 ribbon drives A15 into H2.8 - REMOVE THE H6 SHUNT FIRST.</text>
</svg>