<svg xmlns="http://www.w3.org/2000/svg" viewBox="0 0 1680 980" font-family="Segoe UI, Arial, sans-serif">
  <defs>
    <g id="res-v" stroke="#000" fill="none" stroke-width="1.6">
      <path d="M0,0 L0,10 L8,14 L-8,22 L8,30 L-8,38 L8,46 L0,50 L0,60"/>
    </g>
    <g id="trim-v">
      <use href="#res-v"/>
      <line x1="-14" y1="50" x2="14" y2="8" stroke="#000" stroke-width="1.4"/>
      <polygon points="14,8 6,10 11,16" fill="#000"/>
    </g>
    <g id="cap-v" stroke="#000" fill="none" stroke-width="1.6">
      <line x1="0" y1="0" x2="0" y2="24"/>
      <line x1="-13" y1="24" x2="13" y2="24" stroke-width="2"/>
      <line x1="-13" y1="32" x2="13" y2="32" stroke-width="2"/>
      <line x1="0" y1="32" x2="0" y2="56"/>
    </g>
    <g id="gnd" stroke="#000" stroke-width="1.8">
      <line x1="-14" y1="0" x2="14" y2="0"/>
      <line x1="-9" y1="6" x2="9" y2="6"/>
      <line x1="-4" y1="12" x2="4" y2="12"/>
    </g>
    <g id="vcc" stroke="#c62828" stroke-width="1.8">
      <line x1="0" y1="0" x2="0" y2="-12"/>
      <line x1="-9" y1="-12" x2="9" y2="-12"/>
    </g>
    <g id="btn-v" stroke="#000" fill="#fff" stroke-width="1.6">
      <line x1="0" y1="0" x2="0" y2="10"/>
      <circle cx="0" cy="15" r="3.5"/>
      <circle cx="0" cy="41" r="3.5"/>
      <line x1="0" y1="46" x2="0" y2="56"/>
      <line x1="10" y1="12" x2="10" y2="44"/>
      <line x1="10" y1="28" x2="22" y2="28"/>
      <line x1="22" y1="20" x2="22" y2="36"/>
    </g>
    <g id="led-v">
      <line x1="0" y1="0" x2="0" y2="6" stroke="#000" stroke-width="1.6"/>
      <polygon points="-9,6 9,6 0,22" fill="#2e7d32" stroke="#000" stroke-width="1.4"/>
      <line x1="-9" y1="22" x2="9" y2="22" stroke="#000" stroke-width="2"/>
      <line x1="0" y1="22" x2="0" y2="30" stroke="#000" stroke-width="1.6"/>
      <line x1="9" y1="6" x2="17" y2="-2" stroke="#000" stroke-width="1.2"/>
      <polygon points="17,-2 11,0 15,4" fill="#000"/>
      <line x1="14" y1="11" x2="22" y2="3" stroke="#000" stroke-width="1.2"/>
      <polygon points="22,3 16,5 20,9" fill="#000"/>
    </g>
    <g id="nand">
      <line x1="-15" y1="16" x2="0" y2="16" stroke="#000" stroke-width="1.6"/>
      <line x1="-15" y1="40" x2="0" y2="40" stroke="#000" stroke-width="1.6"/>
      <path d="M0,0 L25,0 A28,28 0 0 1 25,56 L0,56 Z" fill="#fff" stroke="#000" stroke-width="1.8"/>
      <circle cx="58" cy="28" r="5" fill="#fff" stroke="#000" stroke-width="1.8"/>
      <line x1="63" y1="28" x2="80" y2="28" stroke="#000" stroke-width="1.6"/>
    </g>
  </defs>

  <!-- ===================== Titles ===================== -->
  <text x="1060" y="32" font-size="17" font-weight="bold" fill="#222">Clock Module — Final (single synchronous domain)</text>
  <text x="1060" y="52" font-size="12" fill="#777">2× NE555 + 2× 74HC00 + 74HC175 + 74HC74</text>
  <text x="60" y="34" font-size="14" font-weight="bold" fill="#888" letter-spacing="1">SINGLE-STEP DEBOUNCER</text>
  <text x="60" y="430" font-size="14" font-weight="bold" fill="#888" letter-spacing="1">MODE SELECT — SR LATCH</text>
  <text x="700" y="476" font-size="12" font-weight="bold" fill="#888" letter-spacing="1">SELECT RESYNC</text>
  <text x="1060" y="498" font-size="12" font-weight="bold" fill="#888" letter-spacing="1">RESET + STEP SYNC</text>
  <text x="1300" y="262" font-size="12" font-weight="bold" fill="#888" letter-spacing="1">CLOCK GATE / MUX</text>
  <text x="1300" y="768" font-size="12" font-weight="bold" fill="#888" letter-spacing="1">EDGE DETECT — ONE-CYCLE STEP PULSE</text>

  <!-- ===================== Block A: Single-step debouncer ===================== -->
  <use href="#vcc" x="110" y="96"/>
  <text x="110" y="74" font-size="10" fill="#c62828" text-anchor="middle">VCC</text>
  <use href="#res-v" x="110" y="96"/>
  <text x="126" y="130" font-size="12" fill="#333">R1 100k</text>
  <line x1="110" y1="156" x2="110" y2="206" stroke="#1565c0" stroke-width="1.8"/>
  <use href="#btn-v" x="110" y="206"/>
  <text x="96" y="238" font-size="12" fill="#333" text-anchor="end">S1</text>
  <text x="96" y="252" font-size="10" fill="#777" text-anchor="end">STEP</text>
  <line x1="110" y1="262" x2="110" y2="272" stroke="#000" stroke-width="1.8"/>
  <use href="#gnd" x="110" y="272"/>
  <line x1="110" y1="196" x2="196" y2="196" stroke="#1565c0" stroke-width="1.8"/>
  <line x1="196" y1="196" x2="196" y2="206" stroke="#1565c0" stroke-width="1.8"/>
  <use href="#cap-v" x="196" y="206"/>
  <text x="214" y="238" font-size="12" fill="#333">C1 470n</text>
  <line x1="196" y1="262" x2="196" y2="272" stroke="#000" stroke-width="1.8"/>
  <use href="#gnd" x="196" y="272"/>
  <line x1="196" y1="196" x2="252" y2="196" stroke="#1565c0" stroke-width="1.8"/>
  <line x1="252" y1="172" x2="252" y2="218" stroke="#1565c0" stroke-width="1.8"/>
  <line x1="252" y1="172" x2="262" y2="172" stroke="#1565c0" stroke-width="1.8"/>
  <line x1="252" y1="218" x2="262" y2="218" stroke="#1565c0" stroke-width="1.8"/>

  <text x="327" y="104" font-size="11" font-style="italic" fill="#777" text-anchor="middle">Schmitt inverter — no timing parts</text>
  <rect x="262" y="112" width="130" height="180" rx="3" fill="#fdfdfd" stroke="#000" stroke-width="1.8"/>
  <text x="270" y="128" font-size="11" font-weight="bold" fill="#333">U1</text>
  <text x="327" y="152" font-size="14" font-weight="bold" fill="#000" text-anchor="middle">NE555</text>
  <text x="268" y="138" font-size="11" fill="#333">4 RST</text>
  <text x="268" y="176" font-size="11" fill="#333">6 THR</text>
  <text x="268" y="222" font-size="11" fill="#333">2 TRG</text>
  <text x="386" y="138" font-size="11" fill="#333" text-anchor="end">VCC 8</text>
  <text x="386" y="204" font-size="11" fill="#333" text-anchor="end">OUT 3</text>
  <text x="327" y="284" font-size="11" fill="#333" text-anchor="middle">GND 1</text>
  <line x1="262" y1="134" x2="232" y2="134" stroke="#c62828" stroke-width="1.8"/>
  <use href="#vcc" x="232" y="134"/>
  <text x="232" y="112" font-size="10" fill="#c62828" text-anchor="middle">VCC</text>
  <line x1="392" y1="134" x2="420" y2="134" stroke="#c62828" stroke-width="1.8"/>
  <use href="#vcc" x="420" y="134"/>
  <text x="420" y="112" font-size="10" fill="#c62828" text-anchor="middle">VCC</text>
  <line x1="327" y1="292" x2="327" y2="308" stroke="#000" stroke-width="1.8"/>
  <use href="#gnd" x="327" y="308"/>

  <!-- STEP_DB net to U5 D2 -->
  <line x1="392" y1="200" x2="424" y2="200" stroke="#1565c0" stroke-width="1.8"/>
  <line x1="424" y1="200" x2="424" y2="360" stroke="#1565c0" stroke-width="1.8"/>
  <line x1="424" y1="360" x2="992" y2="360" stroke="#1565c0" stroke-width="1.8"/>
  <line x1="992" y1="360" x2="992" y2="648" stroke="#1565c0" stroke-width="1.8"/>
  <line x1="992" y1="648" x2="1060" y2="648" stroke="#1565c0" stroke-width="1.8"/>
  <text x="452" y="353" font-size="12" font-weight="bold" font-style="italic" fill="#1565c0">STEP_DB</text>

  <!-- ===================== Block B: Free-running oscillator ===================== -->
  <text x="627" y="104" font-size="11" font-style="italic" fill="#777" text-anchor="middle">output-feedback astable, ~3 Hz, ~50% duty</text>
  <line x1="470" y1="62" x2="470" y2="50" stroke="#1565c0" stroke-width="1.8"/>
  <line x1="470" y1="50" x2="744" y2="50" stroke="#1565c0" stroke-width="1.8"/>
  <line x1="744" y1="50" x2="744" y2="242" stroke="#1565c0" stroke-width="1.8"/>
  <use href="#trim-v" x="470" y="62"/>
  <text x="492" y="86" font-size="12" fill="#333">RV1 1M</text>
  <text x="492" y="100" font-size="10" fill="#777">freq adjust</text>
  <line x1="470" y1="122" x2="470" y2="130" stroke="#1565c0" stroke-width="1.8"/>
  <use href="#res-v" x="470" y="130"/>
  <text x="488" y="162" font-size="12" fill="#333">R2 1k</text>
  <line x1="470" y1="190" x2="470" y2="222" stroke="#1565c0" stroke-width="1.8"/>
  <use href="#cap-v" x="470" y="222"/>
  <text x="488" y="252" font-size="12" fill="#333">C2 220n</text>
  <line x1="470" y1="278" x2="470" y2="290" stroke="#000" stroke-width="1.8"/>
  <use href="#gnd" x="470" y="290"/>
  <line x1="470" y1="214" x2="532" y2="214" stroke="#1565c0" stroke-width="1.8"/>
  <line x1="532" y1="172" x2="532" y2="218" stroke="#1565c0" stroke-width="1.8"/>
  <line x1="532" y1="172" x2="562" y2="172" stroke="#1565c0" stroke-width="1.8"/>
  <line x1="532" y1="218" x2="562" y2="218" stroke="#1565c0" stroke-width="1.8"/>

  <rect x="562" y="112" width="130" height="180" rx="3" fill="#fdfdfd" stroke="#000" stroke-width="1.8"/>
  <text x="570" y="128" font-size="11" font-weight="bold" fill="#333">U2</text>
  <text x="627" y="152" font-size="14" font-weight="bold" fill="#000" text-anchor="middle">NE555</text>
  <text x="568" y="138" font-size="11" fill="#333">4 RST</text>
  <text x="568" y="176" font-size="11" fill="#333">6 THR</text>
  <text x="568" y="222" font-size="11" fill="#333">2 TRG</text>
  <text x="686" y="138" font-size="11" fill="#333" text-anchor="end">VCC 8</text>
  <text x="686" y="246" font-size="11" fill="#333" text-anchor="end">OUT 3</text>
  <text x="686" y="196" font-size="10" fill="#999" text-anchor="end">DIS 7 n/c</text>
  <text x="627" y="284" font-size="11" fill="#333" text-anchor="middle">GND 1</text>
  <line x1="562" y1="134" x2="546" y2="134" stroke="#c62828" stroke-width="1.8"/>
  <use href="#vcc" x="546" y="134"/>
  <text x="546" y="112" font-size="10" fill="#c62828" text-anchor="middle">VCC</text>
  <line x1="692" y1="134" x2="714" y2="134" stroke="#c62828" stroke-width="1.8"/>
  <use href="#vcc" x="714" y="134"/>
  <text x="714" y="112" font-size="10" fill="#c62828" text-anchor="middle">VCC</text>
  <line x1="627" y1="292" x2="627" y2="308" stroke="#000" stroke-width="1.8"/>
  <use href="#gnd" x="627" y="308"/>

  <!-- OSC net to mux U4B -->
  <line x1="692" y1="242" x2="1248" y2="242" stroke="#1565c0" stroke-width="1.8"/>
  <line x1="1248" y1="242" x2="1248" y2="288" stroke="#1565c0" stroke-width="1.8"/>
  <line x1="1248" y1="288" x2="1285" y2="288" stroke="#1565c0" stroke-width="1.8"/>
  <text x="790" y="235" font-size="12" font-weight="bold" font-style="italic" fill="#1565c0">OSC</text>

  <!-- U3C: /OSC inverter -->
  <line x1="762" y1="242" x2="762" y2="176" stroke="#1565c0" stroke-width="1.8"/>
  <line x1="762" y1="176" x2="795" y2="176" stroke="#1565c0" stroke-width="1.8"/>
  <line x1="762" y1="200" x2="795" y2="200" stroke="#1565c0" stroke-width="1.8"/>
  <use href="#nand" x="810" y="160"/>
  <text x="820" y="156" font-size="11" font-weight="bold" fill="#333">U3C</text>
  <line x1="890" y1="188" x2="975" y2="188" stroke="#1565c0" stroke-width="1.8"/>
  <text x="912" y="181" font-size="12" font-weight="bold" font-style="italic" fill="#1565c0">/OSC</text>
  <line x1="975" y1="188" x2="975" y2="840" stroke="#1565c0" stroke-width="1.8"/>
  <line x1="975" y1="840" x2="1038" y2="840" stroke="#1565c0" stroke-width="1.8"/>
  <line x1="1038" y1="840" x2="1038" y2="742" stroke="#1565c0" stroke-width="1.8"/>
  <line x1="1038" y1="742" x2="1060" y2="742" stroke="#1565c0" stroke-width="1.8"/>
  <line x1="975" y1="655" x2="910" y2="655" stroke="#1565c0" stroke-width="1.8"/>

  <!-- ===================== Block C: Mode latch ===================== -->
  <use href="#vcc" x="110" y="452"/>
  <text x="110" y="430" font-size="10" fill="#c62828" text-anchor="middle">VCC</text>
  <use href="#res-v" x="110" y="452"/>
  <text x="126" y="486" font-size="12" fill="#333">R3 10k</text>
  <line x1="110" y1="512" x2="110" y2="536" stroke="#1565c0" stroke-width="1.8"/>
  <line x1="110" y1="526" x2="415" y2="526" stroke="#1565c0" stroke-width="1.8"/>
  <use href="#btn-v" x="110" y="536"/>
  <text x="96" y="568" font-size="12" fill="#333" text-anchor="end">S2</text>
  <line x1="110" y1="592" x2="110" y2="602" stroke="#000" stroke-width="1.8"/>
  <use href="#gnd" x="110" y="602"/>
  <text x="110" y="634" font-size="10" fill="#777" text-anchor="middle">select STEP mode</text>

  <use href="#vcc" x="280" y="592"/>
  <text x="280" y="570" font-size="10" fill="#c62828" text-anchor="middle">VCC</text>
  <use href="#res-v" x="280" y="592"/>
  <text x="296" y="626" font-size="12" fill="#333">R4 10k</text>
  <line x1="280" y1="652" x2="280" y2="690" stroke="#1565c0" stroke-width="1.8"/>
  <line x1="280" y1="680" x2="415" y2="680" stroke="#1565c0" stroke-width="1.8"/>
  <use href="#btn-v" x="280" y="690"/>
  <text x="266" y="722" font-size="12" fill="#333" text-anchor="end">S3</text>
  <line x1="280" y1="746" x2="280" y2="756" stroke="#000" stroke-width="1.8"/>
  <use href="#gnd" x="280" y="756"/>
  <text x="280" y="788" font-size="10" fill="#777" text-anchor="middle">select RUN mode</text>

  <use href="#nand" x="430" y="510"/>
  <text x="440" y="504" font-size="11" font-weight="bold" fill="#333">U3A</text>
  <use href="#nand" x="430" y="640"/>
  <text x="440" y="712" font-size="11" font-weight="bold" fill="#333">U3B</text>

  <line x1="510" y1="538" x2="545" y2="538" stroke="#1565c0" stroke-width="1.8"/>
  <line x1="545" y1="538" x2="545" y2="616" stroke="#1565c0" stroke-width="1.8"/>
  <line x1="545" y1="616" x2="398" y2="616" stroke="#1565c0" stroke-width="1.8"/>
  <line x1="398" y1="616" x2="398" y2="656" stroke="#1565c0" stroke-width="1.8"/>
  <line x1="398" y1="656" x2="415" y2="656" stroke="#1565c0" stroke-width="1.8"/>
  <line x1="510" y1="668" x2="580" y2="668" stroke="#1565c0" stroke-width="1.8"/>
  <line x1="565" y1="668" x2="565" y2="592" stroke="#1565c0" stroke-width="1.8"/>
  <line x1="565" y1="592" x2="382" y2="592" stroke="#1565c0" stroke-width="1.8"/>
  <line x1="382" y1="592" x2="382" y2="550" stroke="#1565c0" stroke-width="1.8"/>
  <line x1="382" y1="550" x2="415" y2="550" stroke="#1565c0" stroke-width="1.8"/>

  <!-- MODE_STEP to U6 D1, with LED D1 -->
  <line x1="545" y1="538" x2="770" y2="538" stroke="#1565c0" stroke-width="1.8"/>
  <text x="660" y="531" font-size="12" font-weight="bold" font-style="italic" fill="#1565c0">MODE_STEP</text>
  <line x1="640" y1="538" x2="640" y2="546" stroke="#1565c0" stroke-width="1.8"/>
  <use href="#led-v" x="640" y="546"/>
  <text x="666" y="566" font-size="12" fill="#333">D1</text>
  <line x1="640" y1="576" x2="640" y2="580" stroke="#1565c0" stroke-width="1.8"/>
  <use href="#res-v" x="640" y="580"/>
  <text x="656" y="614" font-size="12" fill="#333">R5 330</text>
  <line x1="640" y1="640" x2="640" y2="650" stroke="#000" stroke-width="1.8"/>
  <use href="#gnd" x="640" y="650"/>
  <text x="640" y="690" font-size="10" fill="#2e7d32" text-anchor="middle">STEP mode</text>

  <!-- MODE_RUN to U6 D2, with LED D2 -->
  <line x1="580" y1="668" x2="580" y2="720" stroke="#1565c0" stroke-width="1.8"/>
  <line x1="580" y1="720" x2="736" y2="720" stroke="#1565c0" stroke-width="1.8"/>
  <line x1="736" y1="720" x2="736" y2="620" stroke="#1565c0" stroke-width="1.8"/>
  <line x1="736" y1="620" x2="770" y2="620" stroke="#1565c0" stroke-width="1.8"/>
  <text x="592" y="713" font-size="12" font-weight="bold" font-style="italic" fill="#1565c0">MODE_RUN</text>
  <line x1="700" y1="720" x2="700" y2="728" stroke="#1565c0" stroke-width="1.8"/>
  <use href="#led-v" x="700" y="728"/>
  <text x="726" y="748" font-size="12" fill="#333">D2</text>
  <line x1="700" y1="758" x2="700" y2="762" stroke="#1565c0" stroke-width="1.8"/>
  <use href="#res-v" x="700" y="762"/>
  <text x="716" y="796" font-size="12" fill="#333">R6 330</text>
  <line x1="700" y1="822" x2="700" y2="832" stroke="#000" stroke-width="1.8"/>
  <use href="#gnd" x="700" y="832"/>
  <text x="700" y="872" font-size="10" fill="#2e7d32" text-anchor="middle">RUN mode</text>

  <!-- ===================== Block D: U6 74HC74 select resync ===================== -->
  <rect x="770" y="500" width="140" height="190" rx="3" fill="#fdfdfd" stroke="#000" stroke-width="1.8"/>
  <text x="776" y="516" font-size="11" font-weight="bold" fill="#333">U6</text>
  <text x="848" y="530" font-size="13" font-weight="bold" fill="#000" text-anchor="middle">74HC74</text>
  <text x="776" y="542" font-size="11" fill="#333">2 D1</text>
  <text x="776" y="624" font-size="11" fill="#333">12 D2</text>
  <text x="904" y="559" font-size="11" fill="#333" text-anchor="end">Q1 5</text>
  <text x="904" y="604" font-size="11" fill="#333" text-anchor="end">Q2 9</text>
  <text x="904" y="659" font-size="11" fill="#333" text-anchor="end">CK 3·11</text>
  <text x="840" y="682" font-size="11" fill="#333" text-anchor="middle">GND 7</text>
  <text x="812" y="498" font-size="10" fill="#333">14 VCC</text>
  <line x1="800" y1="500" x2="800" y2="486" stroke="#c62828" stroke-width="1.8"/>
  <use href="#vcc" x="800" y="486"/>
  <line x1="840" y1="690" x2="840" y2="702" stroke="#000" stroke-width="1.8"/>
  <use href="#gnd" x="840" y="702"/>
  <text x="930" y="684" font-size="10" fill="#555">/PRE /CLR → VCC</text>

  <!-- SEL_STEP_S to U4C, SEL_RUN_S to U4B -->
  <line x1="910" y1="555" x2="920" y2="555" stroke="#1565c0" stroke-width="1.8"/>
  <line x1="920" y1="555" x2="920" y2="398" stroke="#1565c0" stroke-width="1.8"/>
  <line x1="920" y1="398" x2="1285" y2="398" stroke="#1565c0" stroke-width="1.8"/>
  <text x="1052" y="391" font-size="12" font-weight="bold" font-style="italic" fill="#1565c0">SEL_STEP_S</text>
  <line x1="910" y1="600" x2="934" y2="600" stroke="#1565c0" stroke-width="1.8"/>
  <line x1="934" y1="600" x2="934" y2="312" stroke="#1565c0" stroke-width="1.8"/>
  <line x1="934" y1="312" x2="1285" y2="312" stroke="#1565c0" stroke-width="1.8"/>
  <text x="1052" y="305" font-size="12" font-weight="bold" font-style="italic" fill="#1565c0">SEL_RUN_S</text>

  <!-- ===================== Block E: S4 + U5 74HC175 ===================== -->
  <use href="#vcc" x="952" y="468"/>
  <text x="952" y="446" font-size="10" fill="#c62828" text-anchor="middle">VCC</text>
  <use href="#res-v" x="952" y="468"/>
  <text x="936" y="500" font-size="12" fill="#333" text-anchor="end">R7 10k</text>
  <line x1="952" y1="528" x2="952" y2="560" stroke="#1565c0" stroke-width="1.8"/>
  <line x1="952" y1="550" x2="1060" y2="550" stroke="#1565c0" stroke-width="1.8"/>
  <g transform="translate(952,560) scale(-1,1)"><use href="#btn-v"/></g>
  <text x="916" y="592" font-size="12" fill="#333" text-anchor="end">S4</text>
  <line x1="952" y1="616" x2="952" y2="626" stroke="#000" stroke-width="1.8"/>
  <use href="#gnd" x="952" y="626"/>
  <text x="905" y="672" font-size="10" fill="#777" text-anchor="end">press to reset</text>

  <rect x="1060" y="520" width="150" height="250" rx="3" fill="#fdfdfd" stroke="#000" stroke-width="1.8"/>
  <text x="1066" y="536" font-size="11" font-weight="bold" fill="#333">U5</text>
  <text x="1140" y="538" font-size="13" font-weight="bold" fill="#000" text-anchor="middle">74HC175</text>
  <text x="1066" y="554" font-size="11" fill="#333">1 /MR</text>
  <text x="1066" y="584" font-size="11" fill="#333">4 D0</text>
  <text x="1066" y="616" font-size="11" fill="#333">5 D1</text>
  <text x="1066" y="652" font-size="11" fill="#333">12 D2</text>
  <text x="1066" y="682" font-size="11" fill="#333">13 D3</text>
  <text x="1066" y="746" font-size="11" fill="#333">9 CLK</text>
  <text x="1204" y="544" font-size="11" fill="#333" text-anchor="end">VDD 16</text>
  <text x="1204" y="589" font-size="11" fill="#333" text-anchor="end">Q0 2</text>
  <text x="1204" y="629" font-size="11" fill="#333" text-anchor="end">Q1 7</text>
  <text x="1204" y="664" font-size="11" fill="#333" text-anchor="end">/Q1 6</text>
  <text x="1204" y="704" font-size="11" fill="#333" text-anchor="end">Q2 10</text>
  <text x="1204" y="739" font-size="11" fill="#333" text-anchor="end">/Q3 14</text>
  <text x="1135" y="762" font-size="11" fill="#333" text-anchor="middle">GND 8</text>

  <!-- U5 power, D0 tie-high -->
  <line x1="1210" y1="540" x2="1246" y2="540" stroke="#c62828" stroke-width="1.8"/>
  <use href="#vcc" x="1246" y="540"/>
  <text x="1246" y="516" font-size="10" fill="#c62828" text-anchor="middle">VCC</text>
  <line x1="1135" y1="770" x2="1135" y2="782" stroke="#000" stroke-width="1.8"/>
  <use href="#gnd" x="1135" y="782"/>
  <line x1="1060" y1="580" x2="1012" y2="580" stroke="#c62828" stroke-width="1.8"/>
  <use href="#vcc" x="1012" y="580"/>
  <text x="1012" y="556" font-size="10" fill="#c62828" text-anchor="middle">VCC</text>

  <!-- Loop 1: Q0 -> D1 (reset chain) -->
  <line x1="1210" y1="585" x2="1230" y2="585" stroke="#1565c0" stroke-width="1.8"/>
  <line x1="1230" y1="585" x2="1230" y2="505" stroke="#1565c0" stroke-width="1.8"/>
  <line x1="1230" y1="505" x2="1034" y2="505" stroke="#1565c0" stroke-width="1.8"/>
  <line x1="1034" y1="505" x2="1034" y2="612" stroke="#1565c0" stroke-width="1.8"/>
  <line x1="1034" y1="612" x2="1060" y2="612" stroke="#1565c0" stroke-width="1.8"/>

  <!-- Loop 2: Q2 -> D3 (step chain) -->
  <line x1="1250" y1="700" x2="1250" y2="808" stroke="#1565c0" stroke-width="1.8"/>
  <line x1="1250" y1="808" x2="1022" y2="808" stroke="#1565c0" stroke-width="1.8"/>
  <line x1="1022" y1="808" x2="1022" y2="678" stroke="#1565c0" stroke-width="1.8"/>
  <line x1="1022" y1="678" x2="1060" y2="678" stroke="#1565c0" stroke-width="1.8"/>

  <!-- Synchronized reset outputs -->
  <line x1="1210" y1="625" x2="1596" y2="625" stroke="#1565c0" stroke-width="2.2"/>
  <polygon points="1596,625 1584,619 1584,631" fill="#1565c0"/>
  <text x="1602" y="630" font-size="15" font-weight="bold" fill="#1565c0">/RST</text>
  <line x1="1210" y1="660" x2="1596" y2="660" stroke="#1565c0" stroke-width="2.2"/>
  <polygon points="1596,660 1584,654 1584,666" fill="#1565c0"/>
  <text x="1602" y="665" font-size="15" font-weight="bold" fill="#1565c0">RST</text>

  <!-- ===================== Block F: edge detect + mux ===================== -->
  <line x1="1210" y1="700" x2="1285" y2="700" stroke="#1565c0" stroke-width="1.8"/>
  <line x1="1210" y1="735" x2="1268" y2="735" stroke="#1565c0" stroke-width="1.8"/>
  <line x1="1268" y1="735" x2="1268" y2="724" stroke="#1565c0" stroke-width="1.8"/>
  <line x1="1268" y1="724" x2="1285" y2="724" stroke="#1565c0" stroke-width="1.8"/>
  <use href="#nand" x="1300" y="684"/>
  <text x="1310" y="680" font-size="11" font-weight="bold" fill="#333">U4A</text>
  <line x1="1380" y1="712" x2="1398" y2="712" stroke="#1565c0" stroke-width="1.8"/>
  <line x1="1398" y1="700" x2="1398" y2="724" stroke="#1565c0" stroke-width="1.8"/>
  <line x1="1398" y1="700" x2="1415" y2="700" stroke="#1565c0" stroke-width="1.8"/>
  <line x1="1398" y1="724" x2="1415" y2="724" stroke="#1565c0" stroke-width="1.8"/>
  <use href="#nand" x="1430" y="684"/>
  <text x="1440" y="680" font-size="11" font-weight="bold" fill="#333">U3D</text>

  <!-- STEP_PULSE up to U4C -->
  <line x1="1510" y1="712" x2="1532" y2="712" stroke="#1565c0" stroke-width="1.8"/>
  <line x1="1532" y1="712" x2="1532" y2="466" stroke="#1565c0" stroke-width="1.8"/>
  <line x1="1532" y1="466" x2="1262" y2="466" stroke="#1565c0" stroke-width="1.8"/>
  <line x1="1262" y1="466" x2="1262" y2="422" stroke="#1565c0" stroke-width="1.8"/>
  <line x1="1262" y1="422" x2="1285" y2="422" stroke="#1565c0" stroke-width="1.8"/>
  <text x="1296" y="484" font-size="12" font-weight="bold" font-style="italic" fill="#1565c0">STEP_PULSE</text>

  <use href="#nand" x="1300" y="272"/>
  <text x="1310" y="268" font-size="11" font-weight="bold" fill="#333">U4B</text>
  <use href="#nand" x="1300" y="382"/>
  <text x="1310" y="378" font-size="11" font-weight="bold" fill="#333">U4C</text>
  <use href="#nand" x="1462" y="322"/>
  <text x="1472" y="318" font-size="11" font-weight="bold" fill="#333">U4D</text>
  <line x1="1380" y1="300" x2="1420" y2="300" stroke="#1565c0" stroke-width="1.8"/>
  <line x1="1420" y1="300" x2="1420" y2="338" stroke="#1565c0" stroke-width="1.8"/>
  <line x1="1420" y1="338" x2="1447" y2="338" stroke="#1565c0" stroke-width="1.8"/>
  <line x1="1380" y1="410" x2="1420" y2="410" stroke="#1565c0" stroke-width="1.8"/>
  <line x1="1420" y1="410" x2="1420" y2="362" stroke="#1565c0" stroke-width="1.8"/>
  <line x1="1420" y1="362" x2="1447" y2="362" stroke="#1565c0" stroke-width="1.8"/>
  <line x1="1542" y1="350" x2="1612" y2="350" stroke="#1565c0" stroke-width="2.2"/>
  <polygon points="1612,350 1600,344 1600,356" fill="#1565c0"/>
  <text x="1618" y="356" font-size="18" font-weight="bold" fill="#1565c0">CLK</text>

  <!-- ===================== Notes ===================== -->
  <text x="60" y="912" font-size="11" fill="#555">U1, U2 = NE555 · U3, U4 = 74HC00 quad NAND · U5 = 74HC175 quad D-FF (common CLK, common /MR) · U6 = 74HC74 dual D-FF</text>
  <text x="60" y="932" font-size="11" font-style="italic" fill="#555">CLK = OSC·SEL_RUN_S + STEP_PULSE·SEL_STEP_S · all flip-flops clock on /OSC, so selects and pulses only change while the gated sources are stable</text>
  <text x="60" y="952" font-size="11" fill="#555">Reset: S4 asserts /MR asynchronously (also kills any in-flight step pulse); /RST releases two /OSC edges after S4 is let go. 100n decoupling per IC not shown.</text>

  <!-- ===================== Junction dots ===================== -->
  <circle cx="110" cy="196" r="3.3" fill="#1565c0"/>
  <circle cx="196" cy="196" r="3.3" fill="#1565c0"/>
  <circle cx="252" cy="196" r="3.3" fill="#1565c0"/>
  <circle cx="470" cy="214" r="3.3" fill="#1565c0"/>
  <circle cx="532" cy="214" r="3.3" fill="#1565c0"/>
  <circle cx="744" cy="242" r="3.3" fill="#1565c0"/>
  <circle cx="762" cy="242" r="3.3" fill="#1565c0"/>
  <circle cx="762" cy="200" r="3.3" fill="#1565c0"/>
  <circle cx="110" cy="526" r="3.3" fill="#1565c0"/>
  <circle cx="280" cy="680" r="3.3" fill="#1565c0"/>
  <circle cx="545" cy="538" r="3.3" fill="#1565c0"/>
  <circle cx="640" cy="538" r="3.3" fill="#1565c0"/>
  <circle cx="565" cy="668" r="3.3" fill="#1565c0"/>
  <circle cx="700" cy="720" r="3.3" fill="#1565c0"/>
  <circle cx="952" cy="550" r="3.3" fill="#1565c0"/>
  <circle cx="975" cy="655" r="3.3" fill="#1565c0"/>
  <circle cx="1250" cy="700" r="3.3" fill="#1565c0"/>
  <circle cx="1398" cy="712" r="3.3" fill="#1565c0"/>
</svg>
