<svg xmlns="http://www.w3.org/2000/svg" viewBox="0 0 2200 2680" font-family="Segoe UI, Arial, sans-serif">
  <rect x="0" y="0" width="2200" height="2680" fill="#ffffff"/>

  <!-- ======================= Title ======================= -->
  <text x="1100" y="60" text-anchor="middle" font-size="44" font-weight="bold" fill="#1a1a1a">TTLSim 20V8 burns — GAL20V8 test harness on Arduino Mega 2560</text>
  <text x="1100" y="104" text-anchor="middle" font-size="26" fill="#5b7a99">Single-row wiring, same Mega pin roles as the 16V8 harness. Unused GAL inputs strap to GND at the socket. No series resistors needed.</text>

  <!-- ======================= Legend ======================= -->
  <g font-size="22" fill="#1a1a1a">
    <rect x="200"  y="140" width="44" height="7" fill="#f39c12"/> <text x="254"  y="150">pin 1 (f / clk)</text>
    <rect x="430"  y="140" width="44" height="7" fill="#1f77b4"/> <text x="484"  y="150">inputs a–e / rst / sel</text>
    <rect x="730"  y="140" width="44" height="7" fill="#8e44ad"/> <text x="784"  y="150">pin 13 (g / /OE / ena)</text>
    <rect x="1030" y="140" width="44" height="7" fill="#2e8b57"/> <text x="1084" y="150">GAL outputs</text>
    <rect x="1260" y="140" width="44" height="7" fill="#222222"/> <text x="1314" y="150">GND / GND strap</text>
    <rect x="1520" y="140" width="44" height="7" fill="#c4cdd4"/> <text x="1574" y="150">n/c (leave open)</text>
    <rect x="1770" y="140" width="44" height="7" fill="#d62728"/> <text x="1824" y="150">+5 V</text>
  </g>

  <!-- ======================= Left Mega header ======================= -->
  <rect x="120" y="230" width="220" height="960" rx="10" fill="#f4f6f8" stroke="#9aa7b3" stroke-width="2"/>
  <text x="230" y="216" text-anchor="middle" font-size="26" font-weight="bold" fill="#1a1a1a">Mega 2560</text>
  <text x="230" y="1222" text-anchor="middle" font-size="20" fill="#77878f">outer row, bottom edge</text>

  <!-- ======================= Right Mega header ======================= -->
  <rect x="1860" y="230" width="220" height="960" rx="10" fill="#f4f6f8" stroke="#9aa7b3" stroke-width="2"/>
  <text x="1970" y="216" text-anchor="middle" font-size="26" font-weight="bold" fill="#1a1a1a">Mega 2560</text>
  <text x="1970" y="1222" text-anchor="middle" font-size="20" fill="#77878f">(same board, same header row)</text>

  <!-- ======================= Chip body (24-pin) ======================= -->
  <rect x="880" y="252" width="440" height="920" rx="8" fill="#eef1f4" stroke="#333d47" stroke-width="3"/>
  <path d="M 1075 252 A 25 25 0 0 0 1125 252" fill="#ffffff" stroke="#333d47" stroke-width="3"/>
  <text x="1100" y="1212" text-anchor="middle" font-size="26" font-weight="bold" fill="#1a1a1a">GAL20V8 — test socket (24-pin, 0.3&quot; ZIF recommended)</text>
  <text x="1100" y="1244" text-anchor="middle" font-size="21" fill="#5b7a99">chip-pin labels read:  simple / registered / complex</text>

  <!-- ==== Left pins 1..12, rows every 76 px, first centre y=292 ==== -->
  <!-- Pin 1 : D53 -->
  <rect x="150" y="270" width="160" height="44" rx="7" fill="#ffffff" stroke="#333d47" stroke-width="2.5"/>
  <text x="230" y="300" text-anchor="middle" font-size="24" font-weight="bold">D53</text>
  <line x1="310" y1="292" x2="880" y2="292" stroke="#f39c12" stroke-width="5"/>
  <text x="866" y="278" text-anchor="end" font-size="19" fill="#5b7a99">1</text>
  <text x="896" y="299" font-size="21" fill="#1a1a1a">f / clk / —</text>
  <!-- Pin 2 : D51 -->
  <rect x="150" y="346" width="160" height="44" rx="7" fill="#ffffff" stroke="#333d47" stroke-width="2.5"/>
  <text x="230" y="376" text-anchor="middle" font-size="24" font-weight="bold">D51</text>
  <line x1="310" y1="368" x2="880" y2="368" stroke="#1f77b4" stroke-width="5"/>
  <text x="866" y="354" text-anchor="end" font-size="19" fill="#5b7a99">2</text>
  <text x="896" y="375" font-size="21" fill="#1a1a1a">a / rst / a</text>
  <!-- Pin 3 : D49 -->
  <rect x="150" y="422" width="160" height="44" rx="7" fill="#ffffff" stroke="#333d47" stroke-width="2.5"/>
  <text x="230" y="452" text-anchor="middle" font-size="24" font-weight="bold">D49</text>
  <line x1="310" y1="444" x2="880" y2="444" stroke="#1f77b4" stroke-width="5"/>
  <text x="866" y="430" text-anchor="end" font-size="19" fill="#5b7a99">3</text>
  <text x="896" y="451" font-size="21" fill="#1a1a1a">b / — / b</text>
  <!-- Pin 4 : D47 -->
  <rect x="150" y="498" width="160" height="44" rx="7" fill="#ffffff" stroke="#333d47" stroke-width="2.5"/>
  <text x="230" y="528" text-anchor="middle" font-size="24" font-weight="bold">D47</text>
  <line x1="310" y1="520" x2="880" y2="520" stroke="#1f77b4" stroke-width="5"/>
  <text x="866" y="506" text-anchor="end" font-size="19" fill="#5b7a99">4</text>
  <text x="896" y="527" font-size="21" fill="#1a1a1a">c / — / c</text>
  <!-- Pin 5 : D45 -->
  <rect x="150" y="574" width="160" height="44" rx="7" fill="#ffffff" stroke="#333d47" stroke-width="2.5"/>
  <text x="230" y="604" text-anchor="middle" font-size="24" font-weight="bold">D45</text>
  <line x1="310" y1="596" x2="880" y2="596" stroke="#1f77b4" stroke-width="5"/>
  <text x="866" y="582" text-anchor="end" font-size="19" fill="#5b7a99">5</text>
  <text x="896" y="603" font-size="21" fill="#1a1a1a">d / — / sel</text>
  <!-- Pin 6 : D43 -->
  <rect x="150" y="650" width="160" height="44" rx="7" fill="#ffffff" stroke="#333d47" stroke-width="2.5"/>
  <text x="230" y="680" text-anchor="middle" font-size="24" font-weight="bold">D43</text>
  <line x1="310" y1="672" x2="880" y2="672" stroke="#1f77b4" stroke-width="5"/>
  <text x="866" y="658" text-anchor="end" font-size="19" fill="#5b7a99">6</text>
  <text x="896" y="679" font-size="21" fill="#1a1a1a">e / — / —</text>
  <!-- Pins 7..11 : GND strap rail -->
  <line x1="760" y1="748" x2="880" y2="748" stroke="#222222" stroke-width="4"/>
  <line x1="760" y1="824" x2="880" y2="824" stroke="#222222" stroke-width="4"/>
  <line x1="760" y1="900" x2="880" y2="900" stroke="#222222" stroke-width="4"/>
  <line x1="760" y1="976" x2="880" y2="976" stroke="#222222" stroke-width="4"/>
  <line x1="760" y1="1052" x2="880" y2="1052" stroke="#222222" stroke-width="4"/>
  <line x1="760" y1="748" x2="760" y2="1128" stroke="#222222" stroke-width="4"/>
  <text x="866" y="734" text-anchor="end" font-size="19" fill="#5b7a99">7</text>
  <text x="866" y="810" text-anchor="end" font-size="19" fill="#5b7a99">8</text>
  <text x="866" y="886" text-anchor="end" font-size="19" fill="#5b7a99">9</text>
  <text x="866" y="962" text-anchor="end" font-size="19" fill="#5b7a99">10</text>
  <text x="866" y="1038" text-anchor="end" font-size="19" fill="#5b7a99">11</text>
  <text x="896" y="755" font-size="21" fill="#77878f">— strap ¹</text>
  <text x="896" y="831" font-size="21" fill="#77878f">— strap ¹</text>
  <text x="896" y="907" font-size="21" fill="#77878f">— strap ¹</text>
  <text x="896" y="983" font-size="21" fill="#77878f">— strap ¹</text>
  <text x="896" y="1059" font-size="21" fill="#77878f">— strap ¹</text>
  <text x="748" y="860" text-anchor="end" font-size="19" fill="#5b7a99">GND rail at the socket</text>
  <!-- Pin 12 : GND -->
  <rect x="150" y="1106" width="160" height="44" rx="7" fill="#ffffff" stroke="#333d47" stroke-width="2.5"/>
  <text x="230" y="1136" text-anchor="middle" font-size="24" font-weight="bold">GND</text>
  <line x1="310" y1="1128" x2="880" y2="1128" stroke="#222222" stroke-width="5"/>
  <text x="866" y="1114" text-anchor="end" font-size="19" fill="#5b7a99">12</text>
  <text x="896" y="1135" font-size="21" font-weight="bold" fill="#1a1a1a">GND</text>

  <!-- ==== Right pins 24 down to 13 ==== -->
  <!-- Pin 24 : 5V -->
  <rect x="1890" y="270" width="160" height="44" rx="7" fill="#ffffff" stroke="#333d47" stroke-width="2.5"/>
  <text x="1970" y="300" text-anchor="middle" font-size="24" font-weight="bold">5V</text>
  <line x1="1320" y1="292" x2="1890" y2="292" stroke="#d62728" stroke-width="5"/>
  <text x="1334" y="278" font-size="19" fill="#5b7a99">24</text>
  <text x="1304" y="299" text-anchor="end" font-size="21" font-weight="bold" fill="#1a1a1a">VCC</text>
  <!-- Pin 23 : GND strap -->
  <line x1="1320" y1="368" x2="1470" y2="368" stroke="#222222" stroke-width="4"/>
  <line x1="1470" y1="368" x2="1470" y2="384" stroke="#222222" stroke-width="4"/>
  <line x1="1450" y1="384" x2="1490" y2="384" stroke="#222222" stroke-width="4"/>
  <line x1="1457" y1="392" x2="1483" y2="392" stroke="#222222" stroke-width="3"/>
  <line x1="1464" y1="400" x2="1476" y2="400" stroke="#222222" stroke-width="2"/>
  <text x="1334" y="354" font-size="19" fill="#5b7a99">23</text>
  <text x="1304" y="375" text-anchor="end" font-size="21" fill="#77878f">— strap ¹</text>
  <!-- Pin 22 : D25 -->
  <rect x="1890" y="422" width="160" height="44" rx="7" fill="#ffffff" stroke="#333d47" stroke-width="2.5"/>
  <text x="1970" y="452" text-anchor="middle" font-size="24" font-weight="bold">D25</text>
  <line x1="1320" y1="444" x2="1890" y2="444" stroke="#2e8b57" stroke-width="5"/>
  <text x="1334" y="430" font-size="19" fill="#5b7a99">22</text>
  <text x="1304" y="451" text-anchor="end" font-size="21" fill="#1a1a1a">yand / q0 / y1</text>
  <!-- Pin 21 : D27 -->
  <rect x="1890" y="498" width="160" height="44" rx="7" fill="#ffffff" stroke="#333d47" stroke-width="2.5"/>
  <text x="1970" y="528" text-anchor="middle" font-size="24" font-weight="bold">D27</text>
  <line x1="1320" y1="520" x2="1890" y2="520" stroke="#2e8b57" stroke-width="5"/>
  <text x="1334" y="506" font-size="19" fill="#5b7a99">21</text>
  <text x="1304" y="527" text-anchor="end" font-size="21" fill="#1a1a1a">yor / q1 / y2 ²</text>
  <!-- Pin 20 : D29 -->
  <rect x="1890" y="574" width="160" height="44" rx="7" fill="#ffffff" stroke="#333d47" stroke-width="2.5"/>
  <text x="1970" y="604" text-anchor="middle" font-size="24" font-weight="bold">D29</text>
  <line x1="1320" y1="596" x2="1890" y2="596" stroke="#2e8b57" stroke-width="5"/>
  <text x="1334" y="582" font-size="19" fill="#5b7a99">20</text>
  <text x="1304" y="603" text-anchor="end" font-size="21" fill="#1a1a1a">yxor / q2 / —</text>
  <!-- Pin 19 : n/c -->
  <text x="1334" y="658" font-size="19" fill="#5b7a99">19</text>
  <text x="1304" y="679" text-anchor="end" font-size="21" fill="#8b98a3">n/c ⁴</text>
  <!-- Pin 18 : n/c -->
  <text x="1334" y="734" font-size="19" fill="#5b7a99">18</text>
  <text x="1304" y="755" text-anchor="end" font-size="21" fill="#8b98a3">n/c ⁴</text>
  <!-- Pin 17 : D35 -->
  <rect x="1890" y="802" width="160" height="44" rx="7" fill="#ffffff" stroke="#333d47" stroke-width="2.5"/>
  <text x="1970" y="832" text-anchor="middle" font-size="24" font-weight="bold">D35</text>
  <line x1="1320" y1="824" x2="1890" y2="824" stroke="#2e8b57" stroke-width="5"/>
  <text x="1334" y="810" font-size="19" fill="#5b7a99">17</text>
  <text x="1304" y="831" text-anchor="end" font-size="21" fill="#1a1a1a">yfg / carry / fb</text>
  <!-- Pin 16 : D31 -->
  <rect x="1890" y="878" width="160" height="44" rx="7" fill="#ffffff" stroke="#333d47" stroke-width="2.5"/>
  <text x="1970" y="908" text-anchor="middle" font-size="24" font-weight="bold">D31</text>
  <line x1="1320" y1="900" x2="1890" y2="900" stroke="#2e8b57" stroke-width="5"/>
  <text x="1334" y="886" font-size="19" fill="#5b7a99">16</text>
  <text x="1304" y="907" text-anchor="end" font-size="21" fill="#1a1a1a">— / — / g</text>
  <!-- Pin 15 : n/c -->
  <text x="1334" y="962" font-size="19" fill="#5b7a99">15</text>
  <text x="1304" y="983" text-anchor="end" font-size="21" fill="#8b98a3">n/c ⁴</text>
  <!-- Pin 14 : GND strap -->
  <line x1="1320" y1="1052" x2="1470" y2="1052" stroke="#222222" stroke-width="4"/>
  <line x1="1470" y1="1052" x2="1470" y2="1068" stroke="#222222" stroke-width="4"/>
  <line x1="1450" y1="1068" x2="1490" y2="1068" stroke="#222222" stroke-width="4"/>
  <line x1="1457" y1="1076" x2="1483" y2="1076" stroke="#222222" stroke-width="3"/>
  <line x1="1464" y1="1084" x2="1476" y2="1084" stroke="#222222" stroke-width="2"/>
  <text x="1334" y="1038" font-size="19" fill="#5b7a99">14</text>
  <text x="1304" y="1059" text-anchor="end" font-size="21" fill="#77878f">— strap ¹</text>
  <!-- Pin 13 : D23 -->
  <rect x="1890" y="1106" width="160" height="44" rx="7" fill="#ffffff" stroke="#333d47" stroke-width="2.5"/>
  <text x="1970" y="1136" text-anchor="middle" font-size="24" font-weight="bold">D23</text>
  <line x1="1320" y1="1128" x2="1890" y2="1128" stroke="#8e44ad" stroke-width="5"/>
  <text x="1334" y="1114" font-size="19" fill="#5b7a99">13</text>
  <text x="1304" y="1135" text-anchor="end" font-size="21" fill="#1a1a1a">g / /OE / ena</text>

  <!-- Decoupling cap note -->
  <g font-size="22" fill="#1a1a1a">
    <text x="360" y="1298" text-anchor="end" fill="#d62728" font-weight="bold">24</text>
    <line x1="372" y1="1290" x2="430" y2="1290" stroke="#d62728" stroke-width="5"/>
    <line x1="430" y1="1272" x2="430" y2="1308" stroke="#222222" stroke-width="6"/>
    <line x1="448" y1="1272" x2="448" y2="1308" stroke="#222222" stroke-width="6"/>
    <line x1="448" y1="1290" x2="506" y2="1290" stroke="#222222" stroke-width="5"/>
    <text x="518" y="1298" font-weight="bold">12</text>
    <text x="566" y="1298">C1: 100 nF ceramic across pins 24–12, close to the socket</text>
  </g>
  <text x="1100" y="1346" text-anchor="middle" font-size="23" fill="#c0392b">No direction-changing lines in this harness — D22 / D24 and their series resistors are not used at all.</text>

  <!-- ======================= Physical header view ======================= -->
  <text x="1100" y="1418" text-anchor="middle" font-size="30" font-weight="bold" fill="#1a1a1a">Physical view — bottom-edge header, left → right (outer row only)</text>
  <g font-size="19" text-anchor="middle">
    <text x="52" y="1478" text-anchor="end" fill="#77878f">inner</text>
    <text x="52" y="1558" text-anchor="end" fill="#77878f">outer</text>
    <!-- inner row: entirely unused -->
    <g fill="#f4f6f8" stroke="#b7c2cb" stroke-width="2">
      <rect x="76"   y="1446" width="106" height="52" rx="6"/><rect x="190"  y="1446" width="106" height="52" rx="6"/><rect x="304"  y="1446" width="106" height="52" rx="6"/><rect x="418"  y="1446" width="106" height="52" rx="6"/><rect x="532"  y="1446" width="106" height="52" rx="6"/><rect x="646"  y="1446" width="106" height="52" rx="6"/><rect x="760"  y="1446" width="106" height="52" rx="6"/><rect x="874"  y="1446" width="106" height="52" rx="6"/><rect x="988"  y="1446" width="106" height="52" rx="6"/><rect x="1102" y="1446" width="106" height="52" rx="6"/><rect x="1216" y="1446" width="106" height="52" rx="6"/><rect x="1330" y="1446" width="106" height="52" rx="6"/><rect x="1444" y="1446" width="106" height="52" rx="6"/><rect x="1558" y="1446" width="106" height="52" rx="6"/><rect x="1672" y="1446" width="106" height="52" rx="6"/><rect x="1786" y="1446" width="106" height="52" rx="6"/><rect x="1900" y="1446" width="106" height="52" rx="6"/><rect x="2014" y="1446" width="106" height="52" rx="6"/>
    </g>
    <g fill="#8b98a3" font-weight="bold">
      <text x="129" y="1470">GND</text><text x="243" y="1470">D52</text><text x="357" y="1470">D50</text><text x="471" y="1470">D48</text><text x="585" y="1470">D46</text><text x="699" y="1470">D44</text><text x="813" y="1470">D42</text><text x="927" y="1470">D40</text><text x="1041" y="1470">D38</text><text x="1155" y="1470">D36</text><text x="1269" y="1470">D34</text><text x="1383" y="1470">D32</text><text x="1497" y="1470">D30</text><text x="1611" y="1470">D28</text><text x="1725" y="1470">D26</text><text x="1839" y="1470">D24</text><text x="1953" y="1470">D22</text><text x="2067" y="1470">5V</text>
    </g>
    <g fill="#8b98a3" font-size="17">
      <text x="129" y="1491">—</text><text x="243" y="1491">—</text><text x="357" y="1491">—</text><text x="471" y="1491">—</text><text x="585" y="1491">—</text><text x="699" y="1491">—</text><text x="813" y="1491">—</text><text x="927" y="1491">—</text><text x="1041" y="1491">—</text><text x="1155" y="1491">—</text><text x="1269" y="1491">—</text><text x="1383" y="1491">—</text><text x="1497" y="1491">—</text><text x="1611" y="1491">—</text><text x="1725" y="1491">—</text><text x="1839" y="1491">—</text><text x="1953" y="1491">—</text><text x="2067" y="1491">—</text>
    </g>
    <!-- outer row -->
    <g stroke="#8b98a3" stroke-width="2">
      <rect x="76"   y="1508" width="106" height="52" rx="6" fill="#e6e9ec"/>
      <rect x="190"  y="1508" width="106" height="52" rx="6" fill="#fdebd0"/>
      <rect x="304"  y="1508" width="106" height="52" rx="6" fill="#dbe9f6"/><rect x="418"  y="1508" width="106" height="52" rx="6" fill="#dbe9f6"/><rect x="532"  y="1508" width="106" height="52" rx="6" fill="#dbe9f6"/><rect x="646"  y="1508" width="106" height="52" rx="6" fill="#dbe9f6"/><rect x="760"  y="1508" width="106" height="52" rx="6" fill="#dbe9f6"/>
      <rect x="874"  y="1508" width="106" height="52" rx="6" fill="#eef1f4"/><rect x="988"  y="1508" width="106" height="52" rx="6" fill="#eef1f4"/><rect x="1102" y="1508" width="106" height="52" rx="6" fill="#eef1f4"/>
      <rect x="1216" y="1508" width="106" height="52" rx="6" fill="#e3f2e9"/><rect x="1330" y="1508" width="106" height="52" rx="6" fill="#eef1f4"/><rect x="1444" y="1508" width="106" height="52" rx="6" fill="#e3f2e9"/><rect x="1558" y="1508" width="106" height="52" rx="6" fill="#e3f2e9"/><rect x="1672" y="1508" width="106" height="52" rx="6" fill="#e3f2e9"/><rect x="1786" y="1508" width="106" height="52" rx="6" fill="#e3f2e9"/>
      <rect x="1900" y="1508" width="106" height="52" rx="6" fill="#efe2f5"/>
      <rect x="2014" y="1508" width="106" height="52" rx="6" fill="#fbdcdc"/>
    </g>
    <g fill="#1a1a1a" font-weight="bold">
      <text x="129" y="1532">GND</text><text x="243" y="1532">D53</text><text x="357" y="1532">D51</text><text x="471" y="1532">D49</text><text x="585" y="1532">D47</text><text x="699" y="1532">D45</text><text x="813" y="1532">D43</text><text x="927" y="1532" fill="#8b98a3">D41</text><text x="1041" y="1532" fill="#8b98a3">D39</text><text x="1155" y="1532" fill="#8b98a3">D37</text><text x="1269" y="1532">D35</text><text x="1383" y="1532" fill="#8b98a3">D33</text><text x="1497" y="1532">D31</text><text x="1611" y="1532">D29</text><text x="1725" y="1532">D27</text><text x="1839" y="1532">D25</text><text x="1953" y="1532">D23</text><text x="2067" y="1532">5V</text>
    </g>
    <g fill="#5b7a99" font-size="17">
      <text x="129" y="1553">pin 12 ¹</text><text x="243" y="1553">pin 1</text><text x="357" y="1553">pin 2</text><text x="471" y="1553">pin 3</text><text x="585" y="1553">pin 4</text><text x="699" y="1553">pin 5</text><text x="813" y="1553">pin 6</text><text x="927" y="1553">—</text><text x="1041" y="1553">—</text><text x="1155" y="1553">—</text><text x="1269" y="1553">pin 17</text><text x="1383" y="1553">—</text><text x="1497" y="1553">pin 16</text><text x="1611" y="1553">pin 20</text><text x="1725" y="1553">pin 21</text><text x="1839" y="1553">pin 22</text><text x="1953" y="1553">pin 13</text><text x="2067" y="1553">pin 24</text>
    </g>
  </g>
  <text x="1100" y="1600" text-anchor="middle" font-size="20" fill="#5b7a99">board edge below • the GND wire also feeds the socket-side strap rail for pins 7–11, 14 and 23</text>

  <!-- ======================= Per-burn table ======================= -->
  <text x="1100" y="1666" text-anchor="middle" font-size="30" font-weight="bold" fill="#1a1a1a">Per-burn pin assignments (pin 24 = 5 V, pin 12 = GND on all three)</text>

  <rect x="140" y="1692" width="1920" height="54" fill="#37474f"/>
  <g font-size="23" font-weight="bold" fill="#ffffff" text-anchor="middle">
    <text x="200"  y="1728">GAL pin</text>
    <text x="330"  y="1728">Mega</text>
    <text x="520"  y="1728">Direction (Mega)</text>
    <text x="875"  y="1728">gal20v8_simple</text>
    <text x="1345" y="1728">gal20v8_registered</text>
    <text x="1820" y="1728">gal20v8_complex</text>
  </g>
  <!-- 16 data rows h=50 from y=1746; stripes on alternate rows -->
  <g fill="#f4f6f8">
    <rect x="140" y="1796" width="1920" height="50"/>
    <rect x="140" y="1896" width="1920" height="50"/>
    <rect x="140" y="1996" width="1920" height="50"/>
    <rect x="140" y="2096" width="1920" height="50"/>
    <rect x="140" y="2196" width="1920" height="50"/>
    <rect x="140" y="2296" width="1920" height="50"/>
    <rect x="140" y="2396" width="1920" height="50"/>
    <rect x="140" y="2496" width="1920" height="50"/>
  </g>
  <g stroke="#cfd6dc" stroke-width="1.5">
    <line x1="140" y1="2546" x2="2060" y2="2546"/>
    <line x1="140" y1="1746" x2="140" y2="2546"/>
    <line x1="260" y1="1692" x2="260" y2="2546"/>
    <line x1="400" y1="1692" x2="400" y2="2546"/>
    <line x1="640" y1="1692" x2="640" y2="2546"/>
    <line x1="1110" y1="1692" x2="1110" y2="2546"/>
    <line x1="1580" y1="1692" x2="1580" y2="2546"/>
    <line x1="2060" y1="1692" x2="2060" y2="2546"/>
  </g>
  <g font-size="22" fill="#1a1a1a">
    <!-- row centres: 1778, 1828, 1878, 1928, 1978, 2028, 2078, 2128, 2178, 2228, 2278, 2328, 2378, 2428, 2478, 2528 -->
    <g text-anchor="middle" font-weight="bold"><text x="200" y="1778">1</text><text x="330" y="1778">D53</text></g>
    <text x="520" y="1778" text-anchor="middle">output, always</text>
    <text x="875" y="1778" text-anchor="middle">f (plain input)</text>
    <text x="1345" y="1778" text-anchor="middle">clk (rising edge)</text>
    <text x="1820" y="1778" text-anchor="middle" fill="#8b98a3">— (hold low)</text>

    <g text-anchor="middle" font-weight="bold"><text x="200" y="1828">2</text><text x="330" y="1828">D51</text></g>
    <text x="520" y="1828" text-anchor="middle">output, always</text>
    <text x="875" y="1828" text-anchor="middle">a</text>
    <text x="1345" y="1828" text-anchor="middle">rst (sync, active high)</text>
    <text x="1820" y="1828" text-anchor="middle">a</text>

    <g text-anchor="middle" font-weight="bold"><text x="200" y="1878">3</text><text x="330" y="1878">D49</text></g>
    <text x="520" y="1878" text-anchor="middle">output, always</text>
    <text x="875" y="1878" text-anchor="middle">b</text>
    <text x="1345" y="1878" text-anchor="middle" fill="#8b98a3">— (hold low)</text>
    <text x="1820" y="1878" text-anchor="middle">b</text>

    <g text-anchor="middle" font-weight="bold"><text x="200" y="1928">4</text><text x="330" y="1928">D47</text></g>
    <text x="520" y="1928" text-anchor="middle">output, always</text>
    <text x="875" y="1928" text-anchor="middle">c</text>
    <text x="1345" y="1928" text-anchor="middle" fill="#8b98a3">— (hold low)</text>
    <text x="1820" y="1928" text-anchor="middle">c</text>

    <g text-anchor="middle" font-weight="bold"><text x="200" y="1978">5</text><text x="330" y="1978">D45</text></g>
    <text x="520" y="1978" text-anchor="middle">output, always</text>
    <text x="875" y="1978" text-anchor="middle">d</text>
    <text x="1345" y="1978" text-anchor="middle" fill="#8b98a3">— (hold low)</text>
    <text x="1820" y="1978" text-anchor="middle">sel</text>

    <g text-anchor="middle" font-weight="bold"><text x="200" y="2028">6</text><text x="330" y="2028">D43</text></g>
    <text x="520" y="2028" text-anchor="middle">output, always</text>
    <text x="875" y="2028" text-anchor="middle">e</text>
    <text x="1345" y="2028" text-anchor="middle" fill="#8b98a3">— (hold low)</text>
    <text x="1820" y="2028" text-anchor="middle" fill="#8b98a3">— (hold low)</text>

    <g text-anchor="middle" font-weight="bold"><text x="200" y="2078">7–11</text><text x="330" y="2078" font-size="19">GND strap ¹</text></g>
    <text x="520" y="2078" text-anchor="middle" fill="#8b98a3">— (no Mega pin)</text>
    <text x="875" y="2078" text-anchor="middle" fill="#8b98a3">—</text>
    <text x="1345" y="2078" text-anchor="middle" fill="#8b98a3">—</text>
    <text x="1820" y="2078" text-anchor="middle" fill="#8b98a3">—</text>

    <g text-anchor="middle" font-weight="bold"><text x="200" y="2128">13</text><text x="330" y="2128">D23</text></g>
    <text x="520" y="2128" text-anchor="middle">output, always</text>
    <text x="875" y="2128" text-anchor="middle">g (plain input)</text>
    <text x="1345" y="2128" text-anchor="middle">/OE (0 = drive) ³</text>
    <text x="1820" y="2128" text-anchor="middle">ena (per-pin OE)</text>

    <g text-anchor="middle" font-weight="bold"><text x="200" y="2178">14, 23</text><text x="330" y="2178" font-size="19">GND strap ¹</text></g>
    <text x="520" y="2178" text-anchor="middle" fill="#8b98a3">— (no Mega pin)</text>
    <text x="875" y="2178" text-anchor="middle" fill="#8b98a3">—</text>
    <text x="1345" y="2178" text-anchor="middle" fill="#8b98a3">—</text>
    <text x="1820" y="2178" text-anchor="middle" fill="#8b98a3">—</text>

    <g text-anchor="middle" font-weight="bold"><text x="200" y="2228">15</text><text x="330" y="2228" fill="#8b98a3">n/c</text></g>
    <text x="520" y="2228" text-anchor="middle" fill="#8b98a3">—</text>
    <text x="875" y="2228" text-anchor="middle" fill="#8b98a3">—</text>
    <text x="1345" y="2228" text-anchor="middle" fill="#8b98a3">—</text>
    <text x="1820" y="2228" text-anchor="middle" fill="#8b98a3">—</text>

    <g text-anchor="middle" font-weight="bold"><text x="200" y="2278">16</text><text x="330" y="2278">D31</text></g>
    <text x="520" y="2278" text-anchor="middle">input, always</text>
    <text x="875" y="2278" text-anchor="middle" fill="#8b98a3">—</text>
    <text x="1345" y="2278" text-anchor="middle" fill="#8b98a3">—</text>
    <text x="1820" y="2278" text-anchor="middle">g = fb # sel</text>

    <g text-anchor="middle" font-weight="bold"><text x="200" y="2328">17</text><text x="330" y="2328">D35</text></g>
    <text x="520" y="2328" text-anchor="middle">input, always</text>
    <text x="875" y="2328" text-anchor="middle">yfg = f &amp; g</text>
    <text x="1345" y="2328" text-anchor="middle">carry = q0&amp;q1&amp;q2</text>
    <text x="1820" y="2328" text-anchor="middle">fb = a &amp; c</text>

    <g text-anchor="middle" font-weight="bold"><text x="200" y="2378">18–19</text><text x="330" y="2378" fill="#8b98a3">n/c ⁴</text></g>
    <text x="520" y="2378" text-anchor="middle" fill="#8b98a3">—</text>
    <text x="875" y="2378" text-anchor="middle" fill="#8b98a3">—</text>
    <text x="1345" y="2378" text-anchor="middle" fill="#8b98a3">—</text>
    <text x="1820" y="2378" text-anchor="middle" fill="#8b98a3">—</text>

    <g text-anchor="middle" font-weight="bold"><text x="200" y="2428">20</text><text x="330" y="2428">D29</text></g>
    <text x="520" y="2428" text-anchor="middle">input, always</text>
    <text x="875" y="2428" text-anchor="middle">yxor = a $ b $ c</text>
    <text x="1345" y="2428" text-anchor="middle">q2 (registered) ³</text>
    <text x="1820" y="2428" text-anchor="middle" fill="#8b98a3">—</text>

    <g text-anchor="middle" font-weight="bold"><text x="200" y="2478">21</text><text x="330" y="2478">D27</text></g>
    <text x="520" y="2478" text-anchor="middle">input (pullup ²)</text>
    <text x="875" y="2478" text-anchor="middle">yor = a#b#c#d#e</text>
    <text x="1345" y="2478" text-anchor="middle">q1 (registered) ³</text>
    <text x="1820" y="2478" text-anchor="middle">y2 = a $ b (ena-gated) ²</text>

    <g text-anchor="middle" font-weight="bold"><text x="200" y="2528">22</text><text x="330" y="2528">D25</text></g>
    <text x="520" y="2528" text-anchor="middle">input, always</text>
    <text x="875" y="2528" text-anchor="middle">yand = a&amp;b&amp;c&amp;d</text>
    <text x="1345" y="2528" text-anchor="middle">q0 (registered) ³</text>
    <text x="1820" y="2528" text-anchor="middle">y1 = a&amp;b # c</text>
  </g>

  <!-- ======================= Footnotes ======================= -->
  <g font-size="21" fill="#1a1a1a">
    <text x="140" y="2586">¹ Unused GAL inputs (7–11, 14, 23) are strapped to GND directly at the socket — no Mega pins needed, keeping the wiring single-row. CMOS inputs must not float.</text>
    <text x="140" y="2618">² Hi-Z check for y2: INPUT_PULLUP on D27, apply a = b (driven y2 would be 0) with ena = 0 — reading 1 proves the pin floated.   ³ /OE is GAL pin 13 here (still D23);</text>
    <text x="140" y="2650">   the registered /OE and clocking procedures are identical to the 16V8.   ⁴ Pins 15/18/19 stay unconnected: unprogrammed OLMCs — 18/19 are the mode-2-forcing pins and may drive; never wire them to a Mega output.</text>
  </g>
</svg>
