<svg xmlns="http://www.w3.org/2000/svg" width="1900" height="2424" viewBox="0 0 1900 2424" font-family="Helvetica, Arial, sans-serif">
<rect x="0" y="0" width="1900" height="2424" fill="#ffffff"/>
<text x="950.0" y="52" text-anchor="middle" font-size="33" font-weight="700" fill="#22303A">Blinky-M virtual front panel &#8212; 32-pin tap on Arduino Mega 2560</text>
<text x="950.0" y="84" text-anchor="middle" font-size="17" fill="#6b7a86">Blinky-M CPU (left) drives the Arduino Mega header (right) via the 2&#215;18 digital header (pins 22&#8211;53). All 32 taps are INPUT &#8212; no series resistors needed. Common ground with the CPU.</text>
<line x1="519.5" y1="120" x2="565.5" y2="120" stroke="#2E7D32" stroke-width="5"/>
<text x="575.5" y="125" font-size="15" fill="#22303A">A bus  (A0&#8211;A15)</text>
<line x1="757.5" y1="120" x2="803.5" y2="120" stroke="#1565C0" stroke-width="5"/>
<text x="813.5" y="125" font-size="15" fill="#22303A">D bus  (D0&#8211;D7)</text>
<line x1="962.5" y1="120" x2="1008.5" y2="120" stroke="#B8860B" stroke-width="5"/>
<text x="1018.5" y="125" font-size="15" fill="#22303A">Control / status</text>
<line x1="1152.5" y1="120" x2="1198.5" y2="120" stroke="#C62828" stroke-width="5"/>
<text x="1208.5" y="125" font-size="15" fill="#22303A">+5 V</text>
<line x1="1270.5" y1="120" x2="1316.5" y2="120" stroke="#1A237E" stroke-width="5"/>
<text x="1326.5" y="125" font-size="15" fill="#22303A">GND</text>
<text x="225" y="242" text-anchor="middle" font-size="20" font-weight="700" fill="#22303A">Blinky-M CPU</text>
<text x="225" y="264" text-anchor="middle" font-size="12.5" fill="#6b7a86">backplane signals</text>
<text x="1675" y="242" text-anchor="middle" font-size="20" font-weight="700" fill="#22303A">Arduino Mega 2560</text>
<text x="1675" y="264" text-anchor="middle" font-size="12.5" fill="#6b7a86">2&#215;18 header &#183; pins 22&#8211;53 &#183; all INPUT</text>
<text x="950" y="248" text-anchor="middle" font-size="12.5" fill="#6b7a86">&#8594;  ribbon tap &#8212; CPU drives, Mega reads</text>
<rect x="305" y="301" width="1290" height="544" rx="10" fill="#E8F5E9" opacity="0.7"/>
<rect x="305" y="845" width="1290" height="272" rx="10" fill="#E3F2FD" opacity="0.7"/>
<rect x="305" y="1117" width="1290" height="272" rx="10" fill="#FFF8E1" opacity="0.7"/>
<text x="66" y="573.0" text-anchor="middle" font-size="13" font-weight="700" fill="#2E7D32" transform="rotate(-90 66 573.0)">EVEN ROW  &#183;  A bus</text>
<text x="66" y="981.0" text-anchor="middle" font-size="13" font-weight="700" fill="#1565C0" transform="rotate(-90 66 981.0)">ODD ROW  &#183;  D bus</text>
<text x="66" y="1253.0" text-anchor="middle" font-size="13" font-weight="700" fill="#B8860B" transform="rotate(-90 66 1253.0)">ODD ROW  &#183;  control</text>
<line x1="300" y1="284" x2="1600" y2="284" stroke="#C62828" stroke-width="2.5"/>
<rect x="150.0" y="270.0" width="150" height="28" rx="6" fill="#FDEBEC" stroke="#C62828" stroke-width="2"/>
<text x="225" y="289" text-anchor="middle" font-size="14" font-weight="700" fill="#22303A">+5 V</text>
<rect x="1600.0" y="270.0" width="150" height="28" rx="6" fill="#FDEBEC" stroke="#C62828" stroke-width="2"/>
<text x="1675" y="289" text-anchor="middle" font-size="14" font-weight="700" fill="#22303A">5 V &#215;2</text>
<line x1="300" y1="318" x2="1600" y2="318" stroke="#2E7D32" stroke-width="2.5"/>
<rect x="150.0" y="304.0" width="150" height="28" rx="6" fill="#E8F5E9" stroke="#2E7D32" stroke-width="2"/>
<text x="225" y="323" text-anchor="middle" font-size="14" font-weight="700" fill="#22303A">A0</text>
<rect x="1600.0" y="304.0" width="150" height="28" rx="6" fill="#E8F5E9" stroke="#2E7D32" stroke-width="2"/>
<text x="1675" y="323" text-anchor="middle" font-size="14" font-weight="700" fill="#22303A">22</text>
<line x1="300" y1="352" x2="1600" y2="352" stroke="#2E7D32" stroke-width="2.5"/>
<rect x="150.0" y="338.0" width="150" height="28" rx="6" fill="#E8F5E9" stroke="#2E7D32" stroke-width="2"/>
<text x="225" y="357" text-anchor="middle" font-size="14" font-weight="700" fill="#22303A">A1</text>
<rect x="1600.0" y="338.0" width="150" height="28" rx="6" fill="#E8F5E9" stroke="#2E7D32" stroke-width="2"/>
<text x="1675" y="357" text-anchor="middle" font-size="14" font-weight="700" fill="#22303A">24</text>
<line x1="300" y1="386" x2="1600" y2="386" stroke="#2E7D32" stroke-width="2.5"/>
<rect x="150.0" y="372.0" width="150" height="28" rx="6" fill="#E8F5E9" stroke="#2E7D32" stroke-width="2"/>
<text x="225" y="391" text-anchor="middle" font-size="14" font-weight="700" fill="#22303A">A2</text>
<rect x="1600.0" y="372.0" width="150" height="28" rx="6" fill="#E8F5E9" stroke="#2E7D32" stroke-width="2"/>
<text x="1675" y="391" text-anchor="middle" font-size="14" font-weight="700" fill="#22303A">26</text>
<line x1="300" y1="420" x2="1600" y2="420" stroke="#2E7D32" stroke-width="2.5"/>
<rect x="150.0" y="406.0" width="150" height="28" rx="6" fill="#E8F5E9" stroke="#2E7D32" stroke-width="2"/>
<text x="225" y="425" text-anchor="middle" font-size="14" font-weight="700" fill="#22303A">A3</text>
<rect x="1600.0" y="406.0" width="150" height="28" rx="6" fill="#E8F5E9" stroke="#2E7D32" stroke-width="2"/>
<text x="1675" y="425" text-anchor="middle" font-size="14" font-weight="700" fill="#22303A">28</text>
<line x1="300" y1="454" x2="1600" y2="454" stroke="#2E7D32" stroke-width="2.5"/>
<rect x="150.0" y="440.0" width="150" height="28" rx="6" fill="#E8F5E9" stroke="#2E7D32" stroke-width="2"/>
<text x="225" y="459" text-anchor="middle" font-size="14" font-weight="700" fill="#22303A">A4</text>
<rect x="1600.0" y="440.0" width="150" height="28" rx="6" fill="#E8F5E9" stroke="#2E7D32" stroke-width="2"/>
<text x="1675" y="459" text-anchor="middle" font-size="14" font-weight="700" fill="#22303A">30</text>
<line x1="300" y1="488" x2="1600" y2="488" stroke="#2E7D32" stroke-width="2.5"/>
<rect x="150.0" y="474.0" width="150" height="28" rx="6" fill="#E8F5E9" stroke="#2E7D32" stroke-width="2"/>
<text x="225" y="493" text-anchor="middle" font-size="14" font-weight="700" fill="#22303A">A5</text>
<rect x="1600.0" y="474.0" width="150" height="28" rx="6" fill="#E8F5E9" stroke="#2E7D32" stroke-width="2"/>
<text x="1675" y="493" text-anchor="middle" font-size="14" font-weight="700" fill="#22303A">32</text>
<line x1="300" y1="522" x2="1600" y2="522" stroke="#2E7D32" stroke-width="2.5"/>
<rect x="150.0" y="508.0" width="150" height="28" rx="6" fill="#E8F5E9" stroke="#2E7D32" stroke-width="2"/>
<text x="225" y="527" text-anchor="middle" font-size="14" font-weight="700" fill="#22303A">A6</text>
<rect x="1600.0" y="508.0" width="150" height="28" rx="6" fill="#E8F5E9" stroke="#2E7D32" stroke-width="2"/>
<text x="1675" y="527" text-anchor="middle" font-size="14" font-weight="700" fill="#22303A">34</text>
<line x1="300" y1="556" x2="1600" y2="556" stroke="#2E7D32" stroke-width="2.5"/>
<rect x="150.0" y="542.0" width="150" height="28" rx="6" fill="#E8F5E9" stroke="#2E7D32" stroke-width="2"/>
<text x="225" y="561" text-anchor="middle" font-size="14" font-weight="700" fill="#22303A">A7</text>
<rect x="1600.0" y="542.0" width="150" height="28" rx="6" fill="#E8F5E9" stroke="#2E7D32" stroke-width="2"/>
<text x="1675" y="561" text-anchor="middle" font-size="14" font-weight="700" fill="#22303A">36</text>
<line x1="300" y1="590" x2="1600" y2="590" stroke="#2E7D32" stroke-width="2.5"/>
<rect x="150.0" y="576.0" width="150" height="28" rx="6" fill="#E8F5E9" stroke="#2E7D32" stroke-width="2"/>
<text x="225" y="595" text-anchor="middle" font-size="14" font-weight="700" fill="#22303A">A8</text>
<rect x="1600.0" y="576.0" width="150" height="28" rx="6" fill="#E8F5E9" stroke="#2E7D32" stroke-width="2"/>
<text x="1675" y="595" text-anchor="middle" font-size="14" font-weight="700" fill="#22303A">38</text>
<line x1="300" y1="624" x2="1600" y2="624" stroke="#2E7D32" stroke-width="2.5"/>
<rect x="150.0" y="610.0" width="150" height="28" rx="6" fill="#E8F5E9" stroke="#2E7D32" stroke-width="2"/>
<text x="225" y="629" text-anchor="middle" font-size="14" font-weight="700" fill="#22303A">A9</text>
<rect x="1600.0" y="610.0" width="150" height="28" rx="6" fill="#E8F5E9" stroke="#2E7D32" stroke-width="2"/>
<text x="1675" y="629" text-anchor="middle" font-size="14" font-weight="700" fill="#22303A">40</text>
<line x1="300" y1="658" x2="1600" y2="658" stroke="#2E7D32" stroke-width="2.5"/>
<rect x="150.0" y="644.0" width="150" height="28" rx="6" fill="#E8F5E9" stroke="#2E7D32" stroke-width="2"/>
<text x="225" y="663" text-anchor="middle" font-size="14" font-weight="700" fill="#22303A">A10</text>
<rect x="1600.0" y="644.0" width="150" height="28" rx="6" fill="#E8F5E9" stroke="#2E7D32" stroke-width="2"/>
<text x="1675" y="663" text-anchor="middle" font-size="14" font-weight="700" fill="#22303A">42</text>
<line x1="300" y1="692" x2="1600" y2="692" stroke="#2E7D32" stroke-width="2.5"/>
<rect x="150.0" y="678.0" width="150" height="28" rx="6" fill="#E8F5E9" stroke="#2E7D32" stroke-width="2"/>
<text x="225" y="697" text-anchor="middle" font-size="14" font-weight="700" fill="#22303A">A11</text>
<rect x="1600.0" y="678.0" width="150" height="28" rx="6" fill="#E8F5E9" stroke="#2E7D32" stroke-width="2"/>
<text x="1675" y="697" text-anchor="middle" font-size="14" font-weight="700" fill="#22303A">44</text>
<line x1="300" y1="726" x2="1600" y2="726" stroke="#2E7D32" stroke-width="2.5"/>
<rect x="150.0" y="712.0" width="150" height="28" rx="6" fill="#E8F5E9" stroke="#2E7D32" stroke-width="2"/>
<text x="225" y="731" text-anchor="middle" font-size="14" font-weight="700" fill="#22303A">A12</text>
<rect x="1600.0" y="712.0" width="150" height="28" rx="6" fill="#E8F5E9" stroke="#2E7D32" stroke-width="2"/>
<text x="1675" y="731" text-anchor="middle" font-size="14" font-weight="700" fill="#22303A">46</text>
<line x1="300" y1="760" x2="1600" y2="760" stroke="#2E7D32" stroke-width="2.5"/>
<rect x="150.0" y="746.0" width="150" height="28" rx="6" fill="#E8F5E9" stroke="#2E7D32" stroke-width="2"/>
<text x="225" y="765" text-anchor="middle" font-size="14" font-weight="700" fill="#22303A">A13</text>
<rect x="1600.0" y="746.0" width="150" height="28" rx="6" fill="#E8F5E9" stroke="#2E7D32" stroke-width="2"/>
<text x="1675" y="765" text-anchor="middle" font-size="14" font-weight="700" fill="#22303A">48</text>
<line x1="300" y1="794" x2="1600" y2="794" stroke="#2E7D32" stroke-width="2.5"/>
<rect x="150.0" y="780.0" width="150" height="28" rx="6" fill="#E8F5E9" stroke="#2E7D32" stroke-width="2"/>
<text x="225" y="799" text-anchor="middle" font-size="14" font-weight="700" fill="#22303A">A14</text>
<rect x="1600.0" y="780.0" width="150" height="28" rx="6" fill="#E8F5E9" stroke="#2E7D32" stroke-width="2"/>
<text x="1675" y="799" text-anchor="middle" font-size="14" font-weight="700" fill="#22303A">50</text>
<line x1="300" y1="828" x2="1600" y2="828" stroke="#2E7D32" stroke-width="2.5"/>
<rect x="150.0" y="814.0" width="150" height="28" rx="6" fill="#E8F5E9" stroke="#2E7D32" stroke-width="2"/>
<text x="225" y="833" text-anchor="middle" font-size="14" font-weight="700" fill="#22303A">A15</text>
<rect x="1600.0" y="814.0" width="150" height="28" rx="6" fill="#E8F5E9" stroke="#2E7D32" stroke-width="2"/>
<text x="1675" y="833" text-anchor="middle" font-size="14" font-weight="700" fill="#22303A">52</text>
<line x1="300" y1="862" x2="1600" y2="862" stroke="#1565C0" stroke-width="2.5"/>
<rect x="150.0" y="848.0" width="150" height="28" rx="6" fill="#E3F2FD" stroke="#1565C0" stroke-width="2"/>
<text x="225" y="867" text-anchor="middle" font-size="14" font-weight="700" fill="#22303A">D0</text>
<rect x="1600.0" y="848.0" width="150" height="28" rx="6" fill="#E3F2FD" stroke="#1565C0" stroke-width="2"/>
<text x="1675" y="867" text-anchor="middle" font-size="14" font-weight="700" fill="#22303A">23</text>
<line x1="300" y1="896" x2="1600" y2="896" stroke="#1565C0" stroke-width="2.5"/>
<rect x="150.0" y="882.0" width="150" height="28" rx="6" fill="#E3F2FD" stroke="#1565C0" stroke-width="2"/>
<text x="225" y="901" text-anchor="middle" font-size="14" font-weight="700" fill="#22303A">D1</text>
<rect x="1600.0" y="882.0" width="150" height="28" rx="6" fill="#E3F2FD" stroke="#1565C0" stroke-width="2"/>
<text x="1675" y="901" text-anchor="middle" font-size="14" font-weight="700" fill="#22303A">25</text>
<line x1="300" y1="930" x2="1600" y2="930" stroke="#1565C0" stroke-width="2.5"/>
<rect x="150.0" y="916.0" width="150" height="28" rx="6" fill="#E3F2FD" stroke="#1565C0" stroke-width="2"/>
<text x="225" y="935" text-anchor="middle" font-size="14" font-weight="700" fill="#22303A">D2</text>
<rect x="1600.0" y="916.0" width="150" height="28" rx="6" fill="#E3F2FD" stroke="#1565C0" stroke-width="2"/>
<text x="1675" y="935" text-anchor="middle" font-size="14" font-weight="700" fill="#22303A">27</text>
<line x1="300" y1="964" x2="1600" y2="964" stroke="#1565C0" stroke-width="2.5"/>
<rect x="150.0" y="950.0" width="150" height="28" rx="6" fill="#E3F2FD" stroke="#1565C0" stroke-width="2"/>
<text x="225" y="969" text-anchor="middle" font-size="14" font-weight="700" fill="#22303A">D3</text>
<rect x="1600.0" y="950.0" width="150" height="28" rx="6" fill="#E3F2FD" stroke="#1565C0" stroke-width="2"/>
<text x="1675" y="969" text-anchor="middle" font-size="14" font-weight="700" fill="#22303A">29</text>
<line x1="300" y1="998" x2="1600" y2="998" stroke="#1565C0" stroke-width="2.5"/>
<rect x="150.0" y="984.0" width="150" height="28" rx="6" fill="#E3F2FD" stroke="#1565C0" stroke-width="2"/>
<text x="225" y="1003" text-anchor="middle" font-size="14" font-weight="700" fill="#22303A">D4</text>
<rect x="1600.0" y="984.0" width="150" height="28" rx="6" fill="#E3F2FD" stroke="#1565C0" stroke-width="2"/>
<text x="1675" y="1003" text-anchor="middle" font-size="14" font-weight="700" fill="#22303A">31</text>
<line x1="300" y1="1032" x2="1600" y2="1032" stroke="#1565C0" stroke-width="2.5"/>
<rect x="150.0" y="1018.0" width="150" height="28" rx="6" fill="#E3F2FD" stroke="#1565C0" stroke-width="2"/>
<text x="225" y="1037" text-anchor="middle" font-size="14" font-weight="700" fill="#22303A">D5</text>
<rect x="1600.0" y="1018.0" width="150" height="28" rx="6" fill="#E3F2FD" stroke="#1565C0" stroke-width="2"/>
<text x="1675" y="1037" text-anchor="middle" font-size="14" font-weight="700" fill="#22303A">33</text>
<line x1="300" y1="1066" x2="1600" y2="1066" stroke="#1565C0" stroke-width="2.5"/>
<rect x="150.0" y="1052.0" width="150" height="28" rx="6" fill="#E3F2FD" stroke="#1565C0" stroke-width="2"/>
<text x="225" y="1071" text-anchor="middle" font-size="14" font-weight="700" fill="#22303A">D6</text>
<rect x="1600.0" y="1052.0" width="150" height="28" rx="6" fill="#E3F2FD" stroke="#1565C0" stroke-width="2"/>
<text x="1675" y="1071" text-anchor="middle" font-size="14" font-weight="700" fill="#22303A">35</text>
<line x1="300" y1="1100" x2="1600" y2="1100" stroke="#1565C0" stroke-width="2.5"/>
<rect x="150.0" y="1086.0" width="150" height="28" rx="6" fill="#E3F2FD" stroke="#1565C0" stroke-width="2"/>
<text x="225" y="1105" text-anchor="middle" font-size="14" font-weight="700" fill="#22303A">D7</text>
<rect x="1600.0" y="1086.0" width="150" height="28" rx="6" fill="#E3F2FD" stroke="#1565C0" stroke-width="2"/>
<text x="1675" y="1105" text-anchor="middle" font-size="14" font-weight="700" fill="#22303A">37</text>
<line x1="300" y1="1134" x2="1600" y2="1134" stroke="#B8860B" stroke-width="2.5"/>
<rect x="150.0" y="1120.0" width="150" height="28" rx="6" fill="#FFF8E1" stroke="#B8860B" stroke-width="2"/>
<text x="225" y="1139" text-anchor="middle" font-size="14" font-weight="700" fill="#22303A">CLKG</text>
<rect x="1600.0" y="1120.0" width="150" height="28" rx="6" fill="#FFF8E1" stroke="#B8860B" stroke-width="2"/>
<text x="1675" y="1139" text-anchor="middle" font-size="14" font-weight="700" fill="#22303A">39</text>
<line x1="300" y1="1168" x2="1600" y2="1168" stroke="#B8860B" stroke-width="2.5"/>
<rect x="150.0" y="1154.0" width="150" height="28" rx="6" fill="#FFF8E1" stroke="#B8860B" stroke-width="2"/>
<text x="225" y="1173" text-anchor="middle" font-size="14" font-weight="700" fill="#22303A">/RESET</text>
<rect x="1600.0" y="1154.0" width="150" height="28" rx="6" fill="#FFF8E1" stroke="#B8860B" stroke-width="2"/>
<text x="1675" y="1173" text-anchor="middle" font-size="14" font-weight="700" fill="#22303A">41</text>
<line x1="300" y1="1202" x2="1600" y2="1202" stroke="#B8860B" stroke-width="2.5"/>
<rect x="150.0" y="1188.0" width="150" height="28" rx="6" fill="#FFF8E1" stroke="#B8860B" stroke-width="2"/>
<text x="225" y="1207" text-anchor="middle" font-size="14" font-weight="700" fill="#22303A">/FETCH</text>
<rect x="1600.0" y="1188.0" width="150" height="28" rx="6" fill="#FFF8E1" stroke="#B8860B" stroke-width="2"/>
<text x="1675" y="1207" text-anchor="middle" font-size="14" font-weight="700" fill="#22303A">43</text>
<line x1="300" y1="1236" x2="1600" y2="1236" stroke="#B8860B" stroke-width="2.5"/>
<rect x="150.0" y="1222.0" width="150" height="28" rx="6" fill="#FFF8E1" stroke="#B8860B" stroke-width="2"/>
<text x="225" y="1241" text-anchor="middle" font-size="14" font-weight="700" fill="#22303A">T0</text>
<rect x="1600.0" y="1222.0" width="150" height="28" rx="6" fill="#FFF8E1" stroke="#B8860B" stroke-width="2"/>
<text x="1675" y="1241" text-anchor="middle" font-size="14" font-weight="700" fill="#22303A">45</text>
<line x1="300" y1="1270" x2="1600" y2="1270" stroke="#B8860B" stroke-width="2.5"/>
<rect x="150.0" y="1256.0" width="150" height="28" rx="6" fill="#FFF8E1" stroke="#B8860B" stroke-width="2"/>
<text x="225" y="1275" text-anchor="middle" font-size="14" font-weight="700" fill="#22303A">T1</text>
<rect x="1600.0" y="1256.0" width="150" height="28" rx="6" fill="#FFF8E1" stroke="#B8860B" stroke-width="2"/>
<text x="1675" y="1275" text-anchor="middle" font-size="14" font-weight="700" fill="#22303A">47</text>
<line x1="300" y1="1304" x2="1600" y2="1304" stroke="#B8860B" stroke-width="2.5"/>
<rect x="150.0" y="1290.0" width="150" height="28" rx="6" fill="#FFF8E1" stroke="#B8860B" stroke-width="2"/>
<text x="225" y="1309" text-anchor="middle" font-size="14" font-weight="700" fill="#22303A">T2</text>
<rect x="1600.0" y="1290.0" width="150" height="28" rx="6" fill="#FFF8E1" stroke="#B8860B" stroke-width="2"/>
<text x="1675" y="1309" text-anchor="middle" font-size="14" font-weight="700" fill="#22303A">49</text>
<line x1="300" y1="1338" x2="1600" y2="1338" stroke="#B8860B" stroke-width="2.5"/>
<rect x="150.0" y="1324.0" width="150" height="28" rx="6" fill="#FFF8E1" stroke="#B8860B" stroke-width="2"/>
<text x="225" y="1343" text-anchor="middle" font-size="14" font-weight="700" fill="#22303A">HALT</text>
<rect x="1600.0" y="1324.0" width="150" height="28" rx="6" fill="#FFF8E1" stroke="#B8860B" stroke-width="2"/>
<text x="1675" y="1343" text-anchor="middle" font-size="14" font-weight="700" fill="#22303A">51</text>
<line x1="300" y1="1372" x2="1600" y2="1372" stroke="#B8860B" stroke-width="2.5"/>
<rect x="150.0" y="1358.0" width="150" height="28" rx="6" fill="#FFF8E1" stroke="#B8860B" stroke-width="2"/>
<text x="225" y="1377" text-anchor="middle" font-size="14" font-weight="700" fill="#22303A">N</text>
<rect x="1600.0" y="1358.0" width="150" height="28" rx="6" fill="#FFF8E1" stroke="#B8860B" stroke-width="2"/>
<text x="1675" y="1377" text-anchor="middle" font-size="14" font-weight="700" fill="#22303A">53</text>
<line x1="300" y1="1406" x2="1600" y2="1406" stroke="#1A237E" stroke-width="2.5"/>
<rect x="150.0" y="1392.0" width="150" height="28" rx="6" fill="#E8EAF6" stroke="#1A237E" stroke-width="2"/>
<text x="225" y="1411" text-anchor="middle" font-size="14" font-weight="700" fill="#22303A">GND</text>
<rect x="1600.0" y="1392.0" width="150" height="28" rx="6" fill="#E8EAF6" stroke="#1A237E" stroke-width="2"/>
<text x="1675" y="1411" text-anchor="middle" font-size="14" font-weight="700" fill="#22303A">GND &#215;2</text>
<text x="950.0" y="1440" text-anchor="middle" font-size="14" font-weight="700" fill="#22303A">All wiring is straight-across: Mega header pin &#8594; CPU signal, one ribbon conductor each.</text>
<text x="950.0" y="1460" text-anchor="middle" font-size="12.5" fill="#6b7a86">Grouped by bus here for clarity; the physical connector interleaves even/odd &#8212; see below.</text>
<text x="950.0" y="1516" text-anchor="middle" font-size="19" font-weight="700" fill="#22303A">Physical view &#8212; one 2&#215;18 connector (even row = A bus &#183; odd row = D bus + control)</text>
<text x="60" y="1577.0" text-anchor="middle" font-size="14" font-weight="700" fill="#6b7a86">even</text>
<text x="60" y="1639.0" text-anchor="middle" font-size="14" font-weight="700" fill="#6b7a86">odd</text>
<rect x="94" y="1546" width="94" height="54" rx="6" fill="#E8EAF6" stroke="#1A237E" stroke-width="2"/>
<text x="141.0" y="1568" text-anchor="middle" font-size="14" font-weight="700" fill="#22303A">GND</text>
<text x="141.0" y="1588" text-anchor="middle" font-size="12.5" fill="#1A237E">GND</text>
<rect x="193" y="1546" width="94" height="54" rx="6" fill="#E8F5E9" stroke="#2E7D32" stroke-width="2"/>
<text x="240.0" y="1568" text-anchor="middle" font-size="14" font-weight="700" fill="#22303A">52</text>
<text x="240.0" y="1588" text-anchor="middle" font-size="12.5" fill="#2E7D32">A15</text>
<rect x="292" y="1546" width="94" height="54" rx="6" fill="#E8F5E9" stroke="#2E7D32" stroke-width="2"/>
<text x="339.0" y="1568" text-anchor="middle" font-size="14" font-weight="700" fill="#22303A">50</text>
<text x="339.0" y="1588" text-anchor="middle" font-size="12.5" fill="#2E7D32">A14</text>
<rect x="391" y="1546" width="94" height="54" rx="6" fill="#E8F5E9" stroke="#2E7D32" stroke-width="2"/>
<text x="438.0" y="1568" text-anchor="middle" font-size="14" font-weight="700" fill="#22303A">48</text>
<text x="438.0" y="1588" text-anchor="middle" font-size="12.5" fill="#2E7D32">A13</text>
<rect x="490" y="1546" width="94" height="54" rx="6" fill="#E8F5E9" stroke="#2E7D32" stroke-width="2"/>
<text x="537.0" y="1568" text-anchor="middle" font-size="14" font-weight="700" fill="#22303A">46</text>
<text x="537.0" y="1588" text-anchor="middle" font-size="12.5" fill="#2E7D32">A12</text>
<rect x="589" y="1546" width="94" height="54" rx="6" fill="#E8F5E9" stroke="#2E7D32" stroke-width="2"/>
<text x="636.0" y="1568" text-anchor="middle" font-size="14" font-weight="700" fill="#22303A">44</text>
<text x="636.0" y="1588" text-anchor="middle" font-size="12.5" fill="#2E7D32">A11</text>
<rect x="688" y="1546" width="94" height="54" rx="6" fill="#E8F5E9" stroke="#2E7D32" stroke-width="2"/>
<text x="735.0" y="1568" text-anchor="middle" font-size="14" font-weight="700" fill="#22303A">42</text>
<text x="735.0" y="1588" text-anchor="middle" font-size="12.5" fill="#2E7D32">A10</text>
<rect x="787" y="1546" width="94" height="54" rx="6" fill="#E8F5E9" stroke="#2E7D32" stroke-width="2"/>
<text x="834.0" y="1568" text-anchor="middle" font-size="14" font-weight="700" fill="#22303A">40</text>
<text x="834.0" y="1588" text-anchor="middle" font-size="12.5" fill="#2E7D32">A9</text>
<rect x="886" y="1546" width="94" height="54" rx="6" fill="#E8F5E9" stroke="#2E7D32" stroke-width="2"/>
<text x="933.0" y="1568" text-anchor="middle" font-size="14" font-weight="700" fill="#22303A">38</text>
<text x="933.0" y="1588" text-anchor="middle" font-size="12.5" fill="#2E7D32">A8</text>
<rect x="985" y="1546" width="94" height="54" rx="6" fill="#E8F5E9" stroke="#2E7D32" stroke-width="2"/>
<text x="1032.0" y="1568" text-anchor="middle" font-size="14" font-weight="700" fill="#22303A">36</text>
<text x="1032.0" y="1588" text-anchor="middle" font-size="12.5" fill="#2E7D32">A7</text>
<rect x="1084" y="1546" width="94" height="54" rx="6" fill="#E8F5E9" stroke="#2E7D32" stroke-width="2"/>
<text x="1131.0" y="1568" text-anchor="middle" font-size="14" font-weight="700" fill="#22303A">34</text>
<text x="1131.0" y="1588" text-anchor="middle" font-size="12.5" fill="#2E7D32">A6</text>
<rect x="1183" y="1546" width="94" height="54" rx="6" fill="#E8F5E9" stroke="#2E7D32" stroke-width="2"/>
<text x="1230.0" y="1568" text-anchor="middle" font-size="14" font-weight="700" fill="#22303A">32</text>
<text x="1230.0" y="1588" text-anchor="middle" font-size="12.5" fill="#2E7D32">A5</text>
<rect x="1282" y="1546" width="94" height="54" rx="6" fill="#E8F5E9" stroke="#2E7D32" stroke-width="2"/>
<text x="1329.0" y="1568" text-anchor="middle" font-size="14" font-weight="700" fill="#22303A">30</text>
<text x="1329.0" y="1588" text-anchor="middle" font-size="12.5" fill="#2E7D32">A4</text>
<rect x="1381" y="1546" width="94" height="54" rx="6" fill="#E8F5E9" stroke="#2E7D32" stroke-width="2"/>
<text x="1428.0" y="1568" text-anchor="middle" font-size="14" font-weight="700" fill="#22303A">28</text>
<text x="1428.0" y="1588" text-anchor="middle" font-size="12.5" fill="#2E7D32">A3</text>
<rect x="1480" y="1546" width="94" height="54" rx="6" fill="#E8F5E9" stroke="#2E7D32" stroke-width="2"/>
<text x="1527.0" y="1568" text-anchor="middle" font-size="14" font-weight="700" fill="#22303A">26</text>
<text x="1527.0" y="1588" text-anchor="middle" font-size="12.5" fill="#2E7D32">A2</text>
<rect x="1579" y="1546" width="94" height="54" rx="6" fill="#E8F5E9" stroke="#2E7D32" stroke-width="2"/>
<text x="1626.0" y="1568" text-anchor="middle" font-size="14" font-weight="700" fill="#22303A">24</text>
<text x="1626.0" y="1588" text-anchor="middle" font-size="12.5" fill="#2E7D32">A1</text>
<rect x="1678" y="1546" width="94" height="54" rx="6" fill="#E8F5E9" stroke="#2E7D32" stroke-width="2"/>
<text x="1725.0" y="1568" text-anchor="middle" font-size="14" font-weight="700" fill="#22303A">22</text>
<text x="1725.0" y="1588" text-anchor="middle" font-size="12.5" fill="#2E7D32">A0</text>
<rect x="1777" y="1546" width="94" height="54" rx="6" fill="#FDEBEC" stroke="#C62828" stroke-width="2"/>
<text x="1824.0" y="1568" text-anchor="middle" font-size="14" font-weight="700" fill="#22303A">5V</text>
<text x="1824.0" y="1588" text-anchor="middle" font-size="12.5" fill="#C62828">+5 V</text>
<rect x="94" y="1608" width="94" height="54" rx="6" fill="#E8EAF6" stroke="#1A237E" stroke-width="2"/>
<text x="141.0" y="1630" text-anchor="middle" font-size="14" font-weight="700" fill="#22303A">GND</text>
<text x="141.0" y="1650" text-anchor="middle" font-size="12.5" fill="#1A237E">GND</text>
<rect x="193" y="1608" width="94" height="54" rx="6" fill="#FFF8E1" stroke="#B8860B" stroke-width="2"/>
<text x="240.0" y="1630" text-anchor="middle" font-size="14" font-weight="700" fill="#22303A">53</text>
<text x="240.0" y="1650" text-anchor="middle" font-size="12.5" fill="#B8860B">N</text>
<rect x="292" y="1608" width="94" height="54" rx="6" fill="#FFF8E1" stroke="#B8860B" stroke-width="2"/>
<text x="339.0" y="1630" text-anchor="middle" font-size="14" font-weight="700" fill="#22303A">51</text>
<text x="339.0" y="1650" text-anchor="middle" font-size="12.5" fill="#B8860B">HALT</text>
<rect x="391" y="1608" width="94" height="54" rx="6" fill="#FFF8E1" stroke="#B8860B" stroke-width="2"/>
<text x="438.0" y="1630" text-anchor="middle" font-size="14" font-weight="700" fill="#22303A">49</text>
<text x="438.0" y="1650" text-anchor="middle" font-size="12.5" fill="#B8860B">T2</text>
<rect x="490" y="1608" width="94" height="54" rx="6" fill="#FFF8E1" stroke="#B8860B" stroke-width="2"/>
<text x="537.0" y="1630" text-anchor="middle" font-size="14" font-weight="700" fill="#22303A">47</text>
<text x="537.0" y="1650" text-anchor="middle" font-size="12.5" fill="#B8860B">T1</text>
<rect x="589" y="1608" width="94" height="54" rx="6" fill="#FFF8E1" stroke="#B8860B" stroke-width="2"/>
<text x="636.0" y="1630" text-anchor="middle" font-size="14" font-weight="700" fill="#22303A">45</text>
<text x="636.0" y="1650" text-anchor="middle" font-size="12.5" fill="#B8860B">T0</text>
<rect x="688" y="1608" width="94" height="54" rx="6" fill="#FFF8E1" stroke="#B8860B" stroke-width="2"/>
<text x="735.0" y="1630" text-anchor="middle" font-size="14" font-weight="700" fill="#22303A">43</text>
<text x="735.0" y="1650" text-anchor="middle" font-size="12.5" fill="#B8860B">/FETCH</text>
<rect x="787" y="1608" width="94" height="54" rx="6" fill="#FFF8E1" stroke="#B8860B" stroke-width="2"/>
<text x="834.0" y="1630" text-anchor="middle" font-size="14" font-weight="700" fill="#22303A">41</text>
<text x="834.0" y="1650" text-anchor="middle" font-size="12.5" fill="#B8860B">/RESET</text>
<rect x="886" y="1608" width="94" height="54" rx="6" fill="#FFF8E1" stroke="#B8860B" stroke-width="2"/>
<text x="933.0" y="1630" text-anchor="middle" font-size="14" font-weight="700" fill="#22303A">39</text>
<text x="933.0" y="1650" text-anchor="middle" font-size="12.5" fill="#B8860B">CLKG</text>
<rect x="985" y="1608" width="94" height="54" rx="6" fill="#E3F2FD" stroke="#1565C0" stroke-width="2"/>
<text x="1032.0" y="1630" text-anchor="middle" font-size="14" font-weight="700" fill="#22303A">37</text>
<text x="1032.0" y="1650" text-anchor="middle" font-size="12.5" fill="#1565C0">D7</text>
<rect x="1084" y="1608" width="94" height="54" rx="6" fill="#E3F2FD" stroke="#1565C0" stroke-width="2"/>
<text x="1131.0" y="1630" text-anchor="middle" font-size="14" font-weight="700" fill="#22303A">35</text>
<text x="1131.0" y="1650" text-anchor="middle" font-size="12.5" fill="#1565C0">D6</text>
<rect x="1183" y="1608" width="94" height="54" rx="6" fill="#E3F2FD" stroke="#1565C0" stroke-width="2"/>
<text x="1230.0" y="1630" text-anchor="middle" font-size="14" font-weight="700" fill="#22303A">33</text>
<text x="1230.0" y="1650" text-anchor="middle" font-size="12.5" fill="#1565C0">D5</text>
<rect x="1282" y="1608" width="94" height="54" rx="6" fill="#E3F2FD" stroke="#1565C0" stroke-width="2"/>
<text x="1329.0" y="1630" text-anchor="middle" font-size="14" font-weight="700" fill="#22303A">31</text>
<text x="1329.0" y="1650" text-anchor="middle" font-size="12.5" fill="#1565C0">D4</text>
<rect x="1381" y="1608" width="94" height="54" rx="6" fill="#E3F2FD" stroke="#1565C0" stroke-width="2"/>
<text x="1428.0" y="1630" text-anchor="middle" font-size="14" font-weight="700" fill="#22303A">29</text>
<text x="1428.0" y="1650" text-anchor="middle" font-size="12.5" fill="#1565C0">D3</text>
<rect x="1480" y="1608" width="94" height="54" rx="6" fill="#E3F2FD" stroke="#1565C0" stroke-width="2"/>
<text x="1527.0" y="1630" text-anchor="middle" font-size="14" font-weight="700" fill="#22303A">27</text>
<text x="1527.0" y="1650" text-anchor="middle" font-size="12.5" fill="#1565C0">D2</text>
<rect x="1579" y="1608" width="94" height="54" rx="6" fill="#E3F2FD" stroke="#1565C0" stroke-width="2"/>
<text x="1626.0" y="1630" text-anchor="middle" font-size="14" font-weight="700" fill="#22303A">25</text>
<text x="1626.0" y="1650" text-anchor="middle" font-size="12.5" fill="#1565C0">D1</text>
<rect x="1678" y="1608" width="94" height="54" rx="6" fill="#E3F2FD" stroke="#1565C0" stroke-width="2"/>
<text x="1725.0" y="1630" text-anchor="middle" font-size="14" font-weight="700" fill="#22303A">23</text>
<text x="1725.0" y="1650" text-anchor="middle" font-size="12.5" fill="#1565C0">D0</text>
<rect x="1777" y="1608" width="94" height="54" rx="6" fill="#FDEBEC" stroke="#C62828" stroke-width="2"/>
<text x="1824.0" y="1630" text-anchor="middle" font-size="14" font-weight="700" fill="#22303A">5V</text>
<text x="1824.0" y="1650" text-anchor="middle" font-size="12.5" fill="#C62828">+5 V</text>
<text x="950.0" y="1688" text-anchor="middle" font-size="12.5" fill="#6b7a86">board edge below &#183; GND pair at the left end, 5 V pair at the right end &#183; pins descend left &#8594; right &#183; both rows are the same connector</text>
<rect x="70" y="1720" width="1760" height="40" fill="#2F3E46"/>
<text x="84" y="1746" font-size="15" font-weight="700" fill="#ffffff">Mega pin</text>
<text x="254" y="1746" font-size="15" font-weight="700" fill="#ffffff">Row</text>
<text x="349" y="1746" font-size="15" font-weight="700" fill="#ffffff">Signal</text>
<text x="544" y="1746" font-size="15" font-weight="700" fill="#ffffff">Bus / group</text>
<text x="739" y="1746" font-size="15" font-weight="700" fill="#ffffff">Mega dir</text>
<text x="919" y="1746" font-size="15" font-weight="700" fill="#ffffff">Notes</text>
<rect x="70" y="1760" width="1760" height="42" fill="#ffffff"/>
<text x="84" y="1787" font-size="14" font-weight="700" fill="#22303A">22 &#8211; 52  (even)</text>
<text x="254" y="1787" font-size="14" font-weight="400" fill="#22303A">even</text>
<text x="349" y="1787" font-size="14" font-weight="700" fill="#2E7D32">A0 &#8211; A15</text>
<text x="544" y="1787" font-size="14" font-weight="400" fill="#22303A">A bus</text>
<text x="739" y="1787" font-size="14" font-weight="400" fill="#22303A">input, always</text>
<text x="919" y="1787" font-size="14" font-weight="400" fill="#22303A">&#8217;541-buffered &#8212; always driven, so plain INPUT reads clean.</text>
<rect x="70" y="1760" width="5" height="42" fill="#2E7D32"/>
<rect x="70" y="1802" width="1760" height="42" fill="#F4F7F8"/>
<text x="84" y="1829" font-size="14" font-weight="700" fill="#22303A">23 &#8211; 37  (odd)</text>
<text x="254" y="1829" font-size="14" font-weight="400" fill="#22303A">odd</text>
<text x="349" y="1829" font-size="14" font-weight="700" fill="#1565C0">D0 &#8211; D7</text>
<text x="544" y="1829" font-size="14" font-weight="400" fill="#22303A">D bus</text>
<text x="739" y="1829" font-size="14" font-weight="400" fill="#22303A">input, always</text>
<text x="919" y="1829" font-size="14" font-weight="400" fill="#22303A">Shared tri-state rail &#8212; INPUT_PULLUP for a defined idle; the CLKG-edge capture reads it settled.</text>
<rect x="70" y="1802" width="5" height="42" fill="#1565C0"/>
<rect x="70" y="1844" width="1760" height="42" fill="#ffffff"/>
<text x="84" y="1871" font-size="14" font-weight="700" fill="#22303A">39</text>
<text x="254" y="1871" font-size="14" font-weight="400" fill="#22303A">odd</text>
<text x="349" y="1871" font-size="14" font-weight="700" fill="#B8860B">CLKG</text>
<text x="544" y="1871" font-size="14" font-weight="400" fill="#22303A">control</text>
<text x="739" y="1871" font-size="14" font-weight="400" fill="#22303A">input, always</text>
<text x="919" y="1871" font-size="14" font-weight="400" fill="#22303A">Gated clock &#8212; capture strobe: firmware snapshots all 32 pins on its edge. Also an LED.</text>
<rect x="70" y="1844" width="5" height="42" fill="#B8860B"/>
<rect x="70" y="1886" width="1760" height="42" fill="#F4F7F8"/>
<text x="84" y="1913" font-size="14" font-weight="700" fill="#22303A">41</text>
<text x="254" y="1913" font-size="14" font-weight="400" fill="#22303A">odd</text>
<text x="349" y="1913" font-size="14" font-weight="700" fill="#B8860B">/RESET</text>
<text x="544" y="1913" font-size="14" font-weight="400" fill="#22303A">control</text>
<text x="739" y="1913" font-size="14" font-weight="400" fill="#22303A">input, always</text>
<text x="919" y="1913" font-size="14" font-weight="400" fill="#22303A">Reset line from the Clock Board (active low).</text>
<rect x="70" y="1886" width="5" height="42" fill="#B8860B"/>
<rect x="70" y="1928" width="1760" height="42" fill="#ffffff"/>
<text x="84" y="1955" font-size="14" font-weight="700" fill="#22303A">43</text>
<text x="254" y="1955" font-size="14" font-weight="400" fill="#22303A">odd</text>
<text x="349" y="1955" font-size="14" font-weight="700" fill="#B8860B">/FETCH</text>
<text x="544" y="1955" font-size="14" font-weight="400" fill="#22303A">control</text>
<text x="739" y="1955" font-size="14" font-weight="400" fill="#22303A">input, always</text>
<text x="919" y="1955" font-size="14" font-weight="400" fill="#22303A">Fetch vs execute phase (active low).</text>
<rect x="70" y="1928" width="5" height="42" fill="#B8860B"/>
<rect x="70" y="1970" width="1760" height="42" fill="#F4F7F8"/>
<text x="84" y="1997" font-size="14" font-weight="700" fill="#22303A">45</text>
<text x="254" y="1997" font-size="14" font-weight="400" fill="#22303A">odd</text>
<text x="349" y="1997" font-size="14" font-weight="700" fill="#B8860B">T0</text>
<text x="544" y="1997" font-size="14" font-weight="400" fill="#22303A">control</text>
<text x="739" y="1997" font-size="14" font-weight="400" fill="#22303A">input, always</text>
<text x="919" y="1997" font-size="14" font-weight="400" fill="#22303A">Sequencer phase bit 0.</text>
<rect x="70" y="1970" width="5" height="42" fill="#B8860B"/>
<rect x="70" y="2012" width="1760" height="42" fill="#ffffff"/>
<text x="84" y="2039" font-size="14" font-weight="700" fill="#22303A">47</text>
<text x="254" y="2039" font-size="14" font-weight="400" fill="#22303A">odd</text>
<text x="349" y="2039" font-size="14" font-weight="700" fill="#B8860B">T1</text>
<text x="544" y="2039" font-size="14" font-weight="400" fill="#22303A">control</text>
<text x="739" y="2039" font-size="14" font-weight="400" fill="#22303A">input, always</text>
<text x="919" y="2039" font-size="14" font-weight="400" fill="#22303A">Sequencer phase bit 1.</text>
<rect x="70" y="2012" width="5" height="42" fill="#B8860B"/>
<rect x="70" y="2054" width="1760" height="42" fill="#F4F7F8"/>
<text x="84" y="2081" font-size="14" font-weight="700" fill="#22303A">49</text>
<text x="254" y="2081" font-size="14" font-weight="400" fill="#22303A">odd</text>
<text x="349" y="2081" font-size="14" font-weight="700" fill="#B8860B">T2</text>
<text x="544" y="2081" font-size="14" font-weight="400" fill="#22303A">control</text>
<text x="739" y="2081" font-size="14" font-weight="400" fill="#22303A">input, always</text>
<text x="919" y="2081" font-size="14" font-weight="400" fill="#22303A">Sequencer phase bit 2.</text>
<rect x="70" y="2054" width="5" height="42" fill="#B8860B"/>
<rect x="70" y="2096" width="1760" height="42" fill="#ffffff"/>
<text x="84" y="2123" font-size="14" font-weight="700" fill="#22303A">51</text>
<text x="254" y="2123" font-size="14" font-weight="400" fill="#22303A">odd</text>
<text x="349" y="2123" font-size="14" font-weight="700" fill="#B8860B">HALT</text>
<text x="544" y="2123" font-size="14" font-weight="400" fill="#22303A">control</text>
<text x="739" y="2123" font-size="14" font-weight="400" fill="#22303A">input, always</text>
<text x="919" y="2123" font-size="14" font-weight="400" fill="#22303A">HALT flop &#8212; is the core stopped.</text>
<rect x="70" y="2096" width="5" height="42" fill="#B8860B"/>
<rect x="70" y="2138" width="1760" height="42" fill="#F4F7F8"/>
<text x="84" y="2165" font-size="14" font-weight="700" fill="#22303A">53</text>
<text x="254" y="2165" font-size="14" font-weight="400" fill="#22303A">odd</text>
<text x="349" y="2165" font-size="14" font-weight="700" fill="#B8860B">N</text>
<text x="544" y="2165" font-size="14" font-weight="400" fill="#22303A">control</text>
<text x="739" y="2165" font-size="14" font-weight="400" fill="#22303A">input, always</text>
<text x="919" y="2165" font-size="14" font-weight="400" fill="#22303A">Flag N &#8212; branch-decision bit for FLOW.</text>
<rect x="70" y="2138" width="5" height="42" fill="#B8860B"/>
<rect x="70" y="2180" width="1760" height="42" fill="#ffffff"/>
<text x="84" y="2207" font-size="14" font-weight="700" fill="#22303A">5 V  (both)</text>
<text x="254" y="2207" font-size="14" font-weight="400" fill="#22303A">both</text>
<text x="349" y="2207" font-size="14" font-weight="700" fill="#C62828">+5 V</text>
<text x="544" y="2207" font-size="14" font-weight="400" fill="#22303A">power</text>
<text x="739" y="2207" font-size="14" font-weight="400" fill="#22303A">&#8212;</text>
<text x="919" y="2207" font-size="14" font-weight="400" fill="#22303A">Powers the Mega; common 5 V rail with the CPU.</text>
<rect x="70" y="2180" width="5" height="42" fill="#C62828"/>
<rect x="70" y="2222" width="1760" height="42" fill="#F4F7F8"/>
<text x="84" y="2249" font-size="14" font-weight="700" fill="#22303A">GND  (both)</text>
<text x="254" y="2249" font-size="14" font-weight="400" fill="#22303A">both</text>
<text x="349" y="2249" font-size="14" font-weight="700" fill="#1A237E">GND</text>
<text x="544" y="2249" font-size="14" font-weight="400" fill="#22303A">ground</text>
<text x="739" y="2249" font-size="14" font-weight="400" fill="#22303A">&#8212;</text>
<text x="919" y="2249" font-size="14" font-weight="400" fill="#22303A">Mandatory common ground with the CPU / Clock Board.</text>
<rect x="70" y="2222" width="5" height="42" fill="#1A237E"/>
<rect x="70" y="1720" width="1760" height="544" fill="none" stroke="#CFD8DC" stroke-width="1.5"/>
<text x="70" y="2298" font-size="14" fill="#6b7a86">&#185;  No series resistors: every tap is INPUT only, so the pins draw only &#181;A (no drop) and all signals sit in-range 0&#8211;5 V (nothing to clamp). Fit series R only on a line that could ever be Mega-driven &#8212; none here are.</text>
<text x="70" y="2322" font-size="14" fill="#6b7a86">&#178;  A bus is &#8217;541-buffered and always driven &#8594; plain INPUT. The D bus is a shared tri-state rail (/RAM, /ALU, /A, /B enables); when idle it floats &#8212; INPUT_PULLUP gives a defined 0xFF, and the CLKG-edge capture reads D while it is settled.</text>
<text x="70" y="2346" font-size="14" fill="#6b7a86">&#179;  Common ground with the CPU / Clock Board is mandatory; power the Mega from the header 5 V/GND. The firmware captures all 32 pins on each CLKG edge (coherent per-cycle snapshot) plus a slow heartbeat, so the panel stays live when the clock is stopped.</text>
<text x="70" y="2370" font-size="14" fill="#6b7a86">&#8308;  Firmware reports the raw 32-bit word only &#8212; signal names live in the C# host config, so re-label the panel for another board without touching the wiring. Control set is a working pick; /TRST, /ALU, ALUFN0/1, BANKEN, AMODE, /PC &#8230; drop straight into 39&#8211;53.</text>
</svg>