<svg xmlns="http://www.w3.org/2000/svg" width="1180" height="1010" viewBox="0 0 1180 1010" font-family="Segoe UI, Arial, sans-serif">
<rect x="0" y="0" width="1180" height="1010" fill="#ffffff"/>
<text x="590" y="36" text-anchor="middle" font-size="22" font-weight="bold" fill="#111">LVC Harness Board — Teensy 4.1 + HCT245/LVC245 pairs, wiring map</text>
<text x="590" y="60" text-anchor="middle" font-size="13" fill="#444">Own form factor: one 8-pin header per data port, 16-way strobe header. Cells show port·bit, Teensy pin, ribbon colour.</text>
<text x="590" y="78" text-anchor="middle" font-size="13" fill="#444">Per data port: 74HCT245 (drive, 5 V) + 74LVC245 (read, 3.3 V), /OE-steered by DIR. DIR low at power-up = everything reads.</text>
<text x="215" y="118" text-anchor="middle" font-size="15" font-weight="bold" fill="#1d4ed8">J-A — Port A (8-pin)</text>
<rect x="90" y="130" width="250" height="40" fill="#dbeafe" stroke="#888"/>
<text x="102" y="156" font-size="14" font-weight="bold" fill="#111">PA0</text>
<text x="152" y="156" font-size="13" fill="#333">Teensy 0</text>
<rect x="258" y="142" width="22" height="15" fill="#ffffff" stroke="#555"/>
<text x="288" y="155" font-size="11" fill="#333">white</text>
<rect x="90" y="170" width="250" height="40" fill="#dbeafe" stroke="#888"/>
<text x="102" y="196" font-size="14" font-weight="bold" fill="#111">PA1</text>
<text x="152" y="196" font-size="13" fill="#333">Teensy 1</text>
<rect x="258" y="182" width="22" height="15" fill="#9e9e9e" stroke="#555"/>
<text x="288" y="195" font-size="11" fill="#333">grey</text>
<rect x="90" y="210" width="250" height="40" fill="#dbeafe" stroke="#888"/>
<text x="102" y="236" font-size="14" font-weight="bold" fill="#111">PA2</text>
<text x="152" y="236" font-size="13" fill="#333">Teensy 2</text>
<rect x="258" y="222" width="22" height="15" fill="#8e44ad" stroke="#555"/>
<text x="288" y="235" font-size="11" fill="#333">violet</text>
<rect x="90" y="250" width="250" height="40" fill="#dbeafe" stroke="#888"/>
<text x="102" y="276" font-size="14" font-weight="bold" fill="#111">PA3</text>
<text x="152" y="276" font-size="13" fill="#333">Teensy 3</text>
<rect x="258" y="262" width="22" height="15" fill="#2196f3" stroke="#555"/>
<text x="288" y="275" font-size="11" fill="#333">blue</text>
<rect x="90" y="290" width="250" height="40" fill="#dbeafe" stroke="#888"/>
<text x="102" y="316" font-size="14" font-weight="bold" fill="#111">PA4</text>
<text x="152" y="316" font-size="13" fill="#333">Teensy 4</text>
<rect x="258" y="302" width="22" height="15" fill="#4caf50" stroke="#555"/>
<text x="288" y="315" font-size="11" fill="#333">green</text>
<rect x="90" y="330" width="250" height="40" fill="#dbeafe" stroke="#888"/>
<text x="102" y="356" font-size="14" font-weight="bold" fill="#111">PA5</text>
<text x="152" y="356" font-size="13" fill="#333">Teensy 5</text>
<rect x="258" y="342" width="22" height="15" fill="#ffd600" stroke="#555"/>
<text x="288" y="355" font-size="11" fill="#333">yellow</text>
<rect x="90" y="370" width="250" height="40" fill="#dbeafe" stroke="#888"/>
<text x="102" y="396" font-size="14" font-weight="bold" fill="#111">PA6</text>
<text x="152" y="396" font-size="13" fill="#333">Teensy 6</text>
<rect x="258" y="382" width="22" height="15" fill="#ff9800" stroke="#555"/>
<text x="288" y="395" font-size="11" fill="#333">orange</text>
<rect x="90" y="410" width="250" height="40" fill="#dbeafe" stroke="#888"/>
<text x="102" y="436" font-size="14" font-weight="bold" fill="#111">PA7</text>
<text x="152" y="436" font-size="13" fill="#333">Teensy 7</text>
<rect x="258" y="422" width="22" height="15" fill="#f44336" stroke="#555"/>
<text x="288" y="435" font-size="11" fill="#333">red</text>
<text x="515" y="118" text-anchor="middle" font-size="15" font-weight="bold" fill="#15803d">J-B — Port B (8-pin)</text>
<rect x="390" y="130" width="250" height="40" fill="#dcfce7" stroke="#888"/>
<text x="402" y="156" font-size="14" font-weight="bold" fill="#111">PB0</text>
<text x="452" y="156" font-size="13" fill="#333">Teensy 8</text>
<rect x="558" y="142" width="22" height="15" fill="#ffffff" stroke="#555"/>
<text x="588" y="155" font-size="11" fill="#333">white</text>
<rect x="390" y="170" width="250" height="40" fill="#dcfce7" stroke="#888"/>
<text x="402" y="196" font-size="14" font-weight="bold" fill="#111">PB1</text>
<text x="452" y="196" font-size="13" fill="#333">Teensy 9</text>
<rect x="558" y="182" width="22" height="15" fill="#9e9e9e" stroke="#555"/>
<text x="588" y="195" font-size="11" fill="#333">grey</text>
<rect x="390" y="210" width="250" height="40" fill="#dcfce7" stroke="#888"/>
<text x="402" y="236" font-size="14" font-weight="bold" fill="#111">PB2</text>
<text x="452" y="236" font-size="13" fill="#333">Teensy 10</text>
<rect x="558" y="222" width="22" height="15" fill="#8e44ad" stroke="#555"/>
<text x="588" y="235" font-size="11" fill="#333">violet</text>
<rect x="390" y="250" width="250" height="40" fill="#dcfce7" stroke="#888"/>
<text x="402" y="276" font-size="14" font-weight="bold" fill="#111">PB3</text>
<text x="452" y="276" font-size="13" fill="#333">Teensy 11</text>
<rect x="558" y="262" width="22" height="15" fill="#2196f3" stroke="#555"/>
<text x="588" y="275" font-size="11" fill="#333">blue</text>
<rect x="390" y="290" width="250" height="40" fill="#dcfce7" stroke="#888"/>
<text x="402" y="316" font-size="14" font-weight="bold" fill="#111">PB4</text>
<text x="452" y="316" font-size="13" fill="#333">Teensy 12</text>
<rect x="558" y="302" width="22" height="15" fill="#4caf50" stroke="#555"/>
<text x="588" y="315" font-size="11" fill="#333">green</text>
<rect x="390" y="330" width="250" height="40" fill="#dcfce7" stroke="#888"/>
<text x="402" y="356" font-size="14" font-weight="bold" fill="#111">PB5</text>
<text x="452" y="356" font-size="13" fill="#333">Teensy 13 (LED)</text>
<rect x="558" y="342" width="22" height="15" fill="#ffd600" stroke="#555"/>
<text x="588" y="355" font-size="11" fill="#333">yellow</text>
<rect x="390" y="370" width="250" height="40" fill="#dcfce7" stroke="#888"/>
<text x="402" y="396" font-size="14" font-weight="bold" fill="#111">PB6</text>
<text x="452" y="396" font-size="13" fill="#333">Teensy 14</text>
<rect x="558" y="382" width="22" height="15" fill="#ff9800" stroke="#555"/>
<text x="588" y="395" font-size="11" fill="#333">orange</text>
<rect x="390" y="410" width="250" height="40" fill="#dcfce7" stroke="#888"/>
<text x="402" y="436" font-size="14" font-weight="bold" fill="#111">PB7</text>
<text x="452" y="436" font-size="13" fill="#333">Teensy 15</text>
<rect x="558" y="422" width="22" height="15" fill="#f44336" stroke="#555"/>
<text x="588" y="435" font-size="11" fill="#333">red</text>
<text x="215" y="548" text-anchor="middle" font-size="15" font-weight="bold" fill="#a16207">J-C — Port C (8-pin)</text>
<rect x="90" y="560" width="250" height="40" fill="#fef9c3" stroke="#888"/>
<text x="102" y="586" font-size="14" font-weight="bold" fill="#111">PC0</text>
<text x="152" y="586" font-size="13" fill="#333">Teensy 16</text>
<rect x="258" y="572" width="22" height="15" fill="#ffffff" stroke="#555"/>
<text x="288" y="585" font-size="11" fill="#333">white</text>
<rect x="90" y="600" width="250" height="40" fill="#fef9c3" stroke="#888"/>
<text x="102" y="626" font-size="14" font-weight="bold" fill="#111">PC1</text>
<text x="152" y="626" font-size="13" fill="#333">Teensy 17</text>
<rect x="258" y="612" width="22" height="15" fill="#9e9e9e" stroke="#555"/>
<text x="288" y="625" font-size="11" fill="#333">grey</text>
<rect x="90" y="640" width="250" height="40" fill="#fef9c3" stroke="#888"/>
<text x="102" y="666" font-size="14" font-weight="bold" fill="#111">PC2</text>
<text x="152" y="666" font-size="13" fill="#333">Teensy 18</text>
<rect x="258" y="652" width="22" height="15" fill="#8e44ad" stroke="#555"/>
<text x="288" y="665" font-size="11" fill="#333">violet</text>
<rect x="90" y="680" width="250" height="40" fill="#fef9c3" stroke="#888"/>
<text x="102" y="706" font-size="14" font-weight="bold" fill="#111">PC3</text>
<text x="152" y="706" font-size="13" fill="#333">Teensy 19</text>
<rect x="258" y="692" width="22" height="15" fill="#2196f3" stroke="#555"/>
<text x="288" y="705" font-size="11" fill="#333">blue</text>
<rect x="90" y="720" width="250" height="40" fill="#fef9c3" stroke="#888"/>
<text x="102" y="746" font-size="14" font-weight="bold" fill="#111">PC4</text>
<text x="152" y="746" font-size="13" fill="#333">Teensy 20</text>
<rect x="258" y="732" width="22" height="15" fill="#4caf50" stroke="#555"/>
<text x="288" y="745" font-size="11" fill="#333">green</text>
<rect x="90" y="760" width="250" height="40" fill="#fef9c3" stroke="#888"/>
<text x="102" y="786" font-size="14" font-weight="bold" fill="#111">PC5</text>
<text x="152" y="786" font-size="13" fill="#333">Teensy 21</text>
<rect x="258" y="772" width="22" height="15" fill="#ffd600" stroke="#555"/>
<text x="288" y="785" font-size="11" fill="#333">yellow</text>
<rect x="90" y="800" width="250" height="40" fill="#fef9c3" stroke="#888"/>
<text x="102" y="826" font-size="14" font-weight="bold" fill="#111">PC6</text>
<text x="152" y="826" font-size="13" fill="#333">Teensy 22</text>
<rect x="258" y="812" width="22" height="15" fill="#ff9800" stroke="#555"/>
<text x="288" y="825" font-size="11" fill="#333">orange</text>
<rect x="90" y="840" width="250" height="40" fill="#fef9c3" stroke="#888"/>
<text x="102" y="866" font-size="14" font-weight="bold" fill="#111">PC7</text>
<text x="152" y="866" font-size="13" fill="#333">Teensy 23</text>
<rect x="258" y="852" width="22" height="15" fill="#f44336" stroke="#555"/>
<text x="288" y="865" font-size="11" fill="#333">red</text>
<text x="515" y="548" text-anchor="middle" font-size="15" font-weight="bold" fill="#b91c1c">J-D — Port D (8-pin)</text>
<rect x="390" y="560" width="250" height="40" fill="#fee2e2" stroke="#888"/>
<text x="402" y="586" font-size="14" font-weight="bold" fill="#111">PD0</text>
<text x="452" y="586" font-size="13" fill="#333">Teensy 24</text>
<rect x="558" y="572" width="22" height="15" fill="#ffffff" stroke="#555"/>
<text x="588" y="585" font-size="11" fill="#333">white</text>
<rect x="390" y="600" width="250" height="40" fill="#fee2e2" stroke="#888"/>
<text x="402" y="626" font-size="14" font-weight="bold" fill="#111">PD1</text>
<text x="452" y="626" font-size="13" fill="#333">Teensy 25</text>
<rect x="558" y="612" width="22" height="15" fill="#9e9e9e" stroke="#555"/>
<text x="588" y="625" font-size="11" fill="#333">grey</text>
<rect x="390" y="640" width="250" height="40" fill="#fee2e2" stroke="#888"/>
<text x="402" y="666" font-size="14" font-weight="bold" fill="#111">PD2</text>
<text x="452" y="666" font-size="13" fill="#333">Teensy 26</text>
<rect x="558" y="652" width="22" height="15" fill="#8e44ad" stroke="#555"/>
<text x="588" y="665" font-size="11" fill="#333">violet</text>
<rect x="390" y="680" width="250" height="40" fill="#fee2e2" stroke="#888"/>
<text x="402" y="706" font-size="14" font-weight="bold" fill="#111">PD3</text>
<text x="452" y="706" font-size="13" fill="#333">Teensy 27</text>
<rect x="558" y="692" width="22" height="15" fill="#2196f3" stroke="#555"/>
<text x="588" y="705" font-size="11" fill="#333">blue</text>
<rect x="390" y="720" width="250" height="40" fill="#fee2e2" stroke="#888"/>
<text x="402" y="746" font-size="14" font-weight="bold" fill="#111">PD4</text>
<text x="452" y="746" font-size="13" fill="#333">Teensy 28</text>
<rect x="558" y="732" width="22" height="15" fill="#4caf50" stroke="#555"/>
<text x="588" y="745" font-size="11" fill="#333">green</text>
<rect x="390" y="760" width="250" height="40" fill="#fee2e2" stroke="#888"/>
<text x="402" y="786" font-size="14" font-weight="bold" fill="#111">PD5</text>
<text x="452" y="786" font-size="13" fill="#333">Teensy 29</text>
<rect x="558" y="772" width="22" height="15" fill="#ffd600" stroke="#555"/>
<text x="588" y="785" font-size="11" fill="#333">yellow</text>
<rect x="390" y="800" width="250" height="40" fill="#fee2e2" stroke="#888"/>
<text x="402" y="826" font-size="14" font-weight="bold" fill="#111">PD6</text>
<text x="452" y="826" font-size="13" fill="#333">Teensy 30</text>
<rect x="558" y="812" width="22" height="15" fill="#ff9800" stroke="#555"/>
<text x="588" y="825" font-size="11" fill="#333">orange</text>
<rect x="390" y="840" width="250" height="40" fill="#fee2e2" stroke="#888"/>
<text x="402" y="866" font-size="14" font-weight="bold" fill="#111">PD7</text>
<text x="452" y="866" font-size="13" fill="#333">Teensy 31</text>
<rect x="558" y="852" width="22" height="15" fill="#f44336" stroke="#555"/>
<text x="588" y="865" font-size="11" fill="#333">red</text>
<text x="910" y="118" text-anchor="middle" font-size="15" font-weight="bold" fill="#6d28d9">J-E — Port E strobes (16-way)</text>
<rect x="760" y="130" width="300" height="40" fill="#ede9fe" stroke="#888"/>
<text x="772" y="156" font-size="14" font-weight="bold" fill="#111">PE0 (CLK, LED)</text>
<text x="880" y="156" font-size="13" fill="#333">Teensy 32</text>
<rect x="972" y="142" width="22" height="15" fill="#ffffff" stroke="#555"/>
<text x="1002" y="155" font-size="11" fill="#333">white</text>
<rect x="760" y="170" width="300" height="40" fill="#e5e7eb" stroke="#888"/>
<text x="910" y="196" text-anchor="middle" font-size="13" font-weight="bold" fill="#374151">GND</text>
<rect x="760" y="210" width="300" height="40" fill="#ede9fe" stroke="#888"/>
<text x="772" y="236" font-size="14" font-weight="bold" fill="#111">PE1</text>
<text x="880" y="236" font-size="13" fill="#333">Teensy 33</text>
<rect x="972" y="222" width="22" height="15" fill="#9e9e9e" stroke="#555"/>
<text x="1002" y="235" font-size="11" fill="#333">grey</text>
<rect x="760" y="250" width="300" height="40" fill="#e5e7eb" stroke="#888"/>
<text x="910" y="276" text-anchor="middle" font-size="13" font-weight="bold" fill="#374151">GND</text>
<rect x="760" y="290" width="300" height="40" fill="#ede9fe" stroke="#888"/>
<text x="772" y="316" font-size="14" font-weight="bold" fill="#111">PE2</text>
<text x="880" y="316" font-size="13" fill="#333">Teensy 34</text>
<rect x="972" y="302" width="22" height="15" fill="#8e44ad" stroke="#555"/>
<text x="1002" y="315" font-size="11" fill="#333">violet</text>
<rect x="760" y="330" width="300" height="40" fill="#e5e7eb" stroke="#888"/>
<text x="910" y="356" text-anchor="middle" font-size="13" font-weight="bold" fill="#374151">GND</text>
<rect x="760" y="370" width="300" height="40" fill="#ede9fe" stroke="#888"/>
<text x="772" y="396" font-size="14" font-weight="bold" fill="#111">PE3</text>
<text x="880" y="396" font-size="13" fill="#333">Teensy 35</text>
<rect x="972" y="382" width="22" height="15" fill="#2196f3" stroke="#555"/>
<text x="1002" y="395" font-size="11" fill="#333">blue</text>
<rect x="760" y="410" width="300" height="40" fill="#e5e7eb" stroke="#888"/>
<text x="910" y="436" text-anchor="middle" font-size="13" font-weight="bold" fill="#374151">GND</text>
<rect x="760" y="450" width="300" height="40" fill="#ede9fe" stroke="#888"/>
<text x="772" y="476" font-size="14" font-weight="bold" fill="#111">PE4</text>
<text x="880" y="476" font-size="13" fill="#333">Teensy 36</text>
<rect x="972" y="462" width="22" height="15" fill="#4caf50" stroke="#555"/>
<text x="1002" y="475" font-size="11" fill="#333">green</text>
<rect x="760" y="490" width="300" height="40" fill="#e5e7eb" stroke="#888"/>
<text x="910" y="516" text-anchor="middle" font-size="13" font-weight="bold" fill="#374151">GND</text>
<rect x="760" y="530" width="300" height="40" fill="#ede9fe" stroke="#888"/>
<text x="772" y="556" font-size="14" font-weight="bold" fill="#111">PE5</text>
<text x="880" y="556" font-size="13" fill="#333">Teensy 37</text>
<rect x="972" y="542" width="22" height="15" fill="#ffd600" stroke="#555"/>
<text x="1002" y="555" font-size="11" fill="#333">yellow</text>
<rect x="760" y="570" width="300" height="40" fill="#e5e7eb" stroke="#888"/>
<text x="910" y="596" text-anchor="middle" font-size="13" font-weight="bold" fill="#374151">GND</text>
<rect x="760" y="610" width="300" height="40" fill="#ede9fe" stroke="#888"/>
<text x="772" y="636" font-size="14" font-weight="bold" fill="#111">PE6</text>
<text x="880" y="636" font-size="13" fill="#333">Teensy 38</text>
<rect x="972" y="622" width="22" height="15" fill="#ff9800" stroke="#555"/>
<text x="1002" y="635" font-size="11" fill="#333">orange</text>
<rect x="760" y="650" width="300" height="40" fill="#e5e7eb" stroke="#888"/>
<text x="910" y="676" text-anchor="middle" font-size="13" font-weight="bold" fill="#374151">GND</text>
<rect x="760" y="690" width="300" height="40" fill="#ede9fe" stroke="#888"/>
<text x="772" y="716" font-size="14" font-weight="bold" fill="#111">PE7</text>
<text x="880" y="716" font-size="13" fill="#333">Teensy 39</text>
<rect x="972" y="702" width="22" height="15" fill="#f44336" stroke="#555"/>
<text x="1002" y="715" font-size="11" fill="#333">red</text>
<rect x="760" y="730" width="300" height="40" fill="#e5e7eb" stroke="#888"/>
<text x="910" y="756" text-anchor="middle" font-size="13" font-weight="bold" fill="#374151">GND</text>
<text x="910" y="800" text-anchor="middle" font-size="14" font-weight="bold" fill="#111">Power headers (x2)</text>
<rect x="760" y="810" width="300" height="40" fill="#f3f4f6" stroke="#888"/>
<text x="910" y="836" text-anchor="middle" font-size="13" font-weight="bold" fill="#111">+5V</text>
<rect x="760" y="850" width="300" height="40" fill="#f3f4f6" stroke="#888"/>
<text x="910" y="876" text-anchor="middle" font-size="13" font-weight="bold" fill="#111">+5V (jumpered)</text>
<rect x="760" y="890" width="300" height="40" fill="#f3f4f6" stroke="#888"/>
<text x="910" y="916" text-anchor="middle" font-size="13" font-weight="bold" fill="#111">GND</text>
<rect x="760" y="930" width="300" height="40" fill="#f3f4f6" stroke="#888"/>
<text x="910" y="956" text-anchor="middle" font-size="13" font-weight="bold" fill="#111">GND</text>
<rect x="60" y="890" width="1060" height="104" fill="#f8fafc" stroke="#94a3b8" rx="8"/>
<text x="80" y="914" font-size="13" font-weight="bold" fill="#111">Off-connector: buttons SW1=Teensy 40, SW2=41, SW3=pad 46, SW4=pad 47 (to GND, internal pull-ups).</text>
<text x="80" y="936" font-size="13" fill="#333">Direction: DIR_A=pad 42 .. DIR_D=pad 45, 10 k pulldowns; DIR high = AHCT drives DUT, low = LVC reads. Shared 'HCT04 inverts DIR for AHCT /OE.</text>
<text x="80" y="956" font-size="13" fill="#333">Per port DUT side: 47-100 ohm series pack (all five ports) + jumperable 10 k SIP pulls on A-D for tri-state DUT buses.</text>
<text x="80" y="976" font-size="13" fill="#333">Chips: 5x HCT245 (drive A-E), 4x LVC245 at 3.3 V (read A-D, 5 V-tolerant), 1x HCT04. 100 nF per chip; /OE and DIR wired by signal name.</text>
</svg>
